<?xml version="1.0" encoding="UTF-8" standalone="no"?>
<svg xmlns:dc="http://purl.org/dc/elements/1.1/" xmlns:cc="http://creativecommons.org/ns#" xmlns:rdf="http://www.w3.org/1999/02/22-rdf-syntax-ns#" xmlns:svg="http://www.w3.org/2000/svg" xmlns="http://www.w3.org/2000/svg" xmlns:sodipodi="http://sodipodi.sourceforge.net/DTD/sodipodi-0.dtd" xmlns:inkscape="http://www.inkscape.org/namespaces/inkscape" width="556" height="1081" viewBox="0 0 450 875" version="1.1" id="svg3857" inkscape:version="0.92.4 (5da689c313, 2019-01-14)" sodipodi:docname="KY-053.svg" inkscape:export-filename="C:\Users\Entwicklung5.SIMACGMBH\Desktop\SEN-KIT02\Abbildungen Fertig\KY-053\KY-053.png" inkscape:export-xdpi="93" inkscape:export-ydpi="93">
  <defs id="defs3851"/>
  <sodipodi:namedview id="base" pagecolor="#323232" bordercolor="#666666" borderopacity="1.0" inkscape:pageopacity="0" inkscape:pageshadow="2" inkscape:zoom="0.18345083" inkscape:cx="-139.45542" inkscape:cy="1918.1188" inkscape:document-units="mm" inkscape:current-layer="layer1" showgrid="false" inkscape:window-width="1920" inkscape:window-height="1017" inkscape:window-x="-8" inkscape:window-y="-8" inkscape:window-maximized="1"/>
  <metadata id="metadata3854">
    <rdf:RDF>
      <cc:Work rdf:about="">
        <dc:format>image/svg+xml</dc:format>
        <dc:type rdf:resource="http://purl.org/dc/dcmitype/StillImage"/>
        <dc:title/>
      </cc:Work>
    </rdf:RDF>
  </metadata>
  <g inkscape:label="Ebene 1" inkscape:groupmode="layer" id="layer1" transform="translate(0,578)">
    <rect style="opacity:1;fill:#000000;stroke-width:1.6304661" id="rect18" width="449.99997" height="875" x="1.1605802e-05" y="-577.99988"/>
    <flowRoot xml:space="preserve" id="flowRoot3984" style="font-style:normal;font-weight:normal;font-size:40px;line-height:1.25;font-family:sans-serif;letter-spacing:0px;word-spacing:0px;fill:#ffffff;fill-opacity:1;stroke:none" transform="scale(0.26458333)"><flowRegion id="flowRegion3986" style="fill:#ffffff"><rect id="rect3988" width="76.771591" height="456.58896" x="153.54318" y="395.20984" style="fill:#ffffff"/></flowRegion><flowPara id="flowPara3990">VDDV</flowPara></flowRoot>    <circle style="opacity:1;fill:#cccccc;fill-opacity:1;stroke:#b5a642;stroke-width:0;stroke-linejoin:round;stroke-miterlimit:4;stroke-dasharray:none;stroke-opacity:1;paint-order:normal" id="path61" cx="45" cy="242" r="40"/>
    <circle r="40" cy="157" cx="45" id="circle63" style="opacity:1;fill:#cccccc;fill-opacity:1;stroke:#b5a642;stroke-width:0;stroke-linejoin:round;stroke-miterlimit:4;stroke-dasharray:none;stroke-opacity:1;paint-order:normal"/>
    <circle style="opacity:1;fill:#cccccc;fill-opacity:1;stroke:#b5a642;stroke-width:0;stroke-linejoin:round;stroke-miterlimit:4;stroke-dasharray:none;stroke-opacity:1;paint-order:normal" id="circle65" cx="45" cy="72" r="40"/>
    <circle r="40" cy="-13.000001" cx="45" id="circle67" style="opacity:1;fill:#cccccc;fill-opacity:1;stroke:#b5a642;stroke-width:0;stroke-linejoin:round;stroke-miterlimit:4;stroke-dasharray:none;stroke-opacity:1;paint-order:normal"/>
    <circle style="opacity:1;fill:#cccccc;fill-opacity:1;stroke:#b5a642;stroke-width:0;stroke-linejoin:round;stroke-miterlimit:4;stroke-dasharray:none;stroke-opacity:1;paint-order:normal" id="circle69" cx="45" cy="-98" r="40"/>
    <circle r="40" cy="-183" cx="45" id="circle71" style="opacity:1;fill:#cccccc;fill-opacity:1;stroke:#b5a642;stroke-width:0;stroke-linejoin:round;stroke-miterlimit:4;stroke-dasharray:none;stroke-opacity:1;paint-order:normal"/>
    <circle style="opacity:1;fill:#cccccc;fill-opacity:1;stroke:#b5a642;stroke-width:0;stroke-linejoin:round;stroke-miterlimit:4;stroke-dasharray:none;stroke-opacity:1;paint-order:normal" id="circle73" cx="45" cy="-268" r="40"/>
    <circle r="40" cy="-353" cx="45" id="circle75" style="opacity:1;fill:#cccccc;fill-opacity:1;stroke:#b5a642;stroke-width:0;stroke-linejoin:round;stroke-miterlimit:4;stroke-dasharray:none;stroke-opacity:1;paint-order:normal"/>
    <circle style="opacity:1;fill:#cccccc;fill-opacity:1;stroke:#b5a642;stroke-width:0;stroke-linejoin:round;stroke-miterlimit:4;stroke-dasharray:none;stroke-opacity:1;paint-order:normal" id="circle77" cx="45" cy="-438" r="40"/>
    <circle r="40" cy="-523" cx="45" id="circle79" style="opacity:1;fill:#cccccc;fill-opacity:1;stroke:#b5a642;stroke-width:0;stroke-linejoin:round;stroke-miterlimit:4;stroke-dasharray:none;stroke-opacity:1;paint-order:normal"/>
    <path style="fill:#ffffff;stroke-width:0.16924131" d="m 206.68097,-426.98793 c 2.72896,-0.06 3.02734,-0.0982 3.53637,-0.45765 0.30581,-0.2159 0.69891,-0.6619 0.87374,-0.99112 0.30024,-0.56573 0.32018,-0.97007 0.36472,-7.39892 l 0.0473,-6.80057 5.83008,0.0389 5.83007,0.038 v 8.47538 c 0,9.34447 -0.0642,10.22447 -0.9121,12.67847 -1.11111,3.21501 -2.73252,4.70697 -6.07707,5.59169 -0.89766,0.23745 -1.92308,0.28866 -5.32113,0.26567 -2.31499,-0.0152 -4.85239,-0.0947 -5.63859,-0.17601 l -1.42959,-0.14762 -0.0422,-5.52562 -0.0422,-5.52562 2.98044,-0.0651 z m 55.51474,18.9815 c 49.74863,0.0178 61.98651,0.0857 59.92079,0.33319 l -0.31772,0.038 0.31764,0.15497 c 0.26592,0.12963 0.22705,0.16216 -0.23821,0.19875 -0.36809,0.0288 -0.20695,0.0837 0.4765,0.1619 l 1.03244,0.11814 -1.03244,0.0524 c -0.56785,0.0288 -0.90737,0.0891 -0.75443,0.13452 0.23678,0.0701 0.27784,0.3059 0.27784,1.59006 -8e-5,1.50615 0,1.50767 0.43671,1.58271 0.30674,0.0532 0.23576,0.0828 -0.23821,0.10224 -0.3713,0.0152 -0.67508,0.10808 -0.67508,0.20728 0,0.11983 -19.72215,0.17923 -58.84864,0.17729 h -58.84874 v -2.43448 -2.4344 z m -44.82948,-52.13502 h 5.87697 l -1.7e-4,5.50001 -1.7e-4,5.50001 h -5.87705 -5.87689 l 2.5e-4,-5.50001 1.6e-4,-5.50001 z m 11.85111,20.28755 c 0.41812,-3.09351 1.1619,-5.84293 2.24386,-8.29498 0.39394,-0.89267 0.76321,-1.66349 0.82068,-1.71318 0.0574,-0.0499 0.35228,-0.53557 0.65522,-1.08001 0.61179,-1.09961 2.00724,-3.07812 2.32885,-3.30171 0.11416,-0.0794 0.20736,-0.21801 0.20736,-0.30835 9e-5,-0.23905 1.46974,-1.76218 2.61811,-2.71315 1.20997,-1.00202 2.19525,-1.56446 4.3709,-2.49524 2.53901,-1.08627 4.02809,-1.34407 7.06827,-1.224 2.20463,0.0871 2.75186,0.17187 4.12975,0.63976 0.87357,0.29668 1.93372,0.70761 2.35589,0.91329 0.42225,0.20567 0.84306,0.374 0.93525,0.374 0.0921,0 0.74539,0.38549 1.45182,0.85667 2.81507,1.87778 6.65328,6.88981 8.13324,10.62078 2.31854,5.8447 2.61032,11.71457 0.8521,17.13625 -0.73955,2.28035 -1.27343,3.57803 -2.13374,5.1871 -0.99415,1.85886 -1.07451,1.96728 -3.48888,4.70156 -2.76868,3.13559 -4.75505,4.46521 -8.36586,5.59998 -1.84027,0.57832 -5.4565,0.79676 -7.40662,0.44735 -2.53579,-0.45436 -5.91246,-2.09267 -7.9971,-3.88012 -1.0768,-0.92343 -2.52439,-2.37727 -2.52439,-2.53554 0,-0.0482 -0.36335,-0.51284 -0.80741,-1.03321 -2.11262,-2.47587 -4.2887,-7.32041 -5.08242,-11.31529 -0.29617,-1.49052 -0.5163,-5.46139 -0.36488,-6.58196 z m 11.23943,5.70289 c 0.57004,2.55033 1.69941,4.72996 3.44621,6.65126 1.76667,1.9431 4.5787,2.66736 6.99923,1.80275 2.66619,-0.95233 5.30516,-4.5345 6.17712,-8.38497 0.49992,-2.20709 0.46366,-5.42776 -0.0849,-7.56708 -0.77919,-3.03807 -2.16906,-5.41323 -4.0994,-7.00498 -0.88406,-0.72907 -1.29161,-0.93796 -2.22366,-1.13983 -1.99701,-0.43248 -4.03974,-0.19715 -5.46772,0.62987 -1.25518,0.72688 -2.84812,2.78347 -3.76242,4.85738 -1.38033,3.13128 -1.7354,6.79516 -0.98444,10.1556 z m 33.02686,-25.90881 c 0.10529,-0.0456 2.75618,-0.0617 5.89083,-0.0355 l 5.69927,0.0473 0.0178,6.04099 c 0.0161,5.70712 0.0372,6.09946 0.35946,7.0975 0.82989,2.56572 3.52387,3.9719 5.88686,3.07264 1.21428,-0.46205 2.03377,-1.27344 2.62173,-2.59579 l 0.52095,-1.17212 0.0473,-6.26643 0.0473,-6.26644 h 5.88204 5.88212 l -0.0642,7.07781 c -0.06,6.5867 -0.0885,7.17804 -0.41101,8.52051 -0.65658,2.73049 -1.70515,5.11739 -3.06385,6.9749 -0.33952,0.46407 -0.61736,0.92249 -0.61736,1.01874 0,0.23517 -1.48705,1.76438 -2.80603,2.8858 -1.11778,0.95022 -2.70767,1.91285 -3.48812,2.11194 -0.25114,0.0642 -1.06404,0.33175 -1.80655,0.59497 -1.25104,0.44346 -1.56023,0.47861 -4.20926,0.47845 -2.66103,-8e-5 -2.96904,-0.0354 -4.44738,-0.51183 -2.34009,-0.75383 -3.10499,-1.13037 -4.66176,-2.29488 -1.76464,-1.31991 -3.24958,-3.01382 -4.48482,-5.11587 -1.74385,-2.96743 -2.47369,-5.17054 -2.84186,-8.5783 -0.24032,-2.22374 -0.20263,-12.97702 0.0456,-13.08518 z m 16.38993,33.28289 h 9.60956 v 5.68026 5.68042 h -9.60956 -9.60955 v -5.68034 -5.68034 z m 16.44123,-42.01575 c 0.0872,0 0.15878,-0.3135 0.15878,-0.6968 8e-5,-0.69215 0.0101,-0.69756 0.73701,-0.81138 0.40527,-0.0634 16.68408,-0.11391 36.17478,-0.11306 h 35.43809 l -0.0482,2.43473 -0.0482,2.43474 h -36.03423 c -19.81883,0 -36.14724,-0.0515 -36.28531,-0.11147 -0.20154,-0.0876 -0.25131,-0.40915 -0.25123,-1.62292 0,-0.88878 0.0659,-1.5135 0.15887,-1.5135 z m 16.20013,27.23042 h 12.23037 v 5.59025 5.59018 h -12.23037 -12.23035 v -5.59009 -5.59018 z m 21.92012,-18.5726 h 5.87686 v 5.50001 5.50001 h -5.87678 -5.87705 v -5.5001 -5.50001 z m 0,16.77043 h 5.87686 v 14.24597 14.24589 h -5.87686 -5.87697 v -14.24589 -14.24597 z m 23.42886,-16.76933 h 12.30979 v 5.50009 5.49993 H 367.8639 355.55419 v -5.50001 -5.50001 z m -10.26504,17.59525 c 0.0769,-0.0541 2.67996,-0.0951 5.78537,-0.0917 l 5.64612,0.008 0.0515,6.52815 c 0.0718,9.15553 -0.25477,8.65588 5.72977,8.75406 l 3.77238,0.0617 v 5.73028 5.73028 l -1.4006,0.2039 c -2.11447,0.30767 -8.8395,0.26136 -10.65771,-0.0735 -3.12587,-0.57579 -5.15508,-1.68394 -6.51216,-3.5564 -1.40847,-1.94345 -2.07739,-3.92389 -2.39046,-7.07714 -0.19723,-1.98604 -0.21801,-16.07973 -0.0237,-16.21587 z m 29.48408,-22.97079 c 0.2965,-1.19679 0.88167,-2.34516 1.52802,-2.99895 2.66213,-2.6928 5.87097,-2.97732 8.5037,-0.75409 1.23515,1.043 1.54248,1.44802 2.07078,2.72905 0.4008,0.9721 0.44565,1.27326 0.44305,2.97504 -9e-5,1.70143 -0.049,2.0085 -0.46163,3.02792 -0.89218,2.20667 -3.14193,3.94207 -5.35011,4.12679 -2.05761,0.17213 -3.62806,-0.52399 -5.25014,-2.32708 -1.44726,-1.60865 -2.06522,-4.43192 -1.48367,-6.77868 z m 1.15672,4.65542 c 0.53609,1.45486 2.19814,2.88512 3.91055,3.365 1.71402,0.4803 3.0151,0.0777 4.96748,-1.53674 0.46773,-0.38667 0.8178,-0.91016 1.18682,-1.77426 0.46553,-1.0905 0.52374,-1.39664 0.5279,-2.77654 7e-5,-1.42199 -0.0422,-1.65395 -0.55113,-2.7882 -0.45048,-1.00252 -0.73661,-1.3827 -1.50886,-2.00429 -0.52415,-0.42191 -1.31036,-0.90593 -1.74722,-1.0757 -2.68064,-1.04164 -5.90283,0.63469 -6.98039,3.63161 -0.40916,1.13823 -0.31324,3.58006 0.19485,4.95912 z m 4.3529,-7.03269 c 1.19553,-1.8e-4 2.35701,0.0794 2.58102,0.17601 0.96036,0.41457 1.3941,2.51442 0.72028,3.48694 -0.17745,0.25596 -0.56709,0.56582 -0.86579,0.68843 l -0.54334,0.223 0.54512,0.68522 c 0.29989,0.37679 0.76769,1.13291 1.03969,1.68014 0.27202,0.54723 0.55923,1.04038 0.63833,1.09581 0.34079,0.23913 0.094,0.43949 -0.53151,0.4307 l -0.67508,-0.0101 -0.95284,-1.71876 c -1.01875,-1.83747 -1.26625,-2.0494 -2.39282,-2.0494 l -0.70441,9e-5 -7e-5,1.90491 -9e-5,1.90482 -0.47895,-0.0566 -0.47921,-0.0566 -0.0372,-4.1926 -0.0372,-4.19287 z m 0.26677,3.60667 c 1.18404,-1.7e-4 1.47473,-0.0592 1.82668,-0.37366 0.87263,-0.77936 0.37721,-2.03555 -0.88041,-2.23218 -0.52662,-0.082 -2.02315,-0.0389 -2.31458,0.0667 -0.0211,0.008 -0.0405,0.58247 -0.0405,1.27673 l -8e-5,1.26228 z" id="path31-1" inkscape:connector-curvature="0"/>
    <circle style="opacity:1;fill:#cccccc;fill-opacity:1;stroke:#b5a642;stroke-width:0;stroke-linejoin:round;stroke-miterlimit:4;stroke-dasharray:none;stroke-opacity:1;paint-order:normal" id="path183" cx="395" cy="-523" r="50"/>
    <circle style="opacity:1;fill:#ffffff;fill-opacity:1;stroke:#b5a642;stroke-width:0;stroke-linejoin:round;stroke-miterlimit:4;stroke-dasharray:none;stroke-opacity:1;paint-order:normal" id="path185" cx="395" cy="-523" r="45"/>
    <circle r="50" cy="242" cx="395" id="circle187" style="opacity:1;fill:#cccccc;fill-opacity:1;stroke:#b5a642;stroke-width:0;stroke-linejoin:round;stroke-miterlimit:4;stroke-dasharray:none;stroke-opacity:1;paint-order:normal"/>
    <circle r="45" cy="242" cx="395" id="circle189" style="opacity:1;fill:#ffffff;fill-opacity:1;stroke:#b5a642;stroke-width:0;stroke-linejoin:round;stroke-miterlimit:4;stroke-dasharray:none;stroke-opacity:1;paint-order:normal"/>
    <rect style="opacity:1;fill:#cccccc;fill-opacity:1;stroke:#b5a642;stroke-width:0;stroke-linejoin:round;stroke-miterlimit:4;stroke-dasharray:none;stroke-opacity:1;paint-order:normal" id="rect203" width="20" height="14.999999" x="210" y="205.04135"/>
    <rect y="205.04135" x="235" height="14.999999" width="20" id="rect205" style="opacity:1;fill:#cccccc;fill-opacity:1;stroke:#b5a642;stroke-width:0;stroke-linejoin:round;stroke-miterlimit:4;stroke-dasharray:none;stroke-opacity:1;paint-order:normal"/>
    <rect style="opacity:1;fill:#cccccc;fill-opacity:1;stroke:#b5a642;stroke-width:0;stroke-linejoin:round;stroke-miterlimit:4;stroke-dasharray:none;stroke-opacity:1;paint-order:normal" id="rect207" width="20" height="14.999999" x="260" y="205.04135"/>
    <rect y="205.04135" x="285" height="14.999999" width="20" id="rect209" style="opacity:1;fill:#cccccc;fill-opacity:1;stroke:#b5a642;stroke-width:0;stroke-linejoin:round;stroke-miterlimit:4;stroke-dasharray:none;stroke-opacity:1;paint-order:normal"/>
    <rect style="opacity:1;fill:#cccccc;fill-opacity:1;stroke:#b5a642;stroke-width:0;stroke-linejoin:round;stroke-miterlimit:4;stroke-dasharray:none;stroke-opacity:1;paint-order:normal" id="rect211" width="20" height="14.999999" x="310" y="205.2153"/>
    <rect y="50.041359" x="210" height="14.999999" width="20" id="rect213" style="opacity:1;fill:#cccccc;fill-opacity:1;stroke:#b5a642;stroke-width:0;stroke-linejoin:round;stroke-miterlimit:4;stroke-dasharray:none;stroke-opacity:1;paint-order:normal"/>
    <rect style="opacity:1;fill:#cccccc;fill-opacity:1;stroke:#b5a642;stroke-width:0;stroke-linejoin:round;stroke-miterlimit:4;stroke-dasharray:none;stroke-opacity:1;paint-order:normal" id="rect215" width="20" height="14.999999" x="235" y="50.041359"/>
    <rect y="50.041359" x="260" height="14.999999" width="20" id="rect217" style="opacity:1;fill:#cccccc;fill-opacity:1;stroke:#b5a642;stroke-width:0;stroke-linejoin:round;stroke-miterlimit:4;stroke-dasharray:none;stroke-opacity:1;paint-order:normal"/>
    <rect style="opacity:1;fill:#cccccc;fill-opacity:1;stroke:#b5a642;stroke-width:0;stroke-linejoin:round;stroke-miterlimit:4;stroke-dasharray:none;stroke-opacity:1;paint-order:normal" id="rect219" width="20" height="14.999999" x="285" y="50.041359"/>
    <rect y="50.215309" x="310" height="14.999999" width="20" id="rect221" style="opacity:1;fill:#cccccc;fill-opacity:1;stroke:#b5a642;stroke-width:0;stroke-linejoin:round;stroke-miterlimit:4;stroke-dasharray:none;stroke-opacity:1;paint-order:normal"/>
    <rect style="opacity:0.98999999;fill:#808080;fill-opacity:1;stroke:#ffffff;stroke-width:0;stroke-linejoin:round;stroke-miterlimit:4;stroke-dasharray:none;stroke-opacity:1;paint-order:normal" id="rect947" width="8.5094881" height="13.068679" x="215.81165" y="55.763691"/>
    <rect y="55.763691" x="265.74982" height="13.068679" width="8.5094881" id="rect229" style="opacity:0.98999999;fill:#808080;fill-opacity:1;stroke:#ffffff;stroke-width:0;stroke-linejoin:round;stroke-miterlimit:4;stroke-dasharray:none;stroke-opacity:1;paint-order:normal"/>
    <rect style="opacity:0.98999999;fill:#808080;fill-opacity:1;stroke:#ffffff;stroke-width:0;stroke-linejoin:round;stroke-miterlimit:4;stroke-dasharray:none;stroke-opacity:1;paint-order:normal" id="rect231" width="8.5094881" height="13.068679" x="290.7189" y="55.763691"/>
    <rect y="55.763691" x="315.68799" height="13.068679" width="8.5094881" id="rect233" style="opacity:0.98999999;fill:#808080;fill-opacity:1;stroke:#ffffff;stroke-width:0;stroke-linejoin:round;stroke-miterlimit:4;stroke-dasharray:none;stroke-opacity:1;paint-order:normal"/>
    <rect style="opacity:0.98999999;fill:#808080;fill-opacity:1;stroke:#ffffff;stroke-width:0;stroke-linejoin:round;stroke-miterlimit:4;stroke-dasharray:none;stroke-opacity:1;paint-order:normal" id="rect235" width="8.5094881" height="13.068679" x="240.96101" y="55.763691"/>
    <rect y="200.71388" x="215.81165" height="13.068679" width="8.5094881" id="rect237" style="opacity:0.98999999;fill:#808080;fill-opacity:1;stroke:#ffffff;stroke-width:0;stroke-linejoin:round;stroke-miterlimit:4;stroke-dasharray:none;stroke-opacity:1;paint-order:normal"/>
    <rect style="opacity:0.98999999;fill:#808080;fill-opacity:1;stroke:#ffffff;stroke-width:0;stroke-linejoin:round;stroke-miterlimit:4;stroke-dasharray:none;stroke-opacity:1;paint-order:normal" id="rect239" width="8.5094881" height="13.068679" x="265.74982" y="200.71388"/>
    <rect y="200.71388" x="290.7189" height="13.068679" width="8.5094881" id="rect241" style="opacity:0.98999999;fill:#808080;fill-opacity:1;stroke:#ffffff;stroke-width:0;stroke-linejoin:round;stroke-miterlimit:4;stroke-dasharray:none;stroke-opacity:1;paint-order:normal"/>
    <rect style="opacity:0.98999999;fill:#808080;fill-opacity:1;stroke:#ffffff;stroke-width:0;stroke-linejoin:round;stroke-miterlimit:4;stroke-dasharray:none;stroke-opacity:1;paint-order:normal" id="rect243" width="8.5094881" height="13.068679" x="315.68799" y="200.71388"/>
    <rect y="200.71388" x="240.96101" height="13.068679" width="8.5094881" id="rect245" style="opacity:0.98999999;fill:#808080;fill-opacity:1;stroke:#ffffff;stroke-width:0;stroke-linejoin:round;stroke-miterlimit:4;stroke-dasharray:none;stroke-opacity:1;paint-order:normal"/>
    <rect transform="translate(0,-7.7083334e-6)" style="opacity:1;fill:#333333;fill-opacity:1;stroke:#b5a642;stroke-width:0;stroke-linejoin:round;stroke-miterlimit:4;stroke-dasharray:none;stroke-opacity:1;paint-order:normal" id="rect201" width="120" height="140" x="210" y="65.215309"/>
    <text xml:space="preserve" style="font-style:normal;font-variant:normal;font-weight:normal;font-stretch:normal;font-size:63.5px;line-height:1.25;font-family:Calibri;-inkscape-font-specification:Calibri;font-variant-ligatures:normal;font-variant-caps:normal;font-variant-numeric:normal;font-feature-settings:normal;text-align:start;letter-spacing:0px;word-spacing:0px;writing-mode:lr-tb;text-anchor:start;fill:#ffffff;fill-opacity:1;stroke:none;stroke-width:0.26458332" x="-402.52524" y="-399.14987" id="text99" transform="rotate(90)"><tspan sodipodi:role="line" id="tspan97" x="-402.52524" y="-399.14987" style="fill:#ffffff;stroke-width:0.26458332">16Bit12C ADC+POA</tspan><tspan sodipodi:role="line" x="-402.52524" y="-319.77487" style="fill:#ffffff;stroke-width:0.26458332" id="tspan101"/></text>
    <text xml:space="preserve" style="font-style:normal;font-variant:normal;font-weight:normal;font-stretch:normal;font-size:63.5px;line-height:1.25;font-family:Calibri;-inkscape-font-specification:Calibri;font-variant-ligatures:normal;font-variant-caps:normal;font-variant-numeric:normal;font-feature-settings:normal;text-align:start;letter-spacing:0px;word-spacing:0px;writing-mode:lr-tb;text-anchor:start;fill:#ffffff;fill-opacity:1;stroke:none;stroke-width:0.26458332" x="-257.84518" y="-323.66498" id="text105" transform="rotate(90)"><tspan sodipodi:role="line" id="tspan103" x="-257.84518" y="-323.66498" style="fill:#ffffff;stroke-width:0.26458332">ADS1115</tspan></text>
    <text xml:space="preserve" style="font-style:normal;font-variant:normal;font-weight:normal;font-stretch:normal;font-size:53.69983292px;line-height:1.25;font-family:Calibri;-inkscape-font-specification:Calibri;font-variant-ligatures:normal;font-variant-caps:normal;font-variant-numeric:normal;font-feature-settings:normal;text-align:start;letter-spacing:0px;word-spacing:0px;writing-mode:lr-tb;text-anchor:start;fill:#ffffff;fill-opacity:1;stroke:none;stroke-width:0.22374928" x="189.49162" y="-540.81903" id="text109"><tspan sodipodi:role="line" id="tspan107" x="189.49162" y="-540.81903" style="fill:#ffffff;stroke-width:0.22374928">KY-053</tspan></text>
    <text xml:space="preserve" style="font-style:normal;font-variant:normal;font-weight:normal;font-stretch:normal;font-size:49.92996979px;line-height:1.25;font-family:Calibri;-inkscape-font-specification:Calibri;font-variant-ligatures:normal;font-variant-caps:normal;font-variant-numeric:normal;font-feature-settings:normal;text-align:start;letter-spacing:0px;word-spacing:0px;writing-mode:lr-tb;text-anchor:start;fill:#ffffff;fill-opacity:1;stroke:none;stroke-width:0.20804153" x="95.053719" y="-508.82162" id="text113"><tspan sodipodi:role="line" id="tspan111" x="95.053719" y="-508.82162" style="fill:#ffffff;stroke-width:0.20804153">VDD</tspan></text>
    <text xml:space="preserve" style="font-style:normal;font-variant:normal;font-weight:normal;font-stretch:normal;font-size:55.72698975px;line-height:1.25;font-family:Calibri;-inkscape-font-specification:Calibri;font-variant-ligatures:normal;font-variant-caps:normal;font-variant-numeric:normal;font-feature-settings:normal;text-align:start;letter-spacing:0px;word-spacing:0px;writing-mode:lr-tb;text-anchor:start;fill:#ffffff;fill-opacity:1;stroke:none;stroke-width:0.23219578" x="91.568169" y="-419.37308" id="text117"><tspan sodipodi:role="line" id="tspan115" x="91.568169" y="-419.37308" style="fill:#ffffff;stroke-width:0.23219578">GND</tspan></text>
    <text xml:space="preserve" style="font-style:normal;font-variant:normal;font-weight:normal;font-stretch:normal;font-size:51.30361176px;line-height:1.25;font-family:Calibri;-inkscape-font-specification:Calibri;font-variant-ligatures:normal;font-variant-caps:normal;font-variant-numeric:normal;font-feature-settings:normal;text-align:start;letter-spacing:0px;word-spacing:0px;writing-mode:lr-tb;text-anchor:start;fill:#ffffff;fill-opacity:1;stroke:none;stroke-width:0.21376504" x="99.938591" y="-335.67734" id="text121"><tspan sodipodi:role="line" id="tspan119" x="99.938591" y="-335.67734" style="fill:#ffffff;stroke-width:0.21376504">SCL</tspan></text>
    <text xml:space="preserve" style="font-style:normal;font-variant:normal;font-weight:normal;font-stretch:normal;font-size:63.5px;line-height:1.25;font-family:Calibri;-inkscape-font-specification:Calibri;font-variant-ligatures:normal;font-variant-caps:normal;font-variant-numeric:normal;font-feature-settings:normal;text-align:start;letter-spacing:0px;word-spacing:0px;writing-mode:lr-tb;text-anchor:start;fill:#ffffff;fill-opacity:1;stroke:none;stroke-width:0.26458332" x="92.675354" y="-247.18533" id="text125"><tspan sodipodi:role="line" id="tspan123" x="92.675354" y="-247.18533" style="fill:#ffffff;stroke-width:0.26458332">SDA</tspan></text>
    <text xml:space="preserve" style="font-style:normal;font-variant:normal;font-weight:normal;font-stretch:normal;font-size:63.5px;line-height:1.25;font-family:Calibri;-inkscape-font-specification:Calibri;font-variant-ligatures:normal;font-variant-caps:normal;font-variant-numeric:normal;font-feature-settings:normal;text-align:start;letter-spacing:0px;word-spacing:0px;writing-mode:lr-tb;text-anchor:start;fill:#ffffff;fill-opacity:1;stroke:none;stroke-width:0.26458332" x="94.426918" y="-160.5562" id="text129"><tspan sodipodi:role="line" id="tspan127" x="94.426918" y="-160.5562" style="fill:#ffffff;stroke-width:0.26458332">ADDR</tspan></text>
    <text xml:space="preserve" style="font-style:normal;font-variant:normal;font-weight:normal;font-stretch:normal;font-size:63.5px;line-height:1.25;font-family:Calibri;-inkscape-font-specification:Calibri;font-variant-ligatures:normal;font-variant-caps:normal;font-variant-numeric:normal;font-feature-settings:normal;text-align:start;letter-spacing:0px;word-spacing:0px;writing-mode:lr-tb;text-anchor:start;fill:#ffffff;fill-opacity:1;stroke:none;stroke-width:0.26458332" x="95.280563" y="-75.174919" id="text133"><tspan sodipodi:role="line" id="tspan131" x="95.280563" y="-75.174919" style="fill:#ffffff;stroke-width:0.26458332">ALRT</tspan></text>
    <text xml:space="preserve" style="font-style:normal;font-variant:normal;font-weight:normal;font-stretch:normal;font-size:63.5px;line-height:1.25;font-family:Calibri;-inkscape-font-specification:Calibri;font-variant-ligatures:normal;font-variant-caps:normal;font-variant-numeric:normal;font-feature-settings:normal;text-align:start;letter-spacing:0px;word-spacing:0px;writing-mode:lr-tb;text-anchor:start;fill:#ffffff;fill-opacity:1;stroke:none;stroke-width:0.26458332" x="91.201241" y="5.8495741" id="text137"><tspan sodipodi:role="line" id="tspan135" x="91.201241" y="5.8495741" style="fill:#ffffff;stroke-width:0.26458332">A0</tspan></text>
    <text xml:space="preserve" style="font-style:normal;font-variant:normal;font-weight:normal;font-stretch:normal;font-size:63.5px;line-height:1.25;font-family:Calibri;-inkscape-font-specification:Calibri;font-variant-ligatures:normal;font-variant-caps:normal;font-variant-numeric:normal;font-feature-settings:normal;text-align:start;letter-spacing:0px;word-spacing:0px;writing-mode:lr-tb;text-anchor:start;fill:#ffffff;fill-opacity:1;stroke:none;stroke-width:0.26458332" x="92.530388" y="92.075691" id="text141"><tspan sodipodi:role="line" id="tspan139" x="92.530388" y="92.075691" style="fill:#ffffff;stroke-width:0.26458332">A1</tspan></text>
    <text xml:space="preserve" style="font-style:normal;font-variant:normal;font-weight:normal;font-stretch:normal;font-size:63.5px;line-height:1.25;font-family:Calibri;-inkscape-font-specification:Calibri;font-variant-ligatures:normal;font-variant-caps:normal;font-variant-numeric:normal;font-feature-settings:normal;text-align:start;letter-spacing:0px;word-spacing:0px;writing-mode:lr-tb;text-anchor:start;fill:#ffffff;fill-opacity:1;stroke:none;stroke-width:0.26458332" x="89.955185" y="178.72424" id="text145"><tspan sodipodi:role="line" id="tspan143" x="89.955185" y="178.72424" style="fill:#ffffff;stroke-width:0.26458332">A2</tspan></text>
    <text xml:space="preserve" style="font-style:normal;font-variant:normal;font-weight:normal;font-stretch:normal;font-size:63.5px;line-height:1.25;font-family:Calibri;-inkscape-font-specification:Calibri;font-variant-ligatures:normal;font-variant-caps:normal;font-variant-numeric:normal;font-feature-settings:normal;text-align:start;letter-spacing:0px;word-spacing:0px;writing-mode:lr-tb;text-anchor:start;fill:#ffffff;fill-opacity:1;stroke:none;stroke-width:0.26458332" x="93.221497" y="259.87244" id="text149"><tspan sodipodi:role="line" id="tspan147" x="93.221497" y="259.87244" style="fill:#ffffff;stroke-width:0.26458332">A3</tspan></text>
  </g>
</svg>
