<?xml version="1.0" encoding="UTF-8" standalone="no"?>
<svg xmlns:dc="http://purl.org/dc/elements/1.1/" xmlns:cc="http://creativecommons.org/ns#" xmlns:rdf="http://www.w3.org/1999/02/22-rdf-syntax-ns#" xmlns:svg="http://www.w3.org/2000/svg" xmlns="http://www.w3.org/2000/svg" xmlns:sodipodi="http://sodipodi.sourceforge.net/DTD/sodipodi-0.dtd" xmlns:inkscape="http://www.inkscape.org/namespaces/inkscape" width="1698" height="1081" viewBox="0 0 1100 700" version="1.1" id="svg8" inkscape:version="0.92.4 (5da689c313, 2019-01-14)" sodipodi:docname="KY-040.svg" inkscape:export-filename="C:\Users\Entwicklung5.SIMACGMBH\Desktop\SEN-KIT02\Abbildungen Fertig\KY-040\KY-040.png" inkscape:export-xdpi="93" inkscape:export-ydpi="93">
  <defs id="defs2"/>
  <sodipodi:namedview id="base" pagecolor="#323232" bordercolor="#666666" borderopacity="1.0" inkscape:pageopacity="0" inkscape:pageshadow="2" inkscape:zoom="0.12374369" inkscape:cx="1367.4889" inkscape:cy="1840.2602" inkscape:document-units="mm" inkscape:current-layer="layer1" showgrid="false" inkscape:window-width="1920" inkscape:window-height="1017" inkscape:window-x="-8" inkscape:window-y="-8" inkscape:window-maximized="1"/>
  <metadata id="metadata5">
    <rdf:RDF>
      <cc:Work rdf:about="">
        <dc:format>image/svg+xml</dc:format>
        <dc:type rdf:resource="http://purl.org/dc/dcmitype/StillImage"/>
        <dc:title/>
      </cc:Work>
    </rdf:RDF>
  </metadata>
  <g inkscape:label="Ebene 1" inkscape:groupmode="layer" id="layer1" transform="translate(0,403)">
    <rect style="opacity:1;fill:#000000;fill-opacity:1;stroke:#000000;stroke-width:0;stroke-miterlimit:4;stroke-dasharray:none;stroke-opacity:1" id="rect815" width="699.9599" height="1010.0001" x="-296.95981" y="0.01541132" transform="matrix(5.1884132e-5,-1,1,3.9719235e-5,0,0)"/>
    <rect style="opacity:1;fill:#ffffff;fill-opacity:1;stroke:#000000;stroke-width:0;stroke-miterlimit:4;stroke-dasharray:none;stroke-opacity:1" id="rect821" width="341.23044" height="80.684944" x="-223.55969" y="914.33624" ry="0" transform="matrix(5.1884132e-5,1,1,-3.9719235e-5,0,0)"/>
    <rect style="opacity:1;fill:#1a1a1a;fill-opacity:1;stroke:#000000;stroke-width:0;stroke-miterlimit:4;stroke-dasharray:none;stroke-opacity:1" id="rect825" width="66.813843" height="70.899185" x="-86.144157" y="919.12195" ry="14.842069" transform="matrix(5.1884132e-5,1,1,-3.9719235e-5,0,0)"/>
    <rect y="919.12195" x="50.309052" height="70.899185" width="66.813843" id="rect872" style="opacity:1;fill:#1a1a1a;fill-opacity:1;stroke:#000000;stroke-width:0;stroke-miterlimit:4;stroke-dasharray:none;stroke-opacity:1" ry="14.842069" transform="matrix(5.1884132e-5,1,1,-3.9719235e-5,0,0)"/>
    <rect y="919.12195" x="-17.91818" height="70.899185" width="66.813843" id="rect874" style="opacity:1;fill:#1a1a1a;fill-opacity:1;stroke:#000000;stroke-width:0;stroke-miterlimit:4;stroke-dasharray:none;stroke-opacity:1" ry="12.930591" transform="matrix(5.1884132e-5,1,1,-3.9719235e-5,0,0)"/>
    <rect style="opacity:0.98999999;fill:#808080;fill-opacity:1;stroke:#ffffff;stroke-width:0;stroke-linejoin:round;stroke-miterlimit:4;stroke-dasharray:none;stroke-opacity:1;paint-order:normal" id="rect947" width="7.4159064" height="145" x="-56.517876" y="955.02124" transform="matrix(5.1884132e-5,1,1,-3.9719235e-5,0,0)"/>
    <rect y="955.02124" x="12.103022" height="145" width="7.4159064" id="rect949" style="opacity:0.98999999;fill:#808080;fill-opacity:1;stroke:#ffffff;stroke-width:0;stroke-linejoin:round;stroke-miterlimit:4;stroke-dasharray:none;stroke-opacity:1;paint-order:normal" transform="matrix(5.1884132e-5,1,1,-3.9719235e-5,0,0)"/>
    <rect style="opacity:0.98999999;fill:#808080;fill-opacity:1;stroke:#ffffff;stroke-width:0;stroke-linejoin:round;stroke-miterlimit:4;stroke-dasharray:none;stroke-opacity:1;paint-order:normal" id="rect951" width="7.4159064" height="145" x="79.935471" y="955.02124" transform="matrix(5.1884132e-5,1,1,-3.9719235e-5,0,0)"/>
    <path style="fill:#ffffff;stroke-width:0.25252166" d="m 410.76195,223.47875 c 4.07183,-0.0895 4.51703,-0.1465 5.27655,-0.68286 0.45629,-0.32214 1.04283,-0.9876 1.30369,-1.47882 0.44797,-0.84412 0.47773,-1.44743 0.54418,-11.03979 l 0.0706,-10.147 8.69894,0.058 8.69894,0.0567 v 12.64595 c 0,13.94271 -0.0958,15.25574 -1.36093,18.9173 -1.65786,4.79706 -4.07714,7.02318 -9.06748,8.34326 -1.33938,0.35429 -2.86939,0.4307 -7.93955,0.3964 -3.45415,-0.0227 -7.24016,-0.14133 -8.41323,-0.26263 l -2.13307,-0.22026 -0.063,-8.24467 -0.063,-8.24466 4.44706,-0.0971 z m 82.83246,28.32193 c 74.22895,0.0265 92.48886,0.12784 89.40664,0.49714 l -0.47407,0.0567 0.47395,0.23123 c 0.39678,0.19341 0.33878,0.24195 -0.35543,0.29655 -0.54922,0.0429 -0.30878,0.12482 0.71098,0.24157 l 1.54048,0.17627 -1.54048,0.0782 c -0.84728,0.0429 -1.35387,0.13301 -1.12567,0.20072 0.35329,0.10465 0.41456,0.45642 0.41456,2.3725 -1.2e-4,2.24729 0,2.24956 0.6516,2.36152 0.45768,0.0794 0.35177,0.12356 -0.35543,0.15256 -0.554,0.0227 -1.00727,0.16126 -1.00727,0.30928 0,0.17879 -29.42704,0.26742 -87.80691,0.26452 h -87.80705 v -3.63244 -3.63231 z m -66.8892,-77.78966 h 8.76891 l -2.5e-4,8.20646 -2.5e-4,8.20647 h -8.76904 -8.76879 l 3.8e-4,-8.20647 2.5e-4,-8.20646 z m 17.68282,30.27066 c 0.62386,-4.61576 1.73364,-8.71811 3.34801,-12.37677 0.5878,-1.33194 1.13878,-2.48206 1.22452,-2.5562 0.0857,-0.0744 0.52563,-0.79911 0.97764,-1.61146 0.91284,-1.64071 2.99497,-4.59281 3.47484,-4.92642 0.17033,-0.11852 0.3094,-0.32529 0.3094,-0.46008 1.3e-4,-0.35668 2.19296,-2.62932 3.90642,-4.04825 1.80537,-1.49509 3.2755,-2.3343 6.52174,-3.7231 3.78841,-1.62079 6.01023,-2.00546 10.54643,-1.8263 3.28949,0.12999 4.106,0.25645 6.16191,0.95457 1.30344,0.44268 2.88527,1.05581 3.51518,1.3627 0.63003,0.30688 1.25792,0.55804 1.39548,0.55804 0.13743,0 1.11217,0.57519 2.16622,1.27823 4.20032,2.8018 9.92724,10.28014 12.13545,15.84706 3.45945,8.72075 3.89481,17.47907 1.27141,25.56866 -1.10347,3.40246 -1.90006,5.33871 -3.18371,7.73957 -1.48336,2.77357 -1.60326,2.93533 -5.20569,7.01511 -4.1311,4.67854 -7.09492,6.66245 -12.48255,8.35562 -2.74583,0.8629 -8.14153,1.18883 -11.05126,0.66748 -3.78361,-0.67795 -8.82187,-3.12244 -11.93233,-5.78946 -1.60667,-1.37783 -3.76659,-3.54708 -3.76659,-3.78323 0,-0.0719 -0.54215,-0.7652 -1.20472,-1.54162 -3.15219,-3.69421 -6.39908,-10.92265 -7.58337,-16.88333 -0.44192,-2.22397 -0.77037,-8.14884 -0.54443,-9.82082 z m 16.77013,8.50918 c 0.85055,3.8053 2.53565,7.05747 5.14202,9.92421 2.63601,2.89927 6.83179,3.97992 10.44342,2.68985 3.97816,-1.42095 7.91572,-6.76584 9.21676,-12.51105 0.74591,-3.29315 0.69182,-8.09866 -0.12671,-11.29069 -1.16261,-4.53305 -3.23641,-8.07697 -6.11664,-10.45199 -1.31908,-1.08784 -1.92718,-1.39952 -3.31787,-1.70073 -2.9797,-0.64529 -6.02762,-0.29415 -8.15829,0.93982 -1.87283,1.08456 -4.24962,4.15316 -5.61383,7.2476 -2.05956,4.67212 -2.58936,10.13893 -1.46886,15.15298 z m 49.27873,-38.65804 c 0.1571,-0.0681 4.11244,-0.092 8.78959,-0.053 l 8.50377,0.0706 0.0265,9.01364 c 0.024,8.51549 0.0555,9.10089 0.53635,10.59005 1.23826,3.82825 5.25789,5.92639 8.78367,4.58462 1.8118,-0.68942 3.03455,-1.90007 3.91183,-3.87313 l 0.7773,-1.74889 0.0706,-9.35003 0.0706,-9.35003 h 8.77648 8.7766 l -0.0958,10.56067 c -0.0895,9.82788 -0.13201,10.71021 -0.61327,12.71328 -0.97966,4.07411 -2.54422,7.63556 -4.5715,10.40711 -0.5066,0.69244 -0.92116,1.37644 -0.92116,1.52005 0,0.35089 -2.2188,2.6326 -4.18682,4.30584 -1.66782,1.4178 -4.04006,2.85413 -5.20456,3.15119 -0.37472,0.0958 -1.58763,0.495 -2.69552,0.88774 -1.86665,0.66168 -2.32799,0.71413 -6.28055,0.71388 -3.97047,-1.2e-4 -4.43004,-0.0529 -6.63585,-0.76368 -3.4916,-1.12478 -4.6329,-1.68661 -6.95572,-3.42415 -2.63298,-1.96941 -4.84863,-4.49686 -6.69171,-7.63329 -2.60196,-4.42764 -3.69094,-7.71486 -4.24028,-12.79952 -0.35858,-3.31799 -0.30235,-19.36275 0.0681,-19.52414 z m 24.4551,49.66076 h 14.33823 v 8.4754 8.47564 h -14.33823 -14.33823 v -8.47552 -8.47552 z m 24.53163,-62.69089 c 0.13011,0 0.23691,-0.46776 0.23691,-1.03967 1.2e-4,-1.03275 0.0151,-1.04082 1.09969,-1.21065 0.60469,-0.0946 24.89399,-0.16996 53.97568,-0.1687 h 52.87648 l -0.0719,3.63282 -0.0719,3.63282 H 613.7026 c -29.57128,0 -53.93459,-0.0769 -54.1406,-0.16631 -0.30071,-0.13074 -0.37497,-0.61049 -0.37485,-2.42154 0,-1.32613 0.0983,-2.25826 0.23704,-2.25826 z m 24.17191,40.62998 h 18.24869 v 8.34111 8.34099 h -18.24869 -18.24868 v -8.34086 -8.34099 z m 32.70657,-27.71181 h 8.76876 v 8.20646 8.20646 h -8.76863 -8.76904 v -8.20659 -8.20646 z m 0,25.02284 h 8.76876 v 21.25613 21.25601 h -8.76876 -8.76891 V 220.29983 199.0437 Z m 34.95775,-25.0212 h 18.3672 v 8.20658 8.20634 h -18.3672 -18.36708 v -8.20646 -8.20646 z m -15.31626,26.25354 c 0.11474,-0.0807 3.99871,-0.14185 8.63224,-0.1368 l 8.42446,0.0126 0.0769,9.74051 c 0.10717,13.66079 -0.38014,12.91527 8.54928,13.06177 l 5.6287,0.092 v 8.55004 8.55004 l -2.08981,0.30423 c -3.15497,0.45907 -13.18925,0.38998 -15.90217,-0.10969 -4.66404,-0.85913 -7.69179,-2.51257 -9.71667,-5.30644 -2.10155,-2.89977 -3.09962,-5.85476 -3.56675,-10.55966 -0.29428,-2.96332 -0.32529,-23.99225 -0.0353,-24.19537 z m 43.9926,-34.27428 c 0.44242,-1.78571 1.31554,-3.49917 2.27995,-4.47467 3.9721,-4.01788 8.75996,-4.4424 12.68819,-1.12516 1.84295,1.55623 2.30151,2.16055 3.08978,4.07196 0.59801,1.45045 0.66496,1.89981 0.66105,4.43899 -1.3e-4,2.53867 -0.0731,2.99685 -0.68879,4.51791 -1.33118,3.29252 -4.688,5.88188 -7.98279,6.1575 -3.07011,0.25683 -5.41335,-0.78184 -7.83363,-3.47219 -2.15942,-2.40024 -3.08146,-6.61278 -2.21376,-10.11434 z m 1.72594,6.94626 c 0.79987,2.17077 3.27979,4.30484 5.83485,5.02086 2.55746,0.71665 4.49875,0.116 7.41189,-2.29294 0.69787,-0.57695 1.22022,-1.35803 1.77083,-2.64735 0.69459,-1.6271 0.78146,-2.08389 0.78764,-4.14282 1.2e-4,-2.12172 -0.063,-2.46782 -0.82232,-4.16022 -0.67214,-1.49584 -1.09906,-2.06309 -2.25133,-2.99055 -0.78209,-0.62953 -1.95516,-1.35173 -2.607,-1.60503 -3.99972,-1.55422 -8.8075,0.947 -10.4153,5.41865 -0.6105,1.69833 -0.46739,5.34173 0.29074,7.3994 z m 6.49489,-10.49334 c 1.78382,-2.6e-4 3.51682,0.11851 3.85107,0.26263 1.43293,0.61856 2.08011,3.75171 1.07472,5.20279 -0.26477,0.38191 -0.84614,0.84425 -1.29184,1.0272 l -0.81071,0.33273 0.81336,1.0224 c 0.44747,0.5622 1.14546,1.69039 1.55132,2.5069 0.40586,0.81651 0.83441,1.55233 0.95243,1.63504 0.50849,0.35681 0.1402,0.65575 -0.79306,0.64264 l -1.00727,-0.0151 -1.42171,-2.56452 c -1.52005,-2.74166 -1.88935,-3.05788 -3.57028,-3.05788 l -1.05103,1.3e-4 -1.2e-4,2.84228 -1.3e-4,2.84215 -0.71463,-0.0845 -0.71502,-0.0845 -0.0555,-6.25571 -0.0555,-6.25609 z m 0.39804,5.38145 c 1.76667,-2.5e-4 2.2004,-0.0883 2.72553,-0.55754 1.30206,-1.16286 0.56283,-3.0372 -1.31365,-3.33059 -0.78575,-0.1223 -3.01867,-0.058 -3.45353,0.0996 -0.0315,0.0126 -0.0605,0.86909 -0.0605,1.90498 l -1.3e-4,1.88343 z" id="path31-1" inkscape:connector-curvature="0"/>
    <rect ry="14.842069" y="919.12195" x="-222.18669" height="70.899185" width="66.813843" id="rect95" style="opacity:1;fill:#1a1a1a;fill-opacity:1;stroke:#000000;stroke-width:0;stroke-miterlimit:4;stroke-dasharray:none;stroke-opacity:1" transform="matrix(5.1884132e-5,1,1,-3.9719235e-5,0,0)"/>
    <rect ry="12.930591" style="opacity:1;fill:#1a1a1a;fill-opacity:1;stroke:#000000;stroke-width:0;stroke-miterlimit:4;stroke-dasharray:none;stroke-opacity:1" id="rect97" width="66.813843" height="70.899185" x="-153.96062" y="919.12201" transform="matrix(5.1884132e-5,1,1,-3.9719235e-5,0,0)"/>
    <rect y="955.02124" x="-192.56033" height="145" width="7.4159064" id="rect99" style="opacity:0.98999999;fill:#808080;fill-opacity:1;stroke:#ffffff;stroke-width:0;stroke-linejoin:round;stroke-miterlimit:4;stroke-dasharray:none;stroke-opacity:1;paint-order:normal" transform="matrix(5.1884132e-5,1,1,-3.9719235e-5,0,0)"/>
    <rect style="opacity:0.98999999;fill:#808080;fill-opacity:1;stroke:#ffffff;stroke-width:0;stroke-linejoin:round;stroke-miterlimit:4;stroke-dasharray:none;stroke-opacity:1;paint-order:normal" id="rect101" width="7.4159064" height="145" x="-123.93944" y="955.02124" transform="matrix(5.1884132e-5,1,1,-3.9719235e-5,0,0)"/>
    <circle style="opacity:1;fill:#cccccc;fill-opacity:1;stroke:#b5a642;stroke-width:0;stroke-linejoin:round;stroke-miterlimit:4;stroke-dasharray:none;stroke-opacity:1;paint-order:normal" id="path140" cx="832.5" cy="199.5" r="87.5"/>
    <circle r="87.5" cy="199.5" cx="267.5" id="circle142" style="opacity:1;fill:#cccccc;fill-opacity:1;stroke:#b5a642;stroke-width:0;stroke-linejoin:round;stroke-miterlimit:4;stroke-dasharray:none;stroke-opacity:1;paint-order:normal"/>
    <circle style="opacity:1;fill:#ffffff;fill-opacity:1;stroke:#b5a642;stroke-width:0;stroke-linejoin:round;stroke-miterlimit:4;stroke-dasharray:none;stroke-opacity:1;paint-order:normal" id="path152" cx="267.5" cy="199.5" r="80"/>
    <circle r="80" cy="199.5" cx="832.5" id="circle154" style="opacity:1;fill:#ffffff;fill-opacity:1;stroke:#b5a642;stroke-width:0;stroke-linejoin:round;stroke-miterlimit:4;stroke-dasharray:none;stroke-opacity:1;paint-order:normal"/>
    <rect style="opacity:1;fill:#ffffff;fill-opacity:1;stroke:#b5a642;stroke-width:0;stroke-linejoin:round;stroke-miterlimit:4;stroke-dasharray:none;stroke-opacity:1;paint-order:normal" id="rect156" width="620" height="455" x="180" y="-348"/>
    <rect style="opacity:1;fill:#000000;fill-opacity:1;stroke:#b5a642;stroke-width:0;stroke-linejoin:round;stroke-miterlimit:4;stroke-dasharray:none;stroke-opacity:1;paint-order:normal" id="rect158" width="610" height="445" x="185" y="-343"/>
    <rect style="opacity:1;fill:#cccccc;fill-opacity:1;stroke:#b5a642;stroke-width:0;stroke-linejoin:round;stroke-miterlimit:4;stroke-dasharray:none;stroke-opacity:1;paint-order:normal" id="rect170" width="52" height="60" x="792" y="-153"/>
    <rect y="-13.000001" x="792" height="60" width="52" id="rect172" style="opacity:1;fill:#cccccc;fill-opacity:1;stroke:#b5a642;stroke-width:0;stroke-linejoin:round;stroke-miterlimit:4;stroke-dasharray:none;stroke-opacity:1;paint-order:normal"/>
    <rect y="-150" x="135.78362" height="60" width="51.949009" id="rect177" style="opacity:1;fill:#cccccc;fill-opacity:1;stroke:#b5a642;stroke-width:0;stroke-linejoin:round;stroke-miterlimit:4;stroke-dasharray:none;stroke-opacity:1;paint-order:normal"/>
    <rect style="opacity:1;fill:#cccccc;fill-opacity:1;stroke:#b5a642;stroke-width:0;stroke-linejoin:round;stroke-miterlimit:4;stroke-dasharray:none;stroke-opacity:1;paint-order:normal" id="rect179" width="51.949009" height="60" x="135.78362" y="-70"/>
    <rect style="opacity:1;fill:#cccccc;fill-opacity:1;stroke:#b5a642;stroke-width:0;stroke-linejoin:round;stroke-miterlimit:4;stroke-dasharray:none;stroke-opacity:1;paint-order:normal" id="rect181" width="51.949009" height="60" x="135.78362" y="-230"/>
    <rect transform="matrix(8.6101634e-6,1,0.99999997,-2.3934482e-4,0,0)" y="163.90227" x="-203.95456" height="25.937817" width="7.9937916" id="rect183" style="opacity:0.98999999;fill:#808080;fill-opacity:1;stroke:#ffffff;stroke-width:0;stroke-linejoin:round;stroke-miterlimit:4;stroke-dasharray:none;stroke-opacity:1;paint-order:normal"/>
    <rect transform="matrix(8.9865746e-6,1,0.99999997,-2.2931963e-4,0,0)" style="opacity:0.98999999;fill:#808080;fill-opacity:1;stroke:#ffffff;stroke-width:0;stroke-linejoin:round;stroke-miterlimit:4;stroke-dasharray:none;stroke-opacity:1;paint-order:normal" id="rect185" width="7.9937916" height="27.071743" x="-123.9562" y="163.90518"/>
    <rect transform="matrix(9.2375154e-6,1,0.99999998,-2.2309007e-4,0,0)" y="163.90799" x="-43.957226" height="27.827694" width="7.9937916" id="rect187" style="opacity:0.98999999;fill:#808080;fill-opacity:1;stroke:#ffffff;stroke-width:0;stroke-linejoin:round;stroke-miterlimit:4;stroke-dasharray:none;stroke-opacity:1;paint-order:normal"/>
    <rect y="791.00116" x="-126.81241" height="27.071743" width="7.9937916" id="rect193" style="opacity:0.98999999;fill:#808080;fill-opacity:1;stroke:#ffffff;stroke-width:0;stroke-linejoin:round;stroke-miterlimit:4;stroke-dasharray:none;stroke-opacity:1;paint-order:normal" transform="matrix(8.9865746e-6,1,0.99999997,-2.2931963e-4,0,0)"/>
    <rect style="opacity:0.98999999;fill:#808080;fill-opacity:1;stroke:#ffffff;stroke-width:0;stroke-linejoin:round;stroke-miterlimit:4;stroke-dasharray:none;stroke-opacity:1;paint-order:normal" id="rect195" width="7.9937916" height="27.827694" x="13.182673" y="790.99988" transform="matrix(9.2375154e-6,1,0.99999998,-2.2309007e-4,0,0)"/>
    <rect transform="translate(0,-1.6666669e-6)" style="opacity:1;fill:#4d4d4d;fill-opacity:1;stroke:#b5a642;stroke-width:0;stroke-linejoin:round;stroke-miterlimit:4;stroke-dasharray:none;stroke-opacity:1;paint-order:normal" id="rect160" width="605" height="440" x="187.5" y="-340.5"/>
    <path style="opacity:1;fill:#666666;fill-opacity:1;stroke:#b5a642;stroke-width:0;stroke-linejoin:round;stroke-miterlimit:4;stroke-dasharray:none;stroke-opacity:1;paint-order:normal" d="M 1851.9688 255.11719 A 812.59843 812.59843 0 0 0 1039.3691 1067.7168 A 812.59843 812.59843 0 0 0 1851.9688 1880.3145 A 812.59843 812.59843 0 0 0 2664.5664 1067.7168 A 812.59843 812.59843 0 0 0 1851.9688 255.11719 z M 708.66211 784.25195 L 708.66211 1351.1816 L 859.8418 1351.1816 L 859.8418 784.25195 L 708.66211 784.25195 z " id="path162" transform="matrix(0.26458333,0,0,0.26458333,0,-403)"/>
    <circle transform="translate(0,-1.6666669e-6)" style="opacity:1;fill:#999999;fill-opacity:1;stroke:#b5a642;stroke-width:0;stroke-linejoin:round;stroke-miterlimit:4;stroke-dasharray:none;stroke-opacity:1;paint-order:normal" id="path166" cx="490" cy="-120.5" r="175"/>
    <path style="opacity:1;fill:#b3b3b3;fill-opacity:1;stroke:#b5a642;stroke-width:0;stroke-linejoin:round;stroke-miterlimit:4;stroke-dasharray:none;stroke-opacity:1;paint-order:normal" id="path168" sodipodi:type="arc" sodipodi:cx="-261.27338" sodipodi:cy="431.68976" sodipodi:rx="175" sodipodi:ry="175" sodipodi:start="0" sodipodi:end="4.7168276" sodipodi:open="true" d="M -86.273376,431.68976 A 175,175 0 0 1 -194.48322,593.44289 175,175 0 0 1 -385.29138,555.15851 175,175 0 0 1 -422.72846,364.18231 175,175 0 0 1 -260.49662,256.69148" transform="rotate(-135,-3.4517801e-7,-8.3333344e-7)"/>
    <text xml:space="preserve" style="font-style:normal;font-variant:normal;font-weight:normal;font-stretch:normal;font-size:63.5px;line-height:1.25;font-family:Calibri;-inkscape-font-specification:Calibri;font-variant-ligatures:normal;font-variant-caps:normal;font-variant-numeric:normal;font-feature-settings:normal;text-align:start;letter-spacing:0px;word-spacing:0px;writing-mode:lr-tb;text-anchor:start;fill:#ffffff;fill-opacity:1;stroke:none;stroke-width:0.26458332" x="351.19217" y="-356.10205" id="text70"><tspan sodipodi:role="line" id="tspan68" x="351.19217" y="-356.10205" style="fill:#ffffff;stroke-width:0.26458332">KY-040</tspan></text>
    <text xml:space="preserve" style="font-style:normal;font-variant:normal;font-weight:normal;font-stretch:normal;font-size:49.48922729px;line-height:1.25;font-family:Calibri;-inkscape-font-specification:Calibri;font-variant-ligatures:normal;font-variant-caps:normal;font-variant-numeric:normal;font-feature-settings:normal;text-align:start;letter-spacing:0px;word-spacing:0px;writing-mode:lr-tb;text-anchor:start;fill:#ffffff;fill-opacity:1;stroke:none;stroke-width:0.2062051" x="831.44159" y="-172.14798" id="text74"><tspan sodipodi:role="line" id="tspan72" x="831.44159" y="-172.14798" style="fill:#ffffff;stroke-width:0.2062051">CLK</tspan></text>
    <text xml:space="preserve" style="font-style:normal;font-variant:normal;font-weight:normal;font-stretch:normal;font-size:48.97369385px;line-height:1.25;font-family:Calibri;-inkscape-font-specification:Calibri;font-variant-ligatures:normal;font-variant-caps:normal;font-variant-numeric:normal;font-feature-settings:normal;text-align:start;letter-spacing:0px;word-spacing:0px;writing-mode:lr-tb;text-anchor:start;fill:#ffffff;fill-opacity:1;stroke:none;stroke-width:0.20405705" x="846.93176" y="-107.04298" id="text78"><tspan sodipodi:role="line" id="tspan76" x="846.93176" y="-107.04298" style="fill:#ffffff;stroke-width:0.20405705">DT</tspan></text>
    <text xml:space="preserve" style="font-style:normal;font-variant:normal;font-weight:normal;font-stretch:normal;font-size:48.29533386px;line-height:1.25;font-family:Calibri;-inkscape-font-specification:Calibri;font-variant-ligatures:normal;font-variant-caps:normal;font-variant-numeric:normal;font-feature-settings:normal;text-align:start;letter-spacing:0px;word-spacing:0px;writing-mode:lr-tb;text-anchor:start;fill:#ffffff;fill-opacity:1;stroke:none;stroke-width:0.20123054" x="837.55585" y="-36.647896" id="text82"><tspan sodipodi:role="line" id="tspan80" x="837.55585" y="-36.647896" style="fill:#ffffff;stroke-width:0.20123054">SW</tspan></text>
    <text xml:space="preserve" style="font-style:normal;font-variant:normal;font-weight:normal;font-stretch:normal;font-size:63.5px;line-height:1.25;font-family:Calibri;-inkscape-font-specification:Calibri;font-variant-ligatures:normal;font-variant-caps:normal;font-variant-numeric:normal;font-feature-settings:normal;text-align:start;letter-spacing:0px;word-spacing:0px;writing-mode:lr-tb;text-anchor:start;fill:#ffffff;fill-opacity:1;stroke:none;stroke-width:0.26458332" x="854.91223" y="30.270828" id="text86"><tspan sodipodi:role="line" id="tspan84" x="854.91223" y="30.270828" style="fill:#ffffff;stroke-width:0.26458332">+</tspan></text>
    <text xml:space="preserve" style="font-style:normal;font-variant:normal;font-weight:normal;font-stretch:normal;font-size:48.03696442px;line-height:1.25;font-family:Calibri;-inkscape-font-specification:Calibri;font-variant-ligatures:normal;font-variant-caps:normal;font-variant-numeric:normal;font-feature-settings:normal;text-align:start;letter-spacing:0px;word-spacing:0px;writing-mode:lr-tb;text-anchor:start;fill:#ffffff;fill-opacity:1;stroke:none;stroke-width:0.20015401" x="815.42542" y="96.467857" id="text90"><tspan sodipodi:role="line" id="tspan88" x="815.42542" y="96.467857" style="fill:#ffffff;stroke-width:0.20015401">GND</tspan></text>
    <text xml:space="preserve" style="font-style:normal;font-variant:normal;font-weight:normal;font-stretch:normal;font-size:119.51225281px;line-height:1.25;font-family:Calibri;-inkscape-font-specification:Calibri;font-variant-ligatures:normal;font-variant-caps:normal;font-variant-numeric:normal;font-feature-settings:normal;text-align:start;letter-spacing:0px;word-spacing:0px;writing-mode:lr-tb;text-anchor:start;fill:#ffffff;fill-opacity:1;stroke:none;stroke-width:0.49796769" x="88.327957" y="242.52414" id="text94"><tspan sodipodi:role="line" id="tspan92" x="88.327957" y="242.52414" style="fill:#ffffff;stroke-width:0.49796769">V</tspan></text>
  </g>
</svg>
