<?xml version="1.0" encoding="UTF-8" standalone="no"?>
<svg xmlns="http://www.w3.org/2000/svg" xmlns:inkscape="http://www.inkscape.org/namespaces/inkscape" xmlns:sodipodi="http://sodipodi.sourceforge.net/DTD/sodipodi-0.dtd" xmlns:rdf="http://www.w3.org/1999/02/22-rdf-syntax-ns#" xmlns:cc="http://creativecommons.org/ns#" xmlns:dc="http://purl.org/dc/elements/1.1/" version="1.1" width="1921" height="961" viewBox="0 0 1921 961"><svg xmlns:dc="http://purl.org/dc/elements/1.1/" xmlns:cc="http://creativecommons.org/ns#" xmlns:rdf="http://www.w3.org/1999/02/22-rdf-syntax-ns#" xmlns:svg="http://www.w3.org/2000/svg" xmlns:sodipodi="http://sodipodi.sourceforge.net/DTD/sodipodi-0.dtd" xmlns:inkscape="http://www.inkscape.org/namespaces/inkscape" width="1922" height="961" viewBox="0 0 1100 550" version="1.1" id="svg8" inkscape:version="0.92.4 (5da689c313, 2019-01-14)" sodipodi:docname="KY-050.svg" inkscape:export-filename="C:\Users\Entwicklung5.SIMACGMBH\Desktop\SEN-KIT02\Abbildungen Fertig\KY-050\KY-050.png" inkscape:export-xdpi="93" inkscape:export-ydpi="93">
  <defs id="defs2"/>
  <sodipodi:namedview id="base" pagecolor="#323232" bordercolor="#666666" borderopacity="1.0" inkscape:pageopacity="0" inkscape:pageshadow="2" inkscape:zoom="0.15971212" inkscape:cx="884.65117" inkscape:cy="1212.4727" inkscape:document-units="mm" inkscape:current-layer="layer1" showgrid="false" inkscape:window-width="1920" inkscape:window-height="1017" inkscape:window-x="-8" inkscape:window-y="-8" inkscape:window-maximized="1"/>
  <metadata id="metadata5">
    <rdf:RDF>
      <cc:Work rdf:about="">
        <dc:format>image/svg+xml</dc:format>
        <dc:type rdf:resource="http://purl.org/dc/dcmitype/StillImage"/>
        <dc:title/>
      </cc:Work>
    </rdf:RDF>
  </metadata>
  <g inkscape:label="Ebene 1" inkscape:groupmode="layer" id="layer1" transform="translate(0,253)">
    <rect style="opacity:1;fill:#105089;fill-opacity:1;stroke:#b5a642;stroke-width:0;stroke-linejoin:round;stroke-miterlimit:4;stroke-dasharray:none;stroke-opacity:1;paint-order:normal" id="rect10" width="1100" height="450" x="5.0882693e-07" y="-253"/>
    <rect style="opacity:1;fill:#ffffff;fill-opacity:1;stroke:#000000;stroke-width:0;stroke-miterlimit:4;stroke-dasharray:none;stroke-opacity:1" id="rect821" width="314.99704" height="80.684944" x="392.50705" y="111.27686" ry="0" transform="matrix(1,5.6205116e-5,-3.6665666e-5,1,0,0)"/>
    <rect style="opacity:1;fill:#1a1a1a;fill-opacity:1;stroke:#000000;stroke-width:0;stroke-miterlimit:4;stroke-dasharray:none;stroke-opacity:1" id="rect825" width="76.843628" height="70.899185" x="550.55249" y="116.06699" ry="14.842069" transform="rotate(0.00258473)"/>
    <rect y="116.06699" x="629.02014" height="70.899185" width="76.843628" id="rect874" style="opacity:1;fill:#1a1a1a;fill-opacity:1;stroke:#000000;stroke-width:0;stroke-miterlimit:4;stroke-dasharray:none;stroke-opacity:1" ry="12.930591" transform="rotate(0.00258473)"/>
    <rect style="opacity:0.98999999;fill:#808080;fill-opacity:1;stroke:#ffffff;stroke-width:0;stroke-linejoin:round;stroke-miterlimit:4;stroke-dasharray:none;stroke-opacity:1;paint-order:normal" id="rect947" width="8.5291471" height="145" x="584.62604" y="151.96617" transform="rotate(0.00258473)"/>
    <rect y="151.96617" x="663.54797" height="145" width="8.5291471" id="rect949" style="opacity:0.98999999;fill:#808080;fill-opacity:1;stroke:#ffffff;stroke-width:0;stroke-linejoin:round;stroke-miterlimit:4;stroke-dasharray:none;stroke-opacity:1;paint-order:normal" transform="rotate(0.00258473)"/>
    <rect ry="14.842069" y="116.06699" x="394.08786" height="70.899185" width="76.843628" id="rect95" style="opacity:1;fill:#1a1a1a;fill-opacity:1;stroke:#000000;stroke-width:0;stroke-miterlimit:4;stroke-dasharray:none;stroke-opacity:1" transform="rotate(0.00258473)"/>
    <rect ry="12.930591" style="opacity:1;fill:#1a1a1a;fill-opacity:1;stroke:#000000;stroke-width:0;stroke-miterlimit:4;stroke-dasharray:none;stroke-opacity:1" id="rect97" width="76.843628" height="70.899185" x="472.55569" y="116.06699" transform="rotate(0.00258473)"/>
    <rect y="151.96617" x="428.16162" height="145" width="8.5291471" id="rect99" style="opacity:0.98999999;fill:#808080;fill-opacity:1;stroke:#ffffff;stroke-width:0;stroke-linejoin:round;stroke-miterlimit:4;stroke-dasharray:none;stroke-opacity:1;paint-order:normal" transform="rotate(0.00258473)"/>
    <rect style="opacity:0.98999999;fill:#808080;fill-opacity:1;stroke:#ffffff;stroke-width:0;stroke-linejoin:round;stroke-miterlimit:4;stroke-dasharray:none;stroke-opacity:1;paint-order:normal" id="rect101" width="8.5291471" height="145" x="507.08353" y="151.96617" transform="rotate(0.00258473)"/>
    <path style="fill:#ffffff;stroke-width:0.19948548" d="m 438.49899,-33.574652 c 3.20352,-0.071 3.55378,-0.116206 4.15135,-0.54165 0.35899,-0.255524 0.82044,-0.783373 1.02568,-1.173012 0.35244,-0.669562 0.37585,-1.148112 0.42813,-8.756843 l 0.0555,-8.048675 6.84392,0.046 6.84393,0.04498 v 10.03086 c 0,11.059462 -0.0754,12.100967 -1.07072,15.005344 -1.30434,3.805063 -3.20771,5.570837 -7.13388,6.617935 -1.05376,0.281025 -2.2575,0.341635 -6.24646,0.314427 -2.71756,-0.01801 -5.69622,-0.112104 -6.61914,-0.20832 l -1.6782,-0.174712 -0.0496,-6.539733 -0.0495,-6.539725 3.49874,-0.07702 z m 65.16871,22.465164 c 58.39987,0.02101 72.76591,0.101401 70.34096,0.394335 l -0.37297,0.04498 0.37288,0.183413 c 0.31217,0.153415 0.26654,0.191918 -0.27963,0.235227 -0.43211,0.03403 -0.24294,0.09901 0.55936,0.191615 l 1.21198,0.1398173 -1.21198,0.062031 c -0.66661,0.034038 -1.06517,0.105505 -0.88562,0.1592125 0.27795,0.083014 0.32615,0.3620361 0.32615,1.8818851 -9e-5,1.7825669 0,1.784368 0.51265,1.8731746 0.36008,0.062988 0.27676,0.098013 -0.27963,0.1210129 -0.43587,0.018011 -0.79248,0.1279119 -0.79248,0.2453225 0,0.1418182 -23.15181,0.2121192 -69.08237,0.2098195 H 435.00452 V -8.2489233 -11.1301 Z M 451.0424,-72.81282 h 6.89897 l -2e-4,6.509423 -1.9e-4,6.509432 h -6.89907 -6.89887 l 2.9e-4,-6.509432 1.9e-4,-6.509423 z m 13.91202,24.01091 c 0.49082,-3.661256 1.36395,-6.915271 2.63405,-9.817346 0.46246,-1.056506 0.89595,-1.968789 0.9634,-2.027597 0.0674,-0.05902 0.41354,-0.63386 0.76916,-1.278222 0.71819,-1.301424 2.3563,-3.643051 2.73385,-3.907673 0.134,-0.09401 0.24341,-0.258022 0.24341,-0.36494 10e-5,-0.282921 1.72533,-2.085595 3.0734,-3.211102 1.42038,-1.185916 2.577,-1.851583 5.131,-2.953189 2.98054,-1.285624 4.72856,-1.590745 8.29743,-1.448633 2.58802,0.103112 3.23041,0.203416 4.84791,0.757171 1.02548,0.351136 2.26999,0.837475 2.76557,1.080902 0.49569,0.243421 0.98967,0.442642 1.0979,0.442642 0.10812,0 0.87501,0.456244 1.70428,1.013902 3.30462,2.222408 7.8103,8.154282 9.54762,12.570004 2.72172,6.917364 3.06425,13.864529 1.00027,20.281251 -0.86815,2.698857 -1.49487,4.234705 -2.50479,6.139085 -1.16704,2.200016 -1.26137,2.328325 -4.09559,5.564436 -3.25016,3.711053 -5.58195,5.284705 -9.82069,6.627741 -2.16029,0.684458 -6.40537,0.942988 -8.69461,0.52945 -2.97677,-0.537756 -6.94064,-2.476743 -9.3878,-4.592243 -1.26405,-1.092905 -2.96338,-2.81357 -2.96338,-3.000886 0,-0.05703 -0.42653,-0.606963 -0.94782,-1.222825 -2.48,-2.930275 -5.0345,-8.663927 -5.96624,-13.391982 -0.34768,-1.76407 -0.60609,-6.46372 -0.42833,-7.789946 z m 13.19396,6.749543 c 0.66916,3.018393 1.99492,5.598037 4.04549,7.871958 2.0739,2.299721 5.37494,3.156902 8.21639,2.133608 3.12984,-1.127108 6.22773,-5.366714 7.25132,-9.923858 0.58685,-2.61215 0.5443,-6.423916 -0.0997,-8.955858 -0.91468,-3.595649 -2.54625,-6.406712 -4.81228,-8.290596 -1.03779,-0.862883 -1.51621,-1.11011 -2.61035,-1.349031 -2.34428,-0.511849 -4.74224,-0.233322 -6.41855,0.745472 -1.47347,0.86028 -3.34342,3.294317 -4.41671,5.748849 -1.62036,3.705961 -2.03719,8.042275 -1.15562,12.019456 z m 38.7702,-30.663843 c 0.12359,-0.05401 3.23547,-0.07298 6.91523,-0.04204 l 6.69037,0.056 0.0208,7.149686 c 0.0189,6.75455 0.0437,7.218893 0.42198,8.400106 0.97421,3.036597 4.13667,4.700858 6.91058,3.636555 1.42544,-0.546853 2.38744,-1.50715 3.07764,-3.072195 l 0.61156,-1.387233 0.0555,-7.416513 0.0555,-7.416511 h 6.90492 6.90501 l -0.0753,8.376799 c -0.0704,7.795548 -0.10385,8.495419 -0.48249,10.084269 -0.77075,3.231614 -2.00167,6.056583 -3.59664,8.254996 -0.39857,0.549248 -0.72473,1.091802 -0.72473,1.205715 0,0.278329 -1.74564,2.088198 -3.29399,3.415425 -1.31216,1.124609 -3.17853,2.263916 -4.0947,2.499546 -0.29482,0.07599 -1.24908,0.392638 -2.12072,0.704162 -1.46859,0.52485 -1.83155,0.566454 -4.94123,0.566256 -3.12379,-9.6e-5 -3.48536,-0.04196 -5.22079,-0.605757 -2.74702,-0.892185 -3.64495,-1.337832 -5.47243,-2.716061 -2.07151,-1.562152 -3.81468,-3.566943 -5.26473,-6.054783 -2.0471,-3.512037 -2.90386,-6.119484 -3.33605,-10.152674 -0.28211,-2.631853 -0.23787,-15.358676 0.0536,-15.486692 z m 19.24013,39.391282 h 11.28065 v 6.72275 6.722941 h -11.28065 -11.28066 v -6.722845 -6.722846 z m 19.30034,-49.726875 c 0.10236,0 0.18638,-0.371032 0.18638,-0.824671 10e-5,-0.819184 0.0119,-0.825593 0.86519,-0.960297 0.47574,-0.07504 19.58542,-0.134815 42.46557,-0.133816 h 41.60067 l -0.0566,2.881576 -0.0566,2.881584 h -42.3005 c -23.26533,0 -42.43324,-0.06105 -42.59531,-0.13192 -0.23659,-0.103704 -0.29502,-0.484248 -0.29492,-1.920783 0,-1.051897 0.0773,-1.791273 0.18649,-1.791273 z m 19.01733,32.227999 h 14.35721 v 6.616229 6.616135 h -14.35721 -14.35721 v -6.616031 -6.616136 z m 25.73202,-21.981211 h 6.8988 v 6.509423 6.509425 h -6.89872 -6.89904 v -6.509529 -6.509422 z m 0,19.848299 h 6.8988 v 16.86052 16.860424 h -6.8988 -6.89896 v -16.860424 -16.86052 z m 27.50308,-19.846999 h 14.45046 v 6.509519 6.509329 h -14.45046 -14.45037 v -6.509425 -6.509423 z m -12.05007,20.8245 c 0.0903,-0.06401 3.146,-0.112516 6.79142,-0.10851 l 6.628,0.01 0.0606,7.726243 c 0.0843,10.835841 -0.29911,10.244489 6.72612,10.360694 l 4.4284,0.07298 v 6.781956 6.781954 l -1.64415,0.241318 c -2.48214,0.364137 -10.37665,0.309335 -12.51104,-0.08701 -3.6695,-0.681468 -6.05154,-1.992989 -7.64464,-4.209107 -1.65344,-2.30012 -2.43862,-4.644039 -2.8062,-8.376001 -0.23145,-2.350527 -0.25592,-19.03083 -0.0276,-19.191946 z m 34.61132,-27.186612 c 0.34807,-1.41644 1.03497,-2.775568 1.79373,-3.549336 3.12506,-3.187015 6.89196,-3.523751 9.98248,-0.892488 1.44998,1.234416 1.81071,1.71376 2.43091,3.229912 0.47048,1.150504 0.52311,1.506936 0.52004,3.52104 -8e-5,2.013688 -0.0574,2.37712 -0.54183,3.583636 -1.04733,2.611649 -3.68838,4.665548 -6.28051,4.884172 -2.41548,0.20372 -4.25901,-0.620161 -6.16318,-2.754167 -1.69892,-1.903885 -2.42431,-5.245305 -1.74164,-8.022769 z m 1.35786,5.509823 c 0.62932,1.721872 2.58039,3.414632 4.59055,3.982585 2.01212,0.568452 3.53945,0.09201 5.83134,-1.818777 0.54907,-0.457641 0.96007,-1.077199 1.39326,-2.099896 0.54648,-1.290623 0.61477,-1.652959 0.61965,-3.286111 8e-5,-1.682968 -0.0495,-1.957496 -0.64696,-3.29992 -0.52885,-1.186512 -0.86472,-1.636455 -1.77121,-2.372128 -0.61532,-0.499344 -1.53826,-1.072199 -2.05107,-1.273119 -3.14685,-1.232824 -6.92932,0.751167 -8.19427,4.298111 -0.48031,1.347128 -0.36773,4.237104 0.22871,5.869255 z m 5.10988,-8.323391 c 1.40341,-2.07e-4 2.76685,0.094 3.02987,0.20832 1.12734,0.490648 1.63653,2.975888 0.84552,4.126888 -0.20833,0.302936 -0.66574,0.669672 -1.0164,0.814784 l -0.63783,0.263928 0.63995,0.810976 c 0.35207,0.445936 0.90123,1.340824 1.22049,1.988488 0.31935,0.647662 0.65646,1.231319 0.74931,1.296924 0.40005,0.283026 0.1103,0.520146 -0.6239,0.509748 l -0.7925,-0.01198 -1.11853,-2.034191 c -1.19593,-2.174712 -1.48648,-2.425536 -2.80894,-2.425536 l -0.82687,1.04e-4 -8e-5,2.254519 -1.6e-4,2.25441 -0.56221,-0.06703 -0.56253,-0.06703 -0.0433,-4.962073 -0.0433,-4.962375 z m 0.31313,4.268608 c 1.38996,-2e-4 1.73117,-0.07 2.14438,-0.442248 1.02435,-0.922384 0.44278,-2.409128 -1.03356,-2.641848 -0.61815,-0.097 -2.37498,-0.046 -2.71705,0.07896 -0.0253,0.01 -0.048,0.689376 -0.048,1.511048 l -8e-5,1.493952 z" id="path31-1" inkscape:connector-curvature="0"/>
    <path style="opacity:1;fill:#999999;fill-opacity:1;stroke:#b5a642;stroke-width:0;stroke-linejoin:round;stroke-miterlimit:4;stroke-dasharray:none;stroke-opacity:1;paint-order:normal" d="m 379.86991,-244.20976 v 0.0258 a 50.991875,50.000063 0 0 0 -43.0383,24.97439 50.991875,50.000063 0 0 0 0,50.00003 50.991875,50.000063 0 0 0 43.0383,24.94467 v 0.055 h 1.12167 338.0164 0.8081 v -0.0186 a 50.991875,50.000063 0 0 0 43.35232,-24.98127 50.991875,50.000063 0 0 0 0,-50.00003 50.991875,50.000063 0 0 0 -43.35232,-24.9606 v -0.0395 h -0.8081 -338.0164 z" id="rect84" inkscape:connector-curvature="0"/>
    <circle style="opacity:1;fill:#ffffff;fill-opacity:1;stroke:#b5a642;stroke-width:0;stroke-linejoin:round;stroke-miterlimit:4;stroke-dasharray:none;stroke-opacity:1;paint-order:normal" id="path104" cx="200" cy="-3.0000005" r="185"/>
    <circle style="opacity:1;fill:#b3b3b3;fill-opacity:1;stroke:#b5a642;stroke-width:0;stroke-linejoin:round;stroke-miterlimit:4;stroke-dasharray:none;stroke-opacity:1;paint-order:normal" id="path91" cx="200" cy="-3.0000002" r="180"/>
    <circle r="185" cy="-3.0000005" cx="900" id="circle107" style="opacity:1;fill:#ffffff;fill-opacity:1;stroke:#b5a642;stroke-width:0;stroke-linejoin:round;stroke-miterlimit:4;stroke-dasharray:none;stroke-opacity:1;paint-order:normal"/>
    <circle r="180" cy="-3.0000002" cx="900" id="circle102" style="opacity:1;fill:#b3b3b3;fill-opacity:1;stroke:#b5a642;stroke-width:0;stroke-linejoin:round;stroke-miterlimit:4;stroke-dasharray:none;stroke-opacity:1;paint-order:normal"/>
    <circle style="opacity:1;fill:#000000;fill-opacity:1;stroke:#b5a642;stroke-width:0;stroke-linejoin:round;stroke-miterlimit:4;stroke-dasharray:none;stroke-opacity:1;paint-order:normal" id="path110" cx="200" cy="-3.0000005" r="165"/>
    <circle r="165" cy="-3.0000005" cx="900" id="circle112" style="opacity:1;fill:#000000;fill-opacity:1;stroke:#b5a642;stroke-width:0;stroke-linejoin:round;stroke-miterlimit:4;stroke-dasharray:none;stroke-opacity:1;paint-order:normal"/>
    <circle style="opacity:1;fill:#cccccc;fill-opacity:1;stroke:#b5a642;stroke-width:0;stroke-linejoin:round;stroke-miterlimit:4;stroke-dasharray:none;stroke-opacity:1;paint-order:normal" id="path122" cx="40" cy="-213" r="35"/>
    <circle r="35" cy="-213" cx="1060" id="circle133" style="opacity:1;fill:#cccccc;fill-opacity:1;stroke:#b5a642;stroke-width:0;stroke-linejoin:round;stroke-miterlimit:4;stroke-dasharray:none;stroke-opacity:1;paint-order:normal"/>
    <circle style="opacity:1;fill:#cccccc;fill-opacity:1;stroke:#b5a642;stroke-width:0;stroke-linejoin:round;stroke-miterlimit:4;stroke-dasharray:none;stroke-opacity:1;paint-order:normal" id="circle135" cx="1060" cy="157" r="35"/>
    <circle r="35" cy="157" cx="40" id="circle137" style="opacity:1;fill:#cccccc;fill-opacity:1;stroke:#b5a642;stroke-width:0;stroke-linejoin:round;stroke-miterlimit:4;stroke-dasharray:none;stroke-opacity:1;paint-order:normal"/>
    <circle style="opacity:1;fill:#ffffff;fill-opacity:1;stroke:#b5a642;stroke-width:0;stroke-linejoin:round;stroke-miterlimit:4;stroke-dasharray:none;stroke-opacity:1;paint-order:normal" id="path139" cx="40" cy="-213" r="30"/>
    <circle r="30" cy="-213" cx="1060" id="circle141" style="opacity:1;fill:#ffffff;fill-opacity:1;stroke:#b5a642;stroke-width:0;stroke-linejoin:round;stroke-miterlimit:4;stroke-dasharray:none;stroke-opacity:1;paint-order:normal"/>
    <circle style="opacity:1;fill:#ffffff;fill-opacity:1;stroke:#b5a642;stroke-width:0;stroke-linejoin:round;stroke-miterlimit:4;stroke-dasharray:none;stroke-opacity:1;paint-order:normal" id="circle143" cx="1060" cy="157" r="30"/>
    <circle r="30" cy="157" cx="40" id="circle145" style="opacity:1;fill:#ffffff;fill-opacity:1;stroke:#b5a642;stroke-width:0;stroke-linejoin:round;stroke-miterlimit:4;stroke-dasharray:none;stroke-opacity:1;paint-order:normal"/>
    <text xml:space="preserve" style="font-style:normal;font-variant:normal;font-weight:normal;font-stretch:normal;font-size:63.5px;line-height:1.25;font-family:Calibri;-inkscape-font-specification:Calibri;font-variant-ligatures:normal;font-variant-caps:normal;font-variant-numeric:normal;font-feature-settings:normal;text-align:start;letter-spacing:0px;word-spacing:0px;writing-mode:lr-tb;text-anchor:start;fill:#ffffff;fill-opacity:1;stroke:none;stroke-width:0.26458332" x="438.8566" y="-97.489822" id="text55"><tspan sodipodi:role="line" id="tspan53" x="438.8566" y="-97.489822" style="fill:#ffffff;stroke-width:0.26458332">HC-SR04</tspan></text>
    <text xml:space="preserve" style="font-style:normal;font-variant:normal;font-weight:normal;font-stretch:normal;font-size:63.5px;line-height:1.25;font-family:Calibri;-inkscape-font-specification:Calibri;font-variant-ligatures:normal;font-variant-caps:normal;font-variant-numeric:normal;font-feature-settings:normal;text-align:start;letter-spacing:0px;word-spacing:0px;writing-mode:lr-tb;text-anchor:start;fill:#ffffff;fill-opacity:1;stroke:none;stroke-width:0.26458332" x="-108.0542" y="453.07281" id="text59" transform="rotate(-90)"><tspan sodipodi:role="line" id="tspan57" x="-108.0542" y="453.07281" style="fill:#ffffff;stroke-width:0.26458332">Vcc</tspan></text>
    <text xml:space="preserve" style="font-style:normal;font-variant:normal;font-weight:normal;font-stretch:normal;font-size:63.5px;line-height:1.25;font-family:Calibri;-inkscape-font-specification:Calibri;font-variant-ligatures:normal;font-variant-caps:normal;font-variant-numeric:normal;font-feature-settings:normal;text-align:start;letter-spacing:0px;word-spacing:0px;writing-mode:lr-tb;text-anchor:start;fill:#ffffff;fill-opacity:1;stroke:none;stroke-width:0.26458332" x="-107.46509" y="525.63562" id="text63" transform="rotate(-90)"><tspan sodipodi:role="line" id="tspan61" x="-107.46509" y="525.63562" style="fill:#ffffff;stroke-width:0.26458332">Trig</tspan></text>
    <text xml:space="preserve" style="font-style:normal;font-variant:normal;font-weight:normal;font-stretch:normal;font-size:52.45620728px;line-height:1.25;font-family:Calibri;-inkscape-font-specification:Calibri;font-variant-ligatures:normal;font-variant-caps:normal;font-variant-numeric:normal;font-feature-settings:normal;text-align:start;letter-spacing:0px;word-spacing:0px;writing-mode:lr-tb;text-anchor:start;fill:#ffffff;fill-opacity:1;stroke:none;stroke-width:0.21856752" x="-111.4055" y="605.56158" id="text67" transform="rotate(-90)"><tspan sodipodi:role="line" id="tspan65" x="-111.4055" y="605.56158" style="fill:#ffffff;stroke-width:0.21856752">Echo</tspan></text>
    <text xml:space="preserve" style="font-style:normal;font-variant:normal;font-weight:normal;font-stretch:normal;font-size:63.5px;line-height:1.25;font-family:Calibri;-inkscape-font-specification:Calibri;font-variant-ligatures:normal;font-variant-caps:normal;font-variant-numeric:normal;font-feature-settings:normal;text-align:start;letter-spacing:0px;word-spacing:0px;writing-mode:lr-tb;text-anchor:start;fill:#ffffff;fill-opacity:1;stroke:none;stroke-width:0.26458332" x="-109.82153" y="686.77942" id="text71" transform="rotate(-90)"><tspan sodipodi:role="line" id="tspan69" x="-109.82153" y="686.77942" style="fill:#ffffff;stroke-width:0.26458332">GND</tspan></text>
  </g>
</svg></svg>
