<?xml version="1.0" encoding="UTF-8" standalone="no"?>
<svg xmlns:dc="http://purl.org/dc/elements/1.1/" xmlns:cc="http://creativecommons.org/ns#" xmlns:rdf="http://www.w3.org/1999/02/22-rdf-syntax-ns#" xmlns:svg="http://www.w3.org/2000/svg" xmlns="http://www.w3.org/2000/svg" xmlns:sodipodi="http://sodipodi.sourceforge.net/DTD/sodipodi-0.dtd" xmlns:inkscape="http://www.inkscape.org/namespaces/inkscape" width="1698" height="1081" viewBox="0 0 1100 700" version="1.1" id="svg8" inkscape:version="0.92.4 (5da689c313, 2019-01-14)" sodipodi:docname="KY-052.svg" inkscape:export-filename="C:\Users\Entwicklung5.SIMACGMBH\Desktop\SEN-KIT02\Abbildungen Fertig\KY-052\KY-052.png" inkscape:export-xdpi="93" inkscape:export-ydpi="93">
  <defs id="defs2"/>
  <sodipodi:namedview id="base" pagecolor="#323232" bordercolor="#666666" borderopacity="1.0" inkscape:pageopacity="0" inkscape:pageshadow="2" inkscape:zoom="0.087500002" inkscape:cx="1208.748" inkscape:cy="3301.2918" inkscape:document-units="mm" inkscape:current-layer="layer1" showgrid="false" inkscape:window-width="1920" inkscape:window-height="1017" inkscape:window-x="-8" inkscape:window-y="-8" inkscape:window-maximized="1"/>
  <metadata id="metadata5">
    <rdf:RDF>
      <cc:Work rdf:about="">
        <dc:format>image/svg+xml</dc:format>
        <dc:type rdf:resource="http://purl.org/dc/dcmitype/StillImage"/>
        <dc:title/>
      </cc:Work>
    </rdf:RDF>
  </metadata>
  <g inkscape:label="Ebene 1" inkscape:groupmode="layer" id="layer1" transform="translate(0,403)">
    <rect style="opacity:1;fill:#000000;fill-opacity:1;stroke:#000000;stroke-width:0;stroke-miterlimit:4;stroke-dasharray:none;stroke-opacity:1" id="rect815" width="699.9599" height="1010.0001" x="-296.95981" y="0.01541132" transform="matrix(5.1884132e-5,-1,1,3.9719235e-5,0,0)"/>
    <rect style="opacity:1;fill:#ffffff;fill-opacity:1;stroke:#000000;stroke-width:0;stroke-miterlimit:4;stroke-dasharray:none;stroke-opacity:1" id="rect821" width="409.99615" height="80.867508" x="-257.95264" y="913.88989" ry="0" transform="matrix(4.3279685e-5,1,1,-4.7615827e-5,0,0)"/>
    <rect style="opacity:1;fill:#1a1a1a;fill-opacity:1;stroke:#000000;stroke-width:0;stroke-miterlimit:4;stroke-dasharray:none;stroke-opacity:1" id="rect825" width="66.748184" height="71.059601" x="-120.68013" y="918.68866" ry="14.875651" transform="matrix(5.2052679e-5,1,1,-3.9590624e-5,0,0)"/>
    <rect y="918.68866" x="15.638991" height="71.059601" width="66.748184" id="rect872" style="opacity:1;fill:#1a1a1a;fill-opacity:1;stroke:#000000;stroke-width:0;stroke-miterlimit:4;stroke-dasharray:none;stroke-opacity:1" ry="14.875651" transform="matrix(5.2052679e-5,1,1,-3.9590624e-5,0,0)"/>
    <rect y="918.68866" x="-52.521194" height="71.059601" width="66.748184" id="rect874" style="opacity:1;fill:#1a1a1a;fill-opacity:1;stroke:#000000;stroke-width:0;stroke-miterlimit:4;stroke-dasharray:none;stroke-opacity:1" ry="12.959847" transform="matrix(5.2052679e-5,1,1,-3.9590624e-5,0,0)"/>
    <rect style="opacity:0.98999999;fill:#808080;fill-opacity:1;stroke:#ffffff;stroke-width:0;stroke-linejoin:round;stroke-miterlimit:4;stroke-dasharray:none;stroke-opacity:1;paint-order:normal" id="rect947" width="7.4086189" height="145.32808" x="-91.082962" y="954.66919" transform="matrix(5.2052679e-5,1,1,-3.9590624e-5,0,0)"/>
    <rect y="954.66919" x="-22.529493" height="145.32808" width="7.4086189" id="rect949" style="opacity:0.98999999;fill:#808080;fill-opacity:1;stroke:#ffffff;stroke-width:0;stroke-linejoin:round;stroke-miterlimit:4;stroke-dasharray:none;stroke-opacity:1;paint-order:normal" transform="matrix(5.2052679e-5,1,1,-3.9590624e-5,0,0)"/>
    <rect style="opacity:0.98999999;fill:#808080;fill-opacity:1;stroke:#ffffff;stroke-width:0;stroke-linejoin:round;stroke-miterlimit:4;stroke-dasharray:none;stroke-opacity:1;paint-order:normal" id="rect951" width="7.4086189" height="145.32808" x="45.236294" y="954.66919" transform="matrix(5.2052679e-5,1,1,-3.9590624e-5,0,0)"/>
    <path style="fill:#ffffff;stroke-width:0.2143788" d="m 253.80325,217.03001 c 3.4821,-0.0754 3.86282,-0.12347 4.51233,-0.5755 0.39021,-0.2715 0.89179,-0.83233 1.11488,-1.24632 0.38308,-0.71141 0.40853,-1.21987 0.46536,-9.30415 l 0.0603,-8.55172 7.43905,0.0489 7.43904,0.0478 v 10.65779 c 0,11.75068 -0.0819,12.85728 -1.16383,15.94317 -1.41774,4.04288 -3.48663,5.91902 -7.7542,7.03156 -1.14539,0.29859 -2.4538,0.36299 -6.78964,0.33408 -2.95387,-0.0191 -6.19154,-0.11911 -7.19471,-0.22134 l -1.82413,-0.18563 -0.0538,-6.94847 -0.0539,-6.94845 3.80298,-0.0818 z m 70.83554,23.86924 c 63.47812,0.0223 79.09338,0.10774 76.45757,0.41897 l -0.40541,0.0478 0.40531,0.19487 c 0.33931,0.16301 0.28971,0.20391 -0.30396,0.24993 -0.46966,0.0362 -0.26405,0.1052 0.60801,0.20359 l 1.31736,0.14856 -1.31736,0.0659 c -0.72456,0.0362 -1.15778,0.11209 -0.96263,0.16916 0.30212,0.0882 0.35451,0.38466 0.35451,1.99949 -1e-4,1.89399 0,1.8959 0.55723,1.99026 0.39139,0.0669 0.30082,0.10413 -0.30395,0.12858 -0.47377,0.0191 -0.86139,0.1359 -0.86139,0.26064 0,0.15069 -25.16502,0.22539 -75.08952,0.22294 h -75.08965 v -3.06135 -3.06125 z M 267.4374,175.33946 h 7.49887 l -2.1e-4,6.91626 -2.2e-4,6.91628 h -7.49899 -7.49877 l 3.3e-4,-6.91628 2.1e-4,-6.91626 z m 15.12175,25.51159 c 0.5335,-3.89008 1.48255,-7.34747 2.8631,-10.43093 0.50267,-1.12253 0.97385,-2.09183 1.04717,-2.15432 0.0733,-0.0627 0.44951,-0.67348 0.83605,-1.35811 0.78062,-1.38277 2.5612,-3.87075 2.97156,-4.15191 0.14567,-0.0999 0.26459,-0.27414 0.26459,-0.38774 1.1e-4,-0.30061 1.87535,-2.21594 3.34064,-3.4118 1.5439,-1.26003 2.8011,-1.9673 5.57718,-3.13776 3.23972,-1.36597 5.13975,-1.69017 9.01895,-1.53917 2.81306,0.10955 3.51131,0.21612 5.26946,0.80449 1.11466,0.37308 2.46739,0.88982 3.00607,1.14846 0.53877,0.25864 1.07573,0.47031 1.19337,0.47031 0.11751,0 0.95108,0.48475 1.85248,1.07727 3.59196,2.3613 8.48944,8.66392 10.37782,13.35563 2.9584,7.34969 3.33071,14.73106 1.08727,21.54883 -0.94366,2.86753 -1.62487,4.49937 -2.7226,6.52277 -1.26853,2.33752 -1.37105,2.47385 -4.45174,5.91222 -3.53278,3.94298 -6.06733,5.61499 -10.67466,7.04197 -2.34814,0.72724 -6.96236,1.00192 -9.45066,0.56254 -3.23562,-0.57136 -7.54417,-2.63154 -10.20413,-4.87925 -1.37397,-1.16122 -3.22106,-2.98942 -3.22106,-3.18845 0,-0.0606 -0.46363,-0.64489 -1.03024,-1.29925 -2.69564,-3.11342 -5.47227,-9.20542 -6.48504,-14.22898 -0.37791,-1.87432 -0.6588,-6.8677 -0.46558,-8.27682 z m 14.34126,7.1714 c 0.72735,3.20704 2.1684,5.9479 4.39727,8.36395 2.25424,2.44345 5.84232,3.3542 8.93087,2.26695 3.40199,-1.19755 6.76926,-5.70213 7.88186,-10.5441 0.63788,-2.7754 0.59162,-6.8254 -0.10835,-9.5156 -0.99423,-3.82037 -2.76768,-6.80712 -5.23075,-8.80875 -1.12803,-0.91682 -1.64806,-1.17949 -2.83733,-1.43335 -2.54814,-0.54384 -5.15462,-0.2479 -6.9767,0.79206 -1.60158,0.91406 -3.63413,3.50022 -4.80075,6.10816 -1.76127,3.93759 -2.21434,8.54492 -1.25612,12.77068 z m 42.14151,-32.58034 c 0.13435,-0.0574 3.51682,-0.0775 7.51656,-0.0447 l 7.27214,0.0595 0.0226,7.59654 c 0.0205,7.17671 0.0475,7.67008 0.45867,8.92511 1.05891,3.22639 4.49636,4.99467 7.51149,3.86385 1.54939,-0.58103 2.59505,-1.60135 3.34528,-3.26421 l 0.66471,-1.47393 0.0604,-7.88005 0.0604,-7.88005 h 7.50534 7.50546 l -0.0819,8.90036 c -0.0765,8.28276 -0.11289,9.02637 -0.52445,10.71453 -0.83777,3.43359 -2.17573,6.43512 -3.90939,8.77093 -0.43322,0.58358 -0.78775,1.16005 -0.78775,1.28108 0,0.29572 -1.89744,2.2187 -3.58043,3.62888 -1.42626,1.1949 -3.45491,2.40542 -4.45076,2.65577 -0.32044,0.0807 -1.35769,0.41718 -2.30512,0.74817 -1.5963,0.55766 -1.99082,0.60186 -5.37091,0.60165 -3.39541,-1e-4 -3.78842,-0.0446 -5.67475,-0.64361 -2.98591,-0.94795 -3.96191,-1.42145 -5.94831,-2.88582 -2.25163,-1.65978 -4.14638,-3.78988 -5.72252,-6.43321 -2.22511,-3.73154 -3.15638,-6.50195 -3.62615,-10.78722 -0.30664,-2.79634 -0.25856,-16.31859 0.0582,-16.4546 z m 20.91319,41.85323 h 12.26157 v 7.14292 7.14313 h -12.26157 -12.26158 v -7.14302 -7.14303 z m 20.97862,-52.8348 c 0.11127,0 0.2026,-0.39422 0.2026,-0.87621 1e-4,-0.87039 0.0129,-0.87719 0.94042,-1.02032 0.51711,-0.0797 21.28851,-0.14324 46.15819,-0.14218 h 45.21819 l -0.0615,3.06168 -0.0615,3.06168 h -45.97887 c -25.28836,0 -46.12305,-0.0648 -46.29922,-0.14017 -0.25715,-0.11018 -0.32066,-0.5145 -0.32056,-2.04082 0,-1.11765 0.0841,-1.90323 0.20271,-1.90323 z m 20.67101,34.24225 h 15.60567 v 7.02974 7.02964 h -15.60567 -15.60566 v -7.02953 -7.02964 z m 27.96956,-23.35504 h 7.49876 v 6.91627 6.91626 h -7.49865 -7.49899 v -6.91637 -6.91627 z m 0,21.08882 h 7.49876 v 17.9143 17.9142 h -7.49876 -7.49888 v -17.9142 -17.9143 z m 29.8947,-21.08744 h 15.70701 v 6.91637 6.91616 H 459.469 443.76209 v -6.91626 -6.91627 z m -13.09795,22.12604 c 0.0981,-0.068 3.41956,-0.11955 7.382,-0.11529 l 7.20432,0.0106 0.0658,8.20914 c 0.0916,11.51308 -0.32509,10.88477 7.31105,11.00823 l 4.81348,0.0775 v 7.20582 7.20583 l -1.78713,0.2564 c -2.69803,0.3869 -11.27901,0.32867 -13.59901,-0.0925 -3.98853,-0.72406 -6.57776,-2.11756 -8.30936,-4.47218 -1.79719,-2.44387 -2.6507,-4.93429 -3.05017,-8.8995 -0.25166,-2.49743 -0.27818,-20.22025 -0.0302,-20.39144 z m 37.62099,-28.88578 c 0.37835,-1.50496 1.12501,-2.94904 1.94974,-3.77117 3.39681,-3.3862 7.49122,-3.74398 10.85052,-0.94827 1.57603,1.31156 1.96817,1.82088 2.64227,3.43178 0.5114,1.22241 0.56866,1.60113 0.56531,3.7411 -1.1e-4,2.13955 -0.0625,2.52569 -0.58903,3.80762 -1.13838,2.77488 -4.00902,4.95715 -6.82661,5.18944 -2.62546,0.21644 -4.62932,-0.65892 -6.69907,-2.92631 -1.84665,-2.02288 -2.63515,-5.57313 -1.89313,-8.52419 z m 1.47597,5.85419 c 0.68403,1.82949 2.80477,3.62804 4.98977,4.2315 2.18705,0.60397 3.84717,0.0978 6.3384,-1.93246 0.59679,-0.48624 1.04349,-1.14452 1.51436,-2.23113 0.59398,-1.3713 0.66827,-1.75627 0.67355,-3.4915 1.1e-4,-1.78815 -0.0538,-2.07984 -0.70322,-3.50617 -0.57479,-1.26066 -0.93988,-1.73873 -1.92526,-2.52038 -0.66881,-0.53056 -1.67198,-1.13921 -2.22942,-1.35269 -3.42042,-1.30987 -7.53187,0.79812 -8.90681,4.56675 -0.52208,1.43132 -0.3997,4.50192 0.24863,6.23608 z m 5.55421,-8.84361 c 1.52547,-2.1e-4 3.00747,0.0999 3.29331,0.22134 1.2254,0.52131 1.77884,3.16188 0.91906,4.38483 -0.22641,0.32186 -0.72358,0.71152 -1.10474,0.8657 l -0.69329,0.28042 0.69556,0.86166 c 0.38266,0.47381 0.97956,1.42464 1.32664,2.11278 0.34708,0.68814 0.71356,1.30827 0.81448,1.37798 0.43485,0.30072 0.1199,0.55265 -0.67819,0.54161 l -0.86138,-0.0127 -1.21581,-2.16133 c -1.2999,-2.31063 -1.6157,-2.57713 -3.05318,-2.57713 l -0.89881,1.1e-4 -1e-4,2.39542 -1.1e-4,2.39531 -0.61113,-0.0712 -0.61146,-0.0712 -0.0475,-5.27221 -0.0475,-5.27253 z m 0.34039,4.53539 c 1.5108,-2e-4 1.88171,-0.0745 2.33079,-0.46988 1.11347,-0.98004 0.48131,-2.5597 -1.1234,-2.80696 -0.67195,-0.10308 -2.58146,-0.0489 -2.95334,0.084 -0.027,0.0106 -0.0517,0.73246 -0.0517,1.60548 l -1.1e-4,1.58732 z" id="path31-1" inkscape:connector-curvature="0"/>
    <rect ry="14.875651" y="918.68866" x="-256.58899" height="71.059601" width="66.748184" id="rect95" style="opacity:1;fill:#1a1a1a;fill-opacity:1;stroke:#000000;stroke-width:0;stroke-miterlimit:4;stroke-dasharray:none;stroke-opacity:1" transform="matrix(5.2052679e-5,1,1,-3.9590624e-5,0,0)"/>
    <rect ry="12.959847" style="opacity:1;fill:#1a1a1a;fill-opacity:1;stroke:#000000;stroke-width:0;stroke-miterlimit:4;stroke-dasharray:none;stroke-opacity:1" id="rect97" width="66.748184" height="71.059601" x="-188.42995" y="918.68872" transform="matrix(5.2052679e-5,1,1,-3.9590624e-5,0,0)"/>
    <rect y="954.66919" x="-226.99173" height="145.32808" width="7.4086189" id="rect99" style="opacity:0.98999999;fill:#808080;fill-opacity:1;stroke:#ffffff;stroke-width:0;stroke-linejoin:round;stroke-miterlimit:4;stroke-dasharray:none;stroke-opacity:1;paint-order:normal" transform="matrix(5.2052679e-5,1,1,-3.9590624e-5,0,0)"/>
    <rect style="opacity:0.98999999;fill:#808080;fill-opacity:1;stroke:#ffffff;stroke-width:0;stroke-linejoin:round;stroke-miterlimit:4;stroke-dasharray:none;stroke-opacity:1;paint-order:normal" id="rect101" width="7.4086189" height="145.32808" x="-158.43826" y="954.66919" transform="matrix(5.2052679e-5,1,1,-3.9590624e-5,0,0)"/>
    <circle style="opacity:1;fill:#cccccc;fill-opacity:1;stroke:#b5a642;stroke-width:0;stroke-linejoin:round;stroke-miterlimit:4;stroke-dasharray:none;stroke-opacity:1;paint-order:normal" id="path140" cx="105" cy="-298" r="85"/>
    <circle cy="192" cx="105" id="circle142" style="opacity:1;fill:#cccccc;fill-opacity:1;stroke:#b5a642;stroke-width:0;stroke-linejoin:round;stroke-miterlimit:4;stroke-dasharray:none;stroke-opacity:1;paint-order:normal" r="85"/>
    <circle style="opacity:1;fill:#ffffff;fill-opacity:1;stroke:#b5a642;stroke-width:0;stroke-linejoin:round;stroke-miterlimit:4;stroke-dasharray:none;stroke-opacity:1;paint-order:normal" id="path152" cx="105" cy="192" r="70"/>
    <circle cy="-298" cx="105" id="circle154" style="opacity:1;fill:#ffffff;fill-opacity:1;stroke:#b5a642;stroke-width:0;stroke-linejoin:round;stroke-miterlimit:4;stroke-dasharray:none;stroke-opacity:1;paint-order:normal" r="70"/>
    <rect transform="matrix(5.2052679e-5,1,1,-3.9590624e-5,0,0)" style="opacity:1;fill:#1a1a1a;fill-opacity:1;stroke:#000000;stroke-width:0;stroke-miterlimit:4;stroke-dasharray:none;stroke-opacity:1" id="rect68" width="66.748184" height="71.059601" x="83.519974" y="918.68866" ry="14.875651"/>
    <rect transform="matrix(5.2052679e-5,1,1,-3.9590624e-5,0,0)" style="opacity:0.98999999;fill:#808080;fill-opacity:1;stroke:#ffffff;stroke-width:0;stroke-linejoin:round;stroke-miterlimit:4;stroke-dasharray:none;stroke-opacity:1;paint-order:normal" id="rect70" width="7.4086189" height="145.32808" x="113.79657" y="954.65149"/>
    <rect style="opacity:1;fill:#deaa87;fill-opacity:1;stroke:#b5a642;stroke-width:0;stroke-linejoin:round;stroke-miterlimit:4;stroke-dasharray:none;stroke-opacity:1;paint-order:normal" id="rect80" width="50" height="29.999998" x="678" y="47"/>
    <rect style="opacity:1;fill:#cccccc;fill-opacity:1;stroke:#b5a642;stroke-width:0;stroke-linejoin:round;stroke-miterlimit:4;stroke-dasharray:none;stroke-opacity:1;paint-order:normal" id="rect82" width="17.999998" height="29.999998" x="728" y="47"/>
    <rect style="opacity:1;fill:#cccccc;fill-opacity:1;stroke:#b5a642;stroke-width:0;stroke-linejoin:round;stroke-miterlimit:4;stroke-dasharray:none;stroke-opacity:1;paint-order:normal" id="rect84" width="17.999998" height="29.999998" x="660" y="47"/>
    <rect y="-163" x="678" height="29.999998" width="50" id="rect105" style="opacity:1;fill:#c87137;fill-opacity:1;stroke:#b5a642;stroke-width:0;stroke-linejoin:round;stroke-miterlimit:4;stroke-dasharray:none;stroke-opacity:1;paint-order:normal"/>
    <rect y="-163" x="728" height="29.999998" width="17.999998" id="rect107" style="opacity:1;fill:#cccccc;fill-opacity:1;stroke:#b5a642;stroke-width:0;stroke-linejoin:round;stroke-miterlimit:4;stroke-dasharray:none;stroke-opacity:1;paint-order:normal"/>
    <rect y="-163" x="660" height="29.999998" width="17.999998" id="rect109" style="opacity:1;fill:#cccccc;fill-opacity:1;stroke:#b5a642;stroke-width:0;stroke-linejoin:round;stroke-miterlimit:4;stroke-dasharray:none;stroke-opacity:1;paint-order:normal"/>
    <rect style="opacity:1;fill:#c87137;fill-opacity:1;stroke:#b5a642;stroke-width:0;stroke-linejoin:round;stroke-miterlimit:4;stroke-dasharray:none;stroke-opacity:1;paint-order:normal" id="rect112" width="50" height="29.999998" x="203" y="-118"/>
    <rect style="opacity:1;fill:#cccccc;fill-opacity:1;stroke:#b5a642;stroke-width:0;stroke-linejoin:round;stroke-miterlimit:4;stroke-dasharray:none;stroke-opacity:1;paint-order:normal" id="rect114" width="17.999998" height="29.999998" x="253" y="-118"/>
    <rect style="opacity:1;fill:#cccccc;fill-opacity:1;stroke:#b5a642;stroke-width:0;stroke-linejoin:round;stroke-miterlimit:4;stroke-dasharray:none;stroke-opacity:1;paint-order:normal" id="rect116" width="17.999998" height="29.999998" x="185" y="-118"/>
    <rect style="opacity:1;fill:#cccccc;fill-opacity:1;stroke:#b5a642;stroke-width:0;stroke-linejoin:round;stroke-miterlimit:4;stroke-dasharray:none;stroke-opacity:1;paint-order:normal" id="rect118" width="60" height="40" x="448" y="-183"/>
    <rect style="opacity:1;fill:#000000;fill-opacity:1;stroke:#b5a642;stroke-width:0;stroke-linejoin:round;stroke-miterlimit:4;stroke-dasharray:none;stroke-opacity:1;paint-order:normal" id="rect122" width="51.42857" height="32" x="452.08209" y="-178.81"/>
    <rect y="-183" x="430" height="40" width="18" id="rect125" style="opacity:1;fill:#cccccc;fill-opacity:1;stroke:#b5a642;stroke-width:0;stroke-linejoin:round;stroke-miterlimit:4;stroke-dasharray:none;stroke-opacity:1;paint-order:normal"/>
    <rect style="opacity:1;fill:#cccccc;fill-opacity:1;stroke:#b5a642;stroke-width:0;stroke-linejoin:round;stroke-miterlimit:4;stroke-dasharray:none;stroke-opacity:1;paint-order:normal" id="rect128" width="18" height="40" x="508" y="-183"/>
    <rect y="-103" x="448" height="40" width="60" id="rect130" style="opacity:1;fill:#cccccc;fill-opacity:1;stroke:#b5a642;stroke-width:0;stroke-linejoin:round;stroke-miterlimit:4;stroke-dasharray:none;stroke-opacity:1;paint-order:normal"/>
    <rect y="-98.810005" x="452.08209" height="32" width="51.42857" id="rect132" style="opacity:1;fill:#000000;fill-opacity:1;stroke:#b5a642;stroke-width:0;stroke-linejoin:round;stroke-miterlimit:4;stroke-dasharray:none;stroke-opacity:1;paint-order:normal"/>
    <rect style="opacity:1;fill:#cccccc;fill-opacity:1;stroke:#b5a642;stroke-width:0;stroke-linejoin:round;stroke-miterlimit:4;stroke-dasharray:none;stroke-opacity:1;paint-order:normal" id="rect134" width="18" height="40" x="430" y="-103"/>
    <rect y="-103" x="508" height="40" width="18" id="rect136" style="opacity:1;fill:#cccccc;fill-opacity:1;stroke:#b5a642;stroke-width:0;stroke-linejoin:round;stroke-miterlimit:4;stroke-dasharray:none;stroke-opacity:1;paint-order:normal"/>
    <rect style="opacity:1;fill:#cccccc;fill-opacity:1;stroke:#b5a642;stroke-width:0;stroke-linejoin:round;stroke-miterlimit:4;stroke-dasharray:none;stroke-opacity:1;paint-order:normal" id="rect138" width="60" height="40" x="448" y="-23"/>
    <rect style="opacity:1;fill:#000000;fill-opacity:1;stroke:#b5a642;stroke-width:0;stroke-linejoin:round;stroke-miterlimit:4;stroke-dasharray:none;stroke-opacity:1;paint-order:normal" id="rect140" width="51.42857" height="32" x="452.08209" y="-18.809998"/>
    <rect y="-23" x="430" height="40" width="18" id="rect142" style="opacity:1;fill:#cccccc;fill-opacity:1;stroke:#b5a642;stroke-width:0;stroke-linejoin:round;stroke-miterlimit:4;stroke-dasharray:none;stroke-opacity:1;paint-order:normal"/>
    <rect style="opacity:1;fill:#cccccc;fill-opacity:1;stroke:#b5a642;stroke-width:0;stroke-linejoin:round;stroke-miterlimit:4;stroke-dasharray:none;stroke-opacity:1;paint-order:normal" id="rect144" width="18" height="40" x="508" y="-23"/>
    <rect y="57" x="448" height="40" width="60" id="rect146" style="opacity:1;fill:#cccccc;fill-opacity:1;stroke:#b5a642;stroke-width:0;stroke-linejoin:round;stroke-miterlimit:4;stroke-dasharray:none;stroke-opacity:1;paint-order:normal"/>
    <rect y="61.190002" x="452.08209" height="32" width="51.42857" id="rect148" style="opacity:1;fill:#000000;fill-opacity:1;stroke:#b5a642;stroke-width:0;stroke-linejoin:round;stroke-miterlimit:4;stroke-dasharray:none;stroke-opacity:1;paint-order:normal"/>
    <rect style="opacity:1;fill:#cccccc;fill-opacity:1;stroke:#b5a642;stroke-width:0;stroke-linejoin:round;stroke-miterlimit:4;stroke-dasharray:none;stroke-opacity:1;paint-order:normal" id="rect150" width="18" height="40" x="430" y="57"/>
    <rect y="57" x="508" height="40" width="18" id="rect152" style="opacity:1;fill:#cccccc;fill-opacity:1;stroke:#b5a642;stroke-width:0;stroke-linejoin:round;stroke-miterlimit:4;stroke-dasharray:none;stroke-opacity:1;paint-order:normal"/>
    <rect style="opacity:1;fill:#cccccc;fill-opacity:1;stroke:#b5a642;stroke-width:0;stroke-linejoin:round;stroke-miterlimit:4;stroke-dasharray:none;stroke-opacity:1;paint-order:normal" id="rect206" width="17.999998" height="29.999998" x="657" y="-103"/>
    <rect y="-12.999998" x="657" height="29.999998" width="17.999998" id="rect208" style="opacity:1;fill:#cccccc;fill-opacity:1;stroke:#b5a642;stroke-width:0;stroke-linejoin:round;stroke-miterlimit:4;stroke-dasharray:none;stroke-opacity:1;paint-order:normal"/>
    <rect style="opacity:1;fill:#cccccc;fill-opacity:1;stroke:#b5a642;stroke-width:0;stroke-linejoin:round;stroke-miterlimit:4;stroke-dasharray:none;stroke-opacity:1;paint-order:normal" id="rect210" width="17.999998" height="29.999998" x="730" y="-58"/>
    <rect y="17.000002" x="167" height="14.999999" width="17.999998" id="rect218" style="opacity:1;fill:#cccccc;fill-opacity:1;stroke:#b5a642;stroke-width:0;stroke-linejoin:round;stroke-miterlimit:4;stroke-dasharray:none;stroke-opacity:1;paint-order:normal"/>
    <rect style="opacity:1;fill:#cccccc;fill-opacity:1;stroke:#b5a642;stroke-width:0;stroke-linejoin:round;stroke-miterlimit:4;stroke-dasharray:none;stroke-opacity:1;paint-order:normal" id="rect220" width="17.999998" height="14.999999" x="167" y="-68"/>
    <rect y="-43" x="167" height="14.999999" width="17.999998" id="rect222" style="opacity:1;fill:#cccccc;fill-opacity:1;stroke:#b5a642;stroke-width:0;stroke-linejoin:round;stroke-miterlimit:4;stroke-dasharray:none;stroke-opacity:1;paint-order:normal"/>
    <rect style="opacity:1;fill:#cccccc;fill-opacity:1;stroke:#b5a642;stroke-width:0;stroke-linejoin:round;stroke-miterlimit:4;stroke-dasharray:none;stroke-opacity:1;paint-order:normal" id="rect224" width="17.999998" height="14.999999" x="167" y="-13"/>
    <rect style="opacity:1;fill:#cccccc;fill-opacity:1;stroke:#b5a642;stroke-width:0;stroke-linejoin:round;stroke-miterlimit:4;stroke-dasharray:none;stroke-opacity:1;paint-order:normal" id="rect226" width="17.999998" height="14.999999" x="271" y="17.000002"/>
    <rect y="-68" x="271" height="14.999999" width="17.999998" id="rect228" style="opacity:1;fill:#cccccc;fill-opacity:1;stroke:#b5a642;stroke-width:0;stroke-linejoin:round;stroke-miterlimit:4;stroke-dasharray:none;stroke-opacity:1;paint-order:normal"/>
    <rect style="opacity:1;fill:#cccccc;fill-opacity:1;stroke:#b5a642;stroke-width:0;stroke-linejoin:round;stroke-miterlimit:4;stroke-dasharray:none;stroke-opacity:1;paint-order:normal" id="rect230" width="17.999998" height="14.999999" x="271" y="-43"/>
    <rect y="-13" x="271" height="14.999999" width="17.999998" id="rect232" style="opacity:1;fill:#cccccc;fill-opacity:1;stroke:#b5a642;stroke-width:0;stroke-linejoin:round;stroke-miterlimit:4;stroke-dasharray:none;stroke-opacity:1;paint-order:normal"/>
    <rect transform="matrix(5.3463276e-6,1,0.99999993,-3.8546046e-4,0,0)" style="opacity:0.98999999;fill:#808080;fill-opacity:1;stroke:#ffffff;stroke-width:0;stroke-linejoin:round;stroke-miterlimit:4;stroke-dasharray:none;stroke-opacity:1;paint-order:normal" id="rect234" width="7.4086194" height="14.926641" x="-64.456612" y="171.31271"/>
    <rect y="171.31258" x="-39.321194" height="14.926641" width="7.4086194" id="rect236" style="opacity:0.98999999;fill:#808080;fill-opacity:1;stroke:#ffffff;stroke-width:0;stroke-linejoin:round;stroke-miterlimit:4;stroke-dasharray:none;stroke-opacity:1;paint-order:normal" transform="matrix(5.3463276e-6,1,0.99999993,-3.8546046e-4,0,0)"/>
    <rect transform="matrix(5.3463276e-6,1,0.99999993,-3.8546046e-4,0,0)" style="opacity:0.98999999;fill:#808080;fill-opacity:1;stroke:#ffffff;stroke-width:0;stroke-linejoin:round;stroke-miterlimit:4;stroke-dasharray:none;stroke-opacity:1;paint-order:normal" id="rect238" width="7.4086194" height="14.926641" x="-9.0830984" y="171.31241"/>
    <rect y="171.31226" x="20.966009" height="14.926641" width="7.4086194" id="rect240" style="opacity:0.98999999;fill:#808080;fill-opacity:1;stroke:#ffffff;stroke-width:0;stroke-linejoin:round;stroke-miterlimit:4;stroke-dasharray:none;stroke-opacity:1;paint-order:normal" transform="matrix(5.3463276e-6,1,0.99999993,-3.8546046e-4,0,0)"/>
    <rect y="269.77551" x="-64.418655" height="14.926641" width="7.4086194" id="rect242" style="opacity:0.98999999;fill:#808080;fill-opacity:1;stroke:#ffffff;stroke-width:0;stroke-linejoin:round;stroke-miterlimit:4;stroke-dasharray:none;stroke-opacity:1;paint-order:normal" transform="matrix(5.3463276e-6,1,0.99999993,-3.8546046e-4,0,0)"/>
    <rect transform="matrix(5.3463276e-6,1,0.99999993,-3.8546046e-4,0,0)" style="opacity:0.98999999;fill:#808080;fill-opacity:1;stroke:#ffffff;stroke-width:0;stroke-linejoin:round;stroke-miterlimit:4;stroke-dasharray:none;stroke-opacity:1;paint-order:normal" id="rect244" width="7.4086194" height="14.926641" x="-39.283241" y="269.77539"/>
    <rect y="269.77521" x="-9.045145" height="14.926641" width="7.4086194" id="rect246" style="opacity:0.98999999;fill:#808080;fill-opacity:1;stroke:#ffffff;stroke-width:0;stroke-linejoin:round;stroke-miterlimit:4;stroke-dasharray:none;stroke-opacity:1;paint-order:normal" transform="matrix(5.3463276e-6,1,0.99999993,-3.8546046e-4,0,0)"/>
    <rect transform="matrix(5.3463276e-6,1,0.99999993,-3.8546046e-4,0,0)" style="opacity:0.98999999;fill:#808080;fill-opacity:1;stroke:#ffffff;stroke-width:0;stroke-linejoin:round;stroke-miterlimit:4;stroke-dasharray:none;stroke-opacity:1;paint-order:normal" id="rect248" width="7.4086194" height="14.926641" x="21.003963" y="269.77505"/>
    <path transform="translate(0,-1.6666668e-6)" style="opacity:1;fill:#b3b3b3;fill-opacity:1;stroke:#b5a642;stroke-width:0;stroke-linejoin:round;stroke-miterlimit:4;stroke-dasharray:none;stroke-opacity:1;paint-order:normal" d="M 271,-67.999999 H 185 V -49.250046 13.250033 32 h 86 V 13.250033 -49.250046 Z" id="rect165" inkscape:connector-curvature="0"/>
    <rect y="663.05945" x="-0.7670598" height="14.926641" width="7.4086194" id="rect251" style="opacity:0.98999999;fill:#808080;fill-opacity:1;stroke:#ffffff;stroke-width:0;stroke-linejoin:round;stroke-miterlimit:4;stroke-dasharray:none;stroke-opacity:1;paint-order:normal" transform="matrix(5.3463276e-6,1,0.99999993,-3.8546046e-4,0,0)"/>
    <rect transform="matrix(5.3463276e-6,1,0.99999993,-3.8546046e-4,0,0)" style="opacity:0.98999999;fill:#808080;fill-opacity:1;stroke:#ffffff;stroke-width:0;stroke-linejoin:round;stroke-miterlimit:4;stroke-dasharray:none;stroke-opacity:1;paint-order:normal" id="rect253" width="7.4086194" height="14.926641" x="-91.670334" y="663.05994"/>
    <rect y="726.93768" x="-46.099579" height="14.926641" width="7.4086194" id="rect255" style="opacity:0.98999999;fill:#808080;fill-opacity:1;stroke:#ffffff;stroke-width:0;stroke-linejoin:round;stroke-miterlimit:4;stroke-dasharray:none;stroke-opacity:1;paint-order:normal" transform="matrix(5.3463276e-6,1,0.99999993,-3.8546046e-4,0,0)"/>
    <rect transform="translate(0,-1.6666668e-6)" style="opacity:1;fill:#333333;fill-opacity:1;stroke:#b5a642;stroke-width:0;stroke-linejoin:round;stroke-miterlimit:4;stroke-dasharray:none;stroke-opacity:1;paint-order:normal" id="rect204" width="55" height="120" x="675" y="-103"/>
    <ellipse style="opacity:1;fill:#000000;fill-opacity:1;stroke:#b5a642;stroke-width:0;stroke-linejoin:round;stroke-miterlimit:4;stroke-dasharray:none;stroke-opacity:1;paint-order:normal" id="path258" cx="255" cy="-53" rx="10" ry="9.999999"/>
    <text xml:space="preserve" style="font-style:normal;font-variant:normal;font-weight:normal;font-stretch:normal;font-size:63.5px;line-height:1.25;font-family:Calibri;-inkscape-font-specification:Calibri;font-variant-ligatures:normal;font-variant-caps:normal;font-variant-numeric:normal;font-feature-settings:normal;text-align:start;letter-spacing:0px;word-spacing:0px;writing-mode:lr-tb;text-anchor:start;fill:#ffffff;fill-opacity:1;stroke:none;stroke-width:0.26458332" x="244.17264" y="-351.60724" id="text122"><tspan sodipodi:role="line" id="tspan120" x="244.17264" y="-351.60724" style="fill:#ffffff;stroke-width:0.26458332">BMP280</tspan></text>
    <text xml:space="preserve" style="font-style:normal;font-variant:normal;font-weight:normal;font-stretch:normal;font-size:30.37430191px;line-height:1.25;font-family:Calibri;-inkscape-font-specification:Calibri;font-variant-ligatures:normal;font-variant-caps:normal;font-variant-numeric:normal;font-feature-settings:normal;text-align:start;letter-spacing:0px;word-spacing:0px;writing-mode:lr-tb;text-anchor:start;fill:#ffffff;fill-opacity:1;stroke:none;stroke-width:0.12655959" x="453.92896" y="-153.80727" id="text126"><tspan sodipodi:role="line" id="tspan124" x="453.92896" y="-153.80727" style="fill:#ffffff;stroke-width:0.12655959">103</tspan></text>
    <text xml:space="preserve" style="font-style:normal;font-variant:normal;font-weight:normal;font-stretch:normal;font-size:30.37430191px;line-height:1.25;font-family:Calibri;-inkscape-font-specification:Calibri;font-variant-ligatures:normal;font-variant-caps:normal;font-variant-numeric:normal;font-feature-settings:normal;text-align:start;letter-spacing:0px;word-spacing:0px;writing-mode:lr-tb;text-anchor:start;fill:#ffffff;fill-opacity:1;stroke:none;stroke-width:0.12655959" x="454.45813" y="-73.525131" id="text134"><tspan sodipodi:role="line" id="tspan132" x="454.45813" y="-73.525131" style="fill:#ffffff;stroke-width:0.12655959">103</tspan></text>
    <text xml:space="preserve" style="font-style:normal;font-variant:normal;font-weight:normal;font-stretch:normal;font-size:63.5px;line-height:1.25;font-family:Calibri;-inkscape-font-specification:Calibri;font-variant-ligatures:normal;font-variant-caps:normal;font-variant-numeric:normal;font-feature-settings:normal;text-align:start;letter-spacing:0px;word-spacing:0px;writing-mode:lr-tb;text-anchor:start;fill:#ffffff;fill-opacity:1;stroke:none;stroke-width:0.26458332" x="800.20496" y="-202.81017" id="text147"><tspan sodipodi:role="line" id="tspan145" x="800.20496" y="-202.81017" style="fill:#ffffff;stroke-width:0.26458332">SDO</tspan></text>
    <text xml:space="preserve" style="font-style:normal;font-variant:normal;font-weight:normal;font-stretch:normal;font-size:63.5px;line-height:1.25;font-family:Calibri;-inkscape-font-specification:Calibri;font-variant-ligatures:normal;font-variant-caps:normal;font-variant-numeric:normal;font-feature-settings:normal;text-align:start;letter-spacing:0px;word-spacing:0px;writing-mode:lr-tb;text-anchor:start;fill:#ffffff;fill-opacity:1;stroke:none;stroke-width:0.26458332" x="808.22302" y="-134.41069" id="text151"><tspan sodipodi:role="line" id="tspan149" x="808.22302" y="-134.41069" style="fill:#ffffff;stroke-width:0.26458332">CSB</tspan></text>
    <text xml:space="preserve" style="font-style:normal;font-variant:normal;font-weight:normal;font-stretch:normal;font-size:63.5px;line-height:1.25;font-family:Calibri;-inkscape-font-specification:Calibri;font-variant-ligatures:normal;font-variant-caps:normal;font-variant-numeric:normal;font-feature-settings:normal;text-align:start;letter-spacing:0px;word-spacing:0px;writing-mode:lr-tb;text-anchor:start;fill:#ffffff;fill-opacity:1;stroke:none;stroke-width:0.26458332" x="802.87756" y="-66.497292" id="text155"><tspan sodipodi:role="line" id="tspan153" x="802.87756" y="-66.497292" style="fill:#ffffff;stroke-width:0.26458332">SDA</tspan></text>
    <text xml:space="preserve" style="font-style:normal;font-variant:normal;font-weight:normal;font-stretch:normal;font-size:63.5px;line-height:1.25;font-family:Calibri;-inkscape-font-specification:Calibri;font-variant-ligatures:normal;font-variant-caps:normal;font-variant-numeric:normal;font-feature-settings:normal;text-align:start;letter-spacing:0px;word-spacing:0px;writing-mode:lr-tb;text-anchor:start;fill:#ffffff;fill-opacity:1;stroke:none;stroke-width:0.26458332" x="813.03387" y="1.8807033" id="text159"><tspan sodipodi:role="line" id="tspan157" x="813.03387" y="1.8807033" style="fill:#ffffff;stroke-width:0.26458332">SCL</tspan></text>
    <text xml:space="preserve" style="font-style:normal;font-variant:normal;font-weight:normal;font-stretch:normal;font-size:63.5px;line-height:1.25;font-family:Calibri;-inkscape-font-specification:Calibri;font-variant-ligatures:normal;font-variant-caps:normal;font-variant-numeric:normal;font-feature-settings:normal;text-align:start;letter-spacing:0px;word-spacing:0px;writing-mode:lr-tb;text-anchor:start;fill:#ffffff;fill-opacity:1;stroke:none;stroke-width:0.26458332" x="805.55029" y="71.851593" id="text163"><tspan sodipodi:role="line" id="tspan161" x="805.55029" y="71.851593" style="fill:#ffffff;stroke-width:0.26458332">VCC</tspan></text>
    <text xml:space="preserve" style="font-style:normal;font-variant:normal;font-weight:normal;font-stretch:normal;font-size:63.5px;line-height:1.25;font-family:Calibri;-inkscape-font-specification:Calibri;font-variant-ligatures:normal;font-variant-caps:normal;font-variant-numeric:normal;font-feature-settings:normal;text-align:start;letter-spacing:0px;word-spacing:0px;writing-mode:lr-tb;text-anchor:start;fill:#ffffff;fill-opacity:1;stroke:none;stroke-width:0.26458332" x="792.72144" y="137.11372" id="text167"><tspan sodipodi:role="line" id="tspan165" x="792.72144" y="137.11372" style="fill:#ffffff;stroke-width:0.26458332">GND</tspan></text>
    <text id="text909" y="6.5544462" x="453.92896" style="font-style:normal;font-variant:normal;font-weight:normal;font-stretch:normal;font-size:30.37430191px;line-height:1.25;font-family:Calibri;-inkscape-font-specification:Calibri;font-variant-ligatures:normal;font-variant-caps:normal;font-variant-numeric:normal;font-feature-settings:normal;text-align:start;letter-spacing:0px;word-spacing:0px;writing-mode:lr-tb;text-anchor:start;fill:#ffffff;fill-opacity:1;stroke:none;stroke-width:0.12655959" xml:space="preserve"><tspan style="fill:#ffffff;stroke-width:0.12655959" y="6.5544462" x="453.92896" id="tspan907" sodipodi:role="line">103</tspan></text>
    <text id="text913" y="86.836578" x="454.45813" style="font-style:normal;font-variant:normal;font-weight:normal;font-stretch:normal;font-size:30.37430191px;line-height:1.25;font-family:Calibri;-inkscape-font-specification:Calibri;font-variant-ligatures:normal;font-variant-caps:normal;font-variant-numeric:normal;font-feature-settings:normal;text-align:start;letter-spacing:0px;word-spacing:0px;writing-mode:lr-tb;text-anchor:start;fill:#ffffff;fill-opacity:1;stroke:none;stroke-width:0.12655959" xml:space="preserve"><tspan style="fill:#ffffff;stroke-width:0.12655959" y="86.836578" x="454.45813" id="tspan911" sodipodi:role="line">103</tspan></text>
  </g>
</svg>
