<?xml version="1.0" encoding="UTF-8" standalone="no"?>
<svg xmlns="http://www.w3.org/2000/svg" xmlns:inkscape="http://www.inkscape.org/namespaces/inkscape" xmlns:sodipodi="http://sodipodi.sourceforge.net/DTD/sodipodi-0.dtd" xmlns:rdf="http://www.w3.org/1999/02/22-rdf-syntax-ns#" xmlns:cc="http://creativecommons.org/ns#" xmlns:dc="http://purl.org/dc/elements/1.1/" version="1.1" width="348" height="1081" viewBox="0 0 348 1081"><svg xmlns:dc="http://purl.org/dc/elements/1.1/" xmlns:cc="http://creativecommons.org/ns#" xmlns:rdf="http://www.w3.org/1999/02/22-rdf-syntax-ns#" xmlns:svg="http://www.w3.org/2000/svg" xmlns:sodipodi="http://sodipodi.sourceforge.net/DTD/sodipodi-0.dtd" xmlns:inkscape="http://www.inkscape.org/namespaces/inkscape" width="348" height="1082" viewBox="0 0 450 1400" version="1.1" id="svg8" inkscape:version="0.92.4 (5da689c313, 2019-01-14)" sodipodi:docname="KY-025.svg" inkscape:export-filename="C:\Users\Entwicklung5.SIMACGMBH\Desktop\SEN-KIT02\Abbildungen Fertig\KY-025\KY-025.png" inkscape:export-xdpi="93" inkscape:export-ydpi="93" x="0" y="-1">
  <defs id="defs2">
    <inkscape:perspective sodipodi:type="inkscape:persp3d" inkscape:vp_x="0 : 148.49997 : 1" inkscape:vp_y="0 : 999.99986 : 0" inkscape:vp_z="210.00001 : 148.49997 : 1" inkscape:persp3d-origin="105 : 98.999987 : 1" id="perspective876"/>
  </defs>
  <sodipodi:namedview id="base" pagecolor="#323232" bordercolor="#666666" borderopacity="1.0" inkscape:pageopacity="0" inkscape:pageshadow="2" inkscape:zoom="0.25000001" inkscape:cx="297.83774" inkscape:cy="1303.5378" inkscape:document-units="mm" inkscape:current-layer="layer1" showgrid="false" inkscape:window-width="1920" inkscape:window-height="1017" inkscape:window-x="-8" inkscape:window-y="-8" inkscape:window-maximized="1" width="500mm" showguides="true" inkscape:lockguides="false"/>
  <metadata id="metadata5">
    <rdf:RDF>
      <cc:Work rdf:about="">
        <dc:format>image/svg+xml</dc:format>
        <dc:type rdf:resource="http://purl.org/dc/dcmitype/StillImage"/>
        <dc:title/>
      </cc:Work>
    </rdf:RDF>
  </metadata>
  <g inkscape:label="Ebene 1" inkscape:groupmode="layer" id="layer1" transform="translate(0.31582593,1102.811)">
    <rect style="opacity:1;fill:#800000;fill-opacity:1;stroke:#000000;stroke-width:0;stroke-miterlimit:4;stroke-dasharray:none;stroke-opacity:1" id="rect815" width="449.65753" height="901.98096" x="0.20469305" y="-815.93634" transform="matrix(0.99999926,-0.00121618,6.3793993e-4,0.9999998,0,0)" inkscape:export-xdpi="93" inkscape:export-ydpi="93"/>
    <text xml:space="preserve" style="font-style:normal;font-variant:normal;font-weight:normal;font-stretch:normal;font-size:4.23333311px;line-height:1.25;font-family:Calibri;-inkscape-font-specification:'Calibri, Normal';font-variant-ligatures:normal;font-variant-caps:normal;font-variant-numeric:normal;font-feature-settings:normal;text-align:start;letter-spacing:0px;word-spacing:0px;writing-mode:lr-tb;text-anchor:start;fill:#ffffff;fill-opacity:1;stroke:none;stroke-width:0.26458332" x="183.04044" y="204.32957" id="text819" inkscape:export-xdpi="93" inkscape:export-ydpi="93"><tspan sodipodi:role="line" id="tspan817" x="183.04044" y="208.03374" style="fill:#ffffff;fill-opacity:1;stroke-width:0.26458332"/></text>
    <rect style="opacity:1;fill:#ffffff;fill-opacity:1;stroke:#000000;stroke-width:0;stroke-miterlimit:4;stroke-dasharray:none;stroke-opacity:1" id="rect821" width="314.93799" height="79.867264" x="67.391006" y="-0.32747841" ry="0" transform="matrix(0.99999974,-7.2393113e-4,0.00107908,0.99999942,0,0)" inkscape:export-xdpi="93" inkscape:export-ydpi="93"/>
    <rect style="opacity:1;fill:#1a1a1a;fill-opacity:1;stroke:#000000;stroke-width:0;stroke-miterlimit:4;stroke-dasharray:none;stroke-opacity:1" id="rect825" width="76.666504" height="70.899185" x="68.974228" y="4.248105" ry="14.842078" transform="rotate(-0.05010999)" inkscape:export-xdpi="93" inkscape:export-ydpi="93"/>
    <rect y="4.248105" x="225.54883" height="70.899185" width="76.666504" id="rect872" style="opacity:1;fill:#1a1a1a;fill-opacity:1;stroke:#000000;stroke-width:0;stroke-miterlimit:4;stroke-dasharray:none;stroke-opacity:1" ry="14.842078" transform="rotate(-0.05010999)" inkscape:export-xdpi="93" inkscape:export-ydpi="93"/>
    <rect y="4.248105" x="147.26155" height="70.899185" width="76.666504" id="rect874" style="opacity:1;fill:#1a1a1a;fill-opacity:1;stroke:#000000;stroke-width:0;stroke-miterlimit:4;stroke-dasharray:none;stroke-opacity:1" ry="12.930591" transform="rotate(-0.05010999)" inkscape:export-xdpi="93" inkscape:export-ydpi="93"/>
    <rect style="opacity:0.98999999;fill:#808080;fill-opacity:1;stroke:#ffffff;stroke-width:0;stroke-linejoin:round;stroke-miterlimit:4;stroke-dasharray:none;stroke-opacity:1;paint-order:normal" id="rect947" width="7.9212165" height="149.99272" x="102.97167" y="42.8461" transform="matrix(0.99999957,-9.2573385e-4,8.2759879e-4,0.99999966,0,0)" inkscape:export-xdpi="93" inkscape:export-ydpi="93"/>
    <rect y="42.847694" x="181.71187" height="149.99509" width="7.921217" id="rect949" style="opacity:0.98999999;fill:#808080;fill-opacity:1;stroke:#ffffff;stroke-width:0;stroke-linejoin:round;stroke-miterlimit:4;stroke-dasharray:none;stroke-opacity:1;paint-order:normal" transform="matrix(0.99999957,-9.2574885e-4,8.2761898e-4,0.99999966,0,0)" inkscape:export-xdpi="93" inkscape:export-ydpi="93"/>
    <rect style="opacity:0.98999999;fill:#808080;fill-opacity:1;stroke:#ffffff;stroke-width:0;stroke-linejoin:round;stroke-miterlimit:4;stroke-dasharray:none;stroke-opacity:1;paint-order:normal" id="rect951" width="7.921217" height="149.99509" x="259.54605" y="42.85173" transform="matrix(0.99999957,-9.2574885e-4,8.2761898e-4,0.99999966,0,0)" inkscape:export-xdpi="93" inkscape:export-ydpi="93"/>
    <text xml:space="preserve" style="font-style:normal;font-variant:normal;font-weight:normal;font-stretch:normal;font-size:11.28888893px;line-height:1.25;font-family:'Proxy 1';-inkscape-font-specification:'Proxy 1, ';font-variant-ligatures:normal;font-variant-caps:normal;font-variant-numeric:normal;font-feature-settings:normal;text-align:start;letter-spacing:0px;word-spacing:0px;writing-mode:lr-tb;text-anchor:start;fill:#000000;fill-opacity:1;stroke:none;stroke-width:0.26458332" x="-361.41769" y="-219.33842" id="text959" inkscape:export-xdpi="93" inkscape:export-ydpi="93"><tspan sodipodi:role="line" id="tspan957" x="-361.41769" y="-208.94455" style="fill:#000000;stroke-width:0.26458332"/></text>
    <text xml:space="preserve" style="font-style:normal;font-variant:normal;font-weight:normal;font-stretch:normal;font-size:11.28888893px;line-height:1.25;font-family:'Proxy 1';-inkscape-font-specification:'Proxy 1, ';font-variant-ligatures:normal;font-variant-caps:normal;font-variant-numeric:normal;font-feature-settings:normal;text-align:start;letter-spacing:0px;word-spacing:0px;writing-mode:lr-tb;text-anchor:start;fill:#ffffff;fill-opacity:1;stroke:none;stroke-width:0.26458332" x="170.41783" y="232.75023" id="text963" inkscape:export-xdpi="93" inkscape:export-ydpi="93"><tspan sodipodi:role="line" id="tspan961" x="170.41783" y="243.14409" style="fill:#ffffff;stroke-width:0.26458332"/></text>
    <text xml:space="preserve" style="font-style:normal;font-variant:normal;font-weight:normal;font-stretch:normal;font-size:11.28888893px;line-height:1.25;font-family:'Proxy 1';-inkscape-font-specification:'Proxy 1, ';font-variant-ligatures:normal;font-variant-caps:normal;font-variant-numeric:normal;font-feature-settings:normal;text-align:start;letter-spacing:0px;word-spacing:0px;writing-mode:lr-tb;text-anchor:start;fill:#00ff00;fill-opacity:1;stroke:none;stroke-width:0.26458332" x="246.03561" y="207.92027" id="text967" inkscape:export-xdpi="93" inkscape:export-ydpi="93"><tspan sodipodi:role="line" id="tspan965" x="246.03561" y="218.31413" style="fill:#00ff00;fill-opacity:1;stroke-width:0.26458332"/></text>
    <flowRoot xml:space="preserve" id="flowRoot969" style="font-style:normal;font-variant:normal;font-weight:normal;font-stretch:normal;font-size:42.66666794px;line-height:1.25;font-family:'Proxy 1';-inkscape-font-specification:'Proxy 1, ';font-variant-ligatures:normal;font-variant-caps:normal;font-variant-numeric:normal;font-feature-settings:normal;text-align:start;letter-spacing:0px;word-spacing:0px;writing-mode:lr-tb;text-anchor:start;fill:#000000;fill-opacity:1;stroke:none" transform="translate(121.05234,16.942602)" inkscape:export-xdpi="93" inkscape:export-ydpi="93"><flowRegion id="flowRegion971"><rect id="rect973" width="373.57144" height="181.42857" x="249.28572" y="630.71198"/></flowRegion><flowPara id="flowPara975"/></flowRoot>    <flowRoot xml:space="preserve" id="flowRoot1466" style="font-style:normal;font-variant:normal;font-weight:normal;font-stretch:normal;font-size:42.66666794px;line-height:1.25;font-family:Calibri;-inkscape-font-specification:Calibri;font-variant-ligatures:normal;font-variant-caps:normal;font-variant-numeric:normal;font-feature-settings:normal;text-align:start;letter-spacing:0px;word-spacing:0px;writing-mode:lr-tb;text-anchor:start;fill:#ffffff;fill-opacity:1;stroke:none" transform="translate(121.05234,16.942602)" inkscape:export-xdpi="93" inkscape:export-ydpi="93"><flowRegion id="flowRegion1468" style="font-style:normal;font-variant:normal;font-weight:normal;font-stretch:normal;font-family:Calibri;-inkscape-font-specification:Calibri;fill:#ffffff;fill-opacity:1"><rect id="rect1470" width="414.1825" height="372.47485" x="1288.5094" y="1923.5425" style="font-style:normal;font-variant:normal;font-weight:normal;font-stretch:normal;font-family:Calibri;-inkscape-font-specification:Calibri;fill:#ffffff;fill-opacity:1"/></flowRegion><flowPara id="flowPara1472"/></flowRoot>    <flowRoot xml:space="preserve" id="flowRoot1529" style="font-style:normal;font-variant:normal;font-weight:normal;font-stretch:normal;font-size:266.66665649px;line-height:1.25;font-family:'Proxy 1';-inkscape-font-specification:'Proxy 1, ';font-variant-ligatures:normal;font-variant-caps:normal;font-variant-numeric:normal;font-feature-settings:normal;text-align:start;letter-spacing:0px;word-spacing:0px;writing-mode:lr-tb;text-anchor:start;fill:#000000;fill-opacity:1;stroke:none" transform="translate(121.05234,16.942602)" inkscape:export-xdpi="93" inkscape:export-ydpi="93"><flowRegion id="flowRegion1531" style="font-size:266.66665649px"><rect id="rect1533" width="2157.6858" height="2311.229" x="-2691.0464" y="-332.2605" style="font-size:266.66665649px"/></flowRegion><flowPara id="flowPara1535"/></flowRoot>    <rect ry="0" y="-267.08511" x="63.609066" height="80.684937" width="320.70575" id="rect87" style="opacity:1;fill:#800000;fill-opacity:1;stroke:#000000;stroke-width:0;stroke-miterlimit:4;stroke-dasharray:none;stroke-opacity:1" transform="rotate(-0.05010999)" inkscape:export-xdpi="93" inkscape:export-ydpi="93"/>
    <path style="fill:#ffffff;stroke-width:0.16109252" d="m 127.76564,-638.91858 c 2.78566,-0.0555 3.09023,-0.09 3.60955,-0.40954 0.31193,-0.19192 0.71288,-0.58813 0.89103,-0.88046 0.30607,-0.50245 0.32604,-0.86138 0.36626,-6.5674 l 0.0427,-6.03592 5.95133,0.0287 5.95133,0.0287 0.006,7.52247 c 0.008,8.29381 -0.057,9.07492 -0.92067,11.25378 -1.13159,2.85459 -2.78552,4.18027 -6.19894,4.96867 -0.91611,0.21159 -1.96278,0.258 -5.4315,0.24084 -2.36321,-0.0116 -4.95337,-0.0796 -5.75604,-0.15095 l -1.4594,-0.1297 -0.0473,-4.90431 -0.0473,-4.90426 3.04233,-0.0605 z m 56.68463,16.79513 c 50.78319,-0.0311 63.27564,0.0178 61.16713,0.2395 l -0.32427,0.0341 0.32442,0.13729 c 0.27151,0.11487 0.23184,0.14369 -0.24304,0.17664 -0.37568,0.026 -0.21113,0.0744 0.48652,0.14324 l 1.054,0.10389 -1.05387,0.0471 c -0.57956,0.0258 -0.92612,0.0798 -0.76999,0.12006 0.24176,0.0622 0.28393,0.27126 0.28493,1.41104 0.001,1.33686 0.002,1.33814 0.44714,1.40436 0.31313,0.0466 0.24067,0.0737 -0.24313,0.0909 -0.37897,0.0135 -0.689,0.0966 -0.68893,0.18462 9e-5,0.10642 -20.13216,0.17767 -60.07236,0.2126 l -60.07248,0.0526 -0.002,-2.16072 -0.002,-2.16071 z m -45.80427,-46.23105 5.9992,-0.005 0.005,4.8816 0.005,4.88162 -5.9992,0.005 -5.99909,0.005 -0.005,-4.88162 -0.005,-4.88159 z m 12.11414,17.99537 c 0.4243,-2.74605 1.18127,-5.18709 2.28377,-7.36443 0.40141,-0.79263 0.77771,-1.47718 0.83627,-1.52124 0.059,-0.0441 0.35919,-0.47573 0.66796,-0.95924 0.62364,-0.97656 2.04651,-2.73385 2.37463,-2.93266 0.11644,-0.0706 0.21153,-0.19373 0.21147,-0.27386 -1.9e-4,-0.21222 1.49883,-1.5655 2.67029,-2.41056 1.23433,-0.89055 2.23958,-1.39065 4.45976,-2.21883 2.59096,-0.96648 4.11076,-1.19674 7.21425,-1.09297 2.25056,0.0753 2.80922,0.14998 4.21609,0.56394 0.89204,0.26245 1.97455,0.62624 2.40572,0.8084 0.43115,0.18217 0.86089,0.33113 0.95499,0.33106 0.094,-8e-5 0.76119,0.34146 1.48266,0.75896 2.87514,1.664 6.79725,6.1089 8.31103,9.41902 2.37155,5.1853 2.6742,10.39491 0.88382,15.20866 -0.75304,2.02469 -1.29694,3.17692 -2.17389,4.60587 -1.01325,1.65087 -1.09516,1.74705 -3.55753,4.1762 -2.82368,2.78559 -4.85035,3.96763 -8.53526,4.97819 -1.87805,0.51504 -5.56929,0.71229 -7.56025,0.404 -2.58896,-0.40086 -6.03713,-1.85181 -8.16661,-3.43637 -1.09993,-0.81849 -2.57884,-2.1076 -2.57897,-2.24803 -4e-5,-0.0426 -0.3713,-0.45484 -0.825,-0.91629 -2.15862,-2.19549 -4.38389,-6.49328 -5.19738,-10.03824 -0.30355,-1.32264 -0.53145,-4.84689 -0.37782,-5.84158 z m 11.47783,5.0511 c 0.58398,2.26303 1.73857,4.19656 3.52327,5.90019 1.805,1.72298 4.67606,2.36319 7.14629,1.59351 2.72086,-0.84777 5.41178,-4.02966 6.29868,-7.44801 0.5085,-1.95942 0.46889,-4.81789 -0.0928,-6.71616 -0.79784,-2.69578 -2.2186,-4.80258 -4.19033,-6.21355 -0.90308,-0.64627 -1.31923,-0.83125 -2.27088,-1.00953 -2.03885,-0.382 -4.12387,-0.17122 -5.58093,0.56413 -1.28063,0.64635 -2.90503,2.47318 -3.83663,4.31478 -1.40645,2.78047 -1.766,6.03276 -0.99661,9.01464 z m 33.69247,-23.02666 c 0.10747,-0.0409 2.81347,-0.0576 6.01329,-0.0371 l 5.81783,0.0371 0.0227,5.36175 c 0.0214,5.06539 0.0427,5.41356 0.3728,6.29906 0.84922,2.2765 3.6004,3.52203 6.01179,2.72167 1.23916,-0.41127 2.07502,-1.1322 2.6741,-2.30643 l 0.53087,-1.0408 0.0431,-5.56189 0.0431,-5.56187 6.0044,-0.005 6.00441,-0.005 -0.0595,6.28212 c -0.0558,5.84614 -0.0844,6.37102 -0.41258,7.56287 -0.66798,2.42403 -1.73644,4.54356 -3.12189,6.19348 -0.34614,0.41222 -0.62938,0.81938 -0.62931,0.90479 1.8e-4,0.2087 -1.51654,1.5674 -2.86207,2.56394 -1.14026,0.84447 -2.76241,1.70035 -3.55896,1.87776 -0.25624,0.057 -1.08584,0.29548 -1.84363,0.52981 -1.27666,0.39476 -1.59223,0.42624 -4.29633,0.4286 -2.7164,0.003 -3.03082,-0.0288 -4.5403,-0.4501 -2.38938,-0.66689 -3.17047,-1.00035 -4.76057,-2.03246 -1.80243,-1.16991 -3.31964,-2.6719 -4.58228,-4.53647 -1.7825,-2.63215 -2.52932,-4.58688 -2.90796,-7.61113 -0.24714,-1.97343 -0.21748,-11.51769 0.0359,-11.61397 z m 16.75796,29.52522 9.80939,-0.009 0.004,5.04164 0.004,5.04167 -9.80939,0.009 -9.80939,0.009 -0.004,-5.04168 -0.004,-5.04165 z m 16.74878,-37.30697 c 0.089,-7e-5 0.16184,-0.27844 0.16154,-0.61859 -5.3e-4,-0.61441 0.01,-0.61914 0.75168,-0.7209 0.41365,-0.0564 17.0309,-0.11679 36.92698,-0.13434 l 36.17499,-0.032 -0.0471,2.16103 -0.0471,2.16101 -36.78358,0.0322 c -20.2309,0.018 -36.89892,-0.0116 -37.03997,-0.0648 -0.20577,-0.0777 -0.25681,-0.36295 -0.25775,-1.44023 -6.9e-4,-0.78885 0.0658,-1.3434 0.16092,-1.34348 z m 16.55932,24.1535 12.48469,-0.0104 0.005,4.96163 0.005,4.96165 -12.48469,0.0104 -12.4847,0.0104 -0.004,-4.96165 -0.004,-4.96163 z m 22.36077,-16.505 5.99909,-0.005 0.005,4.8816 0.005,4.88162 -5.99909,0.005 -5.9992,0.005 -0.005,-4.88162 -0.005,-4.8816 z m 0.0138,14.88491 5.99909,-0.005 0.0105,12.64417 0.0105,12.64417 -5.99909,0.005 -5.9992,0.005 -0.0105,-12.64416 -0.0105,-12.64417 z m 23.90237,-14.90582 12.5658,-0.0105 0.005,4.88158 0.005,4.88162 -12.56581,0.0105 -12.5657,0.0105 -0.005,-4.88161 -0.005,-4.8816 z m -10.46413,15.62646 c 0.078,-0.0479 2.73563,-0.0869 5.90562,-0.0869 l 5.7635,5.8e-4 0.058,5.79408 c 0.081,8.12608 -0.25299,7.68288 5.85609,7.76441 l 3.85084,0.0514 0.005,5.08601 0.005,5.08598 -1.42954,0.18224 c -2.15816,0.27514 -9.02309,0.24031 -10.87936,-0.0552 -3.19135,-0.50806 -5.26369,-1.48975 -6.65056,-3.15042 -1.4393,-1.72354 -2.12374,-3.48075 -2.44589,-6.27913 -0.20293,-1.76255 -0.23569,-14.27154 -0.0375,-14.39256 z m 30.07845,-20.41569 c 0.30168,-1.06252 0.89808,-2.08232 1.55737,-2.6632 2.71531,-2.39253 5.9906,-2.64809 8.67992,-0.67734 1.2617,0.92461 1.57572,1.2838 2.11601,2.42041 0.40996,0.86232 0.45599,1.12956 0.45471,2.63999 0.001,1.51015 -0.0484,1.78271 -0.46874,2.68793 -0.90889,1.9594 -3.20405,3.50174 -5.458,3.66777 -2.10029,0.1547 -3.70391,-0.46165 -5.3612,-2.06048 -1.47866,-1.4264 -2.11175,-3.93168 -1.52007,-6.01508 z m 1.18462,4.13082 c 0.54843,1.29091 2.24613,2.55869 3.99461,2.983 1.75007,0.42469 3.07785,0.0662 5.0695,-1.36857 0.47711,-0.34369 0.83409,-0.80865 1.21002,-1.57588 0.47436,-0.96834 0.53352,-1.24013 0.53664,-2.46493 -10e-4,-1.26208 -0.0443,-1.46788 -0.56486,-2.47415 -0.46068,-0.88941 -0.75308,-1.22655 -1.54185,-1.77752 -0.53543,-0.37397 -1.3384,-0.80284 -1.78444,-0.95309 -2.73731,-0.92203 -6.0251,0.56888 -7.12257,3.22987 -0.41681,1.0106 -0.31693,3.1778 0.20295,4.40127 z m 4.43763,-6.24604 c 1.2204,-0.001 2.40606,0.0683 2.63483,0.15386 0.98072,0.36709 1.42516,2.23037 0.73811,3.09418 -0.1809,0.22738 -0.57836,0.50271 -0.88327,0.61186 l -0.55442,0.19845 0.55704,0.60761 c 0.30639,0.33418 0.78457,1.00479 1.0627,1.49026 0.27813,0.48545 0.57171,0.92285 0.65245,0.97199 0.34809,0.21195 0.0963,0.38998 -0.54217,0.3828 l -0.6891,-0.009 -0.97413,-1.52462 c -1.04144,-1.62992 -1.2942,-1.81777 -2.4442,-1.81675 l -0.7191,6.2e-4 10e-4,1.6907 0.001,1.69069 -0.48905,-0.0496 -0.48914,-0.0497 -0.0412,-3.72129 -0.0412,-3.7213 z m 0.2753,3.20092 c 1.2086,-0.001 1.50536,-0.0542 1.86432,-0.33336 0.89018,-0.69251 0.38341,-1.80705 -0.90054,-1.98037 -0.53766,-0.0726 -2.06523,-0.0329 -2.36264,0.0614 -0.022,0.007 -0.0405,0.517 -0.0399,1.13321 l 9.7e-4,1.12036 z" id="path31-1" inkscape:connector-curvature="0" inkscape:export-xdpi="93" inkscape:export-ydpi="93"/>
    <rect transform="rotate(-0.05010999)" ry="14.842078" style="opacity:1;fill:#1a1a1a;fill-opacity:1;stroke:#000000;stroke-width:0;stroke-miterlimit:4;stroke-dasharray:none;stroke-opacity:1" id="rect64" width="76.666504" height="70.899185" x="303.33646" y="4.2929964" inkscape:export-xdpi="93" inkscape:export-ydpi="93"/>
    <rect transform="matrix(0.99999957,-9.2574885e-4,8.2761898e-4,0.99999966,0,0)" y="42.900558" x="337.33362" height="149.99509" width="7.921217" id="rect66" style="opacity:0.98999999;fill:#808080;fill-opacity:1;stroke:#ffffff;stroke-width:0;stroke-linejoin:round;stroke-miterlimit:4;stroke-dasharray:none;stroke-opacity:1;paint-order:normal" inkscape:export-xdpi="93" inkscape:export-ydpi="93"/>
    <rect style="opacity:1;fill:#800000;fill-opacity:1;stroke:#ffd700;stroke-width:0;stroke-linejoin:round;stroke-miterlimit:4;stroke-dasharray:none;stroke-opacity:1;paint-order:normal" id="rect103" width="100" height="219" x="-0.3158254" y="-1034.4072" inkscape:export-xdpi="93" inkscape:export-ydpi="93"/>
    <rect y="-1034.4249" x="349.68417" height="219" width="100" id="rect105" style="opacity:1;fill:#800000;fill-opacity:1;stroke:#ffd700;stroke-width:0;stroke-linejoin:round;stroke-miterlimit:4;stroke-dasharray:none;stroke-opacity:1;paint-order:normal" inkscape:export-xdpi="93" inkscape:export-ydpi="93"/>
    <circle style="opacity:1;fill:#cccccc;fill-opacity:1;stroke:#ffd700;stroke-width:0;stroke-linejoin:round;stroke-miterlimit:4;stroke-dasharray:none;stroke-opacity:1;paint-order:normal" id="path107" cx="224.68417" cy="-161.25656" r="110" inkscape:export-xdpi="93" inkscape:export-ydpi="93"/>
    <circle style="opacity:1;fill:#ffffff;fill-opacity:1;stroke:#ffd700;stroke-width:0;stroke-linejoin:round;stroke-miterlimit:4;stroke-dasharray:none;stroke-opacity:1;paint-order:normal" id="path133" cx="224.68417" cy="-161.25656" r="90" inkscape:export-xdpi="93" inkscape:export-ydpi="93"/>
    <rect style="opacity:1;fill:#ffffff;fill-opacity:1;stroke:#ffd700;stroke-width:0;stroke-linejoin:round;stroke-miterlimit:4;stroke-dasharray:none;stroke-opacity:1;paint-order:normal" id="rect137" width="170" height="300" x="-0.31582549" y="-582.44379" inkscape:export-xdpi="93" inkscape:export-ydpi="93"/>
    <rect style="opacity:1;fill:#800000;fill-opacity:1;stroke:#ffd700;stroke-width:0;stroke-linejoin:round;stroke-miterlimit:4;stroke-dasharray:none;stroke-opacity:1;paint-order:normal" id="rect141" width="160" height="288" x="-0.31582543" y="-576.31488" inkscape:export-xdpi="93" inkscape:export-ydpi="93"/>
    <rect style="opacity:1;fill:#0000ff;fill-opacity:1;stroke:#b5a642;stroke-width:0;stroke-linejoin:round;stroke-miterlimit:4;stroke-dasharray:none;stroke-opacity:1;paint-order:normal" id="rect139" width="160" height="290" x="4.6841745" y="-577.25653" inkscape:export-xdpi="93" inkscape:export-ydpi="93"/>
    <circle style="opacity:1;fill:#ab9c38;fill-opacity:1;stroke:#b5a642;stroke-width:0;stroke-linejoin:round;stroke-miterlimit:4;stroke-dasharray:none;stroke-opacity:1;paint-order:normal" id="path144" cx="29.68416" cy="-312.25659" r="25" inkscape:transform-center-x="7.5703852" inkscape:transform-center-y="6.4056526" inkscape:export-xdpi="93" inkscape:export-ydpi="93"/>
    <rect style="opacity:1;fill:#978521;fill-opacity:1;stroke:#b5a642;stroke-width:0;stroke-linejoin:round;stroke-miterlimit:4;stroke-dasharray:none;stroke-opacity:1;paint-order:normal" id="rect952" width="50" height="7.999999" x="4.6841745" y="-316.25659" inkscape:export-xdpi="93" inkscape:export-ydpi="93"/>
    <rect style="opacity:1;fill:#ffffff;fill-opacity:1;stroke:#b5a642;stroke-width:0;stroke-linejoin:round;stroke-miterlimit:4;stroke-dasharray:none;stroke-opacity:1;paint-order:normal" id="rect956" width="218" height="170" x="231.68417" y="-532.25653" inkscape:export-xdpi="93" inkscape:export-ydpi="93"/>
    <rect style="opacity:1;fill:#800000;fill-opacity:1;stroke:#b5a642;stroke-width:0;stroke-linejoin:round;stroke-miterlimit:4;stroke-dasharray:none;stroke-opacity:1;paint-order:normal" id="rect958" width="208" height="160" x="236.68417" y="-527.25653" inkscape:export-xdpi="93" inkscape:export-ydpi="93"/>
    <rect style="opacity:1;fill:#000000;fill-opacity:1;stroke:#b5a642;stroke-width:0;stroke-linejoin:round;stroke-miterlimit:4;stroke-dasharray:none;stroke-opacity:1;paint-order:normal" id="rect960" width="140" height="140" x="270.68417" y="-517.25653" inkscape:export-xdpi="93" inkscape:export-ydpi="93"/>
    <rect style="opacity:1;fill:#cccccc;fill-opacity:1;stroke:#b5a642;stroke-width:0;stroke-linejoin:round;stroke-miterlimit:4;stroke-dasharray:none;stroke-opacity:1;paint-order:normal" id="rect962" width="24.999998" height="40" x="270.68417" y="-377.25653" inkscape:export-xdpi="93" inkscape:export-ydpi="93"/>
    <rect y="-377.25653" x="385.68417" height="40" width="24.999998" id="rect964" style="opacity:1;fill:#cccccc;fill-opacity:1;stroke:#b5a642;stroke-width:0;stroke-linejoin:round;stroke-miterlimit:4;stroke-dasharray:none;stroke-opacity:1;paint-order:normal" inkscape:export-xdpi="93" inkscape:export-ydpi="93"/>
    <rect style="opacity:1;fill:#cccccc;fill-opacity:1;stroke:#b5a642;stroke-width:0;stroke-linejoin:round;stroke-miterlimit:4;stroke-dasharray:none;stroke-opacity:1;paint-order:normal" id="rect966" width="24.999998" height="40" x="305.68417" y="-377.25653" inkscape:export-xdpi="93" inkscape:export-ydpi="93"/>
    <rect y="-377.25653" x="350.68417" height="40" width="24.999998" id="rect968" style="opacity:1;fill:#cccccc;fill-opacity:1;stroke:#b5a642;stroke-width:0;stroke-linejoin:round;stroke-miterlimit:4;stroke-dasharray:none;stroke-opacity:1;paint-order:normal" inkscape:export-xdpi="93" inkscape:export-ydpi="93"/>
    <rect y="-557.25653" x="270.68417" height="40" width="24.999998" id="rect970" style="opacity:1;fill:#cccccc;fill-opacity:1;stroke:#b5a642;stroke-width:0;stroke-linejoin:round;stroke-miterlimit:4;stroke-dasharray:none;stroke-opacity:1;paint-order:normal" inkscape:export-xdpi="93" inkscape:export-ydpi="93"/>
    <rect style="opacity:1;fill:#cccccc;fill-opacity:1;stroke:#b5a642;stroke-width:0;stroke-linejoin:round;stroke-miterlimit:4;stroke-dasharray:none;stroke-opacity:1;paint-order:normal" id="rect972" width="24.999998" height="40" x="385.68417" y="-557.25653" inkscape:export-xdpi="93" inkscape:export-ydpi="93"/>
    <rect y="-557.25653" x="305.68417" height="40" width="24.999998" id="rect974" style="opacity:1;fill:#cccccc;fill-opacity:1;stroke:#b5a642;stroke-width:0;stroke-linejoin:round;stroke-miterlimit:4;stroke-dasharray:none;stroke-opacity:1;paint-order:normal" inkscape:export-xdpi="93" inkscape:export-ydpi="93"/>
    <rect style="opacity:1;fill:#cccccc;fill-opacity:1;stroke:#b5a642;stroke-width:0;stroke-linejoin:round;stroke-miterlimit:4;stroke-dasharray:none;stroke-opacity:1;paint-order:normal" id="rect976" width="24.999998" height="40" x="350.68417" y="-557.25653" inkscape:export-xdpi="93" inkscape:export-ydpi="93"/>
    <rect style="opacity:0.98999999;fill:#808080;fill-opacity:1;stroke:#ffffff;stroke-width:0;stroke-linejoin:round;stroke-miterlimit:4;stroke-dasharray:none;stroke-opacity:1;paint-order:normal" id="rect978" width="7.9212141" height="24.999052" x="281.08221" y="-382.21664" transform="matrix(0.99999999,-1.5428888e-4,0.00496574,0.99998767,0,0)" inkscape:export-xdpi="93" inkscape:export-ydpi="93"/>
    <rect transform="matrix(0.99999999,-1.5428888e-4,0.00496574,0.99998767,0,0)" y="-382.21124" x="316.08218" height="24.999052" width="7.9212141" id="rect980" style="opacity:0.98999999;fill:#808080;fill-opacity:1;stroke:#ffffff;stroke-width:0;stroke-linejoin:round;stroke-miterlimit:4;stroke-dasharray:none;stroke-opacity:1;paint-order:normal" inkscape:export-xdpi="93" inkscape:export-ydpi="93"/>
    <rect transform="matrix(0.99999999,-1.5428888e-4,0.00496574,0.99998767,0,0)" y="-382.20428" x="361.08215" height="24.999052" width="7.9212141" id="rect982" style="opacity:0.98999999;fill:#808080;fill-opacity:1;stroke:#ffffff;stroke-width:0;stroke-linejoin:round;stroke-miterlimit:4;stroke-dasharray:none;stroke-opacity:1;paint-order:normal" inkscape:export-xdpi="93" inkscape:export-ydpi="93"/>
    <rect style="opacity:0.98999999;fill:#808080;fill-opacity:1;stroke:#ffffff;stroke-width:0;stroke-linejoin:round;stroke-miterlimit:4;stroke-dasharray:none;stroke-opacity:1;paint-order:normal" id="rect984" width="7.9212141" height="24.999052" x="396.08212" y="-382.19888" transform="matrix(0.99999999,-1.5428888e-4,0.00496574,0.99998767,0,0)" inkscape:export-xdpi="93" inkscape:export-ydpi="93"/>
    <rect transform="matrix(0.99999999,1.5428895e-4,0.00496574,-0.99998767,0,0)" y="512.30676" x="276.64023" height="24.999063" width="7.9212141" id="rect986" style="opacity:0.98999999;fill:#808080;fill-opacity:1;stroke:#ffffff;stroke-width:0;stroke-linejoin:round;stroke-miterlimit:4;stroke-dasharray:none;stroke-opacity:1;paint-order:normal" inkscape:export-xdpi="93" inkscape:export-ydpi="93"/>
    <rect style="opacity:0.98999999;fill:#808080;fill-opacity:1;stroke:#ffffff;stroke-width:0;stroke-linejoin:round;stroke-miterlimit:4;stroke-dasharray:none;stroke-opacity:1;paint-order:normal" id="rect988" width="7.9212141" height="24.999063" x="311.6402" y="512.31213" transform="matrix(0.99999999,1.5428895e-4,0.00496574,-0.99998767,0,0)" inkscape:export-xdpi="93" inkscape:export-ydpi="93"/>
    <rect style="opacity:0.98999999;fill:#808080;fill-opacity:1;stroke:#ffffff;stroke-width:0;stroke-linejoin:round;stroke-miterlimit:4;stroke-dasharray:none;stroke-opacity:1;paint-order:normal" id="rect990" width="7.9212141" height="24.999063" x="356.64023" y="512.31909" transform="matrix(0.99999999,1.5428895e-4,0.00496574,-0.99998767,0,0)" inkscape:export-xdpi="93" inkscape:export-ydpi="93"/>
    <rect transform="matrix(0.99999999,1.5428895e-4,0.00496574,-0.99998767,0,0)" y="512.32446" x="391.6402" height="24.999063" width="7.9212141" id="rect992" style="opacity:0.98999999;fill:#808080;fill-opacity:1;stroke:#ffffff;stroke-width:0;stroke-linejoin:round;stroke-miterlimit:4;stroke-dasharray:none;stroke-opacity:1;paint-order:normal" inkscape:export-xdpi="93" inkscape:export-ydpi="93"/>
    <circle style="opacity:1;fill:#cccccc;fill-opacity:1;stroke:#b5a642;stroke-width:0;stroke-linejoin:round;stroke-miterlimit:4;stroke-dasharray:none;stroke-opacity:1;paint-order:normal" id="path994" cx="399.68417" cy="-937.25665" r="35" inkscape:export-xdpi="93" inkscape:export-ydpi="93"/>
    <circle r="35" cy="-937.25665" cx="49.684174" id="circle996" style="opacity:1;fill:#cccccc;fill-opacity:1;stroke:#b5a642;stroke-width:0;stroke-linejoin:round;stroke-miterlimit:4;stroke-dasharray:none;stroke-opacity:1;paint-order:normal" inkscape:export-xdpi="93" inkscape:export-ydpi="93"/>
    <rect y="-802.25665" x="151.87634" height="55" width="70" id="rect836-7" style="opacity:1;fill:#cccccc;fill-opacity:1;stroke:#000000;stroke-width:0;stroke-miterlimit:4;stroke-dasharray:none;stroke-opacity:1" ry="27.5" inkscape:export-xdpi="93" inkscape:export-ydpi="93"/>
    <rect y="-802.25665" x="226.86128" height="55" width="70" id="rect836-6" style="opacity:1;fill:#cccccc;fill-opacity:1;stroke:#000000;stroke-width:0;stroke-miterlimit:4;stroke-dasharray:none;stroke-opacity:1" ry="27.5" inkscape:export-xdpi="93" inkscape:export-ydpi="93"/>
    <rect y="320.58957" x="729.74036" height="51.845764" width="69.997841" id="rect943" style="opacity:1;fill:#cccccc;fill-opacity:1;stroke:#000000;stroke-width:0;stroke-miterlimit:4;stroke-dasharray:none;stroke-opacity:1" transform="matrix(-0.0082956,-0.99996559,0.99997305,-0.00734098,0,0)" ry="25.716602" rx="0" inkscape:export-xdpi="93" inkscape:export-ydpi="93"/>
    <rect transform="matrix(-9.5663495e-4,-0.99999954,0.99999958,-9.1349405e-4,0,0)" style="opacity:1;fill:#cccccc;fill-opacity:1;stroke:#000000;stroke-width:0;stroke-miterlimit:4;stroke-dasharray:none;stroke-opacity:1" id="rect1026" width="74.974297" height="51.951256" x="727.69354" y="89.253242" ry="11.893352" inkscape:export-xdpi="93" inkscape:export-ydpi="93"/>
    <circle style="opacity:1;fill:#ffffff;fill-opacity:1;stroke:#b5a642;stroke-width:0;stroke-linejoin:round;stroke-miterlimit:4;stroke-dasharray:none;stroke-opacity:1;paint-order:normal" id="path1028" cx="114.4967" cy="-752.78583" r="14.999999" inkscape:export-xdpi="93" inkscape:export-ydpi="93"/>
    <rect ry="27.412117" style="opacity:1;fill:#cccccc;fill-opacity:1;stroke:#000000;stroke-width:0;stroke-miterlimit:4;stroke-dasharray:none;stroke-opacity:1" id="rect1030" width="70.000687" height="54.824234" x="-802.03845" y="-93.431442" transform="matrix(0.01175509,0.99993091,-0.99992639,0.01213346,0,0)" inkscape:export-xdpi="93" inkscape:export-ydpi="93"/>
    <circle cy="-767.78583" cx="56.996696" id="circle105" style="opacity:1;fill:#ffffff;fill-opacity:1;stroke:#b5a642;stroke-width:0;stroke-linejoin:round;stroke-miterlimit:4;stroke-dasharray:none;stroke-opacity:1;paint-order:normal" r="20" inkscape:export-xdpi="93" inkscape:export-ydpi="93"/>
    <path style="opacity:1;fill:#b5a642;fill-opacity:1;stroke:#ffd700;stroke-width:0;stroke-linejoin:round;stroke-miterlimit:4;stroke-dasharray:none;stroke-opacity:1;paint-order:normal" d="m 37.905052,-1061.9508 -8.000378,-0 7.078153,54.8099 h 7.48e-4 l 8.956149,69.87906 8.001652,0.011 -9.032081,-70.46876 h -7.48e-4 z" id="rect132" inkscape:connector-curvature="0" inkscape:transform-center-x="7.8928511" inkscape:transform-center-y="-62.347487" inkscape:export-xdpi="93" inkscape:export-ydpi="93"/>
    <path style="opacity:1;fill:#b5a642;fill-opacity:1;stroke:#ffd700;stroke-width:0;stroke-linejoin:round;stroke-miterlimit:4;stroke-dasharray:none;stroke-opacity:1;paint-order:normal" d="m 411.41144,-1062.2071 -6.84528,54.3373 -7.4e-4,0 -8.88055,70.60773 7.99961,0.005 8.80607,-70.01743 7.2e-4,10e-5 6.91922,-54.9225 z" id="rect134" inkscape:connector-curvature="0" inkscape:transform-center-y="-62.475594" inkscape:transform-center-x="-7.83928" inkscape:export-xdpi="93" inkscape:export-ydpi="93"/>
    <rect style="opacity:1;fill:#b5a642;fill-opacity:1;stroke:#ffd700;stroke-width:0;stroke-linejoin:round;stroke-miterlimit:4;stroke-dasharray:none;stroke-opacity:1;paint-order:normal" id="rect142" width="7.9999728" height="47.233627" x="-1061.8052" y="-80.247169" inkscape:transform-center-x="-23.615912" inkscape:transform-center-y="-0.4590758" transform="matrix(0.00191456,0.99999817,-0.99999353,0.00359618,0,0)" inkscape:export-xdpi="93" inkscape:export-ydpi="93"/>
    <rect transform="matrix(0.00195744,0.99999808,-0.99999381,0.00351739,0,0)" inkscape:transform-center-y="-0.45905859" inkscape:transform-center-x="-24.144882" y="-420.42056" x="-1060.7124" height="48.291611" width="7.9999738" id="rect144" style="opacity:1;fill:#b5a642;fill-opacity:1;stroke:#ffd700;stroke-width:0;stroke-linejoin:round;stroke-miterlimit:4;stroke-dasharray:none;stroke-opacity:1;paint-order:normal" inkscape:export-xdpi="93" inkscape:export-ydpi="93"/>
    <path style="opacity:0.98999999;fill:#afdde9;fill-opacity:1;stroke:#ffffff;stroke-width:0;stroke-linejoin:round;stroke-miterlimit:4;stroke-dasharray:none;stroke-opacity:1;paint-order:normal" d="m 101.42738,-1089.4258 v 0.013 a 27.308291,27.499998 0 0 0 -23.135376,13.7021 27.308291,27.499998 0 0 0 0.005,27.5787 27.308291,27.499998 0 0 0 23.130266,13.6772 v 0.03 h 248.2569 v -0.043 a 27.308291,27.499998 0 0 1 -0.94319,0.043 v -0.093 a 27.308291,27.499998 0 0 0 22.18862,-13.6131 27.308291,27.499998 0 0 0 0.005,-27.5787 27.308291,27.499998 0 0 0 -22.18399,-13.6597 v -0.055 H 102.05229 Z m 247.32347,0 a 27.308291,27.499998 0 0 1 0.93345,0.019 v -0.019 z" id="path129" inkscape:connector-curvature="0" inkscape:export-xdpi="93" inkscape:export-ydpi="93"/>
    <circle r="20" style="opacity:1;fill:#ffffff;fill-opacity:1;stroke:#b5a642;stroke-width:0;stroke-linejoin:round;stroke-miterlimit:4;stroke-dasharray:none;stroke-opacity:1;paint-order:normal" id="circle124" cx="186.68417" cy="-774.75665" inkscape:export-xdpi="93" inkscape:export-ydpi="93"/>
    <circle cy="-774.75665" cx="261.68417" id="circle126" style="opacity:1;fill:#ffffff;fill-opacity:1;stroke:#b5a642;stroke-width:0;stroke-linejoin:round;stroke-miterlimit:4;stroke-dasharray:none;stroke-opacity:1;paint-order:normal" r="20" inkscape:export-xdpi="93" inkscape:export-ydpi="93"/>
    <text xml:space="preserve" style="font-style:normal;font-variant:normal;font-weight:normal;font-stretch:normal;font-size:52.17420197px;line-height:1.25;font-family:Calibri;-inkscape-font-specification:Calibri;font-variant-ligatures:normal;font-variant-caps:normal;font-variant-numeric:normal;font-feature-settings:normal;text-align:start;letter-spacing:0px;word-spacing:0px;writing-mode:lr-tb;text-anchor:start;fill:#000000;fill-opacity:1;stroke:none;stroke-width:1.2228328" x="135.6707" y="230.73042" id="text109" inkscape:export-xdpi="93" inkscape:export-ydpi="93"><tspan id="tspan107" sodipodi:role="line" x="135.6707" y="230.73042" style="fill:#000000;stroke-width:1.2228328">GND</tspan></text>
    <text id="text83" y="234.81081" x="272.41061" style="font-style:normal;font-variant:normal;font-weight:normal;font-stretch:normal;font-size:52.17420197px;line-height:1.25;font-family:Calibri;-inkscape-font-specification:Calibri;font-variant-ligatures:normal;font-variant-caps:normal;font-variant-numeric:normal;font-feature-settings:normal;text-align:start;letter-spacing:0px;word-spacing:0px;writing-mode:lr-tb;text-anchor:start;fill:#000000;fill-opacity:1;stroke:none;stroke-width:1.2228328" xml:space="preserve" inkscape:export-xdpi="93" inkscape:export-ydpi="93"><tspan style="fill:#000000;stroke-width:1.2228328" y="234.81081" x="272.41061" sodipodi:role="line" id="tspan81">Digital</tspan></text>
    <text xml:space="preserve" style="font-style:normal;font-variant:normal;font-weight:normal;font-stretch:normal;font-size:52.17420197px;line-height:1.25;font-family:Calibri;-inkscape-font-specification:Calibri;font-variant-ligatures:normal;font-variant-caps:normal;font-variant-numeric:normal;font-feature-settings:normal;text-align:start;letter-spacing:0px;word-spacing:0px;writing-mode:lr-tb;text-anchor:start;fill:#000000;fill-opacity:1;stroke:none;stroke-width:1.2228328" x="29.160217" y="287.89032" id="text87" inkscape:export-xdpi="93" inkscape:export-ydpi="93"><tspan id="tspan85" sodipodi:role="line" x="29.160217" y="287.89032" style="fill:#000000;stroke-width:1.2228328">Analog</tspan></text>
    <text id="text140" y="297.03613" x="235.32018" style="font-style:normal;font-variant:normal;font-weight:normal;font-stretch:normal;font-size:52.17420197px;line-height:1.25;font-family:Calibri;-inkscape-font-specification:Calibri;font-variant-ligatures:normal;font-variant-caps:normal;font-variant-numeric:normal;font-feature-settings:normal;text-align:start;letter-spacing:0px;word-spacing:0px;writing-mode:lr-tb;text-anchor:start;fill:#000000;fill-opacity:1;stroke:none;stroke-width:1.2228328" xml:space="preserve" inkscape:export-xdpi="93" inkscape:export-ydpi="93"><tspan style="fill:#000000;stroke-width:1.2228328" y="297.03613" x="235.32018" sodipodi:role="line" id="tspan138">+V</tspan></text>
    <text xml:space="preserve" style="font-style:normal;font-variant:normal;font-weight:normal;font-stretch:normal;font-size:63.5px;line-height:1.25;font-family:Calibri;-inkscape-font-specification:Calibri;font-variant-ligatures:normal;font-variant-caps:normal;font-variant-numeric:normal;font-feature-settings:normal;text-align:start;letter-spacing:0px;word-spacing:0px;writing-mode:lr-tb;text-anchor:start;fill:#ffffff;fill-opacity:1;stroke:none;stroke-width:0.26458332" x="617.13" y="437.67542" id="text114" transform="rotate(-90)"><tspan sodipodi:role="line" id="tspan112" x="617.13" y="437.67542" style="fill:#ffffff;stroke-width:0.26458332">KY-025</tspan></text>
    <text xml:space="preserve" style="font-style:normal;font-variant:normal;font-weight:normal;font-stretch:normal;font-size:63.5px;line-height:1.25;font-family:Calibri;-inkscape-font-specification:Calibri;font-variant-ligatures:normal;font-variant-caps:normal;font-variant-numeric:normal;font-feature-settings:normal;text-align:start;letter-spacing:0px;word-spacing:0px;writing-mode:lr-tb;text-anchor:start;fill:#ffffff;fill-opacity:1;stroke:none;stroke-width:0.26458332" x="74.920433" y="-3.4001114" id="text118"><tspan sodipodi:role="line" id="tspan116" x="74.920433" y="-3.4001114" style="fill:#ffffff;stroke-width:0.26458332">A0</tspan></text>
    <text xml:space="preserve" style="font-style:normal;font-variant:normal;font-weight:normal;font-stretch:normal;font-size:63.5px;line-height:1.25;font-family:Calibri;-inkscape-font-specification:Calibri;font-variant-ligatures:normal;font-variant-caps:normal;font-variant-numeric:normal;font-feature-settings:normal;text-align:start;letter-spacing:0px;word-spacing:0px;writing-mode:lr-tb;text-anchor:start;fill:#ffffff;fill-opacity:1;stroke:none;stroke-width:0.26458332" x="166.22565" y="-3.3691056" id="text122"><tspan sodipodi:role="line" id="tspan120" x="166.22565" y="-3.3691056" style="fill:#ffffff;stroke-width:0.26458332">G</tspan></text>
    <text xml:space="preserve" style="font-style:normal;font-variant:normal;font-weight:normal;font-stretch:normal;font-size:63.5px;line-height:1.25;font-family:Calibri;-inkscape-font-specification:Calibri;font-variant-ligatures:normal;font-variant-caps:normal;font-variant-numeric:normal;font-feature-settings:normal;text-align:start;letter-spacing:0px;word-spacing:0px;writing-mode:lr-tb;text-anchor:start;fill:#ffffff;fill-opacity:1;stroke:none;stroke-width:0.26458332" x="248.27545" y="0.53763282" id="text126"><tspan sodipodi:role="line" id="tspan124" x="248.27545" y="0.53763282" style="fill:#ffffff;stroke-width:0.26458332">+</tspan></text>
    <text xml:space="preserve" style="font-style:normal;font-variant:normal;font-weight:normal;font-stretch:normal;font-size:63.5px;line-height:1.25;font-family:Calibri;-inkscape-font-specification:Calibri;font-variant-ligatures:normal;font-variant-caps:normal;font-variant-numeric:normal;font-feature-settings:normal;text-align:start;letter-spacing:0px;word-spacing:0px;writing-mode:lr-tb;text-anchor:start;fill:#ffffff;fill-opacity:1;stroke:none;stroke-width:0.26458332" x="304.3822" y="-3.4001114" id="text130"><tspan sodipodi:role="line" id="tspan128" x="304.3822" y="-3.4001114" style="fill:#ffffff;stroke-width:0.26458332">D0</tspan></text>
  </g>
</svg></svg>
