<?xml version="1.0" encoding="UTF-8" standalone="no"?>
<svg xmlns:dc="http://purl.org/dc/elements/1.1/" xmlns:cc="http://creativecommons.org/ns#" xmlns:rdf="http://www.w3.org/1999/02/22-rdf-syntax-ns#" xmlns:svg="http://www.w3.org/2000/svg" xmlns="http://www.w3.org/2000/svg" xmlns:sodipodi="http://sodipodi.sourceforge.net/DTD/sodipodi-0.dtd" xmlns:inkscape="http://www.inkscape.org/namespaces/inkscape" width="743" height="1081" viewBox="0 0 1100 1600" version="1.1" id="svg8" inkscape:version="0.92.4 (5da689c313, 2019-01-14)" sodipodi:docname="KY-023.svg" inkscape:export-filename="C:\Users\Entwicklung5.SIMACGMBH\Desktop\SEN-KIT02\Abbildungen Fertig\KY-023\KY-023.png" inkscape:export-xdpi="93" inkscape:export-ydpi="93">
  <defs id="defs2">
    <inkscape:perspective sodipodi:type="inkscape:persp3d" inkscape:vp_x="0 : 148.5 : 1" inkscape:vp_y="0 : 1000 : 0" inkscape:vp_z="210 : 148.49999 : 1" inkscape:persp3d-origin="105.00001 : 98.999997 : 1" id="perspective876"/>
  </defs>
  <sodipodi:namedview id="base" pagecolor="#323232" bordercolor="#000000" borderopacity="1" inkscape:pageopacity="0" inkscape:pageshadow="2" inkscape:zoom="0.125" inkscape:cx="1672.5371" inkscape:cy="2919.5103" inkscape:document-units="mm" inkscape:current-layer="layer1" showgrid="false" inkscape:window-width="1920" inkscape:window-height="1017" inkscape:window-x="-8" inkscape:window-y="-8" inkscape:window-maximized="1" width="500mm" showguides="true" inkscape:lockguides="true" inkscape:pagecheckerboard="false" borderlayer="false">
    <inkscape:grid type="xygrid" id="grid111"/>
  </sodipodi:namedview>
  <metadata id="metadata5">
    <rdf:RDF>
      <cc:Work rdf:about="">
        <dc:format>image/svg+xml</dc:format>
        <dc:type rdf:resource="http://purl.org/dc/dcmitype/StillImage"/>
        <dc:title/>
      </cc:Work>
    </rdf:RDF>
  </metadata>
  <g inkscape:label="Ebene 1" inkscape:groupmode="layer" id="layer1" transform="translate(0.31582593,1302.8111)">
    <rect style="opacity:1;fill:#000000;fill-opacity:1;stroke:#000000;stroke-width:0;stroke-miterlimit:4;stroke-dasharray:none;stroke-opacity:1" id="rect815" width="800" height="1010" x="-502.86099" y="-1099.6869" transform="rotate(90.002601)"/>
    <text xml:space="preserve" style="font-style:normal;font-variant:normal;font-weight:normal;font-stretch:normal;font-size:4.23333311px;line-height:1.25;font-family:Calibri;-inkscape-font-specification:'Calibri, Normal';font-variant-ligatures:normal;font-variant-caps:normal;font-variant-numeric:normal;font-feature-settings:normal;text-align:start;letter-spacing:0px;word-spacing:0px;writing-mode:lr-tb;text-anchor:start;fill:#ffffff;fill-opacity:1;stroke:none;stroke-width:0.26458332" x="61.988091" y="187.3869" id="text819"><tspan sodipodi:role="line" id="tspan817" x="61.988091" y="191.09106" style="fill:#ffffff;fill-opacity:1;stroke-width:0.26458332"/></text>
    <rect style="opacity:1;fill:#ffffff;fill-opacity:1;stroke:#000000;stroke-width:0;stroke-miterlimit:4;stroke-dasharray:none;stroke-opacity:1" id="rect821" width="390" height="80.684937" x="-297.86096" y="-185.37173" ry="0" transform="rotate(90.002601)"/>
    <rect style="opacity:1;fill:#1a1a1a;fill-opacity:1;stroke:#000000;stroke-width:0;stroke-miterlimit:4;stroke-dasharray:none;stroke-opacity:1" id="rect825" width="76.36306" height="70.899185" x="-140.80565" y="-180.58597" ry="14.842069" transform="rotate(90.002601)"/>
    <rect y="-180.58597" x="15.149808" height="70.899185" width="76.36306" id="rect872" style="opacity:1;fill:#1a1a1a;fill-opacity:1;stroke:#000000;stroke-width:0;stroke-miterlimit:4;stroke-dasharray:none;stroke-opacity:1" ry="14.842069" transform="rotate(90.002601)"/>
    <rect y="-180.58597" x="-62.828678" height="70.899185" width="76.36306" id="rect874" style="opacity:1;fill:#1a1a1a;fill-opacity:1;stroke:#000000;stroke-width:0;stroke-miterlimit:4;stroke-dasharray:none;stroke-opacity:1" ry="12.930591" transform="rotate(90.002601)"/>
    <rect style="opacity:0.98999999;fill:#808080;fill-opacity:1;stroke:#ffffff;stroke-width:0;stroke-linejoin:round;stroke-miterlimit:4;stroke-dasharray:none;stroke-opacity:1;paint-order:normal" id="rect947" width="8.4758072" height="145" x="-106.94514" y="-144.68678" transform="rotate(90.002601)"/>
    <rect y="-144.68678" x="-28.516758" height="145" width="8.4758072" id="rect949" style="opacity:0.98999999;fill:#808080;fill-opacity:1;stroke:#ffffff;stroke-width:0;stroke-linejoin:round;stroke-miterlimit:4;stroke-dasharray:none;stroke-opacity:1;paint-order:normal" transform="rotate(90.002601)"/>
    <rect style="opacity:0.98999999;fill:#808080;fill-opacity:1;stroke:#ffffff;stroke-width:0;stroke-linejoin:round;stroke-miterlimit:4;stroke-dasharray:none;stroke-opacity:1;paint-order:normal" id="rect951" width="8.4758072" height="145" x="49.010517" y="-144.68678" transform="rotate(90.002601)"/>
    <text xml:space="preserve" style="font-style:normal;font-variant:normal;font-weight:normal;font-stretch:normal;font-size:11.28888893px;line-height:1.25;font-family:'Proxy 1';-inkscape-font-specification:'Proxy 1, ';font-variant-ligatures:normal;font-variant-caps:normal;font-variant-numeric:normal;font-feature-settings:normal;text-align:start;letter-spacing:0px;word-spacing:0px;writing-mode:lr-tb;text-anchor:start;fill:#000000;fill-opacity:1;stroke:none;stroke-width:0.26458332" x="-482.47003" y="-236.28104" id="text959"><tspan sodipodi:role="line" id="tspan957" x="-482.47003" y="-225.88716" style="fill:#000000;stroke-width:0.26458332"/></text>
    <text xml:space="preserve" style="font-style:normal;font-variant:normal;font-weight:normal;font-stretch:normal;font-size:11.28888893px;line-height:1.25;font-family:'Proxy 1';-inkscape-font-specification:'Proxy 1, ';font-variant-ligatures:normal;font-variant-caps:normal;font-variant-numeric:normal;font-feature-settings:normal;text-align:start;letter-spacing:0px;word-spacing:0px;writing-mode:lr-tb;text-anchor:start;fill:#ffffff;fill-opacity:1;stroke:none;stroke-width:0.26458332" x="49.365498" y="215.80757" id="text963"><tspan sodipodi:role="line" id="tspan961" x="49.365498" y="226.20145" style="fill:#ffffff;stroke-width:0.26458332"/></text>
    <text xml:space="preserve" style="font-style:normal;font-variant:normal;font-weight:normal;font-stretch:normal;font-size:11.28888893px;line-height:1.25;font-family:'Proxy 1';-inkscape-font-specification:'Proxy 1, ';font-variant-ligatures:normal;font-variant-caps:normal;font-variant-numeric:normal;font-feature-settings:normal;text-align:start;letter-spacing:0px;word-spacing:0px;writing-mode:lr-tb;text-anchor:start;fill:#00ff00;fill-opacity:1;stroke:none;stroke-width:0.26458332" x="124.98328" y="190.97762" id="text967"><tspan sodipodi:role="line" id="tspan965" x="124.98328" y="201.37149" style="fill:#00ff00;fill-opacity:1;stroke-width:0.26458332"/></text>
    <flowRoot xml:space="preserve" id="flowRoot969" style="font-style:normal;font-variant:normal;font-weight:normal;font-stretch:normal;font-size:42.66666794px;line-height:1.25;font-family:'Proxy 1';-inkscape-font-specification:'Proxy 1, ';font-variant-ligatures:normal;font-variant-caps:normal;font-variant-numeric:normal;font-feature-settings:normal;text-align:start;letter-spacing:0px;word-spacing:0px;writing-mode:lr-tb;text-anchor:start;fill:#000000;fill-opacity:1;stroke:none"><flowRegion id="flowRegion971"><rect id="rect973" width="373.57144" height="181.42857" x="249.28572" y="630.71198"/></flowRegion><flowPara id="flowPara975"/></flowRoot>    <flowRoot xml:space="preserve" id="flowRoot1466" style="font-style:normal;font-variant:normal;font-weight:normal;font-stretch:normal;font-size:42.66666794px;line-height:1.25;font-family:Calibri;-inkscape-font-specification:Calibri;font-variant-ligatures:normal;font-variant-caps:normal;font-variant-numeric:normal;font-feature-settings:normal;text-align:start;letter-spacing:0px;word-spacing:0px;writing-mode:lr-tb;text-anchor:start;fill:#ffffff;fill-opacity:1;stroke:none"><flowRegion id="flowRegion1468" style="font-style:normal;font-variant:normal;font-weight:normal;font-stretch:normal;font-family:Calibri;-inkscape-font-specification:Calibri;fill:#ffffff;fill-opacity:1"><rect id="rect1470" width="414.1825" height="372.47485" x="1288.5094" y="1923.5425" style="font-style:normal;font-variant:normal;font-weight:normal;font-stretch:normal;font-family:Calibri;-inkscape-font-specification:Calibri;fill:#ffffff;fill-opacity:1"/></flowRegion><flowPara id="flowPara1472"/></flowRoot>    <flowRoot xml:space="preserve" id="flowRoot1529" style="font-style:normal;font-variant:normal;font-weight:normal;font-stretch:normal;font-size:266.66665649px;line-height:1.25;font-family:'Proxy 1';-inkscape-font-specification:'Proxy 1, ';font-variant-ligatures:normal;font-variant-caps:normal;font-variant-numeric:normal;font-feature-settings:normal;text-align:start;letter-spacing:0px;word-spacing:0px;writing-mode:lr-tb;text-anchor:start;fill:#000000;fill-opacity:1;stroke:none"><flowRegion id="flowRegion1531" style="font-size:266.66665649px"><rect id="rect1533" width="2157.6858" height="2311.229" x="-2691.0464" y="-332.2605" style="font-size:266.66665649px"/></flowRegion><flowPara id="flowPara1535"/></flowRoot>    <path style="fill:#ffffff;stroke-width:0.21411747" d="m 1041.1826,-82.211684 c 0.071,3.69105 0.1163,4.09464 0.5417,4.78314 0.2555,0.41354 0.7833,0.94529 1.1728,1.18168 0.6696,0.40615 1.1481,0.43307 8.7561,0.49331 l 8.0478,0.064 -0.046,7.88546 -0.045,7.88546 -10.0299,-4.6e-4 c -11.0584,-5.4e-4 -12.0998,-0.0867 -15.0039,-1.23358 -3.8047,-1.50286 -5.5703,-3.69593 -6.6173,-8.21965 -0.281,-1.21411 -0.3416,-2.60099 -0.3145,-7.19701 0.018,-3.13124 0.1122,-6.5631 0.2084,-7.62655 l 0.1747,-1.93356 6.5391,-0.0567 6.5391,-0.0567 0.077,4.03118 z m -22.4629,75.0864902 c -0.021,67.2876268 -0.1014,83.8400228 -0.3944,81.0459798 l -0.045,-0.429703 -0.1834,0.429692 c -0.1535,0.359613 -0.1919,0.307011 -0.2352,-0.322251 -0.034,-0.497801 -0.099,-0.279834 -0.1916,0.644472 l -0.1398,1.396423 -0.062,-1.396432 c -0.034,-0.767952 -0.1055,-1.227206 -0.1592,-1.020368 -0.083,0.320237 -0.362,0.375864 -1.8817,0.375795 -1.7825,-5.8e-5 -1.7842,6.37e-4 -1.873,0.590735 -0.063,0.414847 -0.098,0.318806 -0.121,-0.322246 -0.018,-0.502161 -0.1279,-0.913056 -0.2453,-0.913061 -0.1419,-6e-6 -0.2122,-26.675276 -0.2098,-79.5959558 V -86.238034 l 2.881,-3.4e-4 2.8809,-3.4e-4 z m 61.6974,-60.6341502 -4e-4,7.94893 -6.5088,-2.6e-4 -6.5088,-2.7e-4 4e-4,-7.94893 4e-4,-7.94879 6.5088,2.7e-4 6.5088,2.6e-4 z m -24.0086,16.02927 c 3.6609,0.56554 6.9146,1.57149 9.8164,3.03495 1.0564,0.53283 1.9686,1.03226 2.0273,1.10992 0.059,0.0782 0.6339,0.4765 1.2782,0.88621 1.3013,0.82752 3.6426,2.71495 3.9073,3.14997 0.094,0.15436 0.258,0.2805 0.3649,0.2805 0.2829,3e-5 2.0854,1.98786 3.2108,3.54107 1.1858,1.63657 1.8514,2.96915 2.9529,5.91189 1.2855,3.43418 1.5906,5.44819 1.4485,9.56018 -0.1031,2.98191 -0.2034,3.72205 -0.7571,5.58564 -0.3511,1.18162 -0.8374,2.6155 -1.0808,3.18657 -0.2435,0.57106 -0.4426,1.14027 -0.4426,1.26495 0,0.12455 -0.4562,1.00817 -1.0138,1.9636 -2.2222,3.8075402 -8.1535,8.9989102 -12.5688,11.0006202 -6.9167,3.13597 -13.8632,3.53062 -20.2793,1.15250005 -2.6987,-1.00024005 -4.2343,-1.72230005 -6.1385,-2.88600005 -2.1999,-1.34458 -2.3281,-1.45323 -5.5639,-4.71883 -3.7107,-3.7447602 -5.2842,-6.4315202 -6.6271,-11.3152602 -0.6844,-2.48904 -0.9429,-7.38016 -0.5294,-10.0178 0.5377,-3.42986 2.4765,-7.99691 4.5918,-10.81654 1.0927,-1.45639 2.8133,-3.4144 3.0006,-3.41439 0.057,0 0.6069,-0.49141 1.2227,-1.09201 2.93,-2.85749 8.6631,-5.8007 13.3907,-6.87426 1.7639,-0.40061 6.4631,-0.69826 7.7892,-0.49348 z m -6.7489,15.20192 c -3.0181,0.77101 -5.5975,2.29848 -7.8712,4.66113 -2.2995,2.38951 -3.1566,6.19288 -2.1334,9.46687 1.127,3.60616 5.3662,7.1755 9.9229,8.35483 2.6119,0.67613 6.4233,0.62715 8.955,-0.11488 3.5953,-1.05385 6.4061,-2.93378 8.2898,-5.54459 0.8628,-1.19578 1.11,-1.74695 1.3489,-3.00767 0.5118,-2.701 0.2333,-5.4639 -0.7454,-7.3954 -0.8602,-1.69763 -3.294,-3.85219 -5.7483,-5.08879 -3.7056,-1.86694 -8.0415,-2.3473 -12.0183,-1.3315 z m 30.6609,44.6705102 c 0.054,0.14244 0.073,3.7278898 0.042,7.9676098 l -0.056,7.70858 -7.149,0.0235 c -6.7539,0.0222 -7.2182,0.0501 -8.3993,0.48628 -3.0363,1.12243 -4.7004,4.76621 -3.6362,7.9623 0.5468,1.64237 1.507,2.75076 3.0719,3.54597 l 1.3871,0.70468 7.4158,0.0639 7.4158,0.0639 -4e-4,7.95582 -3e-4,7.955819 -8.376,-0.08648 c -7.7948,-0.08115 -8.4946,-0.119636 -10.0833,-0.555899 -3.2313,-0.888025 -6.056,-2.306291 -8.2542,-4.144041 -0.5492,-0.45914 -1.0917,-0.83493 -1.2056,-0.83494 -0.2783,-1e-5 -2.088,-2.01132 -3.4151,-3.79535 -1.1245,-1.51188 -2.2637,-3.66227 -2.4993,-4.7179 -0.076,-0.33961 -0.3926,-1.4391 -0.7041,-2.44347 -0.5248,-1.69205 -0.5664,-2.11021 -0.5662,-5.69315 10e-5,-3.59921 0.042,-4.01579 0.6057,-6.01531 0.8921,-3.16513 1.3377,-4.19965 2.7158,-6.30528 1.562,-2.38678 3.5666,-4.39526 6.0542,-6.06597 3.5117,-2.3585998 6.1189,-3.3457398 10.1517,-3.8437598 2.6316,-0.32503 15.3572,-0.27411 15.4852,0.0618 z m -39.3875,22.1682298 -6e-4,12.99742 -6.7222,-3.1e-4 -6.7222,-3.1e-4 6e-4,-12.99742 6e-4,-12.99743 6.7222,3.1e-4 6.7222,3e-4 z m 49.722,22.237574 c 0,0.117929 0.3711,0.214786 0.8246,0.214808 0.8192,6.2e-5 0.8255,0.01334 0.9603,0.996853 0.075,0.548144 0.1348,22.566026 0.1338,48.928309 v 47.9318 l -2.8813,-0.065 -2.8813,-0.065 v -48.7382 c 0,-26.805915 0.061,-48.890962 0.1319,-49.077789 0.1037,-0.272535 0.4842,-0.339828 1.9206,-0.339763 1.0518,6.2e-5 1.7911,0.08888 1.7911,0.214862 z m -32.2249,21.911596 -7e-4,16.542221 -6.6155,-2.97e-4 -6.6156,-2.97e-4 8e-4,-16.542219 7e-4,-16.542191 6.6155,2.97e-4 6.6155,2.97e-4 z m 21.9792,29.648114 -4e-4,7.94877 -6.5088,-2.9e-4 -6.5088,-3e-4 4e-4,-7.94877 4e-4,-7.948938 6.5088,2.96e-4 6.5088,2.96e-4 z m -19.8465,-9e-4 -4e-4,7.94877 -16.8589,-7.7e-4 -16.8588,-7.6e-4 4e-4,-7.94877 4e-4,-7.948942 16.8588,7.69e-4 16.8589,7.68e-4 z m 19.8451,31.68874 -8e-4,16.64966 -6.5088,-2.9e-4 -6.5088,-3e-4 8e-4,-16.64966 7e-4,-16.64954 6.5088,3e-4 6.5088,3e-4 z m -20.8224,-13.884 c 0.064,0.10335 0.1125,3.6248 0.1085,7.82504 l -0.01,7.63663 -7.7255,0.0699 c -10.8348,0.0976 -10.2435,-0.34457 -10.3597,7.74984 l -0.073,5.1023 -6.7813,-3.1e-4 -6.7813,-3.1e-4 -0.2413,-1.89436 c -0.3641,-2.85989 -0.3093,-11.95586 0.087,-14.41504 0.6814,-4.22792 1.9928,-6.97258 4.2087,-8.80813 2.2999,-1.90498 4.6436,-2.8097 8.3752,-3.23314 2.3503,-0.26675 19.029,-0.29489 19.1901,-0.0322 z m 27.184,39.87877 c 1.4163,0.40101 2.7753,1.19249 3.549,2.06674 3.1867,3.60071 3.5234,7.94076 0.8924,11.5017 -1.2343,1.67063 -1.7136,2.08626 -3.2297,2.80077 -1.1503,0.54213 -1.5067,0.60281 -3.5206,0.59927 -2.0135,-6e-5 -2.3769,-0.0663 -3.5833,-0.62438 -2.6114,-1.20666 -4.6651,-4.24961 -4.8837,-7.23629 -0.2037,-2.78305 0.6201,-4.90711 2.7539,-7.10107 1.9037,-1.95747 5.2448,-2.79326 8.022,-2.00674 z m -5.5093,1.56457 c -1.7218,0.72509 -3.4143,2.97301 -3.9822,5.28921 -0.5684,2.31832 -0.092,4.07808 1.8186,6.71874 0.4576,0.63258 1.0771,1.10617 2.0997,1.60521 1.2905,0.6297 1.6528,0.70842 3.2858,0.71405 1.6828,6e-5 1.9573,-0.0569 3.2996,-0.74542 1.1864,-0.60931 1.6363,-0.99633 2.3719,-2.04079 0.4993,-0.70898 1.0721,-1.7724 1.273,-2.36321 1.2327,-3.62579 -0.7511,-7.98394 -4.2977,-9.44132 -1.347,-0.55352 -4.2367,-0.4238 -5.8687,0.26353 z m 8.3226,5.88748 c 2e-4,1.61702 -0.094,3.18793 -0.2083,3.49096 -0.4907,1.299 -2.9756,1.8856 -4.1265,0.97421 -0.3029,-0.23996 -0.6696,-0.76694 -0.8147,-1.17107 l -0.2639,-0.73485 -0.8109,0.73733 c -0.4459,0.40555 -1.3407,1.03834 -1.9883,1.40625 -0.6476,0.36793 -1.2312,0.75639 -1.2968,0.86331 -0.283,0.46095 -0.5201,0.12718 -0.5097,-0.71883 l 0.012,-0.91306 2.034,-1.28885 c 2.1745,-1.37792 2.4253,-1.71259 2.4253,-3.23634 l -10e-5,-0.9528 -2.2543,-8e-5 -2.2542,-8e-5 0.067,-0.64791 0.067,-0.64806 4.9617,-0.0502 4.9618,-0.0502 z m -4.2682,0.36085 c 2e-4,1.60142 0.07,1.99467 0.4422,2.47063 0.9223,1.18034 2.4089,0.51022 2.6416,-1.19079 0.097,-0.71232 0.046,-2.73638 -0.079,-3.13058 -0.01,-0.0291 -0.6893,-0.0544 -1.5109,-0.0545 l -1.4938,-9e-5 z" id="path31-1" inkscape:connector-curvature="0"/>
    <circle transform="matrix(-1,-4.5413442e-5,-4.5413442e-5,1,0,0)" cy="-427.86099" cx="-1024.6869" id="circle109" style="opacity:0.98999999;fill:#cccccc;fill-opacity:1;stroke:#ffffff;stroke-width:0;stroke-linejoin:round;stroke-miterlimit:4;stroke-dasharray:none;stroke-opacity:1;paint-order:normal" r="50"/>
    <circle cy="-1024.6869" cx="-427.86099" id="circle111" style="opacity:0.98999999;fill:#ffffff;fill-opacity:1;stroke:#ffffff;stroke-width:0;stroke-linejoin:round;stroke-miterlimit:4;stroke-dasharray:none;stroke-opacity:1;paint-order:normal" r="44.444443" transform="rotate(90.002601)"/>
    <circle style="opacity:0.98999999;fill:#cccccc;fill-opacity:1;stroke:#ffffff;stroke-width:0;stroke-linejoin:round;stroke-miterlimit:4;stroke-dasharray:none;stroke-opacity:1;paint-order:normal" id="circle113" cx="-1024.6869" cy="222.13907" transform="matrix(-1,-4.5413442e-5,-4.5413442e-5,1,0,0)" r="50"/>
    <circle style="opacity:0.98999999;fill:#ffffff;fill-opacity:1;stroke:#ffffff;stroke-width:0;stroke-linejoin:round;stroke-miterlimit:4;stroke-dasharray:none;stroke-opacity:1;paint-order:normal" id="circle115" cx="222.13907" cy="-1024.6869" r="44.444443" transform="rotate(90.002601)"/>
    <circle transform="matrix(-1,-4.5413442e-5,-4.5413442e-5,1,0,0)" cy="222.13907" cx="-164.68678" id="circle117" style="opacity:0.98999999;fill:#cccccc;fill-opacity:1;stroke:#ffffff;stroke-width:0;stroke-linejoin:round;stroke-miterlimit:4;stroke-dasharray:none;stroke-opacity:1;paint-order:normal" r="50"/>
    <circle cy="-164.68678" cx="222.13907" id="circle119" style="opacity:0.98999999;fill:#ffffff;fill-opacity:1;stroke:#ffffff;stroke-width:0;stroke-linejoin:round;stroke-miterlimit:4;stroke-dasharray:none;stroke-opacity:1;paint-order:normal" r="44.444447" transform="rotate(90.002601)"/>
    <circle style="opacity:0.98999999;fill:#cccccc;fill-opacity:1;stroke:#ffffff;stroke-width:0;stroke-linejoin:round;stroke-miterlimit:4;stroke-dasharray:none;stroke-opacity:1;paint-order:normal" id="circle121" cx="-164.68678" cy="-427.86099" transform="matrix(-1,-4.5413442e-5,-4.5413442e-5,1,0,0)" r="50"/>
    <circle style="opacity:0.98999999;fill:#ffffff;fill-opacity:1;stroke:#ffffff;stroke-width:0;stroke-linejoin:round;stroke-miterlimit:4;stroke-dasharray:none;stroke-opacity:1;paint-order:normal" id="circle123" cx="-427.86099" cy="-164.68678" r="44.444443" transform="rotate(90.002601)"/>
    <flowRoot xml:space="preserve" id="flowRoot193" style="font-style:normal;font-variant:normal;font-weight:normal;font-stretch:normal;font-size:42.66666794px;line-height:1.25;font-family:Calibri;-inkscape-font-specification:Calibri;font-variant-ligatures:normal;font-variant-caps:normal;font-variant-numeric:normal;font-feature-settings:normal;text-align:start;letter-spacing:0px;word-spacing:0px;writing-mode:lr-tb;text-anchor:start;fill:#000000;fill-opacity:1;stroke:none" transform="matrix(0.26458333,0,0,0.26458333,-0.31582593,-802.81107)"><flowRegion id="flowRegion195"><rect id="rect197" width="79.195961" height="441.23462" x="656.19507" y="1317.7396"/></flowRegion><flowPara id="flowPara199"/></flowRoot>    <flowRoot xml:space="preserve" id="flowRoot201" style="font-style:normal;font-variant:normal;font-weight:normal;font-stretch:normal;font-size:42.66666794px;line-height:1.25;font-family:Calibri;-inkscape-font-specification:Calibri;font-variant-ligatures:normal;font-variant-caps:normal;font-variant-numeric:normal;font-feature-settings:normal;text-align:start;letter-spacing:0px;word-spacing:0px;writing-mode:lr-tb;text-anchor:start;fill:#000000;fill-opacity:1;stroke:none" transform="matrix(0.26458333,0,0,0.26458333,-0.31582593,-802.81107)"><flowRegion id="flowRegion203"><rect id="rect205" width="644.88135" height="1091.4656" x="8.4132125e-06" y="-9.8991142e-05"/></flowRegion><flowPara id="flowPara207"/></flowRoot>    <rect ry="14.842069" y="-180.58597" x="-296.29175" height="70.899185" width="76.36306" id="rect95" style="opacity:1;fill:#1a1a1a;fill-opacity:1;stroke:#000000;stroke-width:0;stroke-miterlimit:4;stroke-dasharray:none;stroke-opacity:1" transform="rotate(90.002601)"/>
    <rect ry="12.930591" style="opacity:1;fill:#1a1a1a;fill-opacity:1;stroke:#000000;stroke-width:0;stroke-miterlimit:4;stroke-dasharray:none;stroke-opacity:1" id="rect97" width="76.36306" height="70.899185" x="-218.31462" y="-180.58597" transform="rotate(90.002601)"/>
    <rect y="-144.68678" x="-262.43109" height="145" width="8.4758072" id="rect99" style="opacity:0.98999999;fill:#808080;fill-opacity:1;stroke:#ffffff;stroke-width:0;stroke-linejoin:round;stroke-miterlimit:4;stroke-dasharray:none;stroke-opacity:1;paint-order:normal" transform="rotate(90.002601)"/>
    <rect style="opacity:0.98999999;fill:#808080;fill-opacity:1;stroke:#ffffff;stroke-width:0;stroke-linejoin:round;stroke-miterlimit:4;stroke-dasharray:none;stroke-opacity:1;paint-order:normal" id="rect101" width="8.4758072" height="145" x="-184.00273" y="-144.68678" transform="rotate(90.002601)"/>
    <rect transform="translate(0,1.0416666e-6)" style="opacity:0.98999999;fill:#ffffff;fill-opacity:1;stroke:#ffffff;stroke-width:0;stroke-linejoin:round;stroke-miterlimit:4;stroke-dasharray:none;stroke-opacity:1;paint-order:normal" id="rect143" width="550" height="550" x="299.68417" y="-377.81107"/>
    <rect style="opacity:0.98999999;fill:#ffffff;fill-opacity:1;stroke:#ffffff;stroke-width:0;stroke-linejoin:round;stroke-miterlimit:4;stroke-dasharray:none;stroke-opacity:1;paint-order:normal" id="rect154" width="451.90833" height="130" x="347.87582" y="-502.81107"/>
    <rect y="167.18893" x="347.87582" height="130" width="451.90833" id="rect156" style="opacity:0.98999999;fill:#ffffff;fill-opacity:1;stroke:#ffffff;stroke-width:0;stroke-linejoin:round;stroke-miterlimit:4;stroke-dasharray:none;stroke-opacity:1;paint-order:normal"/>
    <rect style="opacity:0.98999999;fill:#ffffff;fill-opacity:1;stroke:#ffffff;stroke-width:0;stroke-linejoin:round;stroke-miterlimit:4;stroke-dasharray:none;stroke-opacity:1;paint-order:normal" id="rect158" width="148.16667" height="449.79166" x="848.46747" y="-328.28607"/>
    <circle r="50" style="opacity:0.98999999;fill:#cccccc;fill-opacity:1;stroke:#ffffff;stroke-width:0;stroke-linejoin:round;stroke-miterlimit:4;stroke-dasharray:none;stroke-opacity:1;paint-order:normal" id="circle145" cx="-299.69199" cy="172.17532" transform="matrix(-1,-4.5413443e-5,-4.5413443e-5,1,0,1.0416666e-6)"/>
    <circle transform="matrix(-1,-4.5413443e-5,-4.5413443e-5,1,0,1.0416666e-6)" cy="172.15039" cx="-849.69202" id="circle147" style="opacity:0.98999999;fill:#cccccc;fill-opacity:1;stroke:#ffffff;stroke-width:0;stroke-linejoin:round;stroke-miterlimit:4;stroke-dasharray:none;stroke-opacity:1;paint-order:normal" r="50"/>
    <circle r="50" style="opacity:0.98999999;fill:#cccccc;fill-opacity:1;stroke:#ffffff;stroke-width:0;stroke-linejoin:round;stroke-miterlimit:4;stroke-dasharray:none;stroke-opacity:1;paint-order:normal" id="circle149" cx="-849.66699" cy="-377.84967" transform="matrix(-1,-4.5413443e-5,-4.5413443e-5,1,0,1.0416666e-6)"/>
    <circle transform="matrix(-1,-4.5413443e-5,-4.5413443e-5,1,0,1.0416666e-6)" cy="-377.82471" cx="-299.66702" id="circle151" style="opacity:0.98999999;fill:#cccccc;fill-opacity:1;stroke:#ffffff;stroke-width:0;stroke-linejoin:round;stroke-miterlimit:4;stroke-dasharray:none;stroke-opacity:1;paint-order:normal" r="50"/>
    <rect style="opacity:0.98999999;fill:#000000;fill-opacity:1;stroke:#ffffff;stroke-width:0;stroke-linejoin:round;stroke-miterlimit:4;stroke-dasharray:none;stroke-opacity:1;paint-order:normal" id="rect164" width="440" height="790" x="353.74252" y="-497.81107"/>
    <rect style="opacity:0.98999999;fill:#000000;fill-opacity:1;stroke:#ffffff;stroke-width:0;stroke-linejoin:round;stroke-miterlimit:4;stroke-dasharray:none;stroke-opacity:1;paint-order:normal" id="rect166" width="685" height="440" x="304.68417" y="-323.34024"/>
    <rect style="opacity:0.98999999;fill:#999999;fill-opacity:1;stroke:#ffffff;stroke-width:0;stroke-linejoin:round;stroke-miterlimit:4;stroke-dasharray:none;stroke-opacity:1;paint-order:normal" id="rect168" width="540" height="540" x="304.68417" y="-372.81107"/>
    <circle style="opacity:0.98999999;fill:#1a1a1a;fill-opacity:1;stroke:#ffffff;stroke-width:0;stroke-linejoin:round;stroke-miterlimit:4;stroke-dasharray:none;stroke-opacity:1;paint-order:normal" id="path170" cx="574.6842" cy="-102.81107" r="225"/>
    <rect style="opacity:0.98999999;fill:#999999;fill-opacity:1;stroke:#ffffff;stroke-width:0;stroke-linejoin:round;stroke-miterlimit:4;stroke-dasharray:none;stroke-opacity:1;paint-order:normal" id="rect172" width="461.43332" height="20.108337" x="346.8175" y="-172.9194"/>
    <rect y="-52.919407" x="337.29251" height="20.108337" width="476.25" id="rect174" style="opacity:0.98999999;fill:#999999;fill-opacity:1;stroke:#ffffff;stroke-width:0;stroke-linejoin:round;stroke-miterlimit:4;stroke-dasharray:none;stroke-opacity:1;paint-order:normal"/>
    <rect style="opacity:0.98999999;fill:#000000;fill-opacity:1;stroke:#ffffff;stroke-width:0;stroke-linejoin:round;stroke-miterlimit:4;stroke-dasharray:none;stroke-opacity:1;paint-order:normal" id="rect176" width="190" height="100" x="479.68417" y="-152.81107"/>
    <rect style="opacity:0.98999999;fill:#999999;fill-opacity:1;stroke:#ffffff;stroke-width:0;stroke-linejoin:round;stroke-miterlimit:4;stroke-dasharray:none;stroke-opacity:1;paint-order:normal" id="rect178" width="350" height="110" x="398.18417" y="166.65977"/>
    <path style="opacity:0.98999999;fill:#000000;fill-opacity:1;stroke:#ffffff;stroke-width:0;stroke-linejoin:round;stroke-miterlimit:4;stroke-dasharray:none;stroke-opacity:1;paint-order:normal" id="path182" sodipodi:type="arc" sodipodi:cx="259.49979" sodipodi:cy="549.82123" sodipodi:rx="50" sodipodi:ry="50" sodipodi:start="0" sodipodi:end="4.7122548" sodipodi:open="true" d="m 309.49979,549.82123 a 50,50 0 0 1 -49.99777,50 50,50 0 0 1 -50.00223,-49.99553 50,50 0 0 1 49.99329,-50.00447" transform="rotate(-45.255021)"/>
    <rect style="opacity:0.98999999;fill:#000000;fill-opacity:1;stroke:#ffffff;stroke-width:0;stroke-linejoin:round;stroke-miterlimit:4;stroke-dasharray:none;stroke-opacity:1;paint-order:normal" id="rect187" width="363.75839" height="2.820843" x="391.30499" y="164.89708"/>
    <circle style="opacity:1;fill:#000000;fill-opacity:1;stroke:#b5a642;stroke-width:0;stroke-linejoin:round;stroke-miterlimit:4;stroke-dasharray:none;stroke-opacity:1;paint-order:normal" id="path100" cx="574.6842" cy="-917.8111" r="375"/>
    <circle style="opacity:1;fill:#1a1a1a;fill-opacity:1;stroke:#b5a642;stroke-width:0;stroke-linejoin:round;stroke-miterlimit:4;stroke-dasharray:none;stroke-opacity:1;paint-order:normal" id="path102" cx="574.6842" cy="-917.8111" r="275"/>
    <text xml:space="preserve" style="font-style:normal;font-variant:normal;font-weight:normal;font-stretch:normal;font-size:79.39983368px;line-height:1.25;font-family:Calibri;-inkscape-font-specification:Calibri;font-variant-ligatures:normal;font-variant-caps:normal;font-variant-numeric:normal;font-feature-settings:normal;text-align:start;letter-spacing:0px;word-spacing:0px;writing-mode:lr-tb;text-anchor:start;fill:#ffffff;fill-opacity:1;stroke:none;stroke-width:0.33083263" x="-346.05362" y="-1031.4429" id="text104" transform="rotate(90)"><tspan sodipodi:role="line" id="tspan102" x="-346.05362" y="-1031.4429" style="fill:#ffffff;stroke-width:0.33083263">KY-023</tspan></text>
    <text xml:space="preserve" style="font-style:normal;font-variant:normal;font-weight:normal;font-stretch:normal;font-size:56.58587646px;line-height:1.25;font-family:Calibri;-inkscape-font-specification:Calibri;font-variant-ligatures:normal;font-variant-caps:normal;font-variant-numeric:normal;font-feature-settings:normal;text-align:start;letter-spacing:0px;word-spacing:0px;writing-mode:lr-tb;text-anchor:start;fill:#ffffff;fill-opacity:1;stroke:none;stroke-width:0.23577449" x="191.57019" y="-238.57225" id="text108"><tspan sodipodi:role="line" id="tspan106" x="191.57019" y="-238.57225" style="fill:#ffffff;stroke-width:0.23577449">GND</tspan></text>
    <text xml:space="preserve" style="font-style:normal;font-variant:normal;font-weight:normal;font-stretch:normal;font-size:63.5px;line-height:1.25;font-family:Calibri;-inkscape-font-specification:Calibri;font-variant-ligatures:normal;font-variant-caps:normal;font-variant-numeric:normal;font-feature-settings:normal;text-align:start;letter-spacing:0px;word-spacing:0px;writing-mode:lr-tb;text-anchor:start;fill:#ffffff;fill-opacity:1;stroke:none;stroke-width:0.26458332" x="191.87119" y="-164.40167" id="text112"><tspan sodipodi:role="line" id="tspan110" x="191.87119" y="-164.40167" style="font-size:56.44444275px;fill:#ffffff;stroke-width:0.26458332">+5V</tspan></text>
    <text xml:space="preserve" style="font-style:normal;font-variant:normal;font-weight:normal;font-stretch:normal;font-size:63.5px;line-height:1.25;font-family:Calibri;-inkscape-font-specification:Calibri;font-variant-ligatures:normal;font-variant-caps:normal;font-variant-numeric:normal;font-feature-settings:normal;text-align:start;letter-spacing:0px;word-spacing:0px;writing-mode:lr-tb;text-anchor:start;fill:#ffffff;fill-opacity:1;stroke:none;stroke-width:0.26458332" x="191.14008" y="-84.065689" id="text116"><tspan sodipodi:role="line" id="tspan114" x="191.14008" y="-84.065689" style="font-size:56.44444275px;fill:#ffffff;stroke-width:0.26458332">VRx</tspan></text>
    <text xml:space="preserve" style="font-style:normal;font-variant:normal;font-weight:normal;font-stretch:normal;font-size:63.5px;line-height:1.25;font-family:Calibri;-inkscape-font-specification:Calibri;font-variant-ligatures:normal;font-variant-caps:normal;font-variant-numeric:normal;font-feature-settings:normal;text-align:start;letter-spacing:0px;word-spacing:0px;writing-mode:lr-tb;text-anchor:start;fill:#ffffff;fill-opacity:1;stroke:none;stroke-width:0.26458332" x="191.15149" y="-7.5120502" id="text120"><tspan sodipodi:role="line" id="tspan118" x="191.15149" y="-7.5120502" style="font-size:56.44444275px;fill:#ffffff;stroke-width:0.26458332">VRy</tspan></text>
    <text xml:space="preserve" style="font-style:normal;font-variant:normal;font-weight:normal;font-stretch:normal;font-size:63.5px;line-height:1.25;font-family:Calibri;-inkscape-font-specification:Calibri;font-variant-ligatures:normal;font-variant-caps:normal;font-variant-numeric:normal;font-feature-settings:normal;text-align:start;letter-spacing:0px;word-spacing:0px;writing-mode:lr-tb;text-anchor:start;fill:#ffffff;fill-opacity:1;stroke:none;stroke-width:0.26458332" x="191.82425" y="69.034271" id="text124"><tspan sodipodi:role="line" id="tspan122" x="191.82425" y="69.034271" style="font-size:56.44444275px;fill:#ffffff;stroke-width:0.26458332">SW</tspan></text>
    <text xml:space="preserve" style="font-style:normal;font-variant:normal;font-weight:normal;font-stretch:normal;font-size:63.5px;line-height:1.25;font-family:Calibri;-inkscape-font-specification:Calibri;font-variant-ligatures:normal;font-variant-caps:normal;font-variant-numeric:normal;font-feature-settings:normal;text-align:start;letter-spacing:0px;word-spacing:0px;writing-mode:lr-tb;text-anchor:start;fill:#000000;fill-opacity:1;stroke:none;stroke-width:0.26458332" x="-151.48347" y="-340.40927" id="text128"><tspan sodipodi:role="line" id="tspan126" x="-151.48347" y="-284.84677" style="stroke-width:0.26458332"/></text>
  </g>
</svg>
