<?xml version="1.0" encoding="UTF-8" standalone="no"?>
<svg xmlns:dc="http://purl.org/dc/elements/1.1/" xmlns:cc="http://creativecommons.org/ns#" xmlns:rdf="http://www.w3.org/1999/02/22-rdf-syntax-ns#" xmlns:svg="http://www.w3.org/2000/svg" xmlns="http://www.w3.org/2000/svg" xmlns:sodipodi="http://sodipodi.sourceforge.net/DTD/sodipodi-0.dtd" xmlns:inkscape="http://www.inkscape.org/namespaces/inkscape" width="692" height="1081" viewBox="0 0 800 1250" version="1.1" id="svg8" inkscape:version="0.92.4 (5da689c313, 2019-01-14)" sodipodi:docname="KY-019.svg" inkscape:export-filename="C:\Users\Entwicklung5.SIMACGMBH\Desktop\SEN-KIT02\Abbildungen Fertig\KY-019\KY-019.png" inkscape:export-xdpi="93" inkscape:export-ydpi="93">
  <defs id="defs2">
    <inkscape:perspective sodipodi:type="inkscape:persp3d" inkscape:vp_x="0 : 148.5 : 1" inkscape:vp_y="0 : 1000.0001 : 0" inkscape:vp_z="210.00001 : 148.49999 : 1" inkscape:persp3d-origin="105.00001 : 98.999993 : 1" id="perspective876"/>
  </defs>
  <sodipodi:namedview id="base" pagecolor="#323232" bordercolor="#000000" borderopacity="1" inkscape:pageopacity="0" inkscape:pageshadow="2" inkscape:zoom="0.125" inkscape:cx="90.146401" inkscape:cy="2418.4934" inkscape:document-units="mm" inkscape:current-layer="layer1" showgrid="false" inkscape:window-width="1920" inkscape:window-height="1017" inkscape:window-x="-8" inkscape:window-y="-8" inkscape:window-maximized="1" width="500mm" showguides="true" inkscape:lockguides="true" inkscape:pagecheckerboard="false" borderlayer="false">
    <inkscape:grid type="xygrid" id="grid111"/>
  </sodipodi:namedview>
  <metadata id="metadata5">
    <rdf:RDF>
      <cc:Work rdf:about="">
        <dc:format>image/svg+xml</dc:format>
        <dc:type rdf:resource="http://purl.org/dc/dcmitype/StillImage"/>
        <dc:title/>
      </cc:Work>
    </rdf:RDF>
  </metadata>
  <g inkscape:label="Ebene 1" inkscape:groupmode="layer" id="layer1" transform="translate(0.31582593,952.8111)">
    <rect style="opacity:1;fill:#000000;fill-opacity:1;stroke:#000000;stroke-width:0;stroke-miterlimit:4;stroke-dasharray:none;stroke-opacity:1" id="rect815" width="800" height="1110" x="-0.3158237" y="-946.81842"/>
    <text xml:space="preserve" style="font-style:normal;font-variant:normal;font-weight:normal;font-stretch:normal;font-size:4.23333311px;line-height:1.25;font-family:Calibri;-inkscape-font-specification:'Calibri, Normal';font-variant-ligatures:normal;font-variant-caps:normal;font-variant-numeric:normal;font-feature-settings:normal;text-align:start;letter-spacing:0px;word-spacing:0px;writing-mode:lr-tb;text-anchor:start;fill:#ffffff;fill-opacity:1;stroke:none;stroke-width:0.26458332" x="61.988091" y="143.37962" id="text819"><tspan sodipodi:role="line" id="tspan817" x="61.988091" y="147.08379" style="fill:#ffffff;fill-opacity:1;stroke-width:0.26458332"/></text>
    <rect style="opacity:1;fill:#ffffff;fill-opacity:1;stroke:#000000;stroke-width:0;stroke-miterlimit:4;stroke-dasharray:none;stroke-opacity:1" id="rect821" width="234.39525" height="80.684937" x="401.48169" y="26.664797" ry="0"/>
    <rect style="opacity:1;fill:#1a1a1a;fill-opacity:1;stroke:#000000;stroke-width:0;stroke-miterlimit:4;stroke-dasharray:none;stroke-opacity:1" id="rect825" width="76.666504" height="70.899185" x="402.00659" y="31.228357" ry="14.842078"/>
    <rect y="31.228357" x="558.58179" height="70.899185" width="76.666504" id="rect872" style="opacity:1;fill:#1a1a1a;fill-opacity:1;stroke:#000000;stroke-width:0;stroke-miterlimit:4;stroke-dasharray:none;stroke-opacity:1" ry="14.842078"/>
    <rect y="31.228357" x="480.29346" height="70.899185" width="76.666504" id="rect874" style="opacity:1;fill:#1a1a1a;fill-opacity:1;stroke:#000000;stroke-width:0;stroke-miterlimit:4;stroke-dasharray:none;stroke-opacity:1" ry="12.930591"/>
    <rect style="opacity:0.98999999;fill:#808080;fill-opacity:1;stroke:#ffffff;stroke-width:0;stroke-linejoin:round;stroke-miterlimit:4;stroke-dasharray:none;stroke-opacity:1;paint-order:normal" id="rect947" width="8.5094872" height="182" x="436.00168" y="71.181648"/>
    <rect y="71.181648" x="514.7417" height="182" width="8.5094872" id="rect949" style="opacity:0.98999999;fill:#808080;fill-opacity:1;stroke:#ffffff;stroke-width:0;stroke-linejoin:round;stroke-miterlimit:4;stroke-dasharray:none;stroke-opacity:1;paint-order:normal"/>
    <rect style="opacity:0.98999999;fill:#808080;fill-opacity:1;stroke:#ffffff;stroke-width:0;stroke-linejoin:round;stroke-miterlimit:4;stroke-dasharray:none;stroke-opacity:1;paint-order:normal" id="rect951" width="8.5094872" height="182" x="592.57703" y="71.181648"/>
    <text xml:space="preserve" style="font-style:normal;font-variant:normal;font-weight:normal;font-stretch:normal;font-size:11.28888893px;line-height:1.25;font-family:'Proxy 1';-inkscape-font-specification:'Proxy 1, ';font-variant-ligatures:normal;font-variant-caps:normal;font-variant-numeric:normal;font-feature-settings:normal;text-align:start;letter-spacing:0px;word-spacing:0px;writing-mode:lr-tb;text-anchor:start;fill:#000000;fill-opacity:1;stroke:none;stroke-width:0.26458332" x="-482.47003" y="-280.2883" id="text959"><tspan sodipodi:role="line" id="tspan957" x="-482.47003" y="-269.89444" style="fill:#000000;stroke-width:0.26458332"/></text>
    <text xml:space="preserve" style="font-style:normal;font-variant:normal;font-weight:normal;font-stretch:normal;font-size:11.28888893px;line-height:1.25;font-family:'Proxy 1';-inkscape-font-specification:'Proxy 1, ';font-variant-ligatures:normal;font-variant-caps:normal;font-variant-numeric:normal;font-feature-settings:normal;text-align:start;letter-spacing:0px;word-spacing:0px;writing-mode:lr-tb;text-anchor:start;fill:#ffffff;fill-opacity:1;stroke:none;stroke-width:0.26458332" x="49.365498" y="171.80029" id="text963"><tspan sodipodi:role="line" id="tspan961" x="49.365498" y="182.19417" style="fill:#ffffff;stroke-width:0.26458332"/></text>
    <text xml:space="preserve" style="font-style:normal;font-variant:normal;font-weight:normal;font-stretch:normal;font-size:11.28888893px;line-height:1.25;font-family:'Proxy 1';-inkscape-font-specification:'Proxy 1, ';font-variant-ligatures:normal;font-variant-caps:normal;font-variant-numeric:normal;font-feature-settings:normal;text-align:start;letter-spacing:0px;word-spacing:0px;writing-mode:lr-tb;text-anchor:start;fill:#00ff00;fill-opacity:1;stroke:none;stroke-width:0.26458332" x="124.98328" y="146.97034" id="text967"><tspan sodipodi:role="line" id="tspan965" x="124.98328" y="157.36421" style="fill:#00ff00;fill-opacity:1;stroke-width:0.26458332"/></text>
    <flowRoot xml:space="preserve" id="flowRoot969" style="font-style:normal;font-variant:normal;font-weight:normal;font-stretch:normal;font-size:42.66666794px;line-height:1.25;font-family:'Proxy 1';-inkscape-font-specification:'Proxy 1, ';font-variant-ligatures:normal;font-variant-caps:normal;font-variant-numeric:normal;font-feature-settings:normal;text-align:start;letter-spacing:0px;word-spacing:0px;writing-mode:lr-tb;text-anchor:start;fill:#000000;fill-opacity:1;stroke:none" transform="translate(0,-44.007277)"><flowRegion id="flowRegion971"><rect id="rect973" width="373.57144" height="181.42857" x="249.28572" y="630.71198"/></flowRegion><flowPara id="flowPara975"/></flowRoot>    <flowRoot xml:space="preserve" id="flowRoot1466" style="font-style:normal;font-variant:normal;font-weight:normal;font-stretch:normal;font-size:42.66666794px;line-height:1.25;font-family:Calibri;-inkscape-font-specification:Calibri;font-variant-ligatures:normal;font-variant-caps:normal;font-variant-numeric:normal;font-feature-settings:normal;text-align:start;letter-spacing:0px;word-spacing:0px;writing-mode:lr-tb;text-anchor:start;fill:#ffffff;fill-opacity:1;stroke:none" transform="translate(0,-44.007277)"><flowRegion id="flowRegion1468" style="font-style:normal;font-variant:normal;font-weight:normal;font-stretch:normal;font-family:Calibri;-inkscape-font-specification:Calibri;fill:#ffffff;fill-opacity:1"><rect id="rect1470" width="414.1825" height="372.47485" x="1288.5094" y="1923.5425" style="font-style:normal;font-variant:normal;font-weight:normal;font-stretch:normal;font-family:Calibri;-inkscape-font-specification:Calibri;fill:#ffffff;fill-opacity:1"/></flowRegion><flowPara id="flowPara1472"/></flowRoot>    <flowRoot xml:space="preserve" id="flowRoot1529" style="font-style:normal;font-variant:normal;font-weight:normal;font-stretch:normal;font-size:266.66665649px;line-height:1.25;font-family:'Proxy 1';-inkscape-font-specification:'Proxy 1, ';font-variant-ligatures:normal;font-variant-caps:normal;font-variant-numeric:normal;font-feature-settings:normal;text-align:start;letter-spacing:0px;word-spacing:0px;writing-mode:lr-tb;text-anchor:start;fill:#000000;fill-opacity:1;stroke:none" transform="translate(0,-44.007277)"><flowRegion id="flowRegion1531" style="font-size:266.66665649px"><rect id="rect1533" width="2157.6858" height="2311.229" x="-2691.0464" y="-332.2605" style="font-size:266.66665649px"/></flowRegion><flowPara id="flowPara1535"/></flowRoot>    <rect ry="0" y="-890.07739" x="124.68417" height="877.33984" width="550" id="rect87" style="opacity:1;fill:#ffffff;fill-opacity:1;stroke:#000000;stroke-width:0;stroke-miterlimit:4;stroke-dasharray:none;stroke-opacity:1"/>
    <path style="fill:#ffffff;stroke-width:0.21411747" d="m 769.57532,-380.59951 c -0.0707,-3.69105 -0.1164,-4.09464 -0.54182,-4.78312 -0.25554,-0.41353 -0.78335,-0.94525 -1.17291,-1.18163 -0.66958,-0.40611 -1.14815,-0.43301 -8.75611,-0.4929 l -8.04782,-0.0636 0.0452,-7.88546 0.0452,-7.88546 h 10.02995 c 11.0584,0 12.0998,0.0861 15.00395,1.23291 3.80479,1.50268 5.57043,3.69568 6.61764,8.21935 0.28105,1.2141 0.3417,2.60097 0.3148,7.19699 -0.0183,3.13124 -0.11186,6.56311 -0.20799,7.62656 l -0.17464,1.93357 -6.53911,0.057 -6.53907,0.057 -0.0772,-4.03117 z m 22.45958,-75.08751 c 0.0179,-67.28763 0.0976,-83.84003 0.39065,-81.046 l 0.0451,0.4297 0.18342,-0.4297 c 0.15348,-0.35962 0.19186,-0.30702 0.23524,0.32224 0.0342,0.4978 0.0991,0.27983 0.19156,-0.64448 l 0.13975,-1.39643 0.0616,1.39643 c 0.0337,0.76795 0.10546,1.2272 0.15919,1.02036 0.083,-0.32024 0.36199,-0.37588 1.88169,-0.37588 1.78248,0 1.78419,-7e-4 1.87302,-0.59082 0.0625,-0.41485 0.0984,-0.31881 0.12093,0.32224 0.0176,0.50216 0.128,0.91305 0.24537,0.91305 0.1419,0 0.21342,26.67526 0.21342,79.59595 v 79.59592 h -2.88096 -2.88094 z m -61.69471,60.63695 v -7.94893 h 6.5088 6.50882 v 7.94893 7.94879 h -6.50882 -6.5088 z m 24.0079,-16.03036 c -3.66088,-0.56537 -6.91472,-1.57118 -9.81657,-3.03451 -1.05636,-0.53278 -1.96865,-1.03217 -2.02733,-1.10982 -0.0588,-0.0782 -0.63388,-0.47647 -1.27819,-0.88615 -1.30137,-0.82747 -3.64275,-2.71479 -3.90746,-3.14979 -0.0939,-0.15436 -0.25806,-0.2805 -0.3649,-0.2805 -0.28297,0 -2.08557,-1.98776 -3.21095,-3.54092 -1.18595,-1.63652 -1.85158,-2.96906 -2.95323,-5.91175 -1.28563,-3.43412 -1.59086,-5.44812 -1.44888,-9.56012 0.10293,-2.98191 0.20324,-3.72205 0.75684,-5.58567 0.35097,-1.18164 0.83728,-2.61554 1.08066,-3.18662 0.24339,-0.57107 0.44252,-1.14029 0.44252,-1.26497 0,-0.12455 0.45618,-1.00819 1.01368,-1.96365 2.22201,-3.80764 8.15313,-8.99927 12.56836,-11.00119 6.9165,-3.13628 13.86299,-3.53125 20.27922,-1.15341 2.6987,1.00011 4.23439,1.7221 6.13863,2.88571 2.19996,1.34448 2.32811,1.45313 5.56409,4.71858 3.71084,3.74459 5.28451,6.43128 6.62763,11.31496 0.68453,2.48901 0.94323,7.38011 0.52985,10.01777 -0.5375,3.4299 -2.47612,7.99703 -4.59135,10.81676 -1.09258,1.45644 -2.81313,3.41452 -3.00037,3.41452 -0.0568,0 -0.60688,0.49144 -1.22268,1.09206 -2.92984,2.85763 -8.66282,5.8011 -13.39036,6.87488 -1.76387,0.40069 -6.46313,0.69855 -7.78921,0.49383 z m 6.74819,-15.20223 c 3.01803,-0.77115 5.59742,-2.29874 7.871,-4.66149 2.29943,-2.38961 3.15637,-6.19302 2.13301,-9.46696 -1.12718,-3.60611 -5.36655,-7.17526 -9.9233,-8.35438 -2.61197,-0.67601 -6.42331,-0.62686 -8.95499,0.11528 -3.5953,1.05402 -6.40601,2.93408 -8.28961,5.54497 -0.86273,1.19582 -1.10985,1.747 -1.34869,3.00773 -0.51169,2.70103 -0.2331,5.46392 0.74568,7.39537 0.8603,1.69759 3.29418,3.85204 5.74855,5.08852 3.70565,1.86678 8.04161,2.34694 12.01835,1.33096 z m -30.66287,-44.66912 c -0.0543,-0.14244 -0.0735,-3.72788 -0.0426,-7.96761 l 0.0561,-7.70857 7.14901,-0.0238 c 6.75389,-0.0225 7.21812,-0.0504 8.39918,-0.48666 3.03632,-1.12257 4.70024,-4.76643 3.6359,-7.96246 -0.54691,-1.64235 -1.50719,-2.7507 -3.07212,-3.54584 l -1.38712,-0.70461 -7.41578,-0.0636 -7.41576,-0.0636 v -7.95582 -7.95582 l 8.37608,0.0861 c 7.79477,0.0808 8.49457,0.11925 10.08331,0.55544 3.23126,0.88788 6.05605,2.30602 8.25433,4.14366 0.54922,0.45912 1.09178,0.83489 1.20565,0.83489 0.27827,0 2.0881,2.01123 3.41525,3.7952 1.12463,1.51182 2.2639,3.66216 2.49952,4.71779 0.0757,0.3396 0.39272,1.43908 0.70426,2.44343 0.52486,1.69202 0.56645,2.11019 0.56645,5.69312 0,3.59922 -0.0419,4.0158 -0.60542,6.01535 -0.89196,3.16516 -1.33749,4.19971 -2.71549,6.3054 -1.56198,2.38685 -3.56641,4.39542 -6.05396,6.06624 -3.51162,2.35876 -6.11877,3.34602 -10.15154,3.84422 -2.63153,0.32515 -15.35716,0.27481 -15.48522,-0.061 z m 39.38643,-22.17001 v -12.99742 h 6.7222 6.72221 v 12.99742 12.99744 h -6.72221 -6.7222 z m -49.72302,-22.23532 c 0,-0.11793 -0.37106,-0.21477 -0.8246,-0.21477 -0.81922,0 -0.82551,-0.0133 -0.96033,-0.99681 -0.0747,-0.54814 -0.13585,-22.56602 -0.13606,-48.92831 l -3.6e-4,-47.9318 2.88132,0.0649 2.88129,0.0649 v 48.7382 c 0,26.80592 -0.0584,48.89097 -0.1296,49.0778 -0.10373,0.27254 -0.48425,0.33985 -1.92062,0.33985 -1.0518,0 -1.79111,-0.0888 -1.79111,-0.21478 z m 32.22392,-21.91306 v -16.54222 h 6.61552 6.61552 v 16.54222 16.54219 h -6.61552 -6.61552 z m -21.98055,-29.64712 v -7.94877 h 6.5088 6.50882 v 7.94877 7.94894 h -6.50882 -6.5088 z m 19.84651,0 v -7.94877 h 16.85889 16.85886 v 7.94877 7.94894 H 767.04559 750.1867 Z m -19.84651,-31.68784 v -16.64966 h 6.5088 6.50882 v 16.64966 16.64954 h -6.50882 -6.5088 z m 20.82305,13.88306 c -0.0636,-0.10335 -0.11267,-3.6248 -0.10894,-7.82504 l 0.007,-7.63663 7.7255,-0.0702 c 10.83484,-0.0981 10.24352,0.34411 10.35936,-7.75031 l 0.0731,-5.1023 h 6.78134 6.78131 l 0.24133,1.89435 c 0.36432,2.85987 0.30987,11.95585 -0.0862,14.41504 -0.68113,4.22795 -1.99245,6.97267 -4.20829,8.80833 -2.29974,1.90508 -4.64348,2.80991 -8.37502,3.23352 -2.35031,0.26685 -19.02897,0.29575 -19.1901,0.0331 z m -27.1858,-39.87754 c -1.41634,-0.40094 -2.77538,-1.19236 -3.54912,-2.06658 -3.18684,-3.60056 -3.52379,-7.9406 -0.89298,-11.50166 1.23427,-1.67068 1.71355,-2.08634 3.22966,-2.80091 1.15023,-0.54219 1.50661,-0.60288 3.52052,-0.59943 2.01353,0 2.37688,0.0662 3.58336,0.62421 2.61146,1.20654 4.66523,4.2494 4.88397,7.23607 0.20382,2.78304 -0.61984,4.90714 -2.75354,7.1012 -1.9036,1.95755 -5.2447,2.79349 -8.02187,2.0071 z m 5.50914,-1.56482 c 1.72185,-0.72517 3.41418,-2.97316 3.98197,-5.28939 0.5683,-2.31835 0.0919,-4.07808 -1.81884,-6.71866 -0.45769,-0.63256 -1.07722,-1.10612 -2.09977,-1.60511 -1.29055,-0.62964 -1.65287,-0.70835 -3.28592,-0.7139 -1.68278,0 -1.95723,0.057 -3.29953,0.74557 -1.1864,0.60936 -1.63628,0.9964 -2.37182,2.04089 -0.49926,0.70901 -1.07202,1.77245 -1.27286,2.36327 -1.23257,3.62585 0.75146,7.98391 4.29816,9.44113 1.34699,0.55346 4.23671,0.42361 5.86861,-0.2638 z m -8.32287,-5.8871 c 7e-5,-1.61702 0.0939,-3.18794 0.20822,-3.49097 0.49059,-1.29902 2.97548,-1.88574 4.12643,-0.9744 0.30294,0.23995 0.6696,0.76691 0.81477,1.17103 l 0.26395,0.73484 0.8108,-0.73736 c 0.44595,-0.40557 1.34064,-1.0384 1.98825,-1.40634 0.6476,-0.36796 1.23113,-0.75645 1.29674,-0.86337 0.28302,-0.46097 0.5201,-0.12721 0.50978,0.7188 l -0.012,0.91306 -2.03397,1.28895 c -2.17442,1.37801 -2.42518,1.7127 -2.42518,3.23645 v 0.9528 h 2.25426 2.25426 l -0.0668,0.64792 -0.067,0.64806 -4.96176,0.0504 -4.96178,0.0504 z m 4.2682,-0.36105 c 0,-1.60141 -0.0704,-1.99466 -0.4423,-2.4706 -0.92231,-1.1803 -2.40895,-0.51012 -2.64154,1.1909 -0.0973,0.71233 -0.0463,2.73639 0.0791,3.13058 0.009,0.0291 0.68928,0.0544 1.5109,0.0544 h 1.49382 z" id="path31-1" inkscape:connector-curvature="0"/>
    <circle transform="matrix(0,1,1,0,0,0)" cy="74.684174" cx="-864.36664" id="circle109" style="opacity:0.98999999;fill:#cccccc;fill-opacity:1;stroke:#ffffff;stroke-width:0;stroke-linejoin:round;stroke-miterlimit:4;stroke-dasharray:none;stroke-opacity:1;paint-order:normal" r="50"/>
    <circle cy="-864.36664" cx="74.684174" id="circle111" style="opacity:0.98999999;fill:#ffffff;fill-opacity:1;stroke:#ffffff;stroke-width:0;stroke-linejoin:round;stroke-miterlimit:4;stroke-dasharray:none;stroke-opacity:1;paint-order:normal" r="44.444443"/>
    <circle style="opacity:0.98999999;fill:#cccccc;fill-opacity:1;stroke:#ffffff;stroke-width:0;stroke-linejoin:round;stroke-miterlimit:4;stroke-dasharray:none;stroke-opacity:1;paint-order:normal" id="circle113" cx="-864.36664" cy="724.6842" transform="matrix(0,1,1,0,0,0)" r="50"/>
    <circle style="opacity:0.98999999;fill:#ffffff;fill-opacity:1;stroke:#ffffff;stroke-width:0;stroke-linejoin:round;stroke-miterlimit:4;stroke-dasharray:none;stroke-opacity:1;paint-order:normal" id="circle115" cx="724.6842" cy="-864.36664" r="44.444443"/>
    <circle transform="matrix(0,1,1,0,0,0)" cy="724.6842" cx="88.181656" id="circle117" style="opacity:0.98999999;fill:#cccccc;fill-opacity:1;stroke:#ffffff;stroke-width:0;stroke-linejoin:round;stroke-miterlimit:4;stroke-dasharray:none;stroke-opacity:1;paint-order:normal" r="50"/>
    <circle cy="88.181656" cx="724.6842" id="circle119" style="opacity:0.98999999;fill:#ffffff;fill-opacity:1;stroke:#ffffff;stroke-width:0;stroke-linejoin:round;stroke-miterlimit:4;stroke-dasharray:none;stroke-opacity:1;paint-order:normal" r="44.444447"/>
    <circle style="opacity:0.98999999;fill:#cccccc;fill-opacity:1;stroke:#ffffff;stroke-width:0;stroke-linejoin:round;stroke-miterlimit:4;stroke-dasharray:none;stroke-opacity:1;paint-order:normal" id="circle121" cx="88.181656" cy="74.684174" transform="matrix(0,1,1,0,0,0)" r="50"/>
    <circle style="opacity:0.98999999;fill:#ffffff;fill-opacity:1;stroke:#ffffff;stroke-width:0;stroke-linejoin:round;stroke-miterlimit:4;stroke-dasharray:none;stroke-opacity:1;paint-order:normal" id="circle123" cx="74.684174" cy="88.181656" r="44.444443"/>
    <rect style="opacity:0.98999999;fill:#0066ff;fill-opacity:1;stroke:#ffffff;stroke-width:0;stroke-linejoin:round;stroke-miterlimit:4;stroke-dasharray:none;stroke-opacity:1;paint-order:normal" id="rect139" width="540.17859" height="619.87115" x="129.59489" y="-637.60797"/>
    <rect style="opacity:0.98999999;fill:#0055d4;fill-opacity:1;stroke:#ffffff;stroke-width:0;stroke-linejoin:round;stroke-miterlimit:4;stroke-dasharray:none;stroke-opacity:1;paint-order:normal" id="rect141" width="540.17859" height="226.48337" x="129.59489" y="-886.1853"/>
    <circle style="opacity:0.98999999;fill:#b3b3b3;fill-opacity:1;stroke:#ffffff;stroke-width:0;stroke-linejoin:round;stroke-miterlimit:4;stroke-dasharray:none;stroke-opacity:1;paint-order:normal" id="path161" cx="582.1842" cy="-786.63324" r="62.5"/>
    <circle r="62.5" cy="-786.63324" cx="399.26321" id="circle167" style="opacity:0.98999999;fill:#b3b3b3;fill-opacity:1;stroke:#ffffff;stroke-width:0;stroke-linejoin:round;stroke-miterlimit:4;stroke-dasharray:none;stroke-opacity:1;paint-order:normal"/>
    <circle style="opacity:0.98999999;fill:#b3b3b3;fill-opacity:1;stroke:#ffffff;stroke-width:0;stroke-linejoin:round;stroke-miterlimit:4;stroke-dasharray:none;stroke-opacity:1;paint-order:normal" id="circle169" cx="217.18417" cy="-786.63324" r="62.5"/>
    <rect style="opacity:0.98999999;fill:#000000;fill-opacity:1;stroke:#ffffff;stroke-width:0;stroke-linejoin:round;stroke-miterlimit:4;stroke-dasharray:none;stroke-opacity:1;paint-order:normal" id="rect171" width="27.516666" height="176.74167" x="293.90082" y="-869.65405" ry="13.758333"/>
    <rect ry="13.758333" y="-869.65405" x="476.87354" height="176.74167" width="27.516666" id="rect175" style="opacity:0.98999999;fill:#000000;fill-opacity:1;stroke:#ffffff;stroke-width:0;stroke-linejoin:round;stroke-miterlimit:4;stroke-dasharray:none;stroke-opacity:1;paint-order:normal"/>
    <rect style="opacity:0.98999999;fill:#e6e6e6;fill-opacity:1;stroke:#ffffff;stroke-width:0;stroke-linejoin:round;stroke-miterlimit:4;stroke-dasharray:none;stroke-opacity:1;paint-order:normal" id="rect179" width="125" height="19.999998" x="154.68417" y="-795.86664"/>
    <rect y="-795.86664" x="336.76318" height="19.999998" width="125" id="rect181" style="opacity:0.98999999;fill:#e6e6e6;fill-opacity:1;stroke:#ffffff;stroke-width:0;stroke-linejoin:round;stroke-miterlimit:4;stroke-dasharray:none;stroke-opacity:1;paint-order:normal"/>
    <rect style="opacity:0.98999999;fill:#e6e6e6;fill-opacity:1;stroke:#ffffff;stroke-width:0;stroke-linejoin:round;stroke-miterlimit:4;stroke-dasharray:none;stroke-opacity:1;paint-order:normal" id="rect183" width="125" height="19.999998" x="519.6842" y="-795.86664"/>
    <flowRoot xml:space="preserve" id="flowRoot193" style="font-style:normal;font-variant:normal;font-weight:normal;font-stretch:normal;font-size:42.66666794px;line-height:1.25;font-family:Calibri;-inkscape-font-specification:Calibri;font-variant-ligatures:normal;font-variant-caps:normal;font-variant-numeric:normal;font-feature-settings:normal;text-align:start;letter-spacing:0px;word-spacing:0px;writing-mode:lr-tb;text-anchor:start;fill:#000000;fill-opacity:1;stroke:none" transform="matrix(0.26458333,0,0,0.26458333,-0.31582593,-846.81835)"><flowRegion id="flowRegion195"><rect id="rect197" width="79.195961" height="441.23462" x="656.19507" y="1317.7396"/></flowRegion><flowPara id="flowPara199"/></flowRoot>    <flowRoot xml:space="preserve" id="flowRoot201" style="font-style:normal;font-variant:normal;font-weight:normal;font-stretch:normal;font-size:42.66666794px;line-height:1.25;font-family:Calibri;-inkscape-font-specification:Calibri;font-variant-ligatures:normal;font-variant-caps:normal;font-variant-numeric:normal;font-feature-settings:normal;text-align:start;letter-spacing:0px;word-spacing:0px;writing-mode:lr-tb;text-anchor:start;fill:#000000;fill-opacity:1;stroke:none" transform="matrix(0.26458333,0,0,0.26458333,-0.31582593,-846.81835)"><flowRegion id="flowRegion203"><rect id="rect205" width="644.88135" height="1091.4656" x="8.4132125e-06" y="-9.8991142e-05"/></flowRegion><flowPara id="flowPara207"/></flowRoot>    <rect style="opacity:1;fill:#000000;fill-opacity:1;stroke:#b5a642;stroke-width:0;stroke-linejoin:round;stroke-miterlimit:4;stroke-dasharray:none;stroke-opacity:1;paint-order:normal" id="rect95" width="601.1333" height="15.799787" x="94.934174" y="-656.83838"/>
    <rect style="opacity:1;fill:#666666;fill-opacity:1;stroke:#b5a642;stroke-width:0;stroke-linejoin:round;stroke-miterlimit:4;stroke-dasharray:none;stroke-opacity:1;paint-order:normal" id="rect97" width="40" height="313.7883" x="590.23419" y="-603.8949"/>
    <rect style="opacity:1;fill:#666666;fill-opacity:1;stroke:#b5a642;stroke-width:0;stroke-linejoin:round;stroke-miterlimit:4;stroke-dasharray:none;stroke-opacity:1;paint-order:normal" id="rect99" width="40" height="313.7883" x="515.80969" y="-603.8949"/>
    <rect y="-603.8949" x="446.21271" height="313.7883" width="40" id="rect101" style="opacity:1;fill:#666666;fill-opacity:1;stroke:#b5a642;stroke-width:0;stroke-linejoin:round;stroke-miterlimit:4;stroke-dasharray:none;stroke-opacity:1;paint-order:normal"/>
    <rect style="opacity:1;fill:#666666;fill-opacity:1;stroke:#b5a642;stroke-width:0;stroke-linejoin:round;stroke-miterlimit:4;stroke-dasharray:none;stroke-opacity:1;paint-order:normal" id="rect103" width="75" height="404.88812" x="309.68417" y="-603.8949"/>
    <rect y="-249.61781" x="590.23413" height="172.07745" width="40" id="rect105" style="opacity:1;fill:#666666;fill-opacity:1;stroke:#b5a642;stroke-width:0;stroke-linejoin:round;stroke-miterlimit:4;stroke-dasharray:none;stroke-opacity:1;paint-order:normal"/>
    <rect style="opacity:1;fill:#666666;fill-opacity:1;stroke:#b5a642;stroke-width:0;stroke-linejoin:round;stroke-miterlimit:4;stroke-dasharray:none;stroke-opacity:1;paint-order:normal" id="rect107" width="40" height="172.07745" x="515.80969" y="-249.61781"/>
    <rect y="-249.61781" x="447.70941" height="172.07745" width="40" id="rect109" style="opacity:1;fill:#666666;fill-opacity:1;stroke:#b5a642;stroke-width:0;stroke-linejoin:round;stroke-miterlimit:4;stroke-dasharray:none;stroke-opacity:1;paint-order:normal"/>
    <text xml:space="preserve" style="font-style:normal;font-variant:normal;font-weight:normal;font-stretch:normal;font-size:52.17420197px;line-height:1.25;font-family:Calibri;-inkscape-font-specification:Calibri;font-variant-ligatures:normal;font-variant-caps:normal;font-variant-numeric:normal;font-feature-settings:normal;text-align:start;letter-spacing:0px;word-spacing:0px;writing-mode:lr-tb;text-anchor:start;fill:#000000;fill-opacity:1;stroke:none;stroke-width:1.2228328" x="563.81097" y="287.89029" id="text109"><tspan id="tspan107" sodipodi:role="line" x="563.81097" y="287.89029" style="fill:#000000;stroke-width:1.2228328">GND</tspan></text>
    <text id="text83" y="287.89029" x="349.33209" style="font-style:normal;font-variant:normal;font-weight:normal;font-stretch:normal;font-size:52.17420197px;line-height:1.25;font-family:Calibri;-inkscape-font-specification:Calibri;font-variant-ligatures:normal;font-variant-caps:normal;font-variant-numeric:normal;font-feature-settings:normal;text-align:start;letter-spacing:0px;word-spacing:0px;writing-mode:lr-tb;text-anchor:start;fill:#000000;fill-opacity:1;stroke:none;stroke-width:1.2228328" xml:space="preserve"><tspan style="fill:#000000;stroke-width:1.2228328" y="287.89029" x="349.33209" sodipodi:role="line" id="tspan81">Signal</tspan></text>
    <text xml:space="preserve" style="font-style:normal;font-variant:normal;font-weight:normal;font-stretch:normal;font-size:52.17420197px;line-height:1.25;font-family:Calibri;-inkscape-font-specification:Calibri;font-variant-ligatures:normal;font-variant-caps:normal;font-variant-numeric:normal;font-feature-settings:normal;text-align:start;letter-spacing:0px;word-spacing:0px;writing-mode:lr-tb;text-anchor:start;fill:#000000;fill-opacity:1;stroke:none;stroke-width:1.2228328" x="491.47778" y="287.89029" id="text87"><tspan id="tspan85" sodipodi:role="line" x="491.47778" y="287.89029" style="fill:#000000;stroke-width:1.2228328">+V</tspan></text>
    <text xml:space="preserve" style="font-style:normal;font-variant:normal;font-weight:normal;font-stretch:normal;font-size:63.5px;line-height:1.25;font-family:Calibri;-inkscape-font-specification:Calibri;font-variant-ligatures:normal;font-variant-caps:normal;font-variant-numeric:normal;font-feature-settings:normal;text-align:start;letter-spacing:0px;word-spacing:0px;writing-mode:lr-tb;text-anchor:start;fill:#ffffff;fill-opacity:1;stroke:none;stroke-width:0.26458332" x="225.68729" y="-898.30939" id="text110"><tspan sodipodi:role="line" id="tspan108" x="225.68729" y="-898.30939" style="fill:#ffffff;stroke-width:0.26458332">NC</tspan></text>
    <text xml:space="preserve" style="font-style:normal;font-variant:normal;font-weight:normal;font-stretch:normal;font-size:63.5px;line-height:1.25;font-family:Calibri;-inkscape-font-specification:Calibri;font-variant-ligatures:normal;font-variant-caps:normal;font-variant-numeric:normal;font-feature-settings:normal;text-align:start;letter-spacing:0px;word-spacing:0px;writing-mode:lr-tb;text-anchor:start;fill:#ffffff;fill-opacity:1;stroke:none;stroke-width:0.26458332" x="459.17392" y="-898.30939" id="text114"><tspan sodipodi:role="line" id="tspan112" x="459.17392" y="-898.30939" style="fill:#ffffff;stroke-width:0.26458332">NO</tspan></text>
    <text xml:space="preserve" style="font-style:normal;font-variant:normal;font-weight:normal;font-stretch:normal;font-size:63.5px;line-height:1.25;font-family:Calibri;-inkscape-font-specification:Calibri;font-variant-ligatures:normal;font-variant-caps:normal;font-variant-numeric:normal;font-feature-settings:normal;text-align:start;letter-spacing:0px;word-spacing:0px;writing-mode:lr-tb;text-anchor:start;fill:#ffffff;fill-opacity:1;stroke:none;stroke-width:0.26458332" x="134.1503" y="786.59955" id="text118" transform="rotate(-90)"><tspan sodipodi:role="line" id="tspan116" x="134.1503" y="786.59955" style="fill:#ffffff;stroke-width:0.26458332">KY-019</tspan></text>
    <text xml:space="preserve" style="font-style:normal;font-variant:normal;font-weight:normal;font-stretch:normal;font-size:63.5px;line-height:1.25;font-family:Calibri;-inkscape-font-specification:Calibri;font-variant-ligatures:normal;font-variant-caps:normal;font-variant-numeric:normal;font-feature-settings:normal;text-align:start;letter-spacing:0px;word-spacing:0px;writing-mode:lr-tb;text-anchor:start;fill:#ffffff;fill-opacity:1;stroke:none;stroke-width:0.26458332" x="447.01318" y="153.31776" id="text122"><tspan sodipodi:role="line" id="tspan120" x="447.01318" y="153.31776" style="fill:#ffffff;stroke-width:0.26458332">S</tspan></text>
    <text xml:space="preserve" style="font-style:normal;font-variant:normal;font-weight:normal;font-stretch:normal;font-size:63.5px;line-height:1.25;font-family:Calibri;-inkscape-font-specification:Calibri;font-variant-ligatures:normal;font-variant-caps:normal;font-variant-numeric:normal;font-feature-settings:normal;text-align:start;letter-spacing:0px;word-spacing:0px;writing-mode:lr-tb;text-anchor:start;fill:#ffffff;fill-opacity:1;stroke:none;stroke-width:0.26458332" x="527.49829" y="153.76276" id="text126"><tspan sodipodi:role="line" id="tspan124" x="527.49829" y="153.76276" style="fill:#ffffff;stroke-width:0.26458332">+</tspan></text>
    <text xml:space="preserve" style="font-style:normal;font-variant:normal;font-weight:normal;font-stretch:normal;font-size:100.88146973px;line-height:1.25;font-family:Calibri;-inkscape-font-specification:Calibri;font-variant-ligatures:normal;font-variant-caps:normal;font-variant-numeric:normal;font-feature-settings:normal;text-align:start;letter-spacing:0px;word-spacing:0px;writing-mode:lr-tb;text-anchor:start;fill:#ffffff;fill-opacity:1;stroke:none;stroke-width:0.42033944" x="376.77005" y="240.60133" id="text130" transform="scale(1.5886846,0.62945156)"><tspan sodipodi:role="line" id="tspan128" x="376.77005" y="240.60133" style="fill:#ffffff;stroke-width:0.42033944">-</tspan></text>
    <text xml:space="preserve" style="font-style:normal;font-variant:normal;font-weight:normal;font-stretch:normal;font-size:61.66568756px;line-height:1.25;font-family:Calibri;-inkscape-font-specification:Calibri;font-variant-ligatures:normal;font-variant-caps:normal;font-variant-numeric:normal;font-feature-settings:normal;text-align:start;letter-spacing:0px;word-spacing:0px;writing-mode:lr-tb;text-anchor:start;fill:#ffffff;fill-opacity:1;stroke:none;stroke-width:0.25694036" x="-650.95111" y="-223.78436" id="text134" transform="matrix(0,0.97111318,-1.0297461,0,0,0)"><tspan sodipodi:role="line" id="tspan132" x="-650.95111" y="-223.78436" style="fill:#ffffff;stroke-width:0.25694036">10A 250VAC 10a 124VAC</tspan></text>
    <text id="text138" y="-157.02528" x="-633.61871" style="font-style:normal;font-variant:normal;font-weight:normal;font-stretch:normal;font-size:63.5px;line-height:1.25;font-family:Calibri;-inkscape-font-specification:Calibri;font-variant-ligatures:normal;font-variant-caps:normal;font-variant-numeric:normal;font-feature-settings:normal;text-align:start;letter-spacing:0px;word-spacing:0px;writing-mode:lr-tb;text-anchor:start;fill:#ffffff;fill-opacity:1;stroke:none;stroke-width:0.26458332" xml:space="preserve" transform="rotate(90)"><tspan style="fill:#ffffff;stroke-width:0.26458332" y="-157.02528" x="-633.61871" id="tspan136" sodipodi:role="line">10A 30VDC 10a 28VDC</tspan></text>
  </g>
</svg>
