<?xml version="1.0" encoding="UTF-8" standalone="no"?>
<svg xmlns:dc="http://purl.org/dc/elements/1.1/" xmlns:cc="http://creativecommons.org/ns#" xmlns:rdf="http://www.w3.org/1999/02/22-rdf-syntax-ns#" xmlns:svg="http://www.w3.org/2000/svg" xmlns="http://www.w3.org/2000/svg" xmlns:sodipodi="http://sodipodi.sourceforge.net/DTD/sodipodi-0.dtd" xmlns:inkscape="http://www.inkscape.org/namespaces/inkscape" width="247" height="1081" viewBox="0 0 310 1355" version="1.1" id="svg8" inkscape:version="0.92.4 (5da689c313, 2019-01-14)" sodipodi:docname="KY-033.svg" inkscape:export-filename="C:\Users\Entwicklung5.SIMACGMBH\Desktop\SEN-KIT02\Abbildungen Fertig\KY-033\KY-033.png" inkscape:export-xdpi="92.921417" inkscape:export-ydpi="92.921417">
  <defs id="defs2"/>
  <sodipodi:namedview id="base" pagecolor="#323237" bordercolor="#666666" borderopacity="1.0" inkscape:pageopacity="0" inkscape:pageshadow="2" inkscape:zoom="0.22" inkscape:cx="92.15125" inkscape:cy="1020.5943" inkscape:document-units="mm" inkscape:current-layer="layer1" showgrid="false" inkscape:window-width="1920" inkscape:window-height="1017" inkscape:window-x="-8" inkscape:window-y="-8" inkscape:window-maximized="1"/>
  <metadata id="metadata5">
    <rdf:RDF>
      <cc:Work rdf:about="">
        <dc:format>image/svg+xml</dc:format>
        <dc:type rdf:resource="http://purl.org/dc/dcmitype/StillImage"/>
        <dc:title/>
      </cc:Work>
    </rdf:RDF>
  </metadata>
  <g inkscape:label="Ebene 1" inkscape:groupmode="layer" id="layer1" transform="translate(0,1058)">
    <rect style="opacity:1;fill:#000000;fill-opacity:1;stroke:#b5a642;stroke-width:0;stroke-linejoin:round;stroke-miterlimit:4;stroke-dasharray:none;stroke-opacity:1;paint-order:normal" id="rect10" width="290" height="1205" x="5.0104057e-07" y="-1049.2451"/>
    <rect style="opacity:1;fill:#ffffff;fill-opacity:1;stroke:#000000;stroke-width:0;stroke-miterlimit:4;stroke-dasharray:none;stroke-opacity:1" id="rect821" width="206.99806" height="80.8675" x="-248.49651" y="64.654953" ry="0" transform="matrix(-1,8.5723026e-5,2.4040191e-5,1,0,0)"/>
    <rect style="opacity:1;fill:#1a1a1a;fill-opacity:1;stroke:#000000;stroke-width:0;stroke-miterlimit:4;stroke-dasharray:none;stroke-opacity:1" id="rect825" width="66.792831" height="71.059593" x="-246.836" y="69.450111" ry="14.875648" transform="matrix(-1,5.2017877e-5,3.961711e-5,1,0,0)"/>
    <rect y="69.450111" x="-110.4257" height="71.059593" width="66.792831" id="rect872" style="opacity:1;fill:#1a1a1a;fill-opacity:1;stroke:#000000;stroke-width:0;stroke-miterlimit:4;stroke-dasharray:none;stroke-opacity:1" ry="14.875648" transform="matrix(-1,5.2017877e-5,3.961711e-5,1,0,0)"/>
    <rect y="69.450111" x="-178.63153" height="71.059593" width="66.792831" id="rect874" style="opacity:1;fill:#1a1a1a;fill-opacity:1;stroke:#000000;stroke-width:0;stroke-miterlimit:4;stroke-dasharray:none;stroke-opacity:1" ry="12.959846" transform="matrix(-1,5.2017877e-5,3.961711e-5,1,0,0)"/>
    <rect style="opacity:0.98999999;fill:#808080;fill-opacity:1;stroke:#ffffff;stroke-width:0;stroke-linejoin:round;stroke-miterlimit:4;stroke-dasharray:none;stroke-opacity:1;paint-order:normal" id="rect947" width="7.4159064" height="145.32805" x="-217.27365" y="105.43064" transform="matrix(-1,5.2001517e-5,3.9629574e-5,1,0,0)"/>
    <rect y="105.43064" x="-148.65276" height="145.32805" width="7.4159064" id="rect949" style="opacity:0.98999999;fill:#808080;fill-opacity:1;stroke:#ffffff;stroke-width:0;stroke-linejoin:round;stroke-miterlimit:4;stroke-dasharray:none;stroke-opacity:1;paint-order:normal" transform="matrix(-1,5.2001517e-5,3.9629574e-5,1,0,0)"/>
    <rect style="opacity:0.98999999;fill:#808080;fill-opacity:1;stroke:#ffffff;stroke-width:0;stroke-linejoin:round;stroke-miterlimit:4;stroke-dasharray:none;stroke-opacity:1;paint-order:normal" id="rect951" width="7.4159064" height="145.32805" x="-80.820305" y="105.43064" transform="matrix(-1,5.2001517e-5,3.9629574e-5,1,0,0)"/>
    <path style="opacity:1;fill:#ffffff;fill-opacity:1;stroke:#b5a642;stroke-width:0;stroke-linejoin:round;stroke-miterlimit:4;stroke-dasharray:none;stroke-opacity:1;paint-order:normal" d="m 45.20134,-479.2451 v 199.1467 L 45,-279.87525 l 0.20134,0.1596 v 0.37446 h 0.47288 l 24.50201,19.40446 v 0.0568 h 0.0718 l 0.12803,0.10123 0.0914,-0.10123 h 148.584 l 0.57253,0.6348 L 245,-279.34121 v -199.90392 z" id="rect78" inkscape:connector-curvature="0"/>
    <path inkscape:connector-curvature="0" id="path2577" d="m 50.19127,-474.2451 v 190.09458 L 50,-283.93751 l 0.19127,0.15235 v 0.35744 h 0.44923 l 23.2769,18.52244 v 0.0542 h 0.0682 l 0.12166,0.0966 0.0868,-0.0966 h 141.1548 l 0.54396,0.60594 L 240,-283.42776 v -190.81737 z" style="opacity:1;fill:#000000;fill-opacity:1;stroke:#b5a642;stroke-width:0;stroke-linejoin:round;stroke-miterlimit:4;stroke-dasharray:none;stroke-opacity:1;paint-order:normal"/>
    <path style="opacity:1;fill:#0000ff;fill-opacity:1;stroke:#b5a642;stroke-width:0;stroke-linejoin:round;stroke-miterlimit:4;stroke-dasharray:none;stroke-opacity:1;paint-order:normal" d="m 52.68624,-471.7451 v 185.56852 l -0.18624,0.20793 0.18624,0.14873 v 0.34893 h 0.43741 l 22.66435,18.08142 v 0.053 h 0.0664 l 0.11846,0.0943 0.0845,-0.0943 h 137.44026 l 0.5296,0.59152 23.47278,-18.72589 v -186.2741 z" id="path2581" inkscape:connector-curvature="0"/>
    <path style="opacity:1;fill:#ffffff;fill-opacity:1;stroke:#b5a642;stroke-width:0;stroke-linejoin:round;stroke-miterlimit:4;stroke-dasharray:none;stroke-opacity:1;paint-order:normal" id="path2585" sodipodi:type="arc" sodipodi:cx="145.0013" sodipodi:cy="-364.24637" sodipodi:rx="89.998688" sodipodi:ry="89.998688" sodipodi:start="0" sodipodi:end="4.712389" d="m 234.99998,-364.24637 a 89.998688,89.998688 0 0 1 -55.55768,83.14795 89.998688,89.998688 0 0 1 -98.079686,-19.50927 89.998688,89.998688 0 0 1 -19.509262,-98.07969 89.998688,89.998688 0 0 1 83.147948,-55.55768" sodipodi:open="true"/>
    <rect style="opacity:1;fill:#cccccc;fill-opacity:1;stroke:#b5a642;stroke-width:0;stroke-linejoin:round;stroke-miterlimit:4;stroke-dasharray:none;stroke-opacity:1;paint-order:normal" id="rect2589" width="180" height="19.999998" x="-245.52188" y="-369.0863" transform="rotate(45)"/>
    <rect style="opacity:1;fill:#ffffff;fill-opacity:1;stroke:#b5a642;stroke-width:0;stroke-linejoin:round;stroke-miterlimit:4;stroke-dasharray:none;stroke-opacity:1;paint-order:normal" id="rect2593" width="180" height="130" x="10.000001" y="-173.71596"/>
    <rect y="-168.71596" x="14.999993" height="120" width="170" id="rect2595" style="opacity:1;fill:#1a1a1a;fill-opacity:1;stroke:#b5a642;stroke-width:0;stroke-linejoin:round;stroke-miterlimit:4;stroke-dasharray:none;stroke-opacity:1;paint-order:normal"/>
    <rect style="opacity:1;fill:#b3b3b3;fill-opacity:1;stroke:#b5a642;stroke-width:0;stroke-linejoin:round;stroke-miterlimit:4;stroke-dasharray:none;stroke-opacity:1;paint-order:normal" id="rect2597" width="19.999998" height="30" x="19.999992" y="-49.245129"/>
    <rect y="-49.245129" x="70" height="30" width="19.999998" id="rect2599" style="opacity:1;fill:#b3b3b3;fill-opacity:1;stroke:#b5a642;stroke-width:0;stroke-linejoin:round;stroke-miterlimit:4;stroke-dasharray:none;stroke-opacity:1;paint-order:normal"/>
    <rect style="opacity:1;fill:#b3b3b3;fill-opacity:1;stroke:#b5a642;stroke-width:0;stroke-linejoin:round;stroke-miterlimit:4;stroke-dasharray:none;stroke-opacity:1;paint-order:normal" id="rect2601" width="19.999998" height="30" x="110.00001" y="-49.245129"/>
    <rect y="-49.245129" x="160" height="30" width="19.999998" id="rect2603" style="opacity:1;fill:#b3b3b3;fill-opacity:1;stroke:#b5a642;stroke-width:0;stroke-linejoin:round;stroke-miterlimit:4;stroke-dasharray:none;stroke-opacity:1;paint-order:normal"/>
    <rect y="-198.44608" x="19.999992" height="30" width="19.999998" id="rect2605" style="opacity:1;fill:#b3b3b3;fill-opacity:1;stroke:#b5a642;stroke-width:0;stroke-linejoin:round;stroke-miterlimit:4;stroke-dasharray:none;stroke-opacity:1;paint-order:normal"/>
    <rect style="opacity:1;fill:#b3b3b3;fill-opacity:1;stroke:#b5a642;stroke-width:0;stroke-linejoin:round;stroke-miterlimit:4;stroke-dasharray:none;stroke-opacity:1;paint-order:normal" id="rect2607" width="19.999998" height="30" x="70" y="-198.44608"/>
    <rect y="-198.44608" x="110.00001" height="30" width="19.999998" id="rect2609" style="opacity:1;fill:#b3b3b3;fill-opacity:1;stroke:#b5a642;stroke-width:0;stroke-linejoin:round;stroke-miterlimit:4;stroke-dasharray:none;stroke-opacity:1;paint-order:normal"/>
    <rect style="opacity:1;fill:#b3b3b3;fill-opacity:1;stroke:#b5a642;stroke-width:0;stroke-linejoin:round;stroke-miterlimit:4;stroke-dasharray:none;stroke-opacity:1;paint-order:normal" id="rect2611" width="19.999998" height="30" x="160" y="-198.44608"/>
    <circle style="opacity:1;fill:#cccccc;fill-opacity:1;stroke:#b5a642;stroke-width:0;stroke-linejoin:round;stroke-miterlimit:4;stroke-dasharray:none;stroke-opacity:1;paint-order:normal" id="path2621" cx="145" cy="-589.24512" r="100"/>
    <circle cy="-589.24512" cx="145" id="circle2623" style="opacity:1;fill:#ffffff;fill-opacity:1;stroke:#b5a642;stroke-width:0;stroke-linejoin:round;stroke-miterlimit:4;stroke-dasharray:none;stroke-opacity:1;paint-order:normal" r="75"/>
    <rect transform="matrix(-1,6.6390642e-6,3.1040486e-4,0.99999995,0,0)" y="-50.193878" x="-33.637512" height="19.999947" width="7.9937906" id="rect2667" style="opacity:0.98999999;fill:#808080;fill-opacity:1;stroke:#ffffff;stroke-width:0;stroke-linejoin:round;stroke-miterlimit:4;stroke-dasharray:none;stroke-opacity:1;paint-order:normal"/>
    <rect style="opacity:0.98999999;fill:#808080;fill-opacity:1;stroke:#ffffff;stroke-width:0;stroke-linejoin:round;stroke-miterlimit:4;stroke-dasharray:none;stroke-opacity:1;paint-order:normal" id="rect2669" width="7.9937906" height="19.999947" x="-84.023895" y="-50.193542" transform="matrix(-1,6.6390642e-6,3.1040486e-4,0.99999995,0,0)"/>
    <rect style="opacity:0.98999999;fill:#808080;fill-opacity:1;stroke:#ffffff;stroke-width:0;stroke-linejoin:round;stroke-miterlimit:4;stroke-dasharray:none;stroke-opacity:1;paint-order:normal" id="rect2671" width="7.9937906" height="19.999947" x="-123.67393" y="-50.193283" transform="matrix(-1,6.6390642e-6,3.1040486e-4,0.99999995,0,0)"/>
    <rect transform="matrix(-1,6.6390642e-6,3.1040486e-4,0.99999995,0,0)" y="-50.192947" x="-174.06032" height="19.999947" width="7.9937906" id="rect2673" style="opacity:0.98999999;fill:#808080;fill-opacity:1;stroke:#ffffff;stroke-width:0;stroke-linejoin:round;stroke-miterlimit:4;stroke-dasharray:none;stroke-opacity:1;paint-order:normal"/>
    <rect style="opacity:0.98999999;fill:#808080;fill-opacity:1;stroke:#ffffff;stroke-width:0;stroke-linejoin:round;stroke-miterlimit:4;stroke-dasharray:none;stroke-opacity:1;paint-order:normal" id="rect2675" width="7.9937906" height="19.999947" x="-33.680008" y="-187.1088" transform="matrix(-1,6.6390642e-6,3.1040486e-4,0.99999995,0,0)"/>
    <rect transform="matrix(-1,6.6390642e-6,3.1040486e-4,0.99999995,0,0)" y="-187.10846" x="-84.066391" height="19.999947" width="7.9937906" id="rect2677" style="opacity:0.98999999;fill:#808080;fill-opacity:1;stroke:#ffffff;stroke-width:0;stroke-linejoin:round;stroke-miterlimit:4;stroke-dasharray:none;stroke-opacity:1;paint-order:normal"/>
    <rect transform="matrix(-1,6.6390642e-6,3.1040486e-4,0.99999995,0,0)" y="-187.10818" x="-123.71643" height="19.999947" width="7.9937906" id="rect2679" style="opacity:0.98999999;fill:#808080;fill-opacity:1;stroke:#ffffff;stroke-width:0;stroke-linejoin:round;stroke-miterlimit:4;stroke-dasharray:none;stroke-opacity:1;paint-order:normal"/>
    <rect style="opacity:0.98999999;fill:#808080;fill-opacity:1;stroke:#ffffff;stroke-width:0;stroke-linejoin:round;stroke-miterlimit:4;stroke-dasharray:none;stroke-opacity:1;paint-order:normal" id="rect2681" width="7.9937906" height="19.999947" x="-174.1028" y="-187.10785" transform="matrix(-1,6.6390642e-6,3.1040486e-4,0.99999995,0,0)"/>
    <path style="fill:#ffffff;stroke-width:0.13557935" d="m 62.586037,-221.87042 c 2.367841,-0.0442 2.62675,-0.0728 3.06841,-0.33864 0.265284,-0.15971 0.606389,-0.4896 0.758029,-0.73306 0.260524,-0.4185 0.277779,-0.7176 0.316199,-5.47258 l 0.0408,-5.02988 5.058598,0.0282 5.058596,0.0282 v 6.26872 c 0,6.91149 -0.05525,7.56237 -0.790923,9.37746 -0.963984,2.378 -2.370816,3.48152 -5.272797,4.13603 -0.778854,0.17565 -1.668548,0.21356 -4.616938,0.19674 -2.008717,-0.0114 -4.210298,-0.0699 -4.892507,-0.12998 l -1.240404,-0.10915 -0.03655,-4.08695 -0.03655,-4.08692 2.586036,-0.0483 z m 48.169343,14.03722 c 43.16565,0.0111 53.78417,0.061 51.99178,0.24416 l -0.27566,0.0282 0.27566,0.11463 c 0.2307,0.096 0.19695,0.11992 -0.20672,0.14703 -0.31934,0.0214 -0.17952,0.0619 0.41344,0.11972 l 0.89582,0.0873 -0.89582,0.0385 c -0.49265,0.021 -0.78726,0.0659 -0.65458,0.0995 0.20544,0.052 0.24114,0.22624 0.24114,1.17606 0,1.11405 4.5e-4,1.11512 0.37901,1.17063 0.26614,0.0391 0.20452,0.0615 -0.20672,0.0756 -0.32214,0.011 -0.58572,0.08 -0.58572,0.15335 0,0.0887 -17.11244,0.13339 -51.06155,0.13339 H 60.003911 v -1.8006 -1.80059 z m -38.899173,-38.55917 h 5.099312 v 4.06799 4.06801 h -5.099312 -5.099226 v -4.06801 -4.06799 z m 10.283624,15.00492 c 0.362694,-2.28803 1.007928,-4.32169 1.946667,-6.13534 0.341784,-0.66023 0.662149,-1.2304 0.711959,-1.26708 0.05015,-0.0367 0.305659,-0.39617 0.568479,-0.79887 0.530824,-0.81336 1.741562,-2.27672 2.020617,-2.44216 0.09902,-0.0586 0.179944,-0.1613 0.179944,-0.22806 0,-0.17686 1.275168,-1.30348 2.271537,-2.00686 1.049841,-0.74121 1.904677,-1.15722 3.792439,-1.84575 2.203026,-0.80352 3.495024,-0.99429 6.132911,-0.90555 1.912926,0.0644 2.387736,0.12702 3.583256,0.47302 0.75804,0.21936 1.6779,0.52329 2.04424,0.67541 0.36635,0.15212 0.73151,0.27657 0.8115,0.27657 0.0799,0 0.64676,0.28512 1.2597,0.63356 2.44263,1.38876 5.77311,5.0957 7.05736,7.85522 2.01196,4.32281 2.26533,8.66436 0.73992,12.6745 -0.64157,1.68669 -1.10474,2.64649 -1.85121,3.83665 -0.86249,1.37497 -0.93219,1.45506 -3.027,3.47755 -2.40219,2.31927 -4.12573,3.30282 -7.25866,4.14227 -1.59672,0.42783 -4.734405,0.58952 -6.426489,0.33116 -2.200315,-0.33594 -5.130175,-1.54759 -6.939057,-2.8696 -0.934319,-0.68286 -2.190447,-1.7582 -2.190447,-1.87523 0,-0.0355 -0.315264,-0.3793 -0.700569,-0.76418 -1.833192,-1.83114 -3.721464,-5.41425 -4.410302,-8.36896 -0.25704,-1.10242 -0.44812,-4.03946 -0.316795,-4.86827 z m 9.752375,4.21763 c 0.494699,1.88627 1.474662,3.49838 2.990388,4.91938 1.532964,1.43713 3.972885,1.97272 6.073146,1.33312 2.31336,-0.70449 4.603,-3.35409 5.35941,-6.20206 0.43367,-1.63248 0.40214,-4.01456 -0.0739,-5.59687 -0.67616,-2.24705 -1.88223,-4.00375 -3.55715,-5.181 -0.76713,-0.5392 -1.12071,-0.69366 -1.92949,-0.84294 -1.732735,-0.3198 -3.505153,-0.14568 -4.744196,0.46606 -1.089018,0.53769 -2.471116,2.05886 -3.264335,3.59284 -1.197555,2.31603 -1.505585,5.02601 -0.853823,7.51147 z m 28.655664,-19.16429 c 0.0914,-0.0339 2.39148,-0.0459 5.11129,-0.0266 l 4.94513,0.0351 0.0153,4.46814 c 0.0144,4.22117 0.0323,4.51132 0.3122,5.24948 0.72014,1.8977 3.05772,2.93764 5.108,2.27243 1.05358,-0.3418 1.76459,-0.94198 2.27469,-1.92006 l 0.45201,-0.86695 0.0408,-4.63487 0.0408,-4.63485 h 5.10372 5.10375 l -0.0553,5.23505 c -0.0518,4.87173 -0.0765,5.30911 -0.35632,6.30207 -0.56959,2.01954 -1.47934,3.78503 -2.65821,5.15895 -0.29451,0.34327 -0.53558,0.68236 -0.53558,0.75353 0,0.17392 -1.29022,1.30506 -2.43466,2.13454 -0.96985,0.70289 -2.34931,1.41493 -3.0265,1.5622 -0.21787,0.0473 -0.9232,0.24544 -1.56749,0.44015 -1.08545,0.32804 -1.35371,0.35404 -3.6522,0.35404 -2.30892,0 -2.57617,-0.0262 -3.8589,-0.37839 -2.03048,-0.55747 -2.69415,-0.83594 -4.04497,-1.69718 -1.53119,-0.97625 -2.8197,-2.22901 -3.89155,-3.78373 -1.51318,-2.19475 -2.14649,-3.82423 -2.4661,-6.34471 -0.20859,-1.6447 -0.17629,-9.59821 0.0391,-9.67826 z m 14.22227,24.61651 h 8.33797 v 4.20137 4.20139 h -8.33797 -8.33797 v -4.20139 -4.20137 z m 14.26417,-31.0769 c 0.0756,0 0.13778,-0.23192 0.13778,-0.51533 0,-0.51201 0.009,-0.516 0.63946,-0.60025 0.35164,-0.0466 14.47632,-0.0849 31.38798,-0.085 l 30.74868,-2.4e-4 -0.0416,1.80083 -0.0416,1.80081 h -31.266 c -17.19625,0 -31.36401,-0.0365 -31.48387,-0.081 -0.17484,-0.0648 -0.21802,-0.30265 -0.21802,-1.20039 0,-0.65734 0.057,-1.11942 0.13779,-1.11942 z m 14.05744,20.13997 h 10.61199 v 4.13469 4.13471 h -10.61199 -10.61198 v -4.13471 -4.13469 z m 19.0189,-13.73784 h 5.09922 v 4.06799 4.06801 h -5.09922 -5.09932 v -4.06801 -4.06799 z m 0,12.40407 h 5.09922 v 10.5368 10.53678 h -5.09922 -5.09932 v -10.53678 -10.5368 z m 20.32805,-12.40407 h 10.68091 v 4.06799 4.06801 H 202.4387 191.75786 v -4.06801 -4.06799 z m -8.90611,13.0144 c 0.0663,-0.0397 2.32534,-0.0704 5.01984,-0.068 l 4.89897,0.004 0.0451,4.82843 c 0.0629,6.77178 -0.22076,6.40221 4.9719,6.47461 l 3.27318,0.0456 v 4.23833 4.23832 l -1.21525,0.15084 c -1.83463,0.2277 -7.66979,0.19366 -9.24738,-0.0539 -2.71226,-0.4257 -4.47305,-1.24528 -5.65064,-2.63018 -1.22213,-1.43733 -1.80258,-2.90216 -2.07432,-5.23439 -0.17119,-1.46893 -0.18972,-11.89309 -0.0211,-11.9938 z m 25.58181,-16.99112 c 0.25721,-0.88522 0.76492,-1.73458 1.32574,-2.21817 2.30979,-1.99182 5.09397,-2.2024 7.37842,-0.55816 1.07175,0.77142 1.33841,1.071 1.79682,2.01856 0.34782,0.71889 0.38675,0.94163 0.38452,2.20032 0,1.25846 -0.0425,1.48555 -0.40042,2.23959 -0.77401,1.63217 -2.72603,2.91578 -4.64202,3.05249 -1.78534,0.12738 -3.14796,-0.38739 -4.55549,-1.72096 -1.25577,-1.18975 -1.79204,-3.27794 -1.28757,-5.01367 z m 1.00385,3.44321 c 0.46521,1.07616 1.90732,2.13387 3.39319,2.48873 1.48724,0.35519 2.61612,0.0574 4.3101,-1.13677 0.40578,-0.28606 0.70957,-0.67327 1.02969,-1.31236 0.40391,-0.80659 0.4544,-1.03303 0.45798,-2.0537 0,-1.05173 -0.0366,-1.22327 -0.47831,-2.0622 -0.39091,-0.74151 -0.6392,-1.02266 -1.30925,-1.4824 -0.45483,-0.312 -1.13703,-0.67 -1.51604,-0.7955 -2.32603,-0.77042 -5.12174,0.46966 -6.05659,2.68633 -0.35505,0.84186 -0.27175,2.64793 0.16923,3.66787 z m 3.77664,-5.20179 c 1.03733,0 2.04508,0.0584 2.23949,0.13017 0.83333,0.30659 1.20971,1.85965 0.62507,2.57899 -0.15392,0.18934 -0.49195,0.4185 -0.75121,0.50923 l -0.47141,0.16496 0.47303,0.50675 c 0.26018,0.27872 0.66614,0.8379 0.90218,1.24266 0.23603,0.40475 0.48526,0.76946 0.55385,0.81047 0.29572,0.17688 0.0816,0.32506 -0.46112,0.3186 l -0.58574,-0.008 -0.82687,-1.27123 c -0.884,-1.35902 -1.09871,-1.51574 -2.07622,-1.51574 h -0.61122 v 1.40892 1.4089 l -0.41565,-0.0418 -0.41574,-0.0419 -0.0323,-3.1011 -0.0323,-3.10108 z m 0.23162,2.66762 c 1.02731,0 1.27959,-0.044 1.58491,-0.27643 0.75718,-0.57645 0.32724,-1.50559 -0.764,-1.65097 -0.45694,-0.0609 -1.75539,-0.0289 -2.00826,0.0494 -0.0187,0.006 -0.0348,0.4308 -0.0348,0.94431 v 0.93364 z" id="path31-1" inkscape:connector-curvature="0"/>
    <circle r="100" cy="-949.24512" cx="145" id="circle2717" style="opacity:1;fill:#cccccc;fill-opacity:1;stroke:#b5a642;stroke-width:0;stroke-linejoin:round;stroke-miterlimit:4;stroke-dasharray:none;stroke-opacity:1;paint-order:normal"/>
    <circle r="75" style="opacity:1;fill:#ffffff;fill-opacity:1;stroke:#b5a642;stroke-width:0;stroke-linejoin:round;stroke-miterlimit:4;stroke-dasharray:none;stroke-opacity:1;paint-order:normal" id="circle2719" cx="145" cy="-949.24512"/>
    <rect style="opacity:1;fill:#333333;fill-opacity:1;stroke:#b5a642;stroke-width:0;stroke-linejoin:round;stroke-miterlimit:4;stroke-dasharray:none;stroke-opacity:1;paint-order:normal" id="rect2721" width="290" height="160" x="4.1128914e-07" y="-849.24512"/>
    <circle style="opacity:1;fill:#000000;fill-opacity:1;stroke:#b5a642;stroke-width:0;stroke-linejoin:round;stroke-miterlimit:4;stroke-dasharray:none;stroke-opacity:1;paint-order:normal" id="path2723" cx="80" cy="-769.24512" r="50"/>
    <circle r="50" cy="-769.24512" cx="210" id="circle2725" style="opacity:1;fill:#00002b;fill-opacity:1;stroke:#b5a642;stroke-width:0;stroke-linejoin:round;stroke-miterlimit:4;stroke-dasharray:none;stroke-opacity:1;paint-order:normal"/>
    <rect style="opacity:1;fill:#1a1a1a;fill-opacity:1;stroke:#b5a642;stroke-width:0;stroke-linejoin:round;stroke-miterlimit:4;stroke-dasharray:none;stroke-opacity:1;paint-order:normal" id="rect2727" width="3.9999998" height="160" x="142" y="-849.24512"/>
    <text xml:space="preserve" style="font-style:normal;font-variant:normal;font-weight:normal;font-stretch:normal;font-size:52.17420197px;line-height:1.25;font-family:Calibri;-inkscape-font-specification:Calibri;font-variant-ligatures:normal;font-variant-caps:normal;font-variant-numeric:normal;font-feature-settings:normal;text-align:start;letter-spacing:0px;word-spacing:0px;writing-mode:lr-tb;text-anchor:start;fill:#000000;fill-opacity:1;stroke:none;stroke-width:1.2228328" x="10.528013" y="285.54147" id="text109"><tspan id="tspan107" sodipodi:role="line" x="10.528013" y="285.54147" style="fill:#000000;stroke-width:1.2228328">GND</tspan></text>
    <text id="text83" y="287.70139" x="185.16888" style="font-style:normal;font-variant:normal;font-weight:normal;font-stretch:normal;font-size:52.17420197px;line-height:1.25;font-family:Calibri;-inkscape-font-specification:Calibri;font-variant-ligatures:normal;font-variant-caps:normal;font-variant-numeric:normal;font-feature-settings:normal;text-align:start;letter-spacing:0px;word-spacing:0px;writing-mode:lr-tb;text-anchor:start;fill:#000000;fill-opacity:1;stroke:none;stroke-width:1.2228328" xml:space="preserve"><tspan style="fill:#000000;stroke-width:1.2228328" y="287.70139" x="185.16888" sodipodi:role="line" id="tspan81">Signal</tspan></text>
    <text id="text140" y="285.84717" x="118.35005" style="font-style:normal;font-variant:normal;font-weight:normal;font-stretch:normal;font-size:52.17420197px;line-height:1.25;font-family:Calibri;-inkscape-font-specification:Calibri;font-variant-ligatures:normal;font-variant-caps:normal;font-variant-numeric:normal;font-feature-settings:normal;text-align:start;letter-spacing:0px;word-spacing:0px;writing-mode:lr-tb;text-anchor:start;fill:#000000;fill-opacity:1;stroke:none;stroke-width:1.2228328" xml:space="preserve" inkscape:export-xdpi="93" inkscape:export-ydpi="93"><tspan style="fill:#000000;stroke-width:1.2228328" y="285.84717" x="118.35005" sodipodi:role="line" id="tspan138">+V</tspan></text>
    <text xml:space="preserve" style="font-style:normal;font-variant:normal;font-weight:normal;font-stretch:normal;font-size:56.10351181px;line-height:1.25;font-family:Calibri;-inkscape-font-specification:Calibri;font-variant-ligatures:normal;font-variant-caps:normal;font-variant-numeric:normal;font-feature-settings:normal;text-align:start;letter-spacing:0px;word-spacing:0px;writing-mode:lr-tb;text-anchor:start;fill:#ffffff;fill-opacity:1;stroke:none;stroke-width:0.23376462" x="890.83368" y="40.187195" id="text71" transform="rotate(-90)"><tspan sodipodi:role="line" id="tspan69" x="890.83368" y="40.187195" style="fill:#ffffff;stroke-width:0.23376462">KY-033</tspan></text>
    <text xml:space="preserve" style="font-style:normal;font-variant:normal;font-weight:normal;font-stretch:normal;font-size:63.5px;line-height:1.25;font-family:Calibri;-inkscape-font-specification:Calibri;font-variant-ligatures:normal;font-variant-caps:normal;font-variant-numeric:normal;font-feature-settings:normal;text-align:start;letter-spacing:0px;word-spacing:0px;writing-mode:lr-tb;text-anchor:start;fill:#ffffff;fill-opacity:1;stroke:none;stroke-width:0.26458332" x="57.799393" y="56.441895" id="text75"><tspan sodipodi:role="line" id="tspan73" x="57.799393" y="56.441895" style="fill:#ffffff;stroke-width:0.26458332">G</tspan></text>
    <text xml:space="preserve" style="font-style:normal;font-variant:normal;font-weight:normal;font-stretch:normal;font-size:63.5px;line-height:1.25;font-family:Calibri;-inkscape-font-specification:Calibri;font-variant-ligatures:normal;font-variant-caps:normal;font-variant-numeric:normal;font-feature-settings:normal;text-align:start;letter-spacing:0px;word-spacing:0px;writing-mode:lr-tb;text-anchor:start;fill:#ffffff;fill-opacity:1;stroke:none;stroke-width:0.26458332" x="110.76968" y="56.813969" id="text79"><tspan sodipodi:role="line" id="tspan77" x="110.76968" y="56.813969" style="fill:#ffffff;stroke-width:0.26458332">+V</tspan></text>
    <text xml:space="preserve" style="font-style:normal;font-variant:normal;font-weight:normal;font-stretch:normal;font-size:63.5px;line-height:1.25;font-family:Calibri;-inkscape-font-specification:Calibri;font-variant-ligatures:normal;font-variant-caps:normal;font-variant-numeric:normal;font-feature-settings:normal;text-align:start;letter-spacing:0px;word-spacing:0px;writing-mode:lr-tb;text-anchor:start;fill:#ffffff;fill-opacity:1;stroke:none;stroke-width:0.26458332" x="198.88332" y="56.410889" id="text84"><tspan sodipodi:role="line" id="tspan82" x="198.88332" y="56.410889" style="fill:#ffffff;stroke-width:0.26458332">S</tspan></text>
  </g>
</svg>
