<?xml version="1.0" encoding="UTF-8" standalone="no"?>
<!-- Created with Inkscape (http://www.inkscape.org/) -->

<svg
   xmlns:dc="http://purl.org/dc/elements/1.1/"
   xmlns:cc="http://creativecommons.org/ns#"
   xmlns:rdf="http://www.w3.org/1999/02/22-rdf-syntax-ns#"
   xmlns:svg="http://www.w3.org/2000/svg"
   xmlns="http://www.w3.org/2000/svg"
   xmlns:sodipodi="http://sodipodi.sourceforge.net/DTD/sodipodi-0.dtd"
   xmlns:inkscape="http://www.inkscape.org/namespaces/inkscape"
   width="450mm"
   height="1500mm"
   viewBox="0 0 450 1500"
   version="1.1"
   id="svg8"
   inkscape:version="0.92.4 (5da689c313, 2019-01-14)"
   sodipodi:docname="KY-039.svg"
   inkscape:export-filename="C:\Users\Entwicklung5.SIMACGMBH\Desktop\SEN-KIT02\Abbildungen Fertig\KY-039\KY-039.png"
   inkscape:export-xdpi="93"
   inkscape:export-ydpi="93">
  <defs
     id="defs2">
    <inkscape:perspective
       sodipodi:type="inkscape:persp3d"
       inkscape:vp_x="0 : 148.49999 : 1"
       inkscape:vp_y="0 : 999.99993 : 0"
       inkscape:vp_z="210.00001 : 148.49999 : 1"
       inkscape:persp3d-origin="105 : 98.999994 : 1"
       id="perspective876" />
  </defs>
  <sodipodi:namedview
     id="base"
     pagecolor="#373737"
     bordercolor="#666666"
     borderopacity="1.0"
     inkscape:pageopacity="1"
     inkscape:pageshadow="2"
     inkscape:zoom="0.24748738"
     inkscape:cx="-980.73957"
     inkscape:cy="2453.5082"
     inkscape:document-units="mm"
     inkscape:current-layer="layer1"
     showgrid="false"
     inkscape:window-width="1680"
     inkscape:window-height="987"
     inkscape:window-x="1912"
     inkscape:window-y="-8"
     inkscape:window-maximized="1"
     width="500mm"
     showguides="true"
     inkscape:lockguides="false" />
  <metadata
     id="metadata5">
    <rdf:RDF>
      <cc:Work
         rdf:about="">
        <dc:format>image/svg+xml</dc:format>
        <dc:type
           rdf:resource="http://purl.org/dc/dcmitype/StillImage" />
        <dc:title />
      </cc:Work>
    </rdf:RDF>
  </metadata>
  <g
     inkscape:label="Ebene 1"
     inkscape:groupmode="layer"
     id="layer1"
     transform="translate(0.31582593,1202.8111)">
    <text
       xml:space="preserve"
       style="font-style:normal;font-variant:normal;font-weight:normal;font-stretch:normal;font-size:4.23333311px;line-height:1.25;font-family:Calibri;-inkscape-font-specification:'Calibri, Normal';font-variant-ligatures:normal;font-variant-caps:normal;font-variant-numeric:normal;font-feature-settings:normal;text-align:start;letter-spacing:0px;word-spacing:0px;writing-mode:lr-tb;text-anchor:start;fill:#ffffff;fill-opacity:1;stroke:none;stroke-width:0.26458332"
       x="61.988091"
       y="-859.30579"
       id="text819"><tspan
         sodipodi:role="line"
         id="tspan817"
         x="61.988091"
         y="-855.60162"
         style="fill:#ffffff;fill-opacity:1;stroke-width:0.26458332" /></text>
    <text
       xml:space="preserve"
       style="font-style:normal;font-variant:normal;font-weight:normal;font-stretch:normal;font-size:11.28888893px;line-height:1.25;font-family:'Proxy 1';-inkscape-font-specification:'Proxy 1, ';font-variant-ligatures:normal;font-variant-caps:normal;font-variant-numeric:normal;font-feature-settings:normal;text-align:start;letter-spacing:0px;word-spacing:0px;writing-mode:lr-tb;text-anchor:start;fill:#000000;fill-opacity:1;stroke:none;stroke-width:0.26458332"
       x="-482.47003"
       y="-1282.9724"
       id="text959"><tspan
         sodipodi:role="line"
         id="tspan957"
         x="-482.47003"
         y="-1272.5785"
         style="fill:#000000;stroke-width:0.26458332" /></text>
    <text
       xml:space="preserve"
       style="font-style:normal;font-variant:normal;font-weight:normal;font-stretch:normal;font-size:11.28888893px;line-height:1.25;font-family:'Proxy 1';-inkscape-font-specification:'Proxy 1, ';font-variant-ligatures:normal;font-variant-caps:normal;font-variant-numeric:normal;font-feature-settings:normal;text-align:start;letter-spacing:0px;word-spacing:0px;writing-mode:lr-tb;text-anchor:start;fill:#ffffff;fill-opacity:1;stroke:none;stroke-width:0.26458332"
       x="49.365498"
       y="-830.88501"
       id="text963"><tspan
         sodipodi:role="line"
         id="tspan961"
         x="49.365498"
         y="-820.49115"
         style="fill:#ffffff;stroke-width:0.26458332" /></text>
    <text
       xml:space="preserve"
       style="font-style:normal;font-variant:normal;font-weight:normal;font-stretch:normal;font-size:11.28888893px;line-height:1.25;font-family:'Proxy 1';-inkscape-font-specification:'Proxy 1, ';font-variant-ligatures:normal;font-variant-caps:normal;font-variant-numeric:normal;font-feature-settings:normal;text-align:start;letter-spacing:0px;word-spacing:0px;writing-mode:lr-tb;text-anchor:start;fill:#00ff00;fill-opacity:1;stroke:none;stroke-width:0.26458332"
       x="124.98328"
       y="-855.71503"
       id="text967"><tspan
         sodipodi:role="line"
         id="tspan965"
         x="124.98328"
         y="-845.32117"
         style="fill:#00ff00;fill-opacity:1;stroke-width:0.26458332" /></text>
    <flowRoot
       xml:space="preserve"
       id="flowRoot969"
       style="font-style:normal;font-variant:normal;font-weight:normal;font-stretch:normal;font-size:42.66666794px;line-height:1.25;font-family:'Proxy 1';-inkscape-font-specification:'Proxy 1, ';font-variant-ligatures:normal;font-variant-caps:normal;font-variant-numeric:normal;font-feature-settings:normal;text-align:start;letter-spacing:0px;word-spacing:0px;writing-mode:lr-tb;text-anchor:start;fill:#000000;fill-opacity:1;stroke:none"
       transform="translate(0,-1046.6925)"><flowRegion
         id="flowRegion971"><rect
           id="rect973"
           width="373.57144"
           height="181.42857"
           x="249.28572"
           y="630.71198" /></flowRegion><flowPara
         id="flowPara975" /></flowRoot>    <flowRoot
       xml:space="preserve"
       id="flowRoot1466"
       style="font-style:normal;font-variant:normal;font-weight:normal;font-stretch:normal;font-size:42.66666794px;line-height:1.25;font-family:Calibri;-inkscape-font-specification:Calibri;font-variant-ligatures:normal;font-variant-caps:normal;font-variant-numeric:normal;font-feature-settings:normal;text-align:start;letter-spacing:0px;word-spacing:0px;writing-mode:lr-tb;text-anchor:start;fill:#ffffff;fill-opacity:1;stroke:none"
       transform="translate(0,-1046.6925)"><flowRegion
         id="flowRegion1468"
         style="font-style:normal;font-variant:normal;font-weight:normal;font-stretch:normal;font-family:Calibri;-inkscape-font-specification:Calibri;fill:#ffffff;fill-opacity:1"><rect
           id="rect1470"
           width="414.1825"
           height="372.47485"
           x="1288.5094"
           y="1923.5425"
           style="font-style:normal;font-variant:normal;font-weight:normal;font-stretch:normal;font-family:Calibri;-inkscape-font-specification:Calibri;fill:#ffffff;fill-opacity:1" /></flowRegion><flowPara
         id="flowPara1472" /></flowRoot>    <flowRoot
       xml:space="preserve"
       id="flowRoot1529"
       style="font-style:normal;font-variant:normal;font-weight:normal;font-stretch:normal;font-size:266.66665649px;line-height:1.25;font-family:'Proxy 1';-inkscape-font-specification:'Proxy 1, ';font-variant-ligatures:normal;font-variant-caps:normal;font-variant-numeric:normal;font-feature-settings:normal;text-align:start;letter-spacing:0px;word-spacing:0px;writing-mode:lr-tb;text-anchor:start;fill:#000000;fill-opacity:1;stroke:none"
       transform="translate(0,-1046.6925)"><flowRegion
         id="flowRegion1531"
         style="font-size:266.66665649px"><rect
           id="rect1533"
           width="2157.6858"
           height="2311.229"
           x="-2691.0464"
           y="-332.2605"
           style="font-size:266.66665649px" /></flowRegion><flowPara
         id="flowPara1535" /></flowRoot>    <rect
       style="opacity:1;fill:#808080;fill-opacity:1;stroke:#b5a642;stroke-width:0;stroke-linejoin:round;stroke-miterlimit:4;stroke-dasharray:none;stroke-opacity:1;paint-order:normal"
       id="rect103"
       width="3.2179992"
       height="61.920414"
       x="193.04031"
       y="216.8721" />
    <rect
       y="216.8721"
       x="223.53751"
       height="61.920414"
       width="3.217999"
       id="rect105"
       style="opacity:1;fill:#808080;fill-opacity:1;stroke:#b5a642;stroke-width:0;stroke-linejoin:round;stroke-miterlimit:4;stroke-dasharray:none;stroke-opacity:1;paint-order:normal" />
    <rect
       style="opacity:1;fill:#808080;fill-opacity:1;stroke:#b5a642;stroke-width:0;stroke-linejoin:round;stroke-miterlimit:4;stroke-dasharray:none;stroke-opacity:1;paint-order:normal"
       id="rect107"
       width="3.217999"
       height="61.920414"
       x="253.1655"
       y="216.8721" />
    <rect
       style="opacity:1;fill:#49c9c9;fill-opacity:1;stroke:#b5a642;stroke-width:0;stroke-linejoin:round;stroke-miterlimit:4;stroke-dasharray:none;stroke-opacity:1;paint-order:normal"
       id="rect90"
       width="27.499998"
       height="984.34027"
       x="210.44617"
       y="-759.03143" />
    <rect
       y="-759.03143"
       x="180.28362"
       height="984.34027"
       width="27.499998"
       id="rect92"
       style="opacity:1;fill:#999999;fill-opacity:1;stroke:#b5a642;stroke-width:0;stroke-linejoin:round;stroke-miterlimit:4;stroke-dasharray:none;stroke-opacity:1;paint-order:normal" />
    <rect
       y="-759.03143"
       x="240.60872"
       height="984.34027"
       width="27.499998"
       id="rect94"
       style="opacity:1;fill:#000000;fill-opacity:1;stroke:#b5a642;stroke-width:0;stroke-linejoin:round;stroke-miterlimit:4;stroke-dasharray:none;stroke-opacity:1;paint-order:normal" />
    <circle
       style="opacity:1;fill:#000000;fill-opacity:1;stroke:#b5a642;stroke-width:0;stroke-linejoin:round;stroke-miterlimit:4;stroke-dasharray:none;stroke-opacity:1;paint-order:normal"
       id="path74"
       cx="224.6842"
       cy="-974.50397"
       r="225" />
    <circle
       cy="-974.50397"
       cx="224.68417"
       id="circle79"
       style="opacity:1;fill:#e6e6e6;fill-opacity:1;stroke:#b5a642;stroke-width:0;stroke-linejoin:round;stroke-miterlimit:4;stroke-dasharray:none;stroke-opacity:1;paint-order:normal"
       r="30" />
    <path
       style="fill:#ffffff;stroke-width:0.1180374"
       d="m 40.85671,-905.35672 c -0.03883,-2.04117 -0.06397,-2.26436 -0.29776,-2.64508 -0.140428,-0.22869 -0.430486,-0.52273 -0.644568,-0.65345 -0.36797,-0.22458 -0.630962,-0.23946 -4.811907,-0.27258 l -4.422666,-0.0352 0.02484,-4.3607 0.02484,-4.3607 h 5.511943 c 6.077128,0 6.649427,0.0476 8.245394,0.68181 2.090913,0.83099 3.061217,2.04373 3.63671,4.54535 0.154453,0.6714 0.187785,1.43835 0.172998,3.97997 -0.01004,1.73159 -0.06148,3.62943 -0.114299,4.21752 l -0.09597,1.06928 -3.593552,0.0315 -3.593537,0.0315 -0.04242,-2.22926 z m 12.342618,-41.52381 c 0.0098,-37.21039 0.05364,-46.36393 0.214683,-44.81883 l 0.02477,0.2376 0.100795,-0.2376 c 0.08434,-0.1989 0.105432,-0.1698 0.129268,0.1782 0.01883,0.2753 0.05444,0.1547 0.105279,-0.3564 l 0.07679,-0.7722 0.03385,0.7722 c 0.01854,0.4247 0.05796,0.6786 0.08748,0.5643 0.04565,-0.1771 0.198936,-0.2079 1.034088,-0.2079 0.979558,0 0.980496,-4e-4 1.02931,-0.3267 0.03436,-0.2295 0.05408,-0.1763 0.06646,0.1782 0.0097,0.2777 0.07034,0.5049 0.134844,0.5049 0.07798,0 0.117281,14.75151 0.117281,44.01696 v 44.01697 H 54.771001 53.18779 Z m -33.904225,33.53258 v -4.3958 h 3.576898 3.576912 v 4.3958 4.39572 h -3.576912 -3.576898 z m 13.193502,-8.86487 c -2.011829,-0.31265 -3.79997,-0.86887 -5.394677,-1.6781 -0.58052,-0.29463 -1.081869,-0.57079 -1.114117,-0.61373 -0.03231,-0.0432 -0.348347,-0.26349 -0.702432,-0.49005 -0.71516,-0.45759 -2.001864,-1.50129 -2.147333,-1.74185 -0.05158,-0.0854 -0.14182,-0.15512 -0.200533,-0.15512 -0.1555,0 -1.146123,-1.09924 -1.764577,-1.95815 -0.651734,-0.905 -1.017528,-1.6419 -1.622939,-3.26922 -0.706513,-1.89909 -0.874257,-3.01284 -0.796229,-5.2868 0.05657,-1.64901 0.11169,-2.05831 0.41592,-3.0889 0.192877,-0.65345 0.460125,-1.44639 0.593878,-1.76219 0.133753,-0.3158 0.243186,-0.6306 0.243186,-0.6996 0,-0.069 0.250689,-0.5575 0.557066,-1.0859 1.221102,-2.1056 4.480537,-4.97657 6.906923,-6.08367 3.800951,-1.7344 7.618382,-1.9528 11.144413,-0.6379 1.483069,0.5531 2.326998,0.9524 3.373477,1.5959 1.208983,0.7435 1.279406,0.8035 3.057735,2.60937 2.039277,2.0708 2.90409,3.5565 3.642199,6.25721 0.376183,1.37644 0.518348,4.08124 0.291179,5.53988 -0.295385,1.89675 -1.360754,4.4224 -2.523172,5.98172 -0.600429,0.80542 -1.545944,1.88825 -1.648841,1.88825 -0.03121,0 -0.33351,0.27177 -0.671922,0.60392 -1.610087,1.58028 -4.760638,3.20804 -7.358651,3.80184 -0.969336,0.22158 -3.551808,0.3863 -4.280553,0.27309 z m 3.708459,-8.40691 c 1.658558,-0.42645 3.076054,-1.27121 4.325499,-2.57783 1.263645,-1.32147 1.734578,-3.42477 1.172193,-5.23527 -0.619443,-1.9942 -2.949182,-3.968 -5.45334,-4.62 -1.435404,-0.3739 -3.529914,-0.3467 -4.921201,0.064 -1.975786,0.5829 -3.520411,1.62254 -4.555539,3.06638 -0.474114,0.66129 -0.609918,0.9661 -0.741172,1.6633 -0.2812,1.49367 -0.128096,3.02156 0.409787,4.08967 0.47278,0.93877 1.810313,2.13019 3.159109,2.81397 2.036434,1.03234 4.419251,1.29788 6.604664,0.73603 z m -16.850735,-24.70224 c -0.02982,-0.079 -0.04037,-2.0616 -0.02337,-4.40617 l 0.03085,-4.26287 3.928726,-0.013 c 3.711587,-0.013 3.96671,-0.028 4.615755,-0.2691 1.668603,-0.6208 2.583007,-2.6359 1.998105,-4.40327 -0.300552,-0.9083 -0.828272,-1.5212 -1.688277,-1.9609 l -0.762289,-0.3897 -4.075337,-0.035 -4.075316,-0.035 v -4.39957 -4.39957 l 4.603057,0.048 c 4.283609,0.045 4.668183,0.066 5.541275,0.3071 1.775736,0.491 3.328091,1.27527 4.536151,2.29147 0.301827,0.2539 0.599982,0.4617 0.662565,0.4617 0.15292,0 1.147514,1.1122 1.876845,2.0988 0.618036,0.836 1.244125,2.02517 1.373606,2.60897 0.04162,0.1878 0.215818,0.7958 0.387028,1.3512 0.288432,0.9357 0.311293,1.1669 0.311293,3.14827 0,1.9904 -0.02301,2.2208 -0.332711,3.3266 -0.490174,1.75037 -0.735016,2.32247 -1.492293,3.48687 -0.858387,1.32 -1.959915,2.4307 -3.326949,3.35467 -1.929799,1.3044 -3.362559,1.8504 -5.578761,2.1259 -1.446153,0.1798 -8.439502,0.152 -8.50988,-0.034 z m 21.644756,-12.26014 v -7.18764 h 3.694171 3.694178 v 7.18764 7.18767 h -3.694178 -3.694171 z m -27.325213,-12.29631 c 0,-0.065 -0.203919,-0.1187 -0.453157,-0.1187 -0.450204,0 -0.453656,-0.01 -0.527749,-0.5513 -0.04103,-0.3031 -0.07466,-12.47914 -0.07477,-27.05758 l -1.98e-4,-26.5067 1.583423,0.036 1.583409,0.036 v 26.9526 c 0,14.82384 -0.03209,27.03698 -0.07122,27.14028 -0.05701,0.1508 -0.266121,0.188 -1.055477,0.188 -0.578014,0 -0.984299,-0.049 -0.984299,-0.1188 z m 17.708609,-12.11804 v -9.14794 h 3.635545 3.635552 v 9.14794 9.14794 h -3.635552 -3.635545 z m -12.079378,-16.39504 v -4.3957 h 3.576898 3.576912 v 4.3957 4.3959 h -3.576912 -3.576898 z m 10.906621,0 v -4.3957 h 9.264776 9.264755 v 4.3957 4.3959 H 39.4665 30.201724 Z m -10.906621,-17.5236 v -9.2074 h 3.576898 3.576912 v 9.2074 9.2073 h -3.576912 -3.576898 z m 11.443273,7.6774 c -0.03495,-0.057 -0.06192,-2.0045 -0.05986,-4.3273 l 0.0037,-4.2231 4.245536,-0.039 c 5.954271,-0.054 5.629312,0.1903 5.692972,-4.286 l 0.04015,-2.8216 h 3.726675 3.726653 l 0.132624,1.0476 c 0.200211,1.5815 0.170287,6.6117 -0.04741,7.9716 -0.374315,2.3381 -1.094948,3.856 -2.312666,4.8711 -1.263806,1.0535 -2.551807,1.5539 -4.60247,1.7882 -1.291607,0.1475 -10.45734,0.1635 -10.54589,0.018 z m -14.939914,-22.0526 c -0.77835,-0.2217 -1.525208,-0.6594 -1.950411,-1.1428 -1.751329,-1.9912 -1.936497,-4.3912 -0.490739,-6.3606 0.678288,-0.9239 0.941683,-1.1537 1.774856,-1.5489 0.632105,-0.2998 0.827956,-0.3334 1.934695,-0.3315 1.106533,0 1.306209,0.037 1.969228,0.3452 1.435126,0.6673 2.563772,2.35 2.683984,4.0017 0.112005,1.539 -0.340632,2.7136 -1.513206,3.927 -1.046119,1.0825 -2.882217,1.5448 -4.408407,1.1099 z m 3.02754,-0.8653 c 0.946241,-0.4011 1.876259,-1.6442 2.188285,-2.9251 0.312304,-1.2821 0.05049,-2.2552 -0.99954,-3.7155 -0.251524,-0.3498 -0.591987,-0.6117 -1.153926,-0.8876 -0.709217,-0.3482 -0.908329,-0.3918 -1.805777,-0.3948 -0.924765,0 -1.07559,0.032 -1.813252,0.4123 -0.651983,0.337 -0.899207,0.551 -1.303425,1.1286 -0.274363,0.3921 -0.58913,0.9802 -0.699501,1.3069 -0.677358,2.0051 0.412967,4.4152 2.362052,5.2211 0.740234,0.306 2.328273,0.2342 3.225084,-0.1459 z m -4.573821,-3.2557 c 3.7e-5,-0.8942 0.05158,-1.7629 0.114423,-1.9305 0.269608,-0.7184 1.635176,-1.0428 2.267677,-0.5388 0.166483,0.1327 0.367977,0.4241 0.447756,0.6475 l 0.145052,0.4064 0.445573,-0.4077 c 0.245069,-0.2243 0.736746,-0.5743 1.092641,-0.7778 0.355887,-0.2034 0.676566,-0.4183 0.712624,-0.4774 0.155529,-0.255 0.285816,-0.07 0.280145,0.3975 l -0.0066,0.5049 -1.117765,0.7128 c -1.194952,0.7621 -1.332757,0.9472 -1.332757,1.7898 v 0.5269 h 1.238828 1.23882 l -0.03671,0.3583 -0.03678,0.3584 -2.726732,0.028 -2.726732,0.028 z m 2.34558,-0.1996 c 0,-0.8856 -0.03869,-1.1031 -0.243061,-1.3663 -0.506859,-0.6527 -1.323839,-0.2821 -1.451657,0.6586 -0.05349,0.3939 -0.02542,1.5132 0.04345,1.7312 0.0051,0.016 0.378793,0.03 0.830309,0.03 h 0.820929 z"
       id="path31-1"
       inkscape:connector-curvature="0" />
    <rect
       style="opacity:1;fill:#e6e6e6;fill-opacity:1;stroke:#b5a642;stroke-width:0;stroke-linejoin:round;stroke-miterlimit:4;stroke-dasharray:none;stroke-opacity:1;paint-order:normal"
       id="rect86"
       width="37.499969"
       height="40"
       x="205.44597"
       y="-939.1748" />
    <rect
       style="opacity:1;fill:#803300;fill-opacity:1;stroke:#b5a642;stroke-width:0;stroke-linejoin:round;stroke-miterlimit:4;stroke-dasharray:none;stroke-opacity:1;paint-order:normal"
       id="rect88"
       width="27.5"
       height="30"
       x="210.44617"
       y="-934.17487" />
    <text
       xml:space="preserve"
       style="font-style:normal;font-variant:normal;font-weight:normal;font-stretch:normal;font-size:52.17420197px;line-height:1.25;font-family:Calibri;-inkscape-font-specification:Calibri;font-variant-ligatures:normal;font-variant-caps:normal;font-variant-numeric:normal;font-feature-settings:normal;text-align:start;letter-spacing:0px;word-spacing:0px;writing-mode:lr-tb;text-anchor:start;fill:#000000;fill-opacity:1;stroke:none;stroke-width:1.2228328"
       x="94.824432"
       y="260.72009"
       id="text109"><tspan
         id="tspan107"
         sodipodi:role="line"
         x="94.824432"
         y="260.72009"
         style="fill:#000000;stroke-width:1.2228328">GND</tspan></text>
    <text
       xml:space="preserve"
       style="font-style:normal;font-variant:normal;font-weight:normal;font-stretch:normal;font-size:52.17420197px;line-height:1.25;font-family:Calibri;-inkscape-font-specification:Calibri;font-variant-ligatures:normal;font-variant-caps:normal;font-variant-numeric:normal;font-feature-settings:normal;text-align:start;letter-spacing:0px;word-spacing:0px;writing-mode:lr-tb;text-anchor:start;fill:#000000;fill-opacity:1;stroke:none;stroke-width:1.2228328"
       x="255.66161"
       y="261.93628"
       id="text87"><tspan
         id="tspan85"
         sodipodi:role="line"
         x="255.66161"
         y="261.93628"
         style="fill:#000000;stroke-width:1.2228328">Signal</tspan></text>
    <text
       id="text140"
       y="296.84793"
       x="196.09349"
       style="font-style:normal;font-variant:normal;font-weight:normal;font-stretch:normal;font-size:52.17420197px;line-height:1.25;font-family:Calibri;-inkscape-font-specification:Calibri;font-variant-ligatures:normal;font-variant-caps:normal;font-variant-numeric:normal;font-feature-settings:normal;text-align:start;letter-spacing:0px;word-spacing:0px;writing-mode:lr-tb;text-anchor:start;fill:#000000;fill-opacity:1;stroke:none;stroke-width:1.2228328"
       xml:space="preserve"><tspan
         style="fill:#000000;stroke-width:1.2228328"
         y="296.84793"
         x="196.09349"
         sodipodi:role="line"
         id="tspan138">+V</tspan></text>
    <text
       xml:space="preserve"
       style="font-style:normal;font-variant:normal;font-weight:normal;font-stretch:normal;font-size:49.55233765px;line-height:1.25;font-family:Calibri;-inkscape-font-specification:Calibri;font-variant-ligatures:normal;font-variant-caps:normal;font-variant-numeric:normal;font-feature-settings:normal;text-align:start;letter-spacing:0px;word-spacing:0px;writing-mode:lr-tb;text-anchor:start;fill:#ffffff;fill-opacity:1;stroke:none;stroke-width:0.20646806"
       x="940.24512"
       y="354.88684"
       id="text55"
       transform="rotate(-90)"><tspan
         sodipodi:role="line"
         id="tspan53"
         x="940.24512"
         y="354.88684"
         style="fill:#ffffff;stroke-width:0.20646806">KY-039</tspan></text>
    <text
       xml:space="preserve"
       style="font-style:normal;font-variant:normal;font-weight:normal;font-stretch:normal;font-size:63.5px;line-height:1.25;font-family:Calibri;-inkscape-font-specification:Calibri;font-variant-ligatures:normal;font-variant-caps:normal;font-variant-numeric:normal;font-feature-settings:normal;text-align:start;letter-spacing:0px;word-spacing:0px;writing-mode:lr-tb;text-anchor:start;fill:#ffffff;fill-opacity:1;stroke:none;stroke-width:0.26458332"
       x="153.89844"
       y="-757.21338"
       id="text59"><tspan
         sodipodi:role="line"
         id="tspan57"
         x="153.89844"
         y="-757.21338"
         style="fill:#ffffff;stroke-width:0.26458332">-</tspan></text>
    <text
       xml:space="preserve"
       style="font-style:normal;font-variant:normal;font-weight:normal;font-stretch:normal;font-size:63.5px;line-height:1.25;font-family:Calibri;-inkscape-font-specification:Calibri;font-variant-ligatures:normal;font-variant-caps:normal;font-variant-numeric:normal;font-feature-settings:normal;text-align:start;letter-spacing:0px;word-spacing:0px;writing-mode:lr-tb;text-anchor:start;fill:#ffffff;fill-opacity:1;stroke:none;stroke-width:0.26458332"
       x="207.94904"
       y="-772.48376"
       id="text63"><tspan
         sodipodi:role="line"
         id="tspan61"
         x="207.94904"
         y="-772.48376"
         style="fill:#ffffff;stroke-width:0.26458332">+</tspan></text>
    <text
       xml:space="preserve"
       style="font-style:normal;font-variant:normal;font-weight:normal;font-stretch:normal;font-size:55.96326828px;line-height:1.25;font-family:Calibri;-inkscape-font-specification:Calibri;font-variant-ligatures:normal;font-variant-caps:normal;font-variant-numeric:normal;font-feature-settings:normal;text-align:start;letter-spacing:0px;word-spacing:0px;writing-mode:lr-tb;text-anchor:start;fill:#ffffff;fill-opacity:1;stroke:none;stroke-width:0.23318027"
       x="264.91083"
       y="-758.45636"
       id="text67"><tspan
         sodipodi:role="line"
         id="tspan65"
         x="264.91083"
         y="-758.45636"
         style="fill:#ffffff;stroke-width:0.23318027">S</tspan></text>
  </g>
</svg>
