<?xml version="1.0" encoding="UTF-8" standalone="no"?>
<svg xmlns:dc="http://purl.org/dc/elements/1.1/" xmlns:cc="http://creativecommons.org/ns#" xmlns:rdf="http://www.w3.org/1999/02/22-rdf-syntax-ns#" xmlns:svg="http://www.w3.org/2000/svg" xmlns="http://www.w3.org/2000/svg" xmlns:sodipodi="http://sodipodi.sourceforge.net/DTD/sodipodi-0.dtd" xmlns:inkscape="http://www.inkscape.org/namespaces/inkscape" width="905" height="1081" viewBox="0 0 670 800" version="1.1" id="svg8" inkscape:version="0.92.4 (5da689c313, 2019-01-14)" sodipodi:docname="KY-027.svg" inkscape:export-filename="C:\Users\Entwicklung5.SIMACGMBH\Desktop\SEN-KIT02\Abbildungen Fertig\KY-027\KY-027.png" inkscape:export-xdpi="93" inkscape:export-ydpi="93">
  <defs id="defs2">
    <inkscape:perspective sodipodi:type="inkscape:persp3d" inkscape:vp_x="0 : 148.49999 : 1" inkscape:vp_y="0 : 999.99995 : 0" inkscape:vp_z="210.00001 : 148.49999 : 1" inkscape:persp3d-origin="104.99999 : 98.999996 : 1" id="perspective876"/>
  </defs>
  <sodipodi:namedview id="base" pagecolor="#323232" bordercolor="#000000" borderopacity="1" inkscape:pageopacity="0" inkscape:pageshadow="2" inkscape:zoom="0.1767767" inkscape:cx="131.49897" inkscape:cy="1727.1102" inkscape:document-units="mm" inkscape:current-layer="layer1" showgrid="false" inkscape:window-width="1920" inkscape:window-height="1017" inkscape:window-x="-8" inkscape:window-y="-8" inkscape:window-maximized="1" width="500mm" showguides="true" inkscape:lockguides="true" inkscape:pagecheckerboard="false" borderlayer="false">
    <inkscape:grid type="xygrid" id="grid111"/>
  </sodipodi:namedview>
  <metadata id="metadata5">
    <rdf:RDF>
      <cc:Work rdf:about="">
        <dc:format>image/svg+xml</dc:format>
        <dc:type rdf:resource="http://purl.org/dc/dcmitype/StillImage"/>
        <dc:title/>
      </cc:Work>
    </rdf:RDF>
  </metadata>
  <g inkscape:label="Ebene 1" inkscape:groupmode="layer" id="layer1" transform="translate(0.31582593,502.81107)">
    <rect style="opacity:1;fill:#000000;fill-opacity:1;stroke:#000000;stroke-width:0;stroke-miterlimit:4;stroke-dasharray:none;stroke-opacity:1" id="rect815" width="450.50391" height="602.5614" x="214.83615" y="-498.93607"/>
    <text xml:space="preserve" style="font-style:normal;font-variant:normal;font-weight:normal;font-stretch:normal;font-size:4.23333311px;line-height:1.25;font-family:Calibri;-inkscape-font-specification:'Calibri, Normal';font-variant-ligatures:normal;font-variant-caps:normal;font-variant-numeric:normal;font-feature-settings:normal;text-align:start;letter-spacing:0px;word-spacing:0px;writing-mode:lr-tb;text-anchor:start;fill:#ffffff;fill-opacity:1;stroke:none;stroke-width:0.26458332" x="61.988091" y="87.261887" id="text819"><tspan sodipodi:role="line" id="tspan817" x="61.988091" y="90.966057" style="fill:#ffffff;fill-opacity:1;stroke-width:0.26458332"/></text>
    <text xml:space="preserve" style="font-style:normal;font-variant:normal;font-weight:normal;font-stretch:normal;font-size:11.28888893px;line-height:1.25;font-family:'Proxy 1';-inkscape-font-specification:'Proxy 1, ';font-variant-ligatures:normal;font-variant-caps:normal;font-variant-numeric:normal;font-feature-settings:normal;text-align:start;letter-spacing:0px;word-spacing:0px;writing-mode:lr-tb;text-anchor:start;fill:#000000;fill-opacity:1;stroke:none;stroke-width:0.26458332" x="-482.47003" y="-336.40604" id="text959"><tspan sodipodi:role="line" id="tspan957" x="-482.47003" y="-326.01218" style="fill:#000000;stroke-width:0.26458332"/></text>
    <text xml:space="preserve" style="font-style:normal;font-variant:normal;font-weight:normal;font-stretch:normal;font-size:11.28888893px;line-height:1.25;font-family:'Proxy 1';-inkscape-font-specification:'Proxy 1, ';font-variant-ligatures:normal;font-variant-caps:normal;font-variant-numeric:normal;font-feature-settings:normal;text-align:start;letter-spacing:0px;word-spacing:0px;writing-mode:lr-tb;text-anchor:start;fill:#ffffff;fill-opacity:1;stroke:none;stroke-width:0.26458332" x="49.365498" y="115.68256" id="text963"><tspan sodipodi:role="line" id="tspan961" x="49.365498" y="126.07643" style="fill:#ffffff;stroke-width:0.26458332"/></text>
    <text xml:space="preserve" style="font-style:normal;font-variant:normal;font-weight:normal;font-stretch:normal;font-size:11.28888893px;line-height:1.25;font-family:'Proxy 1';-inkscape-font-specification:'Proxy 1, ';font-variant-ligatures:normal;font-variant-caps:normal;font-variant-numeric:normal;font-feature-settings:normal;text-align:start;letter-spacing:0px;word-spacing:0px;writing-mode:lr-tb;text-anchor:start;fill:#00ff00;fill-opacity:1;stroke:none;stroke-width:0.26458332" x="124.98328" y="90.8526" id="text967"><tspan sodipodi:role="line" id="tspan965" x="124.98328" y="101.24647" style="fill:#00ff00;fill-opacity:1;stroke-width:0.26458332"/></text>
    <flowRoot xml:space="preserve" id="flowRoot969" style="font-style:normal;font-variant:normal;font-weight:normal;font-stretch:normal;font-size:42.66666794px;line-height:1.25;font-family:'Proxy 1';-inkscape-font-specification:'Proxy 1, ';font-variant-ligatures:normal;font-variant-caps:normal;font-variant-numeric:normal;font-feature-settings:normal;text-align:start;letter-spacing:0px;word-spacing:0px;writing-mode:lr-tb;text-anchor:start;fill:#000000;fill-opacity:1;stroke:none" transform="translate(0,-100.12501)"><flowRegion id="flowRegion971"><rect id="rect973" width="373.57144" height="181.42857" x="249.28572" y="630.71198"/></flowRegion><flowPara id="flowPara975"/></flowRoot>    <flowRoot xml:space="preserve" id="flowRoot1466" style="font-style:normal;font-variant:normal;font-weight:normal;font-stretch:normal;font-size:42.66666794px;line-height:1.25;font-family:Calibri;-inkscape-font-specification:Calibri;font-variant-ligatures:normal;font-variant-caps:normal;font-variant-numeric:normal;font-feature-settings:normal;text-align:start;letter-spacing:0px;word-spacing:0px;writing-mode:lr-tb;text-anchor:start;fill:#ffffff;fill-opacity:1;stroke:none" transform="translate(0,-100.12501)"><flowRegion id="flowRegion1468" style="font-style:normal;font-variant:normal;font-weight:normal;font-stretch:normal;font-family:Calibri;-inkscape-font-specification:Calibri;fill:#ffffff;fill-opacity:1"><rect id="rect1470" width="414.1825" height="372.47485" x="1288.5094" y="1923.5425" style="font-style:normal;font-variant:normal;font-weight:normal;font-stretch:normal;font-family:Calibri;-inkscape-font-specification:Calibri;fill:#ffffff;fill-opacity:1"/></flowRegion><flowPara id="flowPara1472"/></flowRoot>    <flowRoot xml:space="preserve" id="flowRoot1529" style="font-style:normal;font-variant:normal;font-weight:normal;font-stretch:normal;font-size:266.66665649px;line-height:1.25;font-family:'Proxy 1';-inkscape-font-specification:'Proxy 1, ';font-variant-ligatures:normal;font-variant-caps:normal;font-variant-numeric:normal;font-feature-settings:normal;text-align:start;letter-spacing:0px;word-spacing:0px;writing-mode:lr-tb;text-anchor:start;fill:#000000;fill-opacity:1;stroke:none" transform="translate(0,-100.12501)"><flowRegion id="flowRegion1531" style="font-size:266.66665649px"><rect id="rect1533" width="2157.6858" height="2311.229" x="-2691.0464" y="-332.2605" style="font-size:266.66665649px"/></flowRegion><flowPara id="flowPara1535"/></flowRoot>    <path style="fill:#ffffff;stroke-width:0.16143601" d="m 342.87855,-453.85337 c 2.7857,-0.0532 3.0903,-0.0877 3.6099,-0.4081 0.3121,-0.19247 0.7134,-0.59003 0.8918,-0.88344 0.3065,-0.50433 0.3268,-0.86479 0.372,-6.59513 l 0.048,-6.06163 5.9513,0.034 5.9513,0.0341 v 7.55458 c 0,8.32922 -0.065,9.1136 -0.9305,11.301 -1.1341,2.86579 -2.7892,4.19567 -6.2033,4.98443 -0.9163,0.2117 -1.963,0.25738 -5.4317,0.23711 -2.3632,-0.0138 -4.9533,-0.0843 -5.7559,-0.15665 l -1.4593,-0.13154 -0.043,-4.92528 -0.043,-4.92525 z m 56.66991,16.91661 c 50.78319,0.0135 63.27559,0.0735 61.16689,0.29424 l -0.3243,0.034 0.3243,0.13814 c 0.27141,0.11561 0.23171,0.14452 -0.2432,0.17719 -0.3757,0.0258 -0.21119,0.0746 0.4864,0.14428 l 1.05391,0.10526 -1.05391,0.0464 c -0.57959,0.0254 -0.92619,0.0795 -0.77009,0.1199 0.2417,0.0626 0.28369,0.27266 0.28369,1.41731 0,1.34256 5.3e-4,1.34385 0.4459,1.41075 0.3131,0.0471 0.24061,0.0741 -0.2432,0.0911 -0.37899,0.0133 -0.68909,0.0964 -0.68909,0.18481 0,0.10688 -20.13231,0.16074 -60.07251,0.16074 h -60.0725 v -2.16994 -2.16993 z m -45.76381,-46.46861 h 5.9992 v 4.90244 4.90246 h -5.9992 -5.9991 v -4.90246 -4.90244 z m 12.0984,18.08281 c 0.4267,-2.75739 1.1858,-5.20818 2.2902,-7.39386 0.4021,-0.79566 0.779,-1.4828 0.8376,-1.527 0.059,-0.0443 0.3596,-0.47744 0.6688,-0.96274 0.6245,-0.98018 2.0489,-2.74373 2.3772,-2.94309 0.1165,-0.0707 0.2117,-0.19438 0.2117,-0.27486 0,-0.21312 1.5002,-1.57085 2.6724,-2.4185 1.23511,-0.89326 2.2408,-1.3946 4.4617,-2.22437 2.5918,-0.96834 4.1118,-1.19824 7.2152,-1.09131 2.2505,0.0776 2.8091,0.15309 4.2156,0.57006 0.89181,0.26436 1.974,0.63064 2.405,0.81396 0.431,0.18332 0.8606,0.33331 0.9547,0.33331 0.094,0 0.7609,0.34358 1.482,0.7635 2.8737,1.67362 6.79191,6.14095 8.3028,9.46652 2.36701,5.20953 2.6651,10.44164 0.8705,15.27436 -0.7548,2.03268 -1.2997,3.18935 -2.1779,4.62363 -1.0147,1.65702 -1.0967,1.75354 -3.56119,4.19089 -2.82611,2.79501 -4.85381,3.98031 -8.53961,4.99195 -1.8785,0.5156 -5.5699,0.71044 -7.56059,0.39909 -2.58861,-0.40485 -6.03551,-1.86503 -8.16361,-3.45822 -1.0992,-0.82294 -2.577,-2.11886 -2.577,-2.25989 0,-0.0428 -0.3709,-0.4571 -0.8242,-0.92092 -2.1567,-2.20677 -4.3782,-6.52486 -5.1886,-10.08566 -0.3024,-1.32855 -0.5272,-4.86805 -0.3727,-5.86685 z m 11.4734,5.08275 c 0.582,2.27319 1.7349,4.216 3.51811,5.92846 1.80349,1.73193 4.67399,2.37738 7.14489,1.60659 2.7216,-0.849 5.4153,-4.0421 6.3052,-7.47426 0.5102,-1.96734 0.4731,-4.83805 -0.087,-6.74492 -0.79549,-2.70798 -2.2144,-4.82502 -4.18489,-6.24375 -0.90251,-0.64981 -1.31849,-0.83594 -2.26999,-1.01584 -2.03852,-0.38541 -4.12372,-0.17557 -5.58142,0.56165 -1.2812,0.64798 -2.9072,2.48119 -3.8404,4.32982 -1.40889,2.7911 -1.77128,6.05696 -1.0045,9.05225 z m 33.7126,-23.09535 c 0.1075,-0.0409 2.8135,-0.0554 6.0133,-0.0321 l 5.8178,0.0423 0.018,5.38465 c 0.017,5.08704 0.038,5.43671 0.3673,6.32628 0.84722,2.28696 3.59731,3.54023 6.00941,2.73857 1.23951,-0.41193 2.076,-1.13521 2.67611,-2.31393 l 0.53178,-1.04477 0.048,-5.5856 0.048,-5.58556 h 6.0044 6.00441 l -0.065,6.30888 c -0.061,5.87104 -0.09,6.39813 -0.4192,7.59478 -0.6701,2.4338 -1.7404,4.56143 -3.1273,6.21718 -0.3465,0.41367 -0.6301,0.82233 -0.6301,0.9081 0,0.20959 -1.51791,1.57276 -2.86431,2.57237 -1.141,0.84708 -2.7639,1.70518 -3.5606,1.88265 -0.2563,0.0571 -1.0861,0.29579 -1.8441,0.53045 -1.277,0.39532 -1.5926,0.42666 -4.2967,0.42666 -2.7164,0 -3.0308,-0.0315 -4.5399,-0.45601 -2.3888,-0.67183 -3.1696,-1.00741 -4.7588,-2.04531 -1.8014,-1.1765 -3.3173,-2.68624 -4.5783,-4.55988 -1.7802,-2.64494 -2.5253,-4.60866 -2.9013,-7.64616 -0.2454,-1.98207 -0.2074,-11.56704 0.046,-11.6635 z m 16.73211,29.66596 h 9.80939 v 5.06317 5.06319 h -9.80939 -9.8094 v -5.06319 -5.06317 z m 16.7814,-37.45151 c 0.089,0 0.16209,-0.27948 0.16209,-0.62109 0,-0.61704 0.01,-0.62177 0.75231,-0.72332 0.4137,-0.0563 17.03099,-0.10233 36.92709,-0.10248 l 36.175,-2.7e-4 -0.049,2.17022 -0.049,2.17019 h -36.7836 c -20.23091,0 -36.8989,-0.044 -37.03991,-0.0976 -0.20569,-0.0782 -0.25649,-0.36475 -0.25649,-1.44662 0,-0.79222 0.067,-1.34907 0.1621,-1.34907 z m 16.53819,24.27114 h 12.48471 v 4.98282 4.98283 h -12.48471 -12.4847 v -4.98283 -4.98282 z m 22.37521,-16.5558 h 5.99909 v 4.90244 4.90246 h -5.99909 -5.9992 v -4.90246 -4.90244 z m 0,14.94844 h 5.99909 v 12.69816 12.69813 h -5.99909 -5.9992 v -12.69813 -12.69816 z m 23.91539,-14.94844 h 12.56581 v 4.90244 4.90246 h -12.56581 -12.5657 v -4.90246 -4.90244 z m -10.47779,15.68396 c 0.078,-0.0479 2.7357,-0.0849 5.9057,-0.0821 l 5.7635,0.005 0.053,5.81887 c 0.074,8.16083 -0.25971,7.71544 5.8493,7.80269 l 3.8508,0.055 v 5.10773 5.1077 l -1.4297,0.18177 c -2.1584,0.2744 -9.0233,0.2334 -10.8793,-0.065 -3.19091,-0.51303 -5.2624,-1.50072 -6.64781,-3.1697 -1.43779,-1.73218 -2.12069,-3.49749 -2.44039,-6.30809 -0.2014,-1.77025 -0.22321,-14.33266 -0.025,-14.45404 z m 30.0963,-20.4764 c 0.3026,-1.0668 0.8999,-2.09043 1.55969,-2.67321 2.71741,-2.40034 5.99291,-2.65413 8.68051,-0.6726 1.2609,0.92965 1.5746,1.29066 2.1139,2.4326 0.4092,0.86635 0.455,1.13478 0.4524,2.65166 0,1.51659 -0.05,1.79026 -0.4711,2.69899 -0.9106,1.96696 -3.2071,3.51387 -5.4612,3.67863 -2.10041,0.15351 -3.7035,-0.46687 -5.3594,-2.07398 -1.4774,-1.43379 -2.1083,-3.95032 -1.5148,-6.04209 z m 1.181,4.14949 c 0.5473,1.29691 2.2439,2.57158 3.992,2.99924 1.7497,0.42803 3.0778,0.0692 5.0707,-1.36996 0.4774,-0.34474 0.8348,-0.81136 1.2114,-1.58155 0.4752,-0.97204 0.5346,-1.24495 0.5388,-2.47497 0,-1.26747 -0.043,-1.47419 -0.5627,-2.48521 -0.4599,-0.8936 -0.752,-1.23245 -1.5403,-1.78646 -0.5351,-0.37604 -1.3377,-0.80745 -1.7836,-0.95873 -2.7365,-0.92837 -6.0256,0.56601 -7.1254,3.2374 -0.4177,1.01455 -0.3197,3.19109 0.1991,4.42024 z m 4.4431,-6.2688 c 1.2204,5e-5 2.406,0.0707 2.6347,0.15682 0.9804,0.36953 1.4232,2.24115 0.7354,3.10804 -0.1811,0.22818 -0.5788,0.50435 -0.8838,0.61369 l -0.5546,0.19881 0.5565,0.61069 c 0.3061,0.3359 0.7837,1.00978 1.0614,1.49757 0.2777,0.48776 0.5709,0.92729 0.6516,0.9767 0.3479,0.21317 0.096,0.39174 -0.5425,0.38396 l -0.6891,-0.009 -0.9728,-1.532 c -1.04,-1.63778 -1.2926,-1.82665 -2.4426,-1.82665 h -0.7191 v 1.69792 1.6979 l -0.489,-0.0503 -0.4891,-0.0504 -0.038,-3.73722 -0.038,-3.73722 z m 0.2725,3.21481 c 1.2086,0 1.5054,-0.053 1.8646,-0.33314 0.8908,-0.69469 0.385,-1.81442 -0.8988,-1.98961 -0.5376,-0.0733 -2.0652,-0.0349 -2.3627,0.0596 -0.022,0.007 -0.041,0.51917 -0.041,1.13801 v 1.12515 z" id="path31-1" inkscape:connector-curvature="0"/>
    <ellipse style="opacity:0.98999999;fill:#cccccc;fill-opacity:1;stroke:#ffffff;stroke-width:0;stroke-linejoin:round;stroke-miterlimit:4;stroke-dasharray:none;stroke-opacity:1;paint-order:normal" id="path84" cx="-417.54868" cy="279.83615" transform="matrix(0,1,1,0,0,0)" rx="45.192104" ry="45"/>
    <ellipse transform="matrix(0,1,1,0,0,0)" cy="599.83618" cx="-417.54868" id="circle86" style="opacity:0.98999999;fill:#cccccc;fill-opacity:1;stroke:#ffffff;stroke-width:0;stroke-linejoin:round;stroke-miterlimit:4;stroke-dasharray:none;stroke-opacity:1;paint-order:normal" rx="45.192104" ry="45"/>
    <ellipse style="opacity:0.98999999;fill:#ffffff;fill-opacity:1;stroke:#ffffff;stroke-width:0;stroke-linejoin:round;stroke-miterlimit:4;stroke-dasharray:none;stroke-opacity:1;paint-order:normal" id="path88" cx="279.83615" cy="-417.54868" rx="40" ry="40.170757"/>
    <ellipse cy="-417.54868" cx="599.83618" id="circle90" style="opacity:0.98999999;fill:#ffffff;fill-opacity:1;stroke:#ffffff;stroke-width:0;stroke-linejoin:round;stroke-miterlimit:4;stroke-dasharray:none;stroke-opacity:1;paint-order:normal" rx="40" ry="40.170757"/>
    <rect style="opacity:1;fill:#ffffff;fill-opacity:1;stroke:#000000;stroke-width:0;stroke-miterlimit:4;stroke-dasharray:none;stroke-opacity:1" id="rect821-4" width="314.81927" height="80.208214" x="282.52258" y="1.6046679" ry="0" transform="matrix(0.9999965,0.00264489,-0.00226697,0.99999743,0,0)"/>
    <rect style="opacity:1;fill:#1a1a1a;fill-opacity:1;stroke:#000000;stroke-width:0;stroke-miterlimit:4;stroke-dasharray:none;stroke-opacity:1" id="rect825-1" width="76.637604" height="71.201851" x="284.10553" y="6.2324057" ry="14.905437" transform="matrix(0.99999689,0.00249352,-0.00247052,0.99999695,0,0)"/>
    <rect y="6.2324057" x="440.62119" height="71.201851" width="76.637604" id="rect872-6" style="opacity:1;fill:#1a1a1a;fill-opacity:1;stroke:#000000;stroke-width:0;stroke-miterlimit:4;stroke-dasharray:none;stroke-opacity:1" ry="14.905437" transform="matrix(0.99999689,0.00249352,-0.00247052,0.99999695,0,0)"/>
    <rect y="6.2324057" x="362.3634" height="71.201851" width="76.637604" id="rect874-1" style="opacity:1;fill:#1a1a1a;fill-opacity:1;stroke:#000000;stroke-width:0;stroke-miterlimit:4;stroke-dasharray:none;stroke-opacity:1" ry="12.98579" transform="matrix(0.99999689,0.00249352,-0.00247052,0.99999695,0,0)"/>
    <rect style="opacity:0.98999999;fill:#808080;fill-opacity:1;stroke:#ffffff;stroke-width:0;stroke-linejoin:round;stroke-miterlimit:4;stroke-dasharray:none;stroke-opacity:1;paint-order:normal" id="rect947-6" width="7.9182305" height="150.63541" x="318.0903" y="45.003761" transform="matrix(0.99999702,0.00244213,-0.00251726,0.99999683,0,0)"/>
    <rect y="45.007744" x="396.80081" height="150.63541" width="7.9182305" id="rect949-3" style="opacity:0.98999999;fill:#808080;fill-opacity:1;stroke:#ffffff;stroke-width:0;stroke-linejoin:round;stroke-miterlimit:4;stroke-dasharray:none;stroke-opacity:1;paint-order:normal" transform="matrix(0.99999702,0.00244213,-0.00251726,0.99999683,0,0)"/>
    <rect style="opacity:0.98999999;fill:#808080;fill-opacity:1;stroke:#ffffff;stroke-width:0;stroke-linejoin:round;stroke-miterlimit:4;stroke-dasharray:none;stroke-opacity:1;paint-order:normal" id="rect951-7" width="7.9182305" height="150.63541" x="474.60571" y="45.011787" transform="matrix(0.99999702,0.00244213,-0.00251726,0.99999683,0,0)"/>
    <rect transform="matrix(0.99999689,0.00249352,-0.00247052,0.99999695,0,0)" ry="14.905437" style="opacity:1;fill:#1a1a1a;fill-opacity:1;stroke:#000000;stroke-width:0;stroke-miterlimit:4;stroke-dasharray:none;stroke-opacity:1" id="rect64" width="76.637604" height="71.201851" x="518.37946" y="6.2774496"/>
    <rect transform="matrix(0.99999702,0.00244213,-0.00251726,0.99999683,0,0)" y="45.060829" x="552.36395" height="150.63541" width="7.9182305" id="rect66" style="opacity:0.98999999;fill:#808080;fill-opacity:1;stroke:#ffffff;stroke-width:0;stroke-linejoin:round;stroke-miterlimit:4;stroke-dasharray:none;stroke-opacity:1;paint-order:normal"/>
    <ellipse style="opacity:1;fill:#ffffff;fill-opacity:1;stroke:#b5a642;stroke-width:0;stroke-linejoin:round;stroke-miterlimit:4;stroke-dasharray:none;stroke-opacity:1;paint-order:normal" id="path127" cx="366.95279" cy="-239.79306" rx="75" ry="75.320175"/>
    <ellipse cy="-239.79306" cx="512.71948" id="circle129" style="opacity:1;fill:#ffffff;fill-opacity:1;stroke:#b5a642;stroke-width:0;stroke-linejoin:round;stroke-miterlimit:4;stroke-dasharray:none;stroke-opacity:1;paint-order:normal" rx="75" ry="75.320175"/>
    <ellipse style="opacity:1;fill:#000000;fill-opacity:1;stroke:#b5a642;stroke-width:0;stroke-linejoin:round;stroke-miterlimit:4;stroke-dasharray:none;stroke-opacity:1;paint-order:normal" id="path131" cx="512.71948" cy="-239.79306" rx="70" ry="70.29882"/>
    <ellipse cy="-239.79306" cx="366.95279" id="circle133" style="opacity:1;fill:#000000;fill-opacity:1;stroke:#b5a642;stroke-width:0;stroke-linejoin:round;stroke-miterlimit:4;stroke-dasharray:none;stroke-opacity:1;paint-order:normal" rx="70" ry="70.29882"/>
    <ellipse style="opacity:1;fill:#cccccc;fill-opacity:1;stroke:#b5a642;stroke-width:0;stroke-linejoin:round;stroke-miterlimit:4;stroke-dasharray:none;stroke-opacity:1;paint-order:normal" id="path135" cx="366.83615" cy="-290.0065" rx="35" ry="35.14941"/>
    <ellipse cy="-189.57962" cx="366.83615" id="circle137" style="opacity:1;fill:#cccccc;fill-opacity:1;stroke:#b5a642;stroke-width:0;stroke-linejoin:round;stroke-miterlimit:4;stroke-dasharray:none;stroke-opacity:1;paint-order:normal" rx="35" ry="35.14941"/>
    <ellipse cy="-290.0065" cx="511.83615" id="circle139" style="opacity:1;fill:#cccccc;fill-opacity:1;stroke:#b5a642;stroke-width:0;stroke-linejoin:round;stroke-miterlimit:4;stroke-dasharray:none;stroke-opacity:1;paint-order:normal" rx="35" ry="35.14941"/>
    <ellipse style="opacity:1;fill:#cccccc;fill-opacity:1;stroke:#b5a642;stroke-width:0;stroke-linejoin:round;stroke-miterlimit:4;stroke-dasharray:none;stroke-opacity:1;paint-order:normal" id="circle141" cx="511.83615" cy="-189.57962" rx="35" ry="35.14941"/>
    <rect transform="matrix(4.6831737e-4,-0.99999989,0.99999554,-0.00298753,0,0)" style="opacity:0.98999999;fill:#808080;fill-opacity:1;stroke:#ffffff;stroke-width:0;stroke-linejoin:round;stroke-miterlimit:4;stroke-dasharray:none;stroke-opacity:1;paint-order:normal" id="rect164" width="7.8753967" height="28.730427" x="183.71672" y="338.01489" inkscape:transform-center-y="0.23046829" inkscape:transform-center-x="14.366526"/>
    <rect transform="matrix(-4.6477321e-4,0.99999989,-0.99999981,6.1517314e-4,0,0)" y="-366.69699" x="-292.48004" height="28.668215" width="7.9182596" id="rect166" style="opacity:0.98999999;fill:#808080;fill-opacity:1;stroke:#ffffff;stroke-width:0;stroke-linejoin:round;stroke-miterlimit:4;stroke-dasharray:none;stroke-opacity:1;paint-order:normal" inkscape:transform-center-y="0.1984491" inkscape:transform-center-x="14.33596"/>
    <rect inkscape:transform-center-x="-14.928743" inkscape:transform-center-y="-0.13122861" y="-541.58081" x="-195.40596" height="29.854904" width="8.1835661" id="rect178" style="opacity:0.98999999;fill:#808080;fill-opacity:1;stroke:#ffffff;stroke-width:0;stroke-linejoin:round;stroke-miterlimit:4;stroke-dasharray:none;stroke-opacity:1;paint-order:normal" transform="matrix(-4.6831896e-4,0.99999989,-0.9999909,-0.00426533,0,0)"/>
    <rect inkscape:transform-center-x="-14.79897" inkscape:transform-center-y="-0.13229243" style="opacity:0.98999999;fill:#808080;fill-opacity:1;stroke:#ffffff;stroke-width:0;stroke-linejoin:round;stroke-miterlimit:4;stroke-dasharray:none;stroke-opacity:1;paint-order:normal" id="rect180" width="7.9182425" height="29.594353" x="287.14877" y="511.69897" transform="matrix(4.7978544e-4,-0.99999988,0.9999925,0.00387368,0,0)"/>
    <path style="opacity:0.98999999;fill:#f2f2f2;fill-opacity:1;stroke:#ffffff;stroke-width:0;stroke-linejoin:round;stroke-miterlimit:4;stroke-dasharray:none;stroke-opacity:1;paint-order:normal" d="m 664.8147,-242.89091 a 77.240484,73.415953 0 0 0 -10.3269,-34.97564 77.240484,73.415953 0 0 0 -66.75436,-36.70162 v -0.006 h -0.12694 a 77.240484,73.415953 0 0 0 -0.0109,-5e-4 v 5e-4 h -30.59527 v -5.43841 h -17.16418 v 157.70818 h 17.16419 v -5.43737 h 30.73305 v -0.004 a 77.240484,73.415953 0 0 0 66.75436,-36.70525 77.240484,73.415953 0 0 0 10.3269,-38.44005 z" id="path3804-9" inkscape:connector-curvature="0"/>
    <text xml:space="preserve" style="font-style:normal;font-variant:normal;font-weight:normal;font-stretch:normal;font-size:52.17420197px;line-height:1.25;font-family:Calibri;-inkscape-font-specification:Calibri;font-variant-ligatures:normal;font-variant-caps:normal;font-variant-numeric:normal;font-feature-settings:normal;text-align:start;letter-spacing:0px;word-spacing:0px;writing-mode:lr-tb;text-anchor:start;fill:#000000;fill-opacity:1;stroke:none;stroke-width:1.2228328" x="374.15164" y="230.73033" id="text109"><tspan id="tspan107" sodipodi:role="line" x="374.15164" y="230.73033" style="fill:#000000;stroke-width:1.2228328">+V</tspan></text>
    <text id="text83" y="234.81071" x="517.49835" style="font-style:normal;font-variant:normal;font-weight:normal;font-stretch:normal;font-size:52.17420197px;line-height:1.25;font-family:Calibri;-inkscape-font-specification:Calibri;font-variant-ligatures:normal;font-variant-caps:normal;font-variant-numeric:normal;font-feature-settings:normal;text-align:start;letter-spacing:0px;word-spacing:0px;writing-mode:lr-tb;text-anchor:start;fill:#000000;fill-opacity:1;stroke:none;stroke-width:1.2228328" xml:space="preserve"><tspan style="fill:#000000;stroke-width:1.2228328" y="234.81071" x="517.49835" sodipodi:role="line" id="tspan81">LED</tspan></text>
    <text xml:space="preserve" style="font-style:normal;font-variant:normal;font-weight:normal;font-stretch:normal;font-size:52.17420197px;line-height:1.25;font-family:Calibri;-inkscape-font-specification:Calibri;font-variant-ligatures:normal;font-variant-caps:normal;font-variant-numeric:normal;font-feature-settings:normal;text-align:start;letter-spacing:0px;word-spacing:0px;writing-mode:lr-tb;text-anchor:start;fill:#000000;fill-opacity:1;stroke:none;stroke-width:1.2228328" x="272.13132" y="287.89026" id="text87"><tspan id="tspan85" sodipodi:role="line" x="272.13132" y="287.89026" style="fill:#000000;stroke-width:1.2228328">GND</tspan></text>
    <text id="text140" y="287.89032" x="417.72128" style="font-style:normal;font-variant:normal;font-weight:normal;font-stretch:normal;font-size:52.17420197px;line-height:1.25;font-family:Calibri;-inkscape-font-specification:Calibri;font-variant-ligatures:normal;font-variant-caps:normal;font-variant-numeric:normal;font-feature-settings:normal;text-align:start;letter-spacing:0px;word-spacing:0px;writing-mode:lr-tb;text-anchor:start;fill:#000000;fill-opacity:1;stroke:none;stroke-width:1.2228328" xml:space="preserve"><tspan style="fill:#000000;stroke-width:1.2228328" y="287.89032" x="417.72128" sodipodi:role="line" id="tspan138">Signal</tspan></text>
    <text xml:space="preserve" style="font-style:normal;font-variant:normal;font-weight:normal;font-stretch:normal;font-size:63.5px;line-height:1.25;font-family:Calibri;-inkscape-font-specification:Calibri;font-variant-ligatures:normal;font-variant-caps:normal;font-variant-numeric:normal;font-feature-settings:normal;text-align:start;letter-spacing:0px;word-spacing:0px;writing-mode:lr-tb;text-anchor:start;fill:#ffffff;fill-opacity:1;stroke:none;stroke-width:0.26458332" x="-16.551796" y="265.31656" id="text88" transform="rotate(-90)"><tspan sodipodi:role="line" id="tspan86" x="-16.551796" y="265.31656" style="fill:#ffffff;stroke-width:0.26458332">KY-027</tspan></text>
    <text xml:space="preserve" style="font-style:normal;font-variant:normal;font-weight:normal;font-stretch:normal;font-size:63.5px;line-height:1.25;font-family:Calibri;-inkscape-font-specification:Calibri;font-variant-ligatures:normal;font-variant-caps:normal;font-variant-numeric:normal;font-feature-settings:normal;text-align:start;letter-spacing:0px;word-spacing:0px;writing-mode:lr-tb;text-anchor:start;fill:#ffffff;fill-opacity:1;stroke:none;stroke-width:0.26458332" x="232.20753" y="64.16851" id="text92"><tspan sodipodi:role="line" id="tspan90" x="232.20753" y="64.16851" style="fill:#ffffff;stroke-width:0.26458332">G</tspan></text>
    <text xml:space="preserve" style="font-style:normal;font-variant:normal;font-weight:normal;font-stretch:normal;font-size:63.5px;line-height:1.25;font-family:Calibri;-inkscape-font-specification:Calibri;font-variant-ligatures:normal;font-variant-caps:normal;font-variant-numeric:normal;font-feature-settings:normal;text-align:start;letter-spacing:0px;word-spacing:0px;writing-mode:lr-tb;text-anchor:start;fill:#ffffff;fill-opacity:1;stroke:none;stroke-width:0.26458332" x="385.28223" y="-8.6277857" id="text96"><tspan sodipodi:role="line" id="tspan94" x="385.28223" y="-8.6277857" style="fill:#ffffff;stroke-width:0.26458332">+</tspan></text>
    <text xml:space="preserve" style="font-style:normal;font-variant:normal;font-weight:normal;font-stretch:normal;font-size:63.5px;line-height:1.25;font-family:Calibri;-inkscape-font-specification:Calibri;font-variant-ligatures:normal;font-variant-caps:normal;font-variant-numeric:normal;font-feature-settings:normal;text-align:start;letter-spacing:0px;word-spacing:0px;writing-mode:lr-tb;text-anchor:start;fill:#ffffff;fill-opacity:1;stroke:none;stroke-width:0.26458332" x="465.28934" y="-9.2327194" id="text100"><tspan sodipodi:role="line" id="tspan98" x="465.28934" y="-9.2327194" style="fill:#ffffff;stroke-width:0.26458332">S</tspan></text>
    <text xml:space="preserve" style="font-style:normal;font-variant:normal;font-weight:normal;font-stretch:normal;font-size:63.5px;line-height:1.25;font-family:Calibri;-inkscape-font-specification:Calibri;font-variant-ligatures:normal;font-variant-caps:normal;font-variant-numeric:normal;font-feature-settings:normal;text-align:start;letter-spacing:0px;word-spacing:0px;writing-mode:lr-tb;text-anchor:start;fill:#ffffff;fill-opacity:1;stroke:none;stroke-width:0.26458332" x="609.47406" y="63.520458" id="text104"><tspan sodipodi:role="line" id="tspan102" x="609.47406" y="63.520458" style="fill:#ffffff;stroke-width:0.26458332">L</tspan></text>
    <rect style="opacity:0.98999999;fill:#1a1a1a;fill-opacity:1;stroke:#ffffff;stroke-width:0;stroke-linejoin:round;stroke-miterlimit:4;stroke-dasharray:none;stroke-opacity:1;paint-order:normal" id="rect103" width="170.00002" height="340.15198" x="-324.89935" y="-339.83615" transform="rotate(90,-5.2166664e-7,5.1999997e-7)"/>
  </g>
</svg>
