<?xml version="1.0" encoding="UTF-8" standalone="no"?>
<svg xmlns="http://www.w3.org/2000/svg" xmlns:inkscape="http://www.inkscape.org/namespaces/inkscape" xmlns:sodipodi="http://sodipodi.sourceforge.net/DTD/sodipodi-0.dtd" xmlns:rdf="http://www.w3.org/1999/02/22-rdf-syntax-ns#" xmlns:cc="http://creativecommons.org/ns#" xmlns:dc="http://purl.org/dc/elements/1.1/" version="1.1" width="349" height="1081" viewBox="0 0 349 1081"><svg xmlns:dc="http://purl.org/dc/elements/1.1/" xmlns:cc="http://creativecommons.org/ns#" xmlns:rdf="http://www.w3.org/1999/02/22-rdf-syntax-ns#" xmlns:svg="http://www.w3.org/2000/svg" xmlns:sodipodi="http://sodipodi.sourceforge.net/DTD/sodipodi-0.dtd" xmlns:inkscape="http://www.inkscape.org/namespaces/inkscape" width="349" height="1082" viewBox="0 0 450 1395" version="1.1" id="svg8" inkscape:version="0.92.4 (5da689c313, 2019-01-14)" sodipodi:docname="KY-032.svg" inkscape:export-filename="C:\Users\Entwicklung5.SIMACGMBH\Desktop\SEN-KIT02\Abbildungen Fertig\KY-032\KY-032.png" inkscape:export-xdpi="93" inkscape:export-ydpi="93">
  <defs id="defs2"/>
  <sodipodi:namedview id="base" pagecolor="#323232" bordercolor="#666666" borderopacity="1.0" inkscape:pageopacity="0" inkscape:pageshadow="2" inkscape:zoom="0.15556349" inkscape:cx="-1648.3865" inkscape:cy="3588.0528" inkscape:document-units="mm" inkscape:current-layer="layer1" showgrid="false" inkscape:window-width="1920" inkscape:window-height="1017" inkscape:window-x="-8" inkscape:window-y="-8" inkscape:window-maximized="1"/>
  <metadata id="metadata5">
    <rdf:RDF>
      <cc:Work rdf:about="">
        <dc:format>image/svg+xml</dc:format>
        <dc:type rdf:resource="http://purl.org/dc/dcmitype/StillImage"/>
        <dc:title/>
      </cc:Work>
    </rdf:RDF>
  </metadata>
  <g inkscape:label="Ebene 1" inkscape:groupmode="layer" id="layer1" transform="translate(0,1098)">
    <rect style="opacity:1;fill:#000000;fill-opacity:1;stroke:#b5a642;stroke-width:0;stroke-linejoin:round;stroke-miterlimit:4;stroke-dasharray:none;stroke-opacity:1;paint-order:normal" id="rect10" width="450" height="1200" x="5.5654499e-07" y="-1081.1814"/>
    <rect style="opacity:1;fill:#ffffff;fill-opacity:1;stroke:#000000;stroke-width:0;stroke-miterlimit:4;stroke-dasharray:none;stroke-opacity:1" id="rect821" width="274.99741" height="80.8675" x="-362.4967" y="27.720814" ry="0" transform="matrix(-1,6.4526062e-5,3.1937451e-5,1,0,0)"/>
    <rect style="opacity:1;fill:#1a1a1a;fill-opacity:1;stroke:#000000;stroke-width:0;stroke-miterlimit:4;stroke-dasharray:none;stroke-opacity:1" id="rect825" width="66.792831" height="71.059593" x="-292.83749" y="32.516312" ry="14.875648" transform="matrix(-1,5.2017877e-5,3.961711e-5,1,0,0)"/>
    <rect y="32.516312" x="-156.42694" height="71.059593" width="66.792831" id="rect872" style="opacity:1;fill:#1a1a1a;fill-opacity:1;stroke:#000000;stroke-width:0;stroke-miterlimit:4;stroke-dasharray:none;stroke-opacity:1" ry="14.875648" transform="matrix(-1,5.2017877e-5,3.961711e-5,1,0,0)"/>
    <rect y="32.516312" x="-224.63278" height="71.059593" width="66.792831" id="rect874" style="opacity:1;fill:#1a1a1a;fill-opacity:1;stroke:#000000;stroke-width:0;stroke-miterlimit:4;stroke-dasharray:none;stroke-opacity:1" ry="12.959846" transform="matrix(-1,5.2017877e-5,3.961711e-5,1,0,0)"/>
    <rect style="opacity:0.98999999;fill:#808080;fill-opacity:1;stroke:#ffffff;stroke-width:0;stroke-linejoin:round;stroke-miterlimit:4;stroke-dasharray:none;stroke-opacity:1;paint-order:normal" id="rect947" width="7.4159064" height="145.32805" x="-263.27515" y="68.496841" transform="matrix(-1,5.2001517e-5,3.9629574e-5,1,0,0)"/>
    <rect y="68.496841" x="-194.65402" height="145.32805" width="7.4159064" id="rect949" style="opacity:0.98999999;fill:#808080;fill-opacity:1;stroke:#ffffff;stroke-width:0;stroke-linejoin:round;stroke-miterlimit:4;stroke-dasharray:none;stroke-opacity:1;paint-order:normal" transform="matrix(-1,5.2001517e-5,3.9629574e-5,1,0,0)"/>
    <rect style="opacity:0.98999999;fill:#808080;fill-opacity:1;stroke:#ffffff;stroke-width:0;stroke-linejoin:round;stroke-miterlimit:4;stroke-dasharray:none;stroke-opacity:1;paint-order:normal" id="rect951" width="7.4159064" height="145.32805" x="-126.82169" y="68.496841" transform="matrix(-1,5.2001517e-5,3.9629574e-5,1,0,0)"/>
    <rect ry="12.959846" style="opacity:1;fill:#1a1a1a;fill-opacity:1;stroke:#000000;stroke-width:0;stroke-miterlimit:4;stroke-dasharray:none;stroke-opacity:1" id="rect97" width="66.792831" height="71.059593" x="-360.63263" y="32.516388" transform="matrix(-1,5.2017877e-5,3.961711e-5,1,0,0)"/>
    <rect style="opacity:0.98999999;fill:#808080;fill-opacity:1;stroke:#ffffff;stroke-width:0;stroke-linejoin:round;stroke-miterlimit:4;stroke-dasharray:none;stroke-opacity:1;paint-order:normal" id="rect101" width="7.4159064" height="145.32805" x="-330.69678" y="68.496841" transform="matrix(-1,5.2001517e-5,3.9629574e-5,1,0,0)"/>
    <path style="opacity:1;fill:#ffffff;fill-opacity:1;stroke:#b5a642;stroke-width:0;stroke-linejoin:round;stroke-miterlimit:4;stroke-dasharray:none;stroke-opacity:1;paint-order:normal" d="M 10.201336,-246.18137 V -47.034623 L 10,-46.811475 l 0.201336,0.1596 v 0.374469 h 0.472881 l 24.502017,19.404456 v 0.05683 h 0.07176 l 0.12803,0.101234 0.09138,-0.101234 H 184.05146 l 0.57253,0.634803 L 210,-46.277405 V -246.18137 Z" id="rect78" inkscape:connector-curvature="0"/>
    <path inkscape:connector-curvature="0" id="path2575" d="M 240.20134,-246.18137 V -47.034623 L 240,-46.811475 l 0.20134,0.1596 v 0.374469 h 0.47288 l 24.50202,19.404456 v 0.05683 h 0.0717 l 0.12802,0.101234 0.0914,-0.101234 h 148.5841 l 0.57253,0.634803 L 440,-46.277405 V -246.18137 Z" style="opacity:1;fill:#ffffff;fill-opacity:1;stroke:#b5a642;stroke-width:0;stroke-linejoin:round;stroke-miterlimit:4;stroke-dasharray:none;stroke-opacity:1;paint-order:normal"/>
    <path inkscape:connector-curvature="0" id="path2577" d="M 15.19127,-241.18137 V -51.086738 L 15,-50.873735 l 0.19127,0.152354 v 0.35744 h 0.449232 l 23.276902,18.522436 v 0.05424 h 0.06824 l 0.12166,0.09663 0.08681,-0.09663 H 180.34891 l 0.54391,0.605948 L 205,-50.363943 V -241.18136 Z" style="opacity:1;fill:#000000;fill-opacity:1;stroke:#b5a642;stroke-width:0;stroke-linejoin:round;stroke-miterlimit:4;stroke-dasharray:none;stroke-opacity:1;paint-order:normal"/>
    <path style="opacity:1;fill:#000000;fill-opacity:1;stroke:#b5a642;stroke-width:0;stroke-linejoin:round;stroke-miterlimit:4;stroke-dasharray:none;stroke-opacity:1;paint-order:normal" d="M 245.19127,-241.18137 V -51.086738 L 245,-50.873735 l 0.19127,0.152354 v 0.35744 h 0.44923 l 23.2769,18.522436 v 0.05424 h 0.0682 l 0.12166,0.09663 0.0868,-0.09663 h 141.1548 l 0.54396,0.605948 L 435,-50.363943 V -241.18136 Z" id="path2579" inkscape:connector-curvature="0"/>
    <path style="opacity:1;fill:#0000ff;fill-opacity:1;stroke:#b5a642;stroke-width:0;stroke-linejoin:round;stroke-miterlimit:4;stroke-dasharray:none;stroke-opacity:1;paint-order:normal" d="M 17.686237,-238.68137 V -53.1128 L 17.5,-52.904868 l 0.186237,0.148726 v 0.34893 h 0.43741 l 22.664352,18.081426 v 0.05295 h 0.06644 l 0.118458,0.09433 0.08453,-0.09433 H 178.49762 l 0.5296,0.591519 L 202.5,-52.407214 V -238.68136 Z" id="path2581" inkscape:connector-curvature="0"/>
    <path inkscape:connector-curvature="0" id="path2583" d="M 247.68624,-238.68137 V -53.1128 l -0.18624,0.207932 0.18624,0.148726 v 0.34893 h 0.43741 l 22.66435,18.081426 v 0.05295 h 0.0664 l 0.11846,0.09433 0.0845,-0.09433 h 137.44026 l 0.5296,0.591519 L 432.5,-52.407214 V -238.68136 Z" style="opacity:1;fill:#0000ff;fill-opacity:1;stroke:#b5a642;stroke-width:0;stroke-linejoin:round;stroke-miterlimit:4;stroke-dasharray:none;stroke-opacity:1;paint-order:normal"/>
    <path style="opacity:1;fill:#ffffff;fill-opacity:1;stroke:#b5a642;stroke-width:0;stroke-linejoin:round;stroke-miterlimit:4;stroke-dasharray:none;stroke-opacity:1;paint-order:normal" id="path2585" sodipodi:type="arc" sodipodi:cx="110.0013" sodipodi:cy="-131.18253" sodipodi:rx="89.998688" sodipodi:ry="89.998688" sodipodi:start="0" sodipodi:end="4.712389" d="M 199.99998,-131.18253 A 89.998688,89.998688 0 0 1 144.4423,-48.03458 89.998688,89.998688 0 0 1 46.362614,-67.543844 89.998688,89.998688 0 0 1 26.853352,-165.62353 89.998688,89.998688 0 0 1 110.0013,-221.18121" sodipodi:open="true"/>
    <path sodipodi:open="true" d="m 430,131.17995 a 89.998688,89.998688 0 0 1 -55.55768,83.14794 89.998688,89.998688 0 0 1 -98.07969,-19.50926 89.998688,89.998688 0 0 1 -19.50926,-98.079691 89.998688,89.998688 0 0 1 83.14794,-55.55768" sodipodi:end="4.712389" sodipodi:start="0" sodipodi:ry="89.998688" sodipodi:rx="89.998688" sodipodi:cy="131.17995" sodipodi:cx="340.00131" sodipodi:type="arc" id="path2587" style="opacity:1;fill:#ffffff;fill-opacity:1;stroke:#b5a642;stroke-width:0;stroke-linejoin:round;stroke-miterlimit:4;stroke-dasharray:none;stroke-opacity:1;paint-order:normal" transform="scale(1,-1)"/>
    <rect style="opacity:1;fill:#cccccc;fill-opacity:1;stroke:#b5a642;stroke-width:0;stroke-linejoin:round;stroke-miterlimit:4;stroke-dasharray:none;stroke-opacity:1;paint-order:normal" id="rect2589" width="180" height="19.999998" x="-105.46962" y="-179.53656" transform="rotate(45)"/>
    <rect transform="matrix(0.70710678,-0.70710678,-0.70710678,-0.70710678,0,0)" y="-156.10693" x="243.2392" height="19.999998" width="180" id="rect2591" style="opacity:1;fill:#cccccc;fill-opacity:1;stroke:#b5a642;stroke-width:0;stroke-linejoin:round;stroke-miterlimit:4;stroke-dasharray:none;stroke-opacity:1;paint-order:normal"/>
    <rect style="opacity:1;fill:#ffffff;fill-opacity:1;stroke:#b5a642;stroke-width:0;stroke-linejoin:round;stroke-miterlimit:4;stroke-dasharray:none;stroke-opacity:1;paint-order:normal" id="rect2593" width="180" height="130" x="60" y="-436.18143"/>
    <rect y="-431.18143" x="65" height="120" width="170" id="rect2595" style="opacity:1;fill:#1a1a1a;fill-opacity:1;stroke:#b5a642;stroke-width:0;stroke-linejoin:round;stroke-miterlimit:4;stroke-dasharray:none;stroke-opacity:1;paint-order:normal"/>
    <rect style="opacity:1;fill:#b3b3b3;fill-opacity:1;stroke:#b5a642;stroke-width:0;stroke-linejoin:round;stroke-miterlimit:4;stroke-dasharray:none;stroke-opacity:1;paint-order:normal" id="rect2597" width="19.999998" height="30" x="70" y="-311.71057"/>
    <rect y="-311.71057" x="120" height="30" width="19.999998" id="rect2599" style="opacity:1;fill:#b3b3b3;fill-opacity:1;stroke:#b5a642;stroke-width:0;stroke-linejoin:round;stroke-miterlimit:4;stroke-dasharray:none;stroke-opacity:1;paint-order:normal"/>
    <rect style="opacity:1;fill:#b3b3b3;fill-opacity:1;stroke:#b5a642;stroke-width:0;stroke-linejoin:round;stroke-miterlimit:4;stroke-dasharray:none;stroke-opacity:1;paint-order:normal" id="rect2601" width="19.999998" height="30" x="160" y="-311.71057"/>
    <rect y="-311.71057" x="210" height="30" width="19.999998" id="rect2603" style="opacity:1;fill:#b3b3b3;fill-opacity:1;stroke:#b5a642;stroke-width:0;stroke-linejoin:round;stroke-miterlimit:4;stroke-dasharray:none;stroke-opacity:1;paint-order:normal"/>
    <rect y="-460.91153" x="70" height="30" width="19.999998" id="rect2605" style="opacity:1;fill:#b3b3b3;fill-opacity:1;stroke:#b5a642;stroke-width:0;stroke-linejoin:round;stroke-miterlimit:4;stroke-dasharray:none;stroke-opacity:1;paint-order:normal"/>
    <rect style="opacity:1;fill:#b3b3b3;fill-opacity:1;stroke:#b5a642;stroke-width:0;stroke-linejoin:round;stroke-miterlimit:4;stroke-dasharray:none;stroke-opacity:1;paint-order:normal" id="rect2607" width="19.999998" height="30" x="120" y="-460.91153"/>
    <rect y="-460.91153" x="160" height="30" width="19.999998" id="rect2609" style="opacity:1;fill:#b3b3b3;fill-opacity:1;stroke:#b5a642;stroke-width:0;stroke-linejoin:round;stroke-miterlimit:4;stroke-dasharray:none;stroke-opacity:1;paint-order:normal"/>
    <rect style="opacity:1;fill:#b3b3b3;fill-opacity:1;stroke:#b5a642;stroke-width:0;stroke-linejoin:round;stroke-miterlimit:4;stroke-dasharray:none;stroke-opacity:1;paint-order:normal" id="rect2611" width="19.999998" height="30" x="210" y="-460.91153"/>
    <circle style="opacity:1;fill:#cccccc;fill-opacity:1;stroke:#b5a642;stroke-width:0;stroke-linejoin:round;stroke-miterlimit:4;stroke-dasharray:none;stroke-opacity:1;paint-order:normal" id="path2621" cx="225" cy="-626.1814" r="100"/>
    <circle cy="-626.1814" cx="225" id="circle2623" style="opacity:1;fill:#ffffff;fill-opacity:1;stroke:#b5a642;stroke-width:0;stroke-linejoin:round;stroke-miterlimit:4;stroke-dasharray:none;stroke-opacity:1;paint-order:normal" r="90"/>
    <rect ry="0" y="-846.1814" x="250" height="60" width="170" id="rect837" style="opacity:1;fill:#ffffff;fill-opacity:1;stroke:#000000;stroke-width:0;stroke-miterlimit:4;stroke-dasharray:none;stroke-opacity:1"/>
    <rect style="opacity:0.98999999;fill:#000000;fill-opacity:1;stroke:#ffffff;stroke-width:0;stroke-linejoin:round;stroke-miterlimit:4;stroke-dasharray:none;stroke-opacity:1;paint-order:normal" id="rect892-72" width="165.75" height="55.466537" x="252.125" y="-843.64795"/>
    <rect ry="27.733265" style="opacity:1;fill:#cccccc;fill-opacity:1;stroke:#000000;stroke-width:0;stroke-miterlimit:4;stroke-dasharray:none;stroke-opacity:1" id="rect939" width="79.756058" height="55.46653" x="337.70566" y="-844.1814"/>
    <rect y="-844.1814" x="252.1626" height="55.46653" width="79.756058" id="rect941" style="opacity:1;fill:#cccccc;fill-opacity:1;stroke:#000000;stroke-width:0;stroke-miterlimit:4;stroke-dasharray:none;stroke-opacity:1" ry="27.733265"/>
    <rect ry="0" y="-996.18146" x="-250" height="60" width="220" id="rect837-8" style="opacity:1;fill:#ffffff;fill-opacity:1;stroke:#000000;stroke-width:0;stroke-miterlimit:4;stroke-dasharray:none;stroke-opacity:1" transform="scale(-1,1)"/>
    <rect style="opacity:0.98999999;fill:#000000;fill-opacity:1;stroke:#ffffff;stroke-width:0;stroke-linejoin:round;stroke-miterlimit:4;stroke-dasharray:none;stroke-opacity:1;paint-order:normal" id="rect892-72-4" width="215.35098" height="55.389126" x="-247.71266" y="-993.66711" transform="scale(-1,1)"/>
    <rect ry="27.694561" style="opacity:1;fill:#cccccc;fill-opacity:1;stroke:#000000;stroke-width:0;stroke-miterlimit:4;stroke-dasharray:none;stroke-opacity:1" id="rect939-4" width="64.245712" height="55.389122" x="-178.77573" y="-994.19983" transform="scale(-1,1)"/>
    <rect y="-994.19983" x="-248.04625" height="55.389122" width="64.245712" id="rect941-4" style="opacity:1;fill:#cccccc;fill-opacity:1;stroke:#000000;stroke-width:0;stroke-miterlimit:4;stroke-dasharray:none;stroke-opacity:1" ry="27.694561" transform="scale(-1,1)"/>
    <rect style="opacity:1;fill:#cccccc;fill-opacity:1;stroke:#000000;stroke-width:0;stroke-miterlimit:4;stroke-dasharray:none;stroke-opacity:1" id="rect945" width="70.91703" height="51.202652" x="-104.10378" y="-991.72827" ry="0" transform="scale(-1,1)"/>
    <rect style="opacity:1;fill:#1a1a1a;fill-opacity:1;stroke:#b5a642;stroke-width:0;stroke-linejoin:round;stroke-miterlimit:4;stroke-dasharray:none;stroke-opacity:1;paint-order:normal" id="rect2661" width="140" height="170.17712" x="265.23743" y="-1036.3784"/>
    <path style="opacity:1;fill:#e6e6e6;fill-opacity:1;stroke:#b5a642;stroke-width:0;stroke-linejoin:round;stroke-miterlimit:4;stroke-dasharray:none;stroke-opacity:1;paint-order:normal" id="path2663" sodipodi:type="arc" sodipodi:cx="335.23743" sodipodi:cy="1036.4967" sodipodi:rx="70" sodipodi:ry="29.999998" sodipodi:start="0" sodipodi:end="3.1415927" d="m 405.23743,1036.4967 a 70,29.999998 0 0 1 -35,25.9808 70,29.999998 0 0 1 -70.00001,0 70,29.999998 0 0 1 -34.99999,-25.9808" sodipodi:open="true" transform="scale(1,-1)"/>
    <rect transform="matrix(-1,6.6390642e-6,3.1040486e-4,0.99999995,0,0)" y="-312.65903" x="-83.71904" height="19.999947" width="7.9937906" id="rect2667" style="opacity:0.98999999;fill:#808080;fill-opacity:1;stroke:#ffffff;stroke-width:0;stroke-linejoin:round;stroke-miterlimit:4;stroke-dasharray:none;stroke-opacity:1;paint-order:normal"/>
    <rect style="opacity:0.98999999;fill:#808080;fill-opacity:1;stroke:#ffffff;stroke-width:0;stroke-linejoin:round;stroke-miterlimit:4;stroke-dasharray:none;stroke-opacity:1;paint-order:normal" id="rect2669" width="7.9937906" height="19.999947" x="-134.10541" y="-312.65869" transform="matrix(-1,6.6390642e-6,3.1040486e-4,0.99999995,0,0)"/>
    <rect style="opacity:0.98999999;fill:#808080;fill-opacity:1;stroke:#ffffff;stroke-width:0;stroke-linejoin:round;stroke-miterlimit:4;stroke-dasharray:none;stroke-opacity:1;paint-order:normal" id="rect2671" width="7.9937906" height="19.999947" x="-173.75545" y="-312.65842" transform="matrix(-1,6.6390642e-6,3.1040486e-4,0.99999995,0,0)"/>
    <rect transform="matrix(-1,6.6390642e-6,3.1040486e-4,0.99999995,0,0)" y="-312.65808" x="-224.14183" height="19.999947" width="7.9937906" id="rect2673" style="opacity:0.98999999;fill:#808080;fill-opacity:1;stroke:#ffffff;stroke-width:0;stroke-linejoin:round;stroke-miterlimit:4;stroke-dasharray:none;stroke-opacity:1;paint-order:normal"/>
    <rect style="opacity:0.98999999;fill:#808080;fill-opacity:1;stroke:#ffffff;stroke-width:0;stroke-linejoin:round;stroke-miterlimit:4;stroke-dasharray:none;stroke-opacity:1;paint-order:normal" id="rect2675" width="7.9937906" height="19.999947" x="-83.761536" y="-449.57391" transform="matrix(-1,6.6390642e-6,3.1040486e-4,0.99999995,0,0)"/>
    <rect transform="matrix(-1,6.6390642e-6,3.1040486e-4,0.99999995,0,0)" y="-449.57358" x="-134.1479" height="19.999947" width="7.9937906" id="rect2677" style="opacity:0.98999999;fill:#808080;fill-opacity:1;stroke:#ffffff;stroke-width:0;stroke-linejoin:round;stroke-miterlimit:4;stroke-dasharray:none;stroke-opacity:1;paint-order:normal"/>
    <rect transform="matrix(-1,6.6390642e-6,3.1040486e-4,0.99999995,0,0)" y="-449.5733" x="-173.79794" height="19.999947" width="7.9937906" id="rect2679" style="opacity:0.98999999;fill:#808080;fill-opacity:1;stroke:#ffffff;stroke-width:0;stroke-linejoin:round;stroke-miterlimit:4;stroke-dasharray:none;stroke-opacity:1;paint-order:normal"/>
    <rect style="opacity:0.98999999;fill:#808080;fill-opacity:1;stroke:#ffffff;stroke-width:0;stroke-linejoin:round;stroke-miterlimit:4;stroke-dasharray:none;stroke-opacity:1;paint-order:normal" id="rect2681" width="7.9937906" height="19.999947" x="-224.18433" y="-449.57297" transform="matrix(-1,6.6390642e-6,3.1040486e-4,0.99999995,0,0)"/>
    <rect style="opacity:0.98999999;fill:#808080;fill-opacity:1;stroke:#ffffff;stroke-width:0;stroke-linejoin:round;stroke-miterlimit:4;stroke-dasharray:none;stroke-opacity:1;paint-order:normal" id="rect2683" width="7.9937901" height="34.999908" x="-296.14465" y="-850.67798" transform="matrix(-1,1.1618364e-5,1.7737419e-4,0.99999998,0,0)"/>
    <rect transform="matrix(-1,1.1618363e-5,1.773742e-4,0.99999998,0,0)" y="-850.677" x="-381.14465" height="34.999908" width="7.9937901" id="rect2685" style="opacity:0.98999999;fill:#808080;fill-opacity:1;stroke:#ffffff;stroke-width:0;stroke-linejoin:round;stroke-miterlimit:4;stroke-dasharray:none;stroke-opacity:1;paint-order:normal"/>
    <rect style="opacity:1;fill:#e6e6e6;fill-opacity:1;stroke:#b5a642;stroke-width:0;stroke-linejoin:round;stroke-miterlimit:4;stroke-dasharray:none;stroke-opacity:1;paint-order:normal" id="rect2659" width="160" height="18.432407" x="255.23746" y="-866.73053"/>
    <path transform="scale(1,-1)" sodipodi:open="true" d="m 219.58401,1065.3604 a 80,29.999998 0 0 1 -40,25.9807 80,29.999998 0 0 1 -79.999997,0 80,29.999998 0 0 1 -39.999998,-25.9807" sodipodi:end="3.1415927" sodipodi:start="0" sodipodi:ry="29.999998" sodipodi:rx="80" sodipodi:cy="1065.3604" sodipodi:cx="139.58401" sodipodi:type="arc" id="path2690" style="opacity:1;fill:#1a1a1a;fill-opacity:1;stroke:#b5a642;stroke-width:0;stroke-linejoin:round;stroke-miterlimit:4;stroke-dasharray:none;stroke-opacity:1;paint-order:normal"/>
    <rect transform="matrix(-1,4.9792983e-6,4.1387313e-4,0.99999991,0,0)" y="-971.18079" x="-151.93344" height="14.999961" width="7.9937906" id="rect2692" style="opacity:0.98999999;fill:#808080;fill-opacity:1;stroke:#ffffff;stroke-width:0;stroke-linejoin:round;stroke-miterlimit:4;stroke-dasharray:none;stroke-opacity:1;paint-order:normal"/>
    <rect style="opacity:0.98999999;fill:#808080;fill-opacity:1;stroke:#ffffff;stroke-width:0;stroke-linejoin:round;stroke-miterlimit:4;stroke-dasharray:none;stroke-opacity:1;paint-order:normal" id="rect2694" width="7.9937901" height="14.99996" x="-220.98839" y="-971.18042" transform="matrix(-1,4.9792981e-6,4.1387358e-4,0.99999991,0,0)"/>
    <rect style="opacity:0.98999999;fill:#808080;fill-opacity:1;stroke:#ffffff;stroke-width:0;stroke-linejoin:round;stroke-miterlimit:4;stroke-dasharray:none;stroke-opacity:1;paint-order:normal" id="rect2696" width="7.9937906" height="14.999961" x="-73.05867" y="-971.18115" transform="matrix(-1,4.9792983e-6,4.1387313e-4,0.99999991,0,0)"/>
    <rect style="opacity:1;fill:#333333;fill-opacity:1;stroke:#b5a642;stroke-width:0;stroke-linejoin:round;stroke-miterlimit:4;stroke-dasharray:none;stroke-opacity:1;paint-order:normal" id="rect2688" width="190" height="100" x="45" y="-1065.6694"/>
    <path style="fill:#ffffff;stroke-width:0.16109252" d="m 243.0378,-476.38187 c 2.7857,-0.053 3.0903,-0.0873 3.6099,-0.40637 0.3121,-0.19165 0.7134,-0.58751 0.8918,-0.87968 0.3065,-0.50219 0.3268,-0.86111 0.372,-6.56709 l 0.048,-6.03587 5.9513,0.0339 5.9513,0.0339 v 7.52247 c 0,8.29381 -0.065,9.07486 -0.9305,11.25297 -1.1341,2.8536 -2.7892,4.17783 -6.2033,4.96324 -0.9163,0.21079 -1.963,0.25628 -5.4317,0.2361 -2.3632,-0.0137 -4.9533,-0.0839 -5.7559,-0.15599 l -1.4593,-0.13098 -0.043,-4.90434 -0.043,-4.90431 3.0424,-0.0579 z m 56.66991,16.8447 c 50.78319,0.0134 63.27559,0.0732 61.16689,0.29299 l -0.3243,0.0338 0.3243,0.13756 c 0.27141,0.11511 0.23171,0.1439 -0.2432,0.17643 -0.3757,0.0257 -0.21119,0.0743 0.4864,0.14367 l 1.05391,0.10481 -1.05391,0.0462 c -0.57959,0.0253 -0.92619,0.0791 -0.77009,0.11939 0.2417,0.0623 0.28369,0.2715 0.28369,1.41128 0,1.33686 5.3e-4,1.33814 0.4459,1.40476 0.3131,0.0469 0.24061,0.0738 -0.2432,0.0907 -0.37899,0.0132 -0.68909,0.096 -0.68909,0.18403 0,0.10642 -20.13231,0.16006 -60.07251,0.16006 H 240 v -2.16072 -2.16071 z m -45.76381,-46.27108 h 5.9992 v 4.8816 4.88162 h -5.9992 -5.9991 v -4.88162 -4.8816 z m 12.0984,18.00594 c 0.4267,-2.74566 1.1858,-5.18604 2.2902,-7.36243 0.4021,-0.79227 0.779,-1.47649 0.8376,-1.5205 0.059,-0.0441 0.3596,-0.47541 0.6688,-0.95865 0.6245,-0.97602 2.0489,-2.73206 2.3772,-2.93059 0.1165,-0.0704 0.2117,-0.19355 0.2117,-0.27368 0,-0.21222 1.5002,-1.56418 2.6724,-2.40822 1.23511,-0.88946 2.2408,-1.38868 4.4617,-2.21492 2.5918,-0.96422 4.1118,-1.19315 7.2152,-1.08666 2.2505,0.0772 2.8091,0.15243 4.2156,0.56763 0.89181,0.26323 1.974,0.62796 2.405,0.8105 0.431,0.18254 0.8606,0.33189 0.9547,0.33189 0.094,0 0.7609,0.34213 1.482,0.76026 2.8737,1.66651 6.79191,6.11485 8.3028,9.42628 2.36701,5.18738 2.6651,10.39725 0.8705,15.20943 -0.7548,2.02403 -1.2997,3.17579 -2.1779,4.60398 -1.0147,1.64997 -1.0967,1.74608 -3.56119,4.17307 -2.82611,2.78313 -4.85381,3.96339 -8.53961,4.97073 -1.8785,0.5134 -5.5699,0.70742 -7.56059,0.39739 -2.58861,-0.40313 -6.03551,-1.8571 -8.16361,-3.44352 -1.0992,-0.81944 -2.577,-2.10985 -2.577,-2.25028 0,-0.0426 -0.3709,-0.45516 -0.8242,-0.91701 -2.1567,-2.19738 -4.3782,-6.49712 -5.1886,-10.04278 -0.3024,-1.32291 -0.5272,-4.84736 -0.3727,-5.84192 z m 11.4734,5.06115 c 0.582,2.26353 1.7349,4.19807 3.51811,5.90326 1.80349,1.72457 4.67399,2.36728 7.14489,1.59976 2.7216,-0.84539 5.4153,-4.02492 6.3052,-7.44249 0.5102,-1.95898 0.4731,-4.81748 -0.087,-6.71625 -0.79549,-2.69647 -2.2144,-4.80451 -4.18489,-6.21721 -0.90251,-0.64705 -1.31849,-0.83239 -2.26999,-1.01152 -2.03852,-0.38377 -4.12372,-0.17482 -5.58142,0.55926 -1.2812,0.64523 -2.9072,2.47064 -3.8404,4.31142 -1.40889,2.77924 -1.77128,6.03121 -1.0045,9.01377 z m 33.7126,-22.99718 c 0.1075,-0.0407 2.8135,-0.0551 6.0133,-0.0319 l 5.8178,0.0421 0.018,5.36176 c 0.017,5.06542 0.038,5.4136 0.3673,6.29939 0.84722,2.27724 3.59732,3.52518 6.00941,2.72693 1.23952,-0.41018 2.076,-1.13039 2.67612,-2.30409 l 0.53177,-1.04034 0.048,-5.56185 0.048,-5.56182 h 6.00439 6.00442 l -0.065,6.28206 c -0.061,5.84609 -0.09,6.37094 -0.4192,7.5625 -0.6701,2.42345 -1.7404,4.54204 -3.12731,6.19075 -0.34649,0.41192 -0.6301,0.81883 -0.6301,0.90424 0,0.2087 -1.5179,1.56608 -2.86431,2.56144 -1.141,0.84347 -2.76389,1.69793 -3.56059,1.87464 -0.25631,0.0568 -1.08611,0.29454 -1.84411,0.5282 -1.277,0.39364 -1.5926,0.42484 -4.2967,0.42484 -2.71639,0 -3.0308,-0.0314 -4.53989,-0.45407 -2.38881,-0.66897 -3.1696,-1.00312 -4.75881,-2.03662 -1.8014,-1.17149 -3.3173,-2.67481 -4.5783,-4.54048 -1.7802,-2.63371 -2.52529,-4.58908 -2.90129,-7.61366 -0.24541,-1.97365 -0.20741,-11.51788 0.046,-11.61393 z m 16.73211,29.53986 h 9.80939 v 5.04165 5.04167 h -9.80939 -9.8094 v -5.04167 -5.04165 z m 16.7814,-37.29234 c 0.089,0 0.16209,-0.2783 0.16209,-0.6184 0,-0.6144 0.01,-0.6192 0.75231,-0.7203 0.4137,-0.056 17.03099,-0.1019 36.92709,-0.102 l 36.17499,-3e-4 -0.049,2.161 -0.049,2.16098 H 381.8767 c -20.23091,0 -36.8989,-0.0438 -37.03991,-0.0972 -0.20569,-0.0778 -0.25649,-0.36319 -0.25649,-1.44047 0,-0.78881 0.067,-1.34331 0.1621,-1.34331 z m 16.53819,24.168 h 12.48471 v 4.96164 4.96165 H 361.28 348.7953 v -4.96165 -4.96164 z m 22.37521,-16.48543 h 5.9991 v 4.8816 4.88162 h -5.9991 -5.9992 v -4.88162 -4.8816 z m 0,14.8849 h 5.9991 v 12.64418 12.64416 h -5.9991 -5.9992 v -12.64416 -12.64418 z m 23.91539,-14.8849 h 12.5658 v 4.8816 4.88162 h -12.5658 -12.5657 v -4.88162 -4.8816 z m -10.47779,15.6173 c 0.078,-0.0477 2.73571,-0.0845 5.90571,-0.0817 l 5.7635,0.005 0.053,5.79413 c 0.074,8.12614 -0.25971,7.68265 5.84931,7.76953 l 3.8508,0.0548 v 5.08601 5.08599 l -1.42971,0.181 c -2.15839,0.27324 -9.02329,0.2324 -10.87929,-0.0647 -3.1909,-0.51085 -5.26241,-1.49434 -6.64782,-3.15623 -1.4378,-1.7248 -2.12069,-3.48261 -2.44038,-6.28127 -0.2014,-1.76273 -0.2232,-14.27174 -0.0249,-14.39259 z m 30.0963,-20.38937 c 0.3026,-1.06226 0.8999,-2.0815 1.55969,-2.6618 2.71741,-2.3902 5.99292,-2.6429 8.68051,-0.6698 1.26089,0.9257 1.57461,1.2852 2.11391,2.42227 0.4092,0.86267 0.455,1.12996 0.45238,2.64039 0,1.51015 -0.05,1.78266 -0.47109,2.68752 -0.91059,1.9586 -3.20709,3.49893 -5.46121,3.66299 -2.10039,0.15286 -3.70348,-0.46488 -5.3594,-2.06516 -1.47738,-1.4277 -2.10828,-3.93353 -1.51479,-6.01641 z m 1.18099,4.13186 c 0.54732,1.29139 2.24391,2.56064 3.99201,2.98648 1.74969,0.42622 3.07779,0.0689 5.07071,-1.36413 0.47739,-0.34327 0.83479,-0.80792 1.2114,-1.57483 0.47519,-0.96791 0.53459,-1.23965 0.5388,-2.46445 0,-1.26208 -0.043,-1.46792 -0.56272,-2.47465 -0.4599,-0.8898 -0.752,-1.22718 -1.5403,-1.77888 -0.53509,-0.3744 -1.33768,-0.804 -1.78358,-0.9546 -2.73651,-0.9245 -6.02559,0.5636 -7.12541,3.2236 -0.4177,1.01024 -0.3197,3.17753 0.19909,4.40146 z m 4.44313,-6.24216 c 1.22039,0 2.40598,0.07 2.63469,0.1562 0.98039,0.36791 1.42319,2.23158 0.73538,3.09479 -0.18108,0.22721 -0.57877,0.5022 -0.88378,0.61108 l -0.5546,0.19796 0.5565,0.6081 c 0.3061,0.33446 0.7837,1.00548 1.0614,1.49119 0.27768,0.4857 0.57089,0.92335 0.65159,0.97256 0.3479,0.21226 0.096,0.39007 -0.5425,0.38233 l -0.68911,-0.009 -0.97279,-1.52548 c -1.04,-1.63082 -1.2926,-1.81889 -2.44261,-1.81889 h -0.71908 v 1.6907 1.69069 l -0.489,-0.0501 -0.48911,-0.0502 -0.038,-3.72133 -0.038,-3.7213 z m 0.27249,3.20115 c 1.20859,0 1.5054,-0.0528 1.8646,-0.33172 0.8908,-0.69174 0.38499,-1.80672 -0.89882,-1.98116 -0.53758,-0.073 -2.06518,-0.0347 -2.36267,0.0593 -0.022,0.007 -0.041,0.51696 -0.041,1.13317 v 1.12037 z" id="path31-1" inkscape:connector-curvature="0"/>
    <text xml:space="preserve" style="font-style:normal;font-variant:normal;font-weight:normal;font-stretch:normal;font-size:52.17420197px;line-height:1.25;font-family:Calibri;-inkscape-font-specification:Calibri;font-variant-ligatures:normal;font-variant-caps:normal;font-variant-numeric:normal;font-feature-settings:normal;text-align:start;letter-spacing:0px;word-spacing:0px;writing-mode:lr-tb;text-anchor:start;fill:#000000;fill-opacity:1;stroke:none;stroke-width:1.2228328" x="56.520767" y="248.6391" id="text109"><tspan id="tspan107" sodipodi:role="line" x="56.520767" y="248.6391" style="fill:#000000;stroke-width:1.2228328">GND</tspan></text>
    <text id="text83" y="250.79907" x="199.57066" style="font-style:normal;font-variant:normal;font-weight:normal;font-stretch:normal;font-size:52.17420197px;line-height:1.25;font-family:Calibri;-inkscape-font-specification:Calibri;font-variant-ligatures:normal;font-variant-caps:normal;font-variant-numeric:normal;font-feature-settings:normal;text-align:start;letter-spacing:0px;word-spacing:0px;writing-mode:lr-tb;text-anchor:start;fill:#000000;fill-opacity:1;stroke:none;stroke-width:1.2228328" xml:space="preserve"><tspan style="fill:#000000;stroke-width:1.2228328" y="250.79907" x="199.57066" sodipodi:role="line" id="tspan81">Signal</tspan></text>
    <text id="text140" y="294.01596" x="163.87488" style="font-style:normal;font-variant:normal;font-weight:normal;font-stretch:normal;font-size:52.17420197px;line-height:1.25;font-family:Calibri;-inkscape-font-specification:Calibri;font-variant-ligatures:normal;font-variant-caps:normal;font-variant-numeric:normal;font-feature-settings:normal;text-align:start;letter-spacing:0px;word-spacing:0px;writing-mode:lr-tb;text-anchor:start;fill:#000000;fill-opacity:1;stroke:none;stroke-width:1.2228328" xml:space="preserve" inkscape:export-xdpi="93" inkscape:export-ydpi="93"><tspan style="fill:#000000;stroke-width:1.2228328" y="294.01596" x="163.87488" sodipodi:role="line" id="tspan138">+V</tspan></text>
    <text inkscape:export-ydpi="93" inkscape:export-xdpi="93" xml:space="preserve" style="font-style:normal;font-variant:normal;font-weight:normal;font-stretch:normal;font-size:52.17420197px;line-height:1.25;font-family:Calibri;-inkscape-font-specification:Calibri;font-variant-ligatures:normal;font-variant-caps:normal;font-variant-numeric:normal;font-feature-settings:normal;text-align:start;letter-spacing:0px;word-spacing:0px;writing-mode:lr-tb;text-anchor:start;fill:#000000;fill-opacity:1;stroke:none;stroke-width:1.2228328" x="253.59239" y="294.01596" id="text119"><tspan id="tspan117" sodipodi:role="line" x="253.59239" y="294.01596" style="fill:#000000;stroke-width:1.2228328">Enable</tspan></text>
    <text xml:space="preserve" style="font-style:normal;font-variant:normal;font-weight:normal;font-stretch:normal;font-size:63.5px;line-height:1.25;font-family:Calibri;-inkscape-font-specification:Calibri;font-variant-ligatures:normal;font-variant-caps:normal;font-variant-numeric:normal;font-feature-settings:normal;text-align:start;letter-spacing:0px;word-spacing:0px;writing-mode:lr-tb;text-anchor:start;fill:#ffffff;fill-opacity:1;stroke:none;stroke-width:0.26458332" x="610.70074" y="50.686775" id="text97" transform="rotate(-90)"><tspan sodipodi:role="line" id="tspan95" x="610.70074" y="50.686775" style="fill:#ffffff;stroke-width:0.26458332">KY-032</tspan></text>
    <text xml:space="preserve" style="font-style:normal;font-variant:normal;font-weight:normal;font-stretch:normal;font-size:44.5123558px;line-height:1.25;font-family:Calibri;-inkscape-font-specification:Calibri;font-variant-ligatures:normal;font-variant-caps:normal;font-variant-numeric:normal;font-feature-settings:normal;text-align:start;letter-spacing:0px;word-spacing:0px;writing-mode:lr-tb;text-anchor:start;fill:#ffffff;fill-opacity:1;stroke:none;stroke-width:0.18546814" x="-110.42323" y="79.624863" id="text101" transform="rotate(-90)"><tspan sodipodi:role="line" id="tspan99" x="-110.42323" y="79.624863" style="fill:#ffffff;stroke-width:0.18546814">GND</tspan></text>
    <text xml:space="preserve" style="font-style:normal;font-variant:normal;font-weight:normal;font-stretch:normal;font-size:63.5px;line-height:1.25;font-family:Calibri;-inkscape-font-specification:Calibri;font-variant-ligatures:normal;font-variant-caps:normal;font-variant-numeric:normal;font-feature-settings:normal;text-align:start;letter-spacing:0px;word-spacing:0px;writing-mode:lr-tb;text-anchor:start;fill:#ffffff;fill-opacity:1;stroke:none;stroke-width:0.26458332" x="175.08429" y="22.860456" id="text105"><tspan sodipodi:role="line" id="tspan103" x="175.08429" y="22.860456" style="fill:#ffffff;stroke-width:0.26458332">+</tspan></text>
    <text xml:space="preserve" style="font-style:normal;font-variant:normal;font-weight:normal;font-stretch:normal;font-size:32.06492996px;line-height:1.25;font-family:Calibri;-inkscape-font-specification:Calibri;font-variant-ligatures:normal;font-variant-caps:normal;font-variant-numeric:normal;font-feature-settings:normal;text-align:start;letter-spacing:0px;word-spacing:0px;writing-mode:lr-tb;text-anchor:start;fill:#ffffff;fill-opacity:1;stroke:none;stroke-width:0.13360386" x="230.15735" y="20.652367" id="text110"><tspan sodipodi:role="line" id="tspan108" x="230.15735" y="20.652367" style="fill:#ffffff;stroke-width:0.13360386">OUT</tspan></text>
    <text xml:space="preserve" style="font-style:normal;font-variant:normal;font-weight:normal;font-stretch:normal;font-size:45.06980515px;line-height:1.25;font-family:Calibri;-inkscape-font-specification:Calibri;font-variant-ligatures:normal;font-variant-caps:normal;font-variant-numeric:normal;font-feature-settings:normal;text-align:start;letter-spacing:0px;word-spacing:0px;writing-mode:lr-tb;text-anchor:start;fill:#ffffff;fill-opacity:1;stroke:none;stroke-width:0.18779083" x="-94.259605" y="396.94189" id="text114" transform="rotate(-90)"><tspan sodipodi:role="line" id="tspan112" x="-94.259605" y="396.94189" style="fill:#ffffff;stroke-width:0.18779083">EN</tspan></text>
  </g>
</svg></svg>
